<svg viewBox="0 0 1193 1074.237" xmlns="http://www.w3.org/2000/svg"><path d="M414 827.237q-8 0-13 5l-182 182q-11 11-24 16t-27 5q-30 0-51-21l-20-20q-24-24-24-56 0-17 6.5-31t17.5-26l149-163q4-4 4-12v-70q0-16-15-18l-174-27q-26-4-43.5-24t-17.5-47v-33q0-32 22-54t54-22h3q84 8 166.5 12t167.5 4q85 0 167.5-4t166.5-12h3q32 0 54 22t22 54v33q0 27-17.5 47t-43.5 24l-174 27q-15 2-15 18v70q0 8 4 12l149 163q11 12 17.5 26t6.5 31q0 32-24 56l-20 20q-21 21-51 21-14 0-27-5t-24-16l-182-182q-5-5-11-5zm0-346q-85 0-169.5-4.5T75 465.237q-9-1-15 6t-6 16v33q0 16 15 18l175 27q26 4 43 24t17 47v70q0 29-18 48l-150 165q-10 10-10 20 0 8 9 17l20 20q5 5 12 5 6 0 13-5l183-183q21-21 51-21t51 21l183 183q5 5 13 5 7 0 12-5l20-20q9-9 9-17 0-10-10-20l-150-165q-18-19-18-48v-70q0-27 17-47t43-24l175-27q15-2 15-18v-33q0-9-6-16t-15-6q-85 7-169.5 11.5t-169.5 4.5zm0-111q-28 0-52.5-10.5t-43-29q-18.5-18.5-29-43t-10.5-52.5q0-28 10.5-52.5t29-43q18.5-18.5 43-29t52.5-10.5q28 0 52.5 10.5t43 29q18.5 18.5 29 43t10.5 52.5q0 28-10.5 52.5t-29 43q-18.5 18.5-43 29t-52.5 10.5zm0-216q-34 0-57.5 23.5t-23.5 57.5q0 33 23.5 57t57.5 24q34 0 57.5-24t23.5-57q0-34-23.5-57.5t-57.5-23.5z"/></svg>