<svg width="1075" height="1075" viewBox="0 0 1075 1075" fill="none" xmlns="http://www.w3.org/2000/svg">
<path d="M539 797C533.667 797 529.333 798.667 526 802L344 984C336.667 991.333 328.667 996.667 320 1000C311.333 1003.33 302.333 1005 293 1005C273 1005 256 998 242 984L222 964C206 948 198 929.333 198 908C198 896.667 200.167 886.333 204.5 877C208.833 867.667 214.667 859 222 851L371 688C373.667 685.333 375 681.333 375 676V606C375 595.333 370 589.333 360 588L186 561C168.667 558.333 154.167 550.333 142.5 537C130.833 523.667 125 508 125 490V457C125 435.667 132.333 417.667 147 403C161.667 388.333 179.667 381 201 381H204C260 386.333 315.5 390.333 370.5 393C425.5 395.667 481.333 397 538 397C594.667 397 650.5 395.667 705.5 393C760.5 390.333 816 386.333 872 381H875C896.333 381 914.333 388.333 929 403C943.667 417.667 951 435.667 951 457V490C951 508 945.167 523.667 933.5 537C921.833 550.333 907.333 558.333 890 561L716 588C706 589.333 701 595.333 701 606V676C701 681.333 702.333 685.333 705 688L854 851C861.333 859 867.167 867.667 871.5 877C875.833 886.333 878 896.667 878 908C878 929.333 870 948 854 964L834 984C820 998 803 1005 783 1005C773.667 1005 764.667 1003.33 756 1000C747.333 996.667 739.333 991.333 732 984L550 802C546.667 798.667 543 797 539 797ZM539 451C482.333 451 425.833 449.5 369.5 446.5C313.167 443.5 256.667 439.667 200 435C194 434.333 189 436.333 185 441C181 445.667 179 451 179 457V490C179 500.667 184 506.667 194 508L369 535C386.333 537.667 400.667 545.667 412 559C423.333 572.333 429 588 429 606V676C429 695.333 423 711.333 411 724L261 889C254.333 895.667 251 902.333 251 909C251 914.333 254 920 260 926L280 946C283.333 949.333 287.333 951 292 951C296 951 300.333 949.333 305 946L488 763C502 749 519 742 539 742C559 742 576 749 590 763L773 946C776.333 949.333 780.667 951 786 951C790.667 951 794.667 949.333 798 946L818 926C824 920 827 914.333 827 909C827 902.333 823.667 895.667 817 889L667 724C655 711.333 649 695.333 649 676V606C649 588 654.667 572.333 666 559C677.333 545.667 691.667 537.667 709 535L884 508C894 506.667 899 500.667 899 490V457C899 451 897 445.667 893 441C889 436.333 884 434.333 878 435C821.333 439.667 764.833 443.5 708.5 446.5C652.167 449.5 595.667 451 539 451ZM539 340C520.333 340 502.833 336.5 486.5 329.5C470.167 322.5 455.833 312.833 443.5 300.5C431.167 288.167 421.5 273.833 414.5 257.5C407.5 241.167 404 223.667 404 205C404 186.333 407.5 168.833 414.5 152.5C421.5 136.167 431.167 121.833 443.5 109.5C455.833 97.1667 470.167 87.5 486.5 80.5C502.833 73.5 520.333 70 539 70C557.667 70 575.167 73.5 591.5 80.5C607.833 87.5 622.167 97.1667 634.5 109.5C646.833 121.833 656.5 136.167 663.5 152.5C670.5 168.833 674 186.333 674 205C674 223.667 670.5 241.167 663.5 257.5C656.5 273.833 646.833 288.167 634.5 300.5C622.167 312.833 607.833 322.5 591.5 329.5C575.167 336.5 557.667 340 539 340ZM539 124C516.333 124 497.167 131.833 481.5 147.5C465.833 163.167 458 182.333 458 205C458 227 465.833 246 481.5 262C497.167 278 516.333 286 539 286C561.667 286 580.833 278 596.5 262C612.167 246 620 227 620 205C620 182.333 612.167 163.167 596.5 147.5C580.833 131.833 561.667 124 539 124Z" fill="black"/>
</svg>
