<svg width="1075" height="1075" viewBox="0 0 1075 1075" fill="none" xmlns="http://www.w3.org/2000/svg">
<path d="M538.062 176C562.062 155.333 588.396 140.167 617.062 130.5C645.729 120.833 675.062 116 705.062 116C738.396 116 770.729 122.333 802.062 135C833.396 147.667 861.729 166.667 887.062 192C912.396 217.333 931.396 246 944.062 278C956.729 310 963.062 343 963.062 377C963.062 406.333 958.062 435.167 948.062 463.5C938.062 491.833 923.062 517.667 903.062 541C923.729 565.667 939.062 592.5 949.062 621.5C959.062 650.5 963.729 680 963.062 710C962.396 742.667 955.729 774.333 943.062 805C930.396 835.667 911.729 863.667 887.062 889C867.729 909 846.562 925.833 823.562 939.5C800.562 953.167 775.062 960 747.062 960C721.729 960 699.062 955.167 679.062 945.5C659.062 935.833 642.396 922.333 629.062 905C619.729 893 613.229 879 609.562 863C605.896 847 605.062 830.667 607.062 814C609.062 797.333 613.729 781 621.062 765C628.396 749 638.062 735 650.062 723L831.062 541L538.062 248L245.062 541L426.062 723C438.062 735 447.729 749 455.062 765C462.396 781 467.062 797.333 469.062 814C471.062 830.667 470.229 847 466.562 863C462.896 879 456.396 893 447.062 905C433.729 922.333 417.062 935.833 397.062 945.5C377.062 955.167 354.396 960 329.062 960C301.062 960 275.562 953.167 252.562 939.5C229.562 925.833 208.396 909 189.062 889C164.396 863.667 145.729 835.667 133.062 805C120.396 774.333 113.729 742.667 113.062 710C112.396 680 117.062 650.5 127.062 621.5C137.062 592.5 152.396 565.667 173.062 541C153.062 517.667 138.062 491.833 128.062 463.5C118.062 435.167 113.062 406.333 113.062 377C113.062 343 119.396 310 132.062 278C144.729 246 163.729 217.333 189.062 192C214.396 166.667 242.729 147.667 274.062 135C305.396 122.333 337.729 116 371.062 116C401.062 116 430.396 120.833 459.062 130.5C487.729 140.167 514.062 155.333 538.062 176ZM405.062 865C413.729 849.667 416.562 832 413.562 812C410.562 792 402.396 775.333 389.062 762L205.062 580C191.062 599.333 180.896 620.833 174.562 644.5C168.229 668.167 166.062 692 168.062 716C170.062 740 176.062 763.5 186.062 786.5C196.062 809.5 210.729 830.333 230.062 849C243.396 862.333 258.562 874.667 275.562 886C292.562 897.333 311.729 903 333.062 903C351.729 903 367.062 899 379.062 891C391.062 883 399.729 874.333 405.062 865ZM498.062 208C478.729 194 457.396 183.833 434.062 177.5C410.729 171.167 387.062 169 363.062 171C339.062 173 315.562 179.167 292.562 189.5C269.562 199.833 248.729 214.333 230.062 233C211.396 251.667 197.062 272.333 187.062 295C177.062 317.667 171.062 341 169.062 365C167.062 389 169.062 412.667 175.062 436C181.062 459.333 191.062 481 205.062 501L498.062 208ZM671.062 865C676.396 874.333 685.062 883 697.062 891C709.062 899 724.396 903 743.062 903C764.396 903 783.562 897.333 800.562 886C817.562 874.667 832.729 862.333 846.062 849C865.396 830.333 880.062 809.5 890.062 786.5C900.062 763.5 906.062 740 908.062 716C910.062 692 907.896 668.167 901.562 644.5C895.229 620.833 885.062 599.333 871.062 580L687.062 762C673.729 775.333 665.562 792 662.562 812C659.562 832 662.396 849.667 671.062 865ZM871.062 501C885.062 481 895.062 459.333 901.062 436C907.062 412.667 909.062 389 907.062 365C905.062 341 899.062 317.667 889.062 295C879.062 272.333 864.729 251.667 846.062 233C827.396 214.333 806.562 199.833 783.562 189.5C760.562 179.167 737.062 173 713.062 171C689.062 169 665.396 171.167 642.062 177.5C618.729 183.833 597.396 194 578.062 208L871.062 501Z" fill="black"/>
</svg>
