<svg width="1075" height="1075" viewBox="0 0 1075 1075" fill="none" xmlns="http://www.w3.org/2000/svg">
<path d="M236 860C217.333 860 201.5 853.833 188.5 841.5C175.5 829.167 169 814.333 169 797C169 782.333 173.333 768.333 182 755L217 708V391C217 348.333 225.5 308.333 242.5 271C259.5 233.667 282.5 201 311.5 173C340.5 145 374.5 122.833 413.5 106.5C452.5 90.1667 494 82 538 82C582 82 623.5 90.1667 662.5 106.5C701.5 122.833 735.5 145 764.5 173C793.5 201 816.5 233.667 833.5 271C850.5 308.333 859 348.333 859 391V708L894 755C902.667 768.333 907 782.333 907 797C907 814.333 900.5 829.167 887.5 841.5C874.5 853.833 858.667 860 840 860H236ZM622 890C640.667 890 650 898 650 914C650 924 647 933.833 641 943.5C635 953.167 626.833 961.667 616.5 969C606.167 976.333 594.167 982.333 580.5 987C566.833 991.667 552.667 994 538 994C523.333 994 509.167 991.667 495.5 987C481.833 982.333 469.833 976.333 459.5 969C449.167 961.667 441 953.167 435 943.5C429 933.833 426 924 426 914C426 898 435.333 890 454 890H622Z" fill="black"/>
</svg>
