<svg width="1075" height="1075" viewBox="0 0 1075 1075" fill="none" xmlns="http://www.w3.org/2000/svg">
<path d="M538 994C498 994 466.333 981.833 443 957.5C419.667 933.167 408 902 408 864V860H236C217.333 860 201.5 853.833 188.5 841.5C175.5 829.167 169 814.333 169 797C169 782.333 173.333 768.333 182 755L217 708V391C217 348.333 225.5 308.333 242.5 271C259.5 233.667 282.5 201 311.5 173C340.5 145 374.5 122.833 413.5 106.5C452.5 90.1667 494 82 538 82C582 82 623.5 90.1667 662.5 106.5C701.5 122.833 735.5 145 764.5 173C793.5 201 816.5 233.667 833.5 271C850.5 308.333 859 348.333 859 391V708L894 755C902.667 768.333 907 782.333 907 797C907 814.333 900.5 829.167 887.5 841.5C874.5 853.833 858.667 860 840 860H668V864C668 902 656.333 933.167 633 957.5C609.667 981.833 578 994 538 994ZM538 137C498.667 137 462.667 144.167 430 158.5C397.333 172.833 369.333 191.833 346 215.5C322.667 239.167 304.5 266.333 291.5 297C278.5 327.667 272 359 272 391V715C272 721.667 269.667 728.333 265 735L227 788C224.333 791.333 223.833 795 225.5 799C227.167 803 230.667 805 236 805H840C845.333 805 848.833 803 850.5 799C852.167 795 851.667 791.333 849 788L811 735C806.333 728.333 804 721.667 804 715V391C804 359 797.5 327.667 784.5 297C771.5 266.333 753.333 239.167 730 215.5C706.667 191.833 678.667 172.833 646 158.5C613.333 144.167 577.333 137 538 137ZM538 939C561.333 939 579.667 932.333 593 919C606.333 905.667 613 887.333 613 864V860H463V864C463 887.333 469.667 905.667 483 919C496.333 932.333 514.667 939 538 939Z" fill="black"/>
</svg>
