<svg viewBox="0 0 1229 1074.237" xmlns="http://www.w3.org/2000/svg"><path d="M72 171.237q-8 0-13 5t-5 13v270q0 8 5 13t13 5h756q8 0 13-5t5-13v-270q0-8-5-13t-13-5H72zm0 360q-30 0-51-21t-21-51v-270q0-30 21-51t51-21h756q30 0 51 21t21 51v270q0 30-21 51t-51 21H72zm0 126q-8 0-13 5t-5 13v270q0 8 5 13t13 5h342q8 0 13-5t5-13v-270q0-8-5-13t-13-5H72zm0 360q-30 0-51-21t-21-51v-270q0-30 21-51t51-21h342q30 0 51 21t21 51v270q0 30-21 51t-51 21H72zm558-360q-8 0-13 5t-5 13v270q0 8 5 13t13 5h198q8 0 13-5t5-13v-270q0-8-5-13t-13-5H630zm0 360q-30 0-51-21t-21-51v-270q0-30 21-51t51-21h198q30 0 51 21t21 51v270q0 30-21 51t-51 21H630zm-495-234q-11 0-19-8t-8-19q0-11 8-19t19-8h216q11 0 19 8t8 19q0 11-8 19t-19 8H135zm0 108q-11 0-19-8t-8-19q0-11 8-19t19-8h216q11 0 19 8t8 19q0 11-8 19t-19 8H135zm257-479q-5 3-9.5.5t-4.5-7.5v-162q0-5 4.5-7.5t9.5.5l126 80q4 3 4 8t-4 8l-126 80z"/></svg>