<svg width="1075" height="1075" viewBox="0 0 1075 1075" fill="none" xmlns="http://www.w3.org/2000/svg">
<path d="M160 142C154.667 142 150.333 143.667 147 147C143.667 150.333 142 154.667 142 160V430C142 435.333 143.667 439.667 147 443C150.333 446.333 154.667 448 160 448H916C921.333 448 925.667 446.333 929 443C932.333 439.667 934 435.333 934 430V160C934 154.667 932.333 150.333 929 147C925.667 143.667 921.333 142 916 142H160ZM160 502C140 502 123 495 109 481C95 467 88 450 88 430V160C88 140 95 123 109 109C123 95 140 88 160 88H916C936 88 953 95 967 109C981 123 988 140 988 160V430C988 450 981 467 967 481C953 495 936 502 916 502H160ZM160 628C154.667 628 150.333 629.667 147 633C143.667 636.333 142 640.667 142 646V916C142 921.333 143.667 925.667 147 929C150.333 932.333 154.667 934 160 934H502C507.333 934 511.667 932.333 515 929C518.333 925.667 520 921.333 520 916V646C520 640.667 518.333 636.333 515 633C511.667 629.667 507.333 628 502 628H160ZM160 988C140 988 123 981 109 967C95 953 88 936 88 916V646C88 626 95 609 109 595C123 581 140 574 160 574H502C522 574 539 581 553 595C567 609 574 626 574 646V916C574 936 567 953 553 967C539 981 522 988 502 988H160ZM718 628C712.667 628 708.333 629.667 705 633C701.667 636.333 700 640.667 700 646V916C700 921.333 701.667 925.667 705 929C708.333 932.333 712.667 934 718 934H916C921.333 934 925.667 932.333 929 929C932.333 925.667 934 921.333 934 916V646C934 640.667 932.333 636.333 929 633C925.667 629.667 921.333 628 916 628H718ZM718 988C698 988 681 981 667 967C653 953 646 936 646 916V646C646 626 653 609 667 595C681 581 698 574 718 574H916C936 574 953 581 967 595C981 609 988 626 988 646V916C988 936 981 953 967 967C953 981 936 988 916 988H718ZM223 754C215.667 754 209.333 751.333 204 746C198.667 740.667 196 734.333 196 727C196 719.667 198.667 713.333 204 708C209.333 702.667 215.667 700 223 700H439C446.333 700 452.667 702.667 458 708C463.333 713.333 466 719.667 466 727C466 734.333 463.333 740.667 458 746C452.667 751.333 446.333 754 439 754H223ZM223 862C215.667 862 209.333 859.333 204 854C198.667 848.667 196 842.333 196 835C196 827.667 198.667 821.333 204 816C209.333 810.667 215.667 808 223 808H439C446.333 808 452.667 810.667 458 816C463.333 821.333 466 827.667 466 835C466 842.333 463.333 848.667 458 854C452.667 859.333 446.333 862 439 862H223ZM480 383C476.667 385 473.5 385.167 470.5 383.5C467.5 381.833 466 379.333 466 376V214C466 210.667 467.5 208.167 470.5 206.5C473.5 204.833 476.667 205 480 207L606 287C608.667 289 610 291.667 610 295C610 298.333 608.667 301 606 303L480 383Z" fill="black"/>
</svg>
