<svg width="1075" height="1075" viewBox="0 0 1075 1075" fill="none" xmlns="http://www.w3.org/2000/svg">
<path d="M636 436L669 402L804 538L669 673L636 640L715 561H361L440 640L406 673L272 538L406 402L440 436L361 514H715L636 436ZM893 165C917 165 937.833 173.5 955.5 190.5C973.167 207.5 982 228.333 982 253V823C982 847 973.5 867.667 956.5 885C939.5 902.333 918.333 911 893 911H182C158 911 137.333 902.333 120 885C102.667 867.667 94 847 94 823V253C94 229 102.5 208.333 119.5 191C136.5 173.667 157.333 165 182 165H893ZM936 823V253C936 241.667 931.833 232 923.5 224C915.167 216 905 212 893 212H182C170.667 212 160.833 216 152.5 224C144.167 232 140 241.667 140 253V823C140 830.333 141.833 837.167 145.5 843.5C149.167 849.833 154.333 854.833 161 858.5C167.667 862.167 174.667 864 182 864H893C904.333 864 914.333 860 923 852C931.667 844 936 834.333 936 823Z" fill="black"/>
</svg>
