<svg viewBox="0 0 1247 1074.237" xmlns="http://www.w3.org/2000/svg"><path d="M647 791.237q-12 0-19-7.5t-7-19.5q0-12 7-19 36-35 55-81t19-97q0-51-19-96.5t-55-81.5q-7-8-7-19t7.5-19q7.5-8 18.5-8 12 0 19 8 44 44 67 99t23 117q0 62-23 117.5t-67 99.5q-7 7-19 7zm-359 0q-11 0-19-8-43-44-66-99.5t-23-116.5q0-62 23-117t67-99q7-8 19-8 11 0 19 8t8 19q0 9-8 19-36 36-55 81.5t-19 96.5q0 51 19 96.5t54 81.5q8 7 8 19 0 11-8 19t-19 8zm492 115q-11 0-19-8t-8-19q0-11 8-19 59-59 90-134t31-159q0-83-31-158t-90-135q-8-8-8-19t8-19q8-8 19-8t19 8q66 67 101.5 152t35.5 179q0 94-35.5 179.5T799 898.237q-8 8-19 8zm-624 0q-11 0-19-8-66-66-101.5-151.5T0 567.237q0-94 35.5-179t101.5-152q8-8 19-8t19 8q8 8 8 19t-8 19q-59 60-90 135t-31 158q0 84 31 159t90 134q8 8 8 19t-8 19q-8 8-19 8zm312-213q-26 0-49-10t-40-27q-17-17-27-40t-10-49q0-26 10-49t27-40q17-17 40-27t49-10q26 0 49 10t40 27q17 17 27 40t10 49q0 26-10 49t-27 40q-17 17-40 27t-49 10zm0-198q-30 0-51 21t-21 51q0 30 21 51t51 21q30 0 51-21t21-51q0-30-21-51t-51-21z"/></svg>