<svg width="1075" height="1075" viewBox="0 0 1075 1075" fill="none" xmlns="http://www.w3.org/2000/svg">
<path d="M717 762C709 762 702.667 759.5 698 754.5C693.333 749.5 691 743 691 735C691 727 693.333 720.667 698 716C722 692.667 740.333 665.667 753 635C765.667 604.333 772 572 772 538C772 504 765.667 471.833 753 441.5C740.333 411.167 722 384 698 360C693.333 354.667 691 348.333 691 341C691 333.667 693.5 327.333 698.5 322C703.5 316.667 709.667 314 717 314C725 314 731.333 316.667 736 322C765.333 351.333 787.667 384.333 803 421C818.333 457.667 826 496.667 826 538C826 579.333 818.333 618.5 803 655.5C787.667 692.5 765.333 725.667 736 755C731.333 759.667 725 762 717 762ZM358 762C350.667 762 344.333 759.333 339 754C310.333 724.667 288.333 691.5 273 654.5C257.667 617.5 250 578.667 250 538C250 496.667 257.667 457.667 273 421C288.333 384.333 310.667 351.333 340 322C344.667 316.667 351 314 359 314C366.333 314 372.667 316.667 378 322C383.333 327.333 386 333.667 386 341C386 347 383.333 353.333 378 360C354 384 335.667 411.167 323 441.5C310.333 471.833 304 504 304 538C304 572 310.333 604.167 323 634.5C335.667 664.833 353.667 692 377 716C382.333 720.667 385 727 385 735C385 742.333 382.333 748.667 377 754C371.667 759.333 365.333 762 358 762ZM850 877C842.667 877 836.333 874.333 831 869C825.667 863.667 823 857.333 823 850C823 842.667 825.667 836.333 831 831C870.333 791.667 900.333 747 921 697C941.667 647 952 594 952 538C952 482.667 941.667 430 921 380C900.333 330 870.333 285 831 245C825.667 239.667 823 233.333 823 226C823 218.667 825.667 212.333 831 207C836.333 201.667 842.667 199 850 199C857.333 199 863.667 201.667 869 207C913 251.667 946.833 302.333 970.5 359C994.167 415.667 1006 475.333 1006 538C1006 600.667 994.167 660.5 970.5 717.5C946.833 774.5 913 825 869 869C863.667 874.333 857.333 877 850 877ZM226 877C218.667 877 212.333 874.333 207 869C163 825 129.167 774.5 105.5 717.5C81.8333 660.5 70 600.667 70 538C70 475.333 81.8333 415.667 105.5 359C129.167 302.333 163 251.667 207 207C212.333 201.667 218.667 199 226 199C233.333 199 239.667 201.667 245 207C250.333 212.333 253 218.667 253 226C253 233.333 250.333 239.667 245 245C205.667 285 175.667 330 155 380C134.333 430 124 482.667 124 538C124 594 134.333 647 155 697C175.667 747 205.667 791.667 245 831C250.333 836.333 253 842.667 253 850C253 857.333 250.333 863.667 245 869C239.667 874.333 233.333 877 226 877ZM538 664C520.667 664 504.333 660.667 489 654C473.667 647.333 460.333 638.333 449 627C437.667 615.667 428.667 602.333 422 587C415.333 571.667 412 555.333 412 538C412 520.667 415.333 504.333 422 489C428.667 473.667 437.667 460.333 449 449C460.333 437.667 473.667 428.667 489 422C504.333 415.333 520.667 412 538 412C555.333 412 571.667 415.333 587 422C602.333 428.667 615.667 437.667 627 449C638.333 460.333 647.333 473.667 654 489C660.667 504.333 664 520.667 664 538C664 555.333 660.667 571.667 654 587C647.333 602.333 638.333 615.667 627 627C615.667 638.333 602.333 647.333 587 654C571.667 660.667 555.333 664 538 664ZM538 466C518 466 501 473 487 487C473 501 466 518 466 538C466 558 473 575 487 589C501 603 518 610 538 610C558 610 575 603 589 589C603 575 610 558 610 538C610 518 603 501 589 487C575 473 558 466 538 466Z" fill="black"/>
</svg>
