<svg width="1075" height="1075" viewBox="0 0 1075 1075" fill="none" xmlns="http://www.w3.org/2000/svg">
<path d="M931 923H144C121.333 923 102.167 915.167 86.5 899.5C70.8333 883.833 63 864.667 63 842V234C63 211.333 70.8333 192.167 86.5 176.5C102.167 160.833 121.333 153 144 153H931C953.667 153 972.833 160.833 988.5 176.5C1004.17 192.167 1012 211.333 1012 234V842C1012 864.667 1004.17 883.833 988.5 899.5C972.833 915.167 953.667 923 931 923ZM148 209C140 209 133.5 211.667 128.5 217C123.5 222.333 121 228.667 121 236V840C121 847.333 123.5 853.667 128.5 859C133.5 864.333 140 867 148 867H927C935 867 941.5 864.333 946.5 859C951.5 853.667 954 847.333 954 840V236C954 228.667 951.5 222.333 946.5 217C941.5 211.667 935 209 927 209H647V260C647 268.667 642.333 273 633 273H442C438.667 273 435.5 271.667 432.5 269C429.5 266.333 428 263.333 428 260V209H148Z" fill="black"/>
</svg>
