<svg width="1075" height="1075" viewBox="0 0 1075 1075" fill="none" xmlns="http://www.w3.org/2000/svg">
<path d="M538 162C606 162 668.833 178.833 726.5 212.5C784.167 246.167 829.667 291.833 863 349.5C896.333 407.167 913 469.833 913 537.5C913 605.167 896.333 667.833 863 725.5C829.667 783.167 784.167 828.833 726.5 862.5C668.833 896.167 606 913 538 913C470 913 407.167 896.167 349.5 862.5C291.833 828.833 246.333 783.167 213 725.5C179.667 667.833 163 605.333 163 538C163 487.333 172.833 438.667 192.5 392C212.167 345.333 238.833 305.333 272.5 272C306.167 238.667 346.167 212 392.5 192C438.833 172 487.333 162 538 162ZM212 538C212 584 221 627.333 239 668C257 708.667 282 744.333 314 775C336 755.667 354.833 733.667 370.5 709C386.167 684.333 398.333 657.333 407 628C415.667 598.667 420 568.667 420 538C420 492 410.667 448.333 392 407C373.333 365.667 347.333 330 314 300C292.667 320 274.5 342.333 259.5 367C244.5 391.667 232.833 418.667 224.5 448C216.167 477.333 212 507.333 212 538ZM344 800C401.333 843.333 466.333 864.667 539 864C610.333 864 674.667 842.667 732 800C696 766.667 667.833 727.333 647.5 682C627.167 636.667 617 588.5 617 537.5C617 486.5 627.167 438.333 647.5 393C667.833 347.667 696 308.333 732 275C674.667 231.667 610 210.333 538 211C466.667 211 402 232.333 344 275C380 308.333 408.167 347.667 428.5 393C448.833 438.333 459 486.5 459 537.5C459 588.5 448.833 636.667 428.5 682C408.167 727.333 380 766.667 344 800ZM762 775C794 745 819.167 709.333 837.5 668C855.833 626.667 865 583.167 865 537.5C865 491.833 856 448.5 838 407.5C820 366.5 794.667 330.667 762 300C751.333 310 741.333 320.667 732 332C722.667 343.333 714 355 706 367C698 379 691 391.833 685 405.5C679 419.167 674 433.167 670 447.5C666 461.833 662.833 476.5 660.5 491.5C658.167 506.5 657 522 657 538C657 584 666.167 627.5 684.5 668.5C702.833 709.5 728.667 745 762 775Z" fill="black"/>
</svg>
