<svg viewBox="0 0 1154 1074.237" xmlns="http://www.w3.org/2000/svg"><path d="M375 208.237q102 0 188.5 50.5t136.5 137q50 86.5 50 188t-50 188q-50 86.5-136.5 137t-188.5 50.5q-102 0-188.5-50.5t-136.5-137q-50-86.5-50-187.5 0-76 29.5-146t80-120q50.5-50 120-80t145.5-30zm-326 376q0 69 27 130t75 107q33-29 56.5-66t36.5-81q13-44 13-90 0-69-28-131t-78-107q-32 30-54.5 67t-35 81q-12.5 44-12.5 90zm132 262q86 65 195 64 107 0 193-64-54-50-84.5-118t-30.5-144.5q0-76.5 30.5-144.5t84.5-118q-86-65-194-64-107 0-194 64 54 50 84.5 118t30.5 144.5q0 76.5-30.5 144.5t-84.5 118zm418-25q48-45 75.5-107t27.5-130.5q0-68.5-27-130t-76-107.5q-16 15-30 32t-26 35q-12 18-21 38.5t-15 42q-6 21.5-9.5 44t-3.5 46.5q0 69 27.5 130.5t77.5 106.5z"/></svg>