<svg width="1075" height="1075" viewBox="0 0 1075 1075" fill="none" xmlns="http://www.w3.org/2000/svg">
<path d="M538 162C606 162 668.833 178.833 726.5 212.5C784.167 246.167 829.667 291.833 863 349.5C896.333 407.167 913 469.833 913 537.5C913 605.167 896.333 667.833 863 725.5C829.667 783.167 784.167 828.833 726.5 862.5C668.833 896.167 606 913 538 913C470 913 407.167 896.167 349.5 862.5C291.833 828.833 246.333 783.167 213 725.5C179.667 667.833 163 605.333 163 538C163 487.333 172.833 438.667 192.5 392C212.167 345.333 238.833 305.333 272.5 272C306.167 238.667 346.167 212 392.5 192C438.833 172 487.333 162 538 162ZM811 361C756.333 324.333 696 306 630 306C590.667 306 553 312.667 517 326C550.333 352.667 599.667 371 665 381C699.667 386.333 727.667 391.667 749 397C770.333 402.333 789.167 409 805.5 417C821.833 425 837.333 435.333 852 448C844 416.667 830.667 387.333 812 360L811 361ZM746 286C686.667 236.667 617.667 211.667 539 211C520.333 211 501.667 212.667 483 216C480.333 220 477.833 224.833 475.5 230.5C473.167 236.167 472.5 245.5 473.5 258.5C474.5 271.5 479.333 284 488 296C533.333 276.667 581 267 631 267C670.333 267 708.667 273.333 746 286ZM322 293L388 359C408 341 429.667 325.667 453 313C440.333 294.333 434 273.667 434 251C434 243 435 235 437 227C394.333 241 356 263 322 293ZM294 321C264 355 242 393.333 228 436C236 434.667 244 433.667 252 433C274.667 433 295.333 439.333 314 452C327.333 428.667 342.667 407 360 387L294 321ZM307 629V630C307 696.667 325.333 757 362 811L361 812C388.333 830 418 843.333 450 852C431.333 830.667 417.333 807 408 781C398.667 755 390 716.333 382 665C372 599 354 549.333 328 516C314 552 307 589.667 307 629ZM212 538C212 616.667 237 686 287 746C274.333 708.667 268 669.667 268 629C268 579.667 277.667 532.333 297 487C267.667 467 241 465.333 217 482C213.667 500.667 212 519.333 212 538ZM517 863C523.667 863.667 530.667 864 538 864C620.667 864 693 836.333 755 781L388 415C371.333 433.667 357 454.333 345 477C382.333 515.667 407.333 576 420 658C429.333 720 439.833 762.833 451.5 786.5C463.167 810.167 485 835.667 517 863ZM782 754C836.667 692.667 864.333 620.667 865 538C865 535.333 864.833 531.5 864.5 526.5C864.167 521.5 864 518 864 516C836.667 484 811.167 462.333 787.5 451C763.833 439.667 721 429.333 659 420C577 407.333 516.667 382 478 344C456 356 435.333 370.333 416 387L782 754Z" fill="black"/>
</svg>
