<svg viewBox="0 0 1154 1074.237" xmlns="http://www.w3.org/2000/svg"><path d="M375 208.237q102 0 188.5 50.5t136.5 137q50 86.5 50 188t-50 188q-50 86.5-136.5 137t-188.5 50.5q-102 0-188.5-50.5t-136.5-137q-50-86.5-50-187.5 0-76 29.5-146t80-120q50.5-50 120-80t145.5-30zm273 199q-82-55-181-55-59 0-113 20 50 40 148 55 52 8 84 16t56.5 20q24.5 12 46.5 31-12-47-40-88l-1 1zm-65-75q-89-74-207-75-28 0-56 5-4 6-7.5 14.5t-2 28q1.5 19.5 14.5 37.5 68-29 143-29 59 0 115 19zm-424 7l66 66q30-27 65-46-19-28-19-62 0-12 3-24-64 21-115 66zm-28 28q-45 51-66 115 12-2 24-3 34 0 62 19 20-35 46-65l-66-66zm13 308v1q0 100 55 181l-1 1q41 27 89 40-28-32-42-71t-26-116q-15-99-54-149-21 54-21 113zm-95-91q0 118 75 208-19-56-19-117 0-74 29-142-44-30-80-5-5 28-5 56zm305 325q10 1 21 1 124 0 217-83l-367-366q-25 28-43 62 56 58 75 181 14 93 31.5 128.5t65.5 76.5zm265-109q82-92 83-216 0-4-.5-11.5t-.5-10.5q-41-48-76.5-65t-128.5-31q-123-19-181-76-33 18-62 43l366 367z"/></svg>