<svg width="1075" height="1075" viewBox="0 0 1075 1075" fill="none" xmlns="http://www.w3.org/2000/svg">
<path d="M125 795V796C125 807.333 129.167 816.833 137.5 824.5C145.833 832.167 155 836 165 836H470C460.667 852.667 455.667 870.667 455 890H167C140.333 890 118 880.833 100 862.5C82 844.167 73 822 73 796V201C73 175 82 152.667 100 134C118 115.333 139.667 106 165 106H908C934.667 106 957 115.5 975 134.5C993 153.5 1002 175.667 1002 201V444L991 446L949 453V203C949 195 947.167 188 943.5 182C939.833 176 934.667 171 928 167C921.333 163 915 161 909 161H167C155 161 145 165.167 137 173.5C129 181.833 125 191 125 201V795ZM1002 512V865C1002 885.667 993.5 903 976.5 917C959.5 931 938.833 938 914.5 938C890.167 938 869.667 930.833 853 916.5C836.333 902.167 828 884.833 828 864.5C828 844.167 836.333 826.833 853 812.5C869.667 798.167 890.333 791 915 791H933C934.333 791.667 936 792 938 792H941L948 794H949V577L857 593L697 621V895C697 907 693.167 919 685.5 931C677.833 943 669 951.667 659 957C643.667 965 627.333 969.333 610 970C585.333 970 564.5 963 547.5 949C530.5 935 522 917.667 522 897C522 876.333 530.5 858.833 547.5 844.5C564.5 830.167 585.333 823 610 823H619C627 823.667 635 825.333 643 828V577L834 542L1002 512Z" fill="black"/>
</svg>
