<svg viewBox="0 0 1243 1074.237" xmlns="http://www.w3.org/2000/svg"><path d="M52 835.237v1q0 17 12.5 28.5t27.5 11.5h305q-14 25-15 54H94q-40 0-67-27.5t-27-66.5v-595q0-39 27-67t65-28h743q40 0 67 28.5t27 66.5v243l-11 2-42 7v-250q0-12-5.5-21t-15.5-15q-10-6-19-6H94q-18 0-30 12.5t-12 27.5v594zm877-283v353q0 31-25.5 52t-62 21q-36.5 0-61.5-21.5t-25-52q0-30.5 25-52t62-21.5h18q2 1 5 1h3l7 2h1v-217l-92 16-160 28v274q0 18-11.5 36t-26.5 26q-23 12-49 13-37 0-62.5-21t-25.5-52q0-31 25.5-52.5t62.5-21.5h9q12 1 24 5v-251l191-35 168-30z"/></svg>