<svg viewBox="0 0 1248 1074.237" xmlns="http://www.w3.org/2000/svg"><path d="M94 876.237h322q11 28 26 54H94q-39 0-66.5-27.5T0 835.237v-594q0-39 27.5-67t66.5-28h742q40 0 67.5 28.5t27.5 66.5v335q-24-28-54-49v-286q0-7-3-15t-8-13q-5-5-13-8.5t-16-3.5H94q-7 0-14.5 3.5t-13 8.5q-5.5 5-9 12.5t-3.5 15.5v594q0 17 11.5 29t28.5 12zm608-338q98 0 167.5 69.5t69.5 167.5q0 97-69.5 166.5t-167.5 69.5q-98 0-167.5-69.5t-69.5-167.5q0-65 32-119t86-85.5q54-31.5 119-31.5zm-182 237q0 75 53.5 128.5t128.5 53.5q25 0 56.5-10.5t51.5-26.5l-255-253q-15 20-25 51.5t-10 56.5zm328 109q16-20 27-52.5t11-58.5q0-75-53.5-128t-128.5-53q-17 0-37.5 4.5t-40 13q-19.5 8.5-31.5 19.5l253 255z"/></svg>