<svg width="1075" height="1075" viewBox="0 0 1075 1075" fill="none" xmlns="http://www.w3.org/2000/svg">
<path d="M162 835H484C491.333 853.667 500 871.667 510 889H162C136 889 113.833 879.833 95.5 861.5C77.1667 843.167 68 820.667 68 794V200C68 174 77.1667 151.667 95.5 133C113.833 114.333 136 105 162 105H904C930.667 105 953.167 114.5 971.5 133.5C989.833 152.5 999 174.667 999 200V535C983 516.333 965 500 945 486V200C945 195.333 944 190.333 942 185C940 179.667 937.333 175.333 934 172C930.667 168.667 926.333 165.833 921 163.5C915.667 161.167 910.333 160 905 160H162C157.333 160 152.5 161.167 147.5 163.5C142.5 165.833 138.167 168.667 134.5 172C130.833 175.333 127.833 179.5 125.5 184.5C123.167 189.5 122 194.667 122 200V794C122 805.333 125.833 815 133.5 823C141.167 831 150.667 835 162 835ZM770 497C835.333 497 891.167 520.167 937.5 566.5C983.833 612.833 1007 668.667 1007 734C1007 798.667 983.833 854.167 937.5 900.5C891.167 946.833 835.333 970 770 970C704.667 970 648.833 946.833 602.5 900.5C556.167 854.167 533 798.333 533 733C533 689.667 543.667 650 565 614C586.333 578 615 549.5 651 528.5C687 507.5 726.667 497 770 497ZM588 734C588 784 605.833 826.833 641.5 862.5C677.167 898.167 720 916 770 916C786.667 916 805.5 912.5 826.5 905.5C847.5 898.5 864.667 889.667 878 879L623 626C613 639.333 604.667 656.5 598 677.5C591.333 698.5 588 717.333 588 734ZM916 843C926.667 829.667 935.667 812.167 943 790.5C950.333 768.833 954 749.333 954 732C954 682 936.167 639.333 900.5 604C864.833 568.667 822 551 772 551C760.667 551 748.167 552.5 734.5 555.5C720.833 558.5 707.5 562.833 694.5 568.5C681.5 574.167 671 580.667 663 588L916 843Z" fill="black"/>
</svg>
