<svg width="1075" height="1075" viewBox="0 0 1075 1075" fill="none" xmlns="http://www.w3.org/2000/svg">
<path d="M514.533 538L346.533 368C341.867 363.333 339.7 358.5 340.033 353.5C340.367 348.5 342.867 343.667 347.533 339C359.533 329.667 369.533 329 377.533 337L517.533 479V215C517.533 200.333 525.533 193 541.533 193C544.867 193 549.533 195.333 555.533 200L731.533 367C734.867 370.333 736.533 374.667 736.533 380C736.533 385.333 734.867 389.667 731.533 393L577.533 538L731.533 683C734.867 686.333 736.533 690.667 736.533 696C736.533 701.333 734.867 705.667 731.533 709L555.533 876C549.533 880.667 544.867 883 541.533 883C525.533 883 517.533 875.667 517.533 861V597L377.533 739C369.533 747 359.533 746.333 347.533 737C342.867 732.333 340.367 727.5 340.033 722.5C339.7 717.5 341.867 712.667 346.533 708L514.533 538ZM680.533 379L562.533 266V490L680.533 379ZM562.533 586V810L680.533 697L562.533 586Z" fill="black"/>
</svg>
