<svg width="1075" height="1075" viewBox="0 0 1075 1075" fill="none" xmlns="http://www.w3.org/2000/svg">
<path d="M133 848V295H781V848C781 874 771.833 896.333 753.5 915C735.167 933.667 712.667 943 686 943H228C202 943 179.667 933.667 161 915C142.333 896.333 133 874 133 848ZM187 349V848C187 859.333 191 869 199 877C207 885 216.667 889 228 889H687C694.333 889 701.167 887.167 707.5 883.5C713.833 879.833 718.667 874.833 722 868.5C725.333 862.167 727 855.333 727 848V349H646V572L567 528L488 571V349H187ZM295 133H943V781H889V187H295V133Z" fill="black"/>
</svg>
