<svg width="1075" height="1075" viewBox="0 0 1075 1075" fill="none" xmlns="http://www.w3.org/2000/svg">
<path d="M947 538C947 612.667 928.667 681.333 892 744C855.333 806.667 805.667 856.167 743 892.5C680.333 928.833 611.667 947 537 947C462.333 947 393.667 928.833 331 892.5C268.333 856.167 218.833 806.5 182.5 743.5C146.167 680.5 128 611.833 128 537.5C128 463.167 146.167 394.667 182.5 332C218.833 269.333 268.333 219.667 331 183C393.667 146.333 462.333 128 537 128C611.667 128 680.333 146.333 743 183C805.667 219.667 855.333 269.333 892 332C928.667 394.667 947 463.333 947 538ZM537 893C559.667 893 581.5 873 602.5 833C623.5 793 639.333 741 650 677H423C430.333 719 440.167 756.5 452.5 789.5C464.833 822.5 478.333 848 493 866C507.667 884 522.333 893 537 893ZM418 629H655C658.333 599.667 660 570.333 660 541V538V534C660 504.667 658.333 475 655 445H418C414.667 475.667 413 506.5 413 537.5C413 568.5 414.667 599 418 629ZM537 183C514.333 183 492.333 203 471 243C449.667 283 433.667 335 423 399H650C642.667 357 632.833 319.5 620.5 286.5C608.167 253.5 594.833 228 580.5 210C566.167 192 551.667 183 537 183ZM702 445C705.333 475.667 707.333 506.667 708 538V539C708 569 706 599 702 629H885V638C894.333 606 899 573 899 539V538V536C899 505.333 895.333 474.667 888 444V445H702ZM872 399C852.667 351 818.167 306.167 768.5 264.5C718.833 222.833 669 196 619 184C655.667 231.333 681.333 303 696 399H872ZM454 185C404 197 354.5 223.667 305.5 265C256.5 306.333 222 351 202 399H377C391.667 302.333 417.333 231 454 185ZM187 444C179 474 174.833 505 174.5 537C174.167 569 178.333 600 187 630H371C368.333 598 367 567.333 367 538C367 508.667 368.333 478 371 446H187V444ZM202 676C221.333 723.333 255.667 767.667 305 809C354.333 850.333 404 877 454 889C417.333 841.667 391.667 770.667 377 676H202ZM620 890C652 882 685.167 867.333 719.5 846C753.833 824.667 784.667 798.833 812 768.5C839.333 738.167 859.333 707.667 872 677H696C682 771.667 656.667 842.667 620 890Z" fill="black"/>
</svg>
