<svg viewBox="0 0 1188 1074.237" xmlns="http://www.w3.org/2000/svg"><path d="M819 573.237q0 112-55 206t-149 148.5q-94 54.5-206 54.5t-206-54.5q-94-54.5-148.5-149t-54.5-206q0-111.5 54.5-205.5t148.5-149q94-55 206-55t206 55q94 55 149 149t55 206zm-410 355q34 0 65.5-60t47.5-156H295q11 63 29.5 112.5t40.5 76.5q22 27 44 27zm-119-264h237q5-44 5-88v-3-4q0-44-5-89H290q-5 46-5 92.5t5 91.5zm119-446q-34 0-66 60t-48 156h227q-11-63-29.5-112.5t-40-76.5q-21.5-27-43.5-27zm165 262q5 46 6 93v1q0 45-6 90h183v9q14-48 14-99v-1-2q0-46-11-92v1H574zm170-46q-29-72-103.5-134.5t-149.5-80.5q55 71 77 215h176zm-418-214q-75 18-148.5 80t-103.5 134h175q22-145 77-214zm-267 259q-12 45-12.5 93t12.5 93h184q-4-48-4-92t4-92H59v-2zm15 232q29 71 103 133t149 80q-55-71-77-213H74zm418 214q48-12 99.5-44t92.5-77.5q41-45.5 60-91.5H568q-21 142-76 213z"/></svg>