<svg viewBox="0 0 1252 1074.237" xmlns="http://www.w3.org/2000/svg"><path d="M734 914.237v-79l40 41-40 38zm0-256l40 39-40 40v-79zm-25-108q98 1 167.5 70t69.5 166q0 98-69.5 167t-167.5 69q-98 0-167-69t-69-166.5q0-97.5 69-167t167-69.5zm123 326l-89-91 89-90-104-99-7-5h-28v147l-79-80-29 27 100 99-100 100 29 29 79-79v147h28l111-105zm-561-148l147 107q7 39 23 74l-197-143H0v-432h244l280-203h94v375q-24 7-46 19v-346h-33l-268 193-13 9H48v338h210l13 9zm432-370q37 22 69 67t38 87q-25-9-52-14-6-21-22.5-45t-32.5-38v-57zm237 250q-18-24-42-46 1-3 1-6t-1-6q0-86-57-171t-138-117v-49q49 16 93.5 51.5t77.5 81q33 45.5 52.5 99t19.5 106.5q-1 29-6 57z"/></svg>