<svg width="1075" height="1075" viewBox="0 0 1075 1075" fill="none" xmlns="http://www.w3.org/2000/svg">
<path d="M799 875V796L839 837L799 875ZM799 619L839 658L799 698V619ZM774 511C839.333 511.667 895.167 535 941.5 581C987.833 627 1011 682.333 1011 747C1011 812.333 987.833 868 941.5 914C895.167 960 839.333 983 774 983C708.667 983 653 960 607 914C561 868 538 812.5 538 747.5C538 682.5 561 626.833 607 580.5C653 534.167 708.667 511 774 511ZM897 837L808 746L897 656L793 557L786 552H758V699L679 619L650 646L750 745L650 845L679 874L758 795V942H786L897 837ZM336 689L483 796C487.667 822 495.333 846.667 506 870L309 727H65V295H309L589 92H683V467C667 471.667 651.667 478 637 486V140H604L336 333L323 342H113V680H323L336 689ZM768 319C792.667 333.667 815.667 356 837 386C858.333 416 871 445 875 473C858.333 467 841 462.333 823 459C819 445 811.5 430 800.5 414C789.5 398 778.667 385.333 768 376V319ZM1005 569C993 553 979 537.667 963 523C963.667 521 964 519 964 517C964 515 963.667 513 963 511C963 453.667 944 396.667 906 340C868 283.333 822 244.333 768 223V174C800.667 184.667 831.833 201.833 861.5 225.5C891.167 249.167 917 276.167 939 306.5C961 336.833 978.5 369.833 991.5 405.5C1004.5 441.167 1011 476.667 1011 512C1010.33 531.333 1008.33 550.333 1005 569Z" fill="black"/>
</svg>
