<svg width="1075" height="1075" viewBox="0 0 1075 1075" fill="none" xmlns="http://www.w3.org/2000/svg">
<path d="M538 1006C473.333 1006 412.667 993.667 356 969C299.333 944.333 249.833 910.833 207.5 868.5C165.167 826.167 131.667 776.667 107 720C82.3333 663.333 70 602.667 70 538C70 473.333 82.3333 412.667 107 356C131.667 299.333 165.167 249.833 207.5 207.5C249.833 165.167 299.333 131.667 356 107C412.667 82.3333 473.333 70 538 70C602.667 70 663.333 82.3333 720 107C776.667 131.667 826.167 165.167 868.5 207.5C910.833 249.833 944.333 299.333 969 356C993.667 412.667 1006 473.333 1006 538C1006 602.667 993.667 663.333 969 720C944.333 776.667 910.833 826.167 868.5 868.5C826.167 910.833 776.667 944.333 720 969C663.333 993.667 602.667 1006 538 1006ZM538 124C480.667 124 427 134.833 377 156.5C327 178.167 283.167 207.833 245.5 245.5C207.833 283.167 178.167 327.167 156.5 377.5C134.833 427.833 124 481.333 124 538C124 595.333 134.833 649 156.5 699C178.167 749 207.833 792.833 245.5 830.5C283.167 868.167 327 897.833 377 919.5C427 941.167 480.667 952 538 952C594.667 952 648.167 941.167 698.5 919.5C748.833 897.833 792.833 868.167 830.5 830.5C868.167 792.833 897.833 749 919.5 699C941.167 649 952 595.333 952 538C952 481.333 941.167 427.833 919.5 377.5C897.833 327.167 868.167 283.167 830.5 245.5C792.833 207.833 748.833 178.167 698.5 156.5C648.167 134.833 594.667 124 538 124ZM872 566H809C806.333 593.333 800 619.333 790 644C776 677.333 756.5 706.5 731.5 731.5C706.5 756.5 677.333 776 644 790C619.333 800 593.667 806.333 567 809V872H510V809C482.667 806.333 456.667 800 432 790C398.667 776 369.5 756.5 344.5 731.5C319.5 706.5 300 677.333 286 644C276 619.333 269.667 593.333 267 566H204V509H267C269.667 482.333 276 456.667 286 432C300 398.667 319.5 369.5 344.5 344.5C369.5 319.5 398.667 300 432 286C456.667 276 482.667 269.667 510 267V204H567V267C593.667 269.667 619.333 276 644 286C677.333 300 706.5 319.5 731.5 344.5C756.5 369.5 776 398.667 790 432C800 456.667 806.333 482.333 809 509H872V566ZM408 566H320C323.333 585.333 329 604 337 622C349 649.333 364.667 672.667 384 692C403.333 711.333 426.667 727 454 739C472 747 490.667 752.667 510 756V668H567V755C585.667 752.333 604 747 622 739C649.333 727 672.667 711.333 692 692C711.333 672.667 727 649.333 739 622C747 604 752.333 585.333 755 566H668V509H755C752.333 490.333 747 472 739 454C727 426.667 711.333 403.333 692 384C672.667 364.667 649.333 349 622 337C604 329 585.667 323.667 567 321V408H510V321C490.667 323.667 472 329 454 337C426.667 349 403.333 364.667 384 384C364.667 403.333 349 426.667 337 454C329 472 323.667 490.333 321 509H408V566Z" fill="black"/>
</svg>
