<svg viewBox="0 0 1270 1074.237" xmlns="http://www.w3.org/2000/svg"><path d="M929 1032.237l-102-94H88q-32 0-53.5-21.5t-21.5-51.5v-552h139l-152-140 37-41 195 181h24l56-124h332l55 124h244v552q0 30-23 51-10 10-22 15l65 61-34 40zm-540-621q39-17 83-17 43 0 82 16.5t68 45.5q29 29 46 67.5t17 81.5q0 44-17 82-5 11-11 21l193 179h17q9 0 17-6t8-16v-501H666l-55-124H344l-55 124h-2l69 64q16-10 33-17zm-325-47v501q0 9 6.5 15.5t17.5 6.5h684l-147-136-3 3q-29 29-68 46t-82 17q-44 0-82.5-17t-67.5-46q-29-29-45.5-67t-16.5-82q0-43 16-81 15-34 38-60l-107-100H64zm271 184q-11 27-11 57t11.5 57.5q11.5 27.5 32 47.5t47.5 32q27 12 57 12t57-12q27-12 48-32l2-2-218-201q-16 18-26 41zm137-91q-30 0-57 12-5 3-10 5l204 190 1-1q12-28 12-58t-12-57q-12-27-33-47t-48-32q-27-12-57-12z"/></svg>