<svg width="1075" height="1075" viewBox="0 0 1075 1075" fill="none" xmlns="http://www.w3.org/2000/svg">
<path d="M985 988L883 894H144C122.667 894 104.833 886.833 90.5 872.5C76.1667 858.167 69 841 69 821V269H208L56 129L93 88L288 269H312L368 145H700L755 269H999V821C999 841 991.333 858 976 872C969.333 878.667 962 883.667 954 887L1019 948L985 988ZM445 367C471 355.667 498.667 350 528 350C556.667 350 584 355.5 610 366.5C636 377.5 658.667 392.667 678 412C697.333 431.333 712.667 453.833 724 479.5C735.333 505.167 741 532.333 741 561C741 590.333 735.333 617.667 724 643C720.667 650.333 717 657.333 713 664L906 843H923C929 843 934.667 841 940 837C945.333 833 948 827.667 948 821V320H722L667 196H400L345 320H343L412 384C422.667 377.333 433.667 371.667 445 367ZM120 320V821C120 827 122.167 832.167 126.5 836.5C130.833 840.833 136.667 843 144 843H828L681 707L678 710C658.667 729.333 636 744.667 610 756C584 767.333 556.667 773 528 773C498.667 773 471.167 767.333 445.5 756C419.833 744.667 397.333 729.333 378 710C358.667 690.667 343.5 668.333 332.5 643C321.5 617.667 316 590.333 316 561C316 532.333 321.333 505.333 332 480C342 457.333 354.667 437.333 370 420L263 320H120ZM391 504C383.667 522 380 541 380 561C380 581 383.833 600.167 391.5 618.5C399.167 636.833 409.833 652.667 423.5 666C437.167 679.333 453 690 471 698C489 706 508 710 528 710C548 710 567 706 585 698C603 690 619 679.333 633 666L635 664L417 463C406.333 475 397.667 488.667 391 504ZM528 413C508 413 489 417 471 425C467.667 427 464.333 428.667 461 430L665 620L666 619C674 600.333 678 581 678 561C678 541 674 522 666 504C658 486 647 470.333 633 457C619 443.667 603 433 585 425C567 417 548 413 528 413Z" fill="black"/>
</svg>
