<svg width="1075" height="1075" viewBox="0 0 1075 1075" fill="none" xmlns="http://www.w3.org/2000/svg">
<path d="M532 792C502.667 791.333 475.167 785.333 449.5 774C423.833 762.667 401.333 747.5 382 728.5C362.667 709.5 347.333 687.167 336 661.5C324.667 635.833 319 608.333 319 579C319 550.333 324.667 523.167 336 497.5C347.333 471.833 362.667 449.5 382 430.5C401.333 411.5 423.833 396.5 449.5 385.5C475.167 374.5 502.667 369 532 369C560.667 369 588 374.5 614 385.5C640 396.5 662.5 411.5 681.5 430.5C700.5 449.5 715.667 471.833 727 497.5C738.333 523.167 744 550.333 744 579C744 608.333 738.333 635.833 727 661.5C715.667 687.167 700.5 709.5 681.5 728.5C662.5 747.5 640 762.667 614 774C588 785.333 560.667 791.333 532 792ZM532 432C512 432 492.833 436 474.5 444C456.167 452 440.333 462.5 427 475.5C413.667 488.5 403 504 395 522C387 540 383 559 383 579C383 599 387 618.167 395 636.5C403 654.833 413.667 670.833 427 684.5C440.333 698.167 456.167 709 474.5 717C492.833 725 512 729 532 729C552 729 571 725 589 717C607 709 622.833 698.167 636.5 684.5C650.167 670.833 661 654.833 669 636.5C677 618.167 681 599 681 579C681 559 677 540 669 522C661 504 650.167 488.5 636.5 475.5C622.833 462.5 607 452 589 444C571 436 552 432 532 432ZM927 912H147C126.333 912 108.833 904.833 94.5 890.5C80.1667 876.167 73 859.333 73 840V288H316L371 164H704L758 288H1002V840C1002 859.333 994.5 876.167 979.5 890.5C964.5 904.833 947 912 927 912ZM123 338V840C123 845.333 125.333 850.167 130 854.5C134.667 858.833 140.333 861 147 861H927C932.333 861 937.667 859 943 855C948.333 851 951 846 951 840V338H725L670 214H404L349 338H123Z" fill="black"/>
</svg>
