<svg viewBox="0 0 1257 1074.237" xmlns="http://www.w3.org/2000/svg"><path d="M459 817.237q-44-1-82.5-18t-67.5-45.5q-29-28.5-46-67t-17-82.5q0-43 17-81.5t46-67q29-28.5 67.5-45t82.5-16.5q43 0 82 16.5t67.5 45q28.5 28.5 45.5 67t17 81.5q0 44-17 82.5t-45.5 67q-28.5 28.5-67.5 45.5t-82 18zm0-360q-30 0-57.5 12t-47.5 31.5q-20 19.5-32 46.5t-12 57q0 30 12 57.5t32 48q20 20.5 47.5 32.5t57.5 12q30 0 57-12t47.5-32.5q20.5-20.5 32.5-48t12-57.5q0-30-12-57t-32.5-46.5q-20.5-19.5-47.5-31.5t-57-12zm395 480H74q-31 0-52.5-21.5T0 865.237v-552h243l55-124h333l54 124h244v552q0 29-22.5 50.5t-52.5 21.5zm-804-574v502q0 8 7 14.5t17 6.5h780q8 0 16-6t8-15v-502H652l-55-124H331l-55 124H50z"/></svg>