<svg width="1075" height="1075" viewBox="0 0 1075 1075" fill="none" xmlns="http://www.w3.org/2000/svg">
<path d="M482 681V854C482 868.667 475 880.333 461 889C415 909 367.833 919 319.5 919C271.167 919 224.333 909 179 889C172.333 885 167 880 163 874C159 868 157 861.333 157 854V681H230V607C231.333 582.333 240.333 561.667 257 545C273.667 528.333 294.667 519.667 320 519C344 519 364.5 527.5 381.5 544.5C398.5 561.5 407.667 582.333 409 607V681H482ZM181 428V232H219V367C230.333 344.333 243.667 322.667 259 302C281.667 272 308 246.333 338 225C368 203.667 401.167 186.833 437.5 174.5C473.833 162.167 511.667 156 551 156C601.667 156 649.333 165.667 694 185C738.667 204.333 777.667 230.667 811 264C844.333 297.333 870.667 336.333 890 381C909.333 425.667 919 473.333 919 524C919 574.667 909.333 622.333 890 667C870.667 711.667 844.333 750.667 811 784C777.667 817.333 738.667 843.667 694 863C649.333 882.333 601.667 892 551 892V846C595.667 846 637.667 837.333 677 820C716.333 802.667 750.667 779.333 780 750C809.333 720.667 832.5 686.5 849.5 647.5C866.5 608.5 875 567.333 875 524C875 480.667 866.5 439.333 849.5 400C832.5 360.667 809.333 326.167 780 296.5C750.667 266.833 716.333 243.333 677 226C637.667 208.667 595.667 200 551 200C517.667 200 486 205 456 215C426 225 398.333 239 373 257C347.667 275 325.333 296 306 320C288 342 273.333 365.333 262 390H377V428H181ZM274 681H365V607C365 594.333 360.5 583.833 351.5 575.5C342.5 567.167 332 563 320 563C308 563 297.333 567.167 288 575.5C278.667 583.833 274 594.333 274 607V681ZM297 815H343V747H297V815Z" fill="black"/>
</svg>
