<svg viewBox="0 0 1160 1074.237" xmlns="http://www.w3.org/2000/svg"><path d="M325 713.237v173q0 22-21 35-69 30-141.5 30t-140.5-30q-10-6-16-15t-6-20v-173h73v-74q2-37 27-62t63-26q36 0 61.5 25.5t27.5 62.5v74h73zm-301-253v-196h38v135q17-34 40-65 34-45 79-77t99.5-50.5q54.5-18.5 113.5-18.5 76 0 143 29t117 79q50 50 79 117t29 143q0 76-29 143t-79 117q-50 50-117 79t-143 29v-46q67 0 126-26t103-70q44-44 69.5-102.5t25.5-123.5q0-65-25.5-124t-69.5-103.5q-44-44.5-103-70.5t-126-26q-50 0-95 15t-83 42q-38 27-67 63-27 33-44 70h115v38H24zm93 253h91v-74q0-19-13.5-31.5t-31.5-12.5q-18 0-32 12.5t-14 31.5v74zm23 134h46v-68h-46v68z"/></svg>