<svg viewBox="0 0 1247 1074.237" xmlns="http://www.w3.org/2000/svg"><path d="M711 1052.237q-42 0-80-13.5t-69-37.5q-31-24-53.5-56.5t-32.5-71.5H72q-30 0-51-21.5t-21-50.5v-540q0-30 21-51t51-21h720q29 0 50.5 21t21.5 51v359q42 34 66 83t24 106q0 50-19 94.5t-52 77.5q-33 33-77.5 52t-94.5 19zm99-791q0-8-5-13t-13-5H72q-8 0-13 5t-5 13v478l283-287q21-21 51-21 27 0 49 20l57 54 129-133q22-22 52-22t51 21l84 86v-196zm-342 558v-10q0-50 19-94.5t52-77.5q33-33 77.5-52t94.5-19q26 0 51 5.5t48 15.5v-54l-122-124q-7-5-13-5-8 0-13 5l-142 146q-11 11-25 11-13 0-25-10l-70-66q-4-5-12-5t-13 5l-317 322q7 7 16 7h394zm243-199q-39 0-73.5 15t-60 40.5q-25.5 25.5-40.5 60t-15 73.5q0 39 15 73.5t40.5 60q25.5 25.5 60 40.5t73.5 15q39 0 73.5-15t60-40.5q25.5-25.5 40.5-60t15-73.5q0-39-15-73.5t-40.5-60q-25.5-25.5-60-40.5t-73.5-15zm-513-145q-38 0-64-25.5t-26-63.5q0-38 26-64t64-26q37 0 63.5 26t26.5 64q0 38-26.5 63.5t-63.5 25.5zm524 379q-16 0-27-11t-11-27v-97q0-11 8-19t19-8q11 0 19 8t8 19v81h81q11 0 19 8t8 19q0 11-8 19t-19 8h-97zm-524-504q-15 0-25.5 10.5t-10.5 25.5q0 15 10.5 25.5t25.5 10.5q15 0 25.5-10.5t10.5-25.5q0-15-10.5-25.5t-25.5-10.5z"/></svg>