<svg width="1075" height="1075" viewBox="0 0 1075 1075" fill="none" xmlns="http://www.w3.org/2000/svg">
<path d="M772 969C744 969 717.333 964.5 692 955.5C666.667 946.5 643.667 934 623 918C602.333 902 584.5 883.167 569.5 861.5C554.5 839.833 543.667 816 537 790H133C113 790 96 782.833 82 768.5C68 754.167 61 737.333 61 718V178C61 158 68 141 82 127C96 113 113 106 133 106H853C872.333 106 889.167 113 903.5 127C917.833 141 925 158 925 178V537C953 559.667 975 587.333 991 620C1007 652.667 1015 688 1015 726C1015 759.333 1008.67 790.833 996 820.5C983.333 850.167 966 876 944 898C922 920 896.167 937.333 866.5 950C836.833 962.667 805.333 969 772 969ZM871 178C871 172.667 869.333 168.333 866 165C862.667 161.667 858.333 160 853 160H133C127.667 160 123.333 161.667 120 165C116.667 168.333 115 172.667 115 178V656L398 369C412 355 429 348 449 348C467 348 483.333 354.667 498 368L555 422L684 289C698.667 274.333 716 267 736 267C756 267 773 274 787 288L871 374V178ZM529 736V726C529 692.667 535.333 661.167 548 631.5C560.667 601.833 578 576 600 554C622 532 647.833 514.667 677.5 502C707.167 489.333 738.667 483 772 483C789.333 483 806.333 484.833 823 488.5C839.667 492.167 855.667 497.333 871 504V450L749 326C744.333 322.667 740 321 736 321C730.667 321 726.333 322.667 723 326L581 472C573.667 479.333 565.333 483 556 483C547.333 483 539 479.667 531 473L461 407C458.333 403.667 454.333 402 449 402C443.667 402 439.333 403.667 436 407L119 729C123.667 733.667 129 736 135 736H529ZM772 537C746 537 721.5 542 698.5 552C675.5 562 655.5 575.5 638.5 592.5C621.5 609.5 608 629.5 598 652.5C588 675.5 583 700 583 726C583 752 588 776.5 598 799.5C608 822.5 621.5 842.5 638.5 859.5C655.5 876.5 675.5 890 698.5 900C721.5 910 746 915 772 915C798 915 822.5 910 845.5 900C868.5 890 888.5 876.5 905.5 859.5C922.5 842.5 936 822.5 946 799.5C956 776.5 961 752 961 726C961 700 956 675.5 946 652.5C936 629.5 922.5 609.5 905.5 592.5C888.5 575.5 868.5 562 845.5 552C822.5 542 798 537 772 537ZM259 392C233.667 392 212.333 383.5 195 366.5C177.667 349.5 169 328.333 169 303C169 277.667 177.667 256.333 195 239C212.333 221.667 233.667 213 259 213C283.667 213 304.833 221.667 322.5 239C340.167 256.333 349 277.667 349 303C349 328.333 340.167 349.5 322.5 366.5C304.833 383.5 283.667 392 259 392ZM783 771C772.333 771 763.333 767.333 756 760C748.667 752.667 745 743.667 745 733V636C745 628.667 747.667 622.333 753 617C758.333 611.667 764.667 609 772 609C779.333 609 785.667 611.667 791 617C796.333 622.333 799 628.667 799 636V717H880C887.333 717 893.667 719.667 899 725C904.333 730.333 907 736.667 907 744C907 751.333 904.333 757.667 899 763C893.667 768.333 887.333 771 880 771H783ZM259 267C249 267 240.5 270.5 233.5 277.5C226.5 284.5 223 293 223 303C223 313 226.5 321.5 233.5 328.5C240.5 335.5 249 339 259 339C269 339 277.5 335.5 284.5 328.5C291.5 321.5 295 313 295 303C295 293 291.5 284.5 284.5 277.5C277.5 270.5 269 267 259 267Z" fill="black"/>
</svg>
