<svg width="1075" height="1075" viewBox="0 0 1075 1075" fill="none" xmlns="http://www.w3.org/2000/svg">
<path d="M227 537C227 495 235.167 455 251.5 417C267.833 379 290 345.667 318 317C346 288.333 379 266 417 250C455 234 495.667 226 539 226C581 226 621 234 659 250C697 266 730 288.333 758 317C786 345.667 808 379 824 417C840 455 848 495 848 537C848 579 840 619 824 657C808 695 786 728.333 758 757C730 785.667 697 808.167 659 824.5C621 840.833 581 849 539 849C495.667 849 455 840.833 417 824.5C379 808.167 346 785.667 318 757C290 728.333 267.833 695 251.5 657C235.167 619 227 579 227 537Z" fill="black"/>
</svg>
