<svg viewBox="0 0 1222 1074.237" xmlns="http://www.w3.org/2000/svg"><path d="M795 273.237q37 0 63.5 26.5t26.5 63.5v474q0 37-26.5 63.5t-63.5 26.5H90q-25 0-45.5-12t-32.5-32.5q-12-20.5-12-45.5v-474q0-37 26.5-63.5t63.5-26.5h705zm39 564v-474q0-16-11.5-27.5t-27.5-11.5H90q-16 0-27 11.5t-11 27.5v474q0 16 11 27.5t27 11.5h705q6 0 12-2t11-5.5q5-3.5 8.5-8.5t5.5-11q2-6 2-12zm-448-152q19-5 36-14l13 40q-20 11-41 16-22 5-45 5-65 0-96-35-31-34-31-98 0-68 30-101 30-32 90-32h2q27 0 51 10 22 9 38 26l-28 32q-11-13-27-20t-34-7h-2q-2-1-4-1-29 0-48 23-18 22-18 70 0 45 18 68t58 23q20 0 38-5zm245 0q19-5 36-14l13 40q-20 10-41 15-22 6-45 6-65 0-96-35-32-34-32-98 0-69 30-101 31-32 91-32h2q27 0 51 10 22 9 38 26l-28 31q-11-13-27-20t-34-7h-6q-29 0-48 23-18 22-18 70 0 45 18 68t58 23q20 0 38-5z"/></svg>