<svg width="1075" height="1075" viewBox="0 0 1075 1075" fill="none" xmlns="http://www.w3.org/2000/svg">
<path d="M890 211C914.667 211 935.833 219.833 953.5 237.5C971.167 255.167 980 276.333 980 301V775C980 799.667 971.167 820.833 953.5 838.5C935.833 856.167 914.667 865 890 865H185C168.333 865 153.167 861 139.5 853C125.833 845 115 834.167 107 820.5C99 806.833 95 791.667 95 775V301C95 276.333 103.833 255.167 121.5 237.5C139.167 219.833 160.333 211 185 211H890ZM929 775V301C929 290.333 925.167 281.167 917.5 273.5C909.833 265.833 900.667 262 890 262H185C174.333 262 165.333 265.833 158 273.5C150.667 281.167 147 290.333 147 301V775C147 785.667 150.667 794.833 158 802.5C165.333 810.167 174.333 814 185 814H890C894 814 898 813.333 902 812C906 810.667 909.667 808.833 913 806.5C916.333 804.167 919.167 801.333 921.5 798C923.833 794.667 925.667 791 927 787C928.333 783 929 779 929 775ZM481 623C493.667 619.667 505.667 615 517 609L530 649C516.667 656.333 503 661.667 489 665C474.333 668.333 459.333 670 444 670C400.667 670 368.667 658.333 348 635C327.333 612.333 317 579.667 317 537C317 491.667 327 458 347 436C367 414.667 397 404 437 404H439C457 404 474 407.333 490 414C504.667 420 517.333 428.667 528 440L500 472C492.667 463.333 483.667 456.667 473 452C462.333 447.333 451 445 439 445H437C435.667 444.333 434.333 444 433 444C413.667 444 397.667 451.667 385 467C373 481.667 367 505 367 537C367 567 373 589.667 385 605C397 620.333 416.333 628 443 628C456.333 628 469 626.333 481 623ZM726 623C738.667 619.667 750.667 615 762 609L775 649C761.667 655.667 748 660.667 734 664C719.333 668 704.333 670 689 670C645.667 670 613.667 658.333 593 635C571.667 612.333 561 579.667 561 537C561 491 571 457.333 591 436C611.667 414.667 642 404 682 404H684C702 404 719 407.333 735 414C749.667 420 762.333 428.667 773 440L745 471C737.667 462.333 728.667 455.667 718 451C707.333 446.333 696 444 684 444H678C658.667 444 642.667 451.667 630 467C618 481.667 612 505 612 537C612 567 618 589.667 630 605C642 620.333 661.333 628 688 628C701.333 628 714 626.333 726 623Z" fill="black"/>
</svg>
