<svg width="1075" height="1075" viewBox="0 0 1075 1075" fill="none" xmlns="http://www.w3.org/2000/svg">
<path d="M790 583C768 583 749 575 733 559L727 553L389 890C370.333 907.333 349 916 325 916C310.333 916 296.667 912.667 284 906L262 928C246 944 227 952 205 952C183 952 164 944.167 148 928.5C132 912.833 124 893.667 124 871C124 861 126 851 130 841C134 831 140 822 148 814L170 792C163.333 779.333 160 765.667 160 751C160 727 168.667 705.667 186 687L523 349L517 343C509 335 503 326 499 316C495 306 493 296 493 286C493 264 501 245 517 229C533 213 552 205 574 205C584 205 594 207 604 211C614 215 623 221 631 229L637 235L706 166C719.333 152.667 734.833 142.333 752.5 135C770.167 127.667 788.667 124 808 124C828 124 846.667 127.833 864 135.5C881.333 143.167 896.5 153.5 909.5 166.5C922.5 179.5 932.833 194.667 940.5 212C948.167 229.333 952 248 952 268C952 286.667 948.5 304.833 941.5 322.5C934.5 340.167 924 356 910 370L840 439L847 446C863 462 871 480.667 871 502C871 524.667 863 543.833 847 559.5C831 575.167 812 583 790 583ZM561 388L224 725C216.667 732.333 213 740.667 213 750C213 760 216.667 768.667 224 776C228.667 780.667 231 787 231 795C231 803 228.667 809.333 224 814L186 852C180.667 857.333 178 863.667 178 871C178 878.333 180.667 884.667 186 890C191.333 895.333 197.667 898 205 898C212.333 898 218.667 895.333 224 890L262 852C267.333 846.667 273.667 844 281 844C288.333 844 294.667 846.667 300 852C307.333 859.333 316 863 326 863C335.333 863 343.667 859.333 351 852L688 515L561 388ZM676 273L803 400L872 331C881.333 321.667 888 311.5 892 300.5C896 289.5 898 278.333 898 267C898 241.667 889.333 220.5 872 203.5C854.667 186.5 833.333 178 808 178C782.667 178 761.333 186.667 744 204L676 273ZM574 259C566.667 259 560.333 261.667 555 267C549.667 272.333 547 278.667 547 286C547 293.333 549.667 299.667 555 305L771 521C774.333 524.333 777.5 526.333 780.5 527C783.5 527.667 786.667 528 790 528C797.333 528 803.667 525.5 809 520.5C814.333 515.5 817 509.333 817 502C817 494.667 814.333 488.333 809 483L593 267C587.667 261.667 581.333 259 574 259Z" fill="black"/>
</svg>
