<svg viewBox="0 0 1193 1074.237" xmlns="http://www.w3.org/2000/svg"><path d="M666 612.237q-33 0-57-24l-6-6-338 337q-28 26-64 26-22 0-41-10l-22 22q-24 24-57 24t-57-23.5q-24-23.5-24-57.5 0-15 6-30t18-27l22-22q-10-19-10-41 0-36 26-64l337-338-6-6q-12-12-18-27t-6-30q0-33 24-57t57-24q15 0 30 6t27 18l6 6 69-69q20-20 46.5-31t55.5-11q30 0 56 11.5t45.5 31q19.5 19.5 31 45.5t11.5 56q0 28-10.5 54.5t-31.5 47.5l-70 69 7 7q24 24 24 56 0 34-24 57.5t-57 23.5zm-229-195l-337 337q-11 11-11 25 0 15 11 26 7 7 7 19t-7 19l-38 38q-8 8-8 19t8 19q8 8 19 8t19-8l38-38q8-8 19-8t19 8q11 11 26 11 14 0 25-11l337-337-127-127zm115-115l127 127 69-69q14-14 20-30.5t6-33.5q0-38-26-63.5t-64-25.5q-38 0-64 26l-68 69zm-102-14q-11 0-19 8t-8 19q0 11 8 19l216 216q5 5 9.5 6t9.5 1q11 0 19-7.5t8-18.5q0-11-8-19l-216-216q-8-8-19-8z"/></svg>