<svg width="1075" height="1075" viewBox="0 0 1075 1075" fill="none" xmlns="http://www.w3.org/2000/svg">
<path d="M364 364C412 316 470 292 538 292C606 292 664 316 712 364C760 412 784 469.833 784 537.5C784 605.167 760 663 712 711C664 759 606 783 538 783C470 783 412 759 364 711C316 663 292 605.167 292 537.5C292 469.833 316 412 364 364ZM538 736V339C483.333 339 436.5 358.5 397.5 397.5C358.5 436.5 339 483.333 339 538C339 592.667 358.5 639.333 397.5 678C436.5 716.667 483.333 736 538 736ZM918 509C926 509 932.833 511.833 938.5 517.5C944.167 523.167 947 530 947 538C947 546 944.167 552.833 938.5 558.5C932.833 564.167 926 567 918 567H854C848.667 567 843.667 565.667 839 563C834.333 560.333 830.833 556.833 828.5 552.5C826.167 548.167 825 543.333 825 538C825 530 827.833 523.167 833.5 517.5C839.167 511.833 846 509 854 509H918ZM251 538C251 543.333 249.667 548.167 247 552.5C244.333 556.833 240.833 560.333 236.5 563C232.167 565.667 227.333 567 222 567H158C150 567 143.167 564.167 137.5 558.5C131.833 552.833 129 546 129 538C129 530 131.833 523.167 137.5 517.5C143.167 511.833 150 509 158 509H222C230 509 236.833 511.833 242.5 517.5C248.167 523.167 251 530 251 538ZM761 344H762C754 344 747.167 341 741.5 335C735.833 329 733 322 733 314C733 306 735.667 299.333 741 294L787 248C793 242 800 239 808 239C816 239 822.833 241.833 828.5 247.5C834.167 253.167 837 260 837 268C837 276 834 283.333 828 290L782 335C776 341 769 344 761 344ZM294 740C299.333 734.667 306 732 314 732C322 732 328.833 735 334.5 741C340.167 747 343 754 343 762C343 770 340.333 776.667 335 782L291 827C285 833 278 836 270 836H269C261 836 254.167 833.167 248.5 827.5C242.833 821.833 240 815 240 807C240 799 243 792 249 786L294 740ZM538 251C530 251 523 248.167 517 242.5C511 236.833 508 230 508 222V158V156C508 148 510.833 141.167 516.5 135.5C522.167 129.833 529.167 127 537.5 127C545.833 127 552.833 129.833 558.5 135.5C564.167 141.167 567 148 567 156V222C567 227.333 565.667 232.167 563 236.5C560.333 240.833 556.833 244.333 552.5 247C548.167 249.667 543.333 251 538 251ZM567 854V920C567 925.333 565.667 930.167 563 934.5C560.333 938.833 556.833 942.333 552.5 945C548.167 947.667 543.333 949 538 949C530 949 523.333 946.167 518 940.5C512.667 934.833 510 928 510 920V854C510 846 512.667 839 518 833C523.333 827 530 824 538 824C546 824 552.833 827 558.5 833C564.167 839 567 846 567 854ZM294 335L249 290C243.667 284.667 241 278 241 270C241 262 243.833 255 249.5 249C255.167 243 262 240 270 240C278 240 284.667 242.667 290 248L335 294C339.667 299.333 342 305.667 342 313C342 321 339.167 327.833 333.5 333.5C327.833 339.167 321 342 313 342C305.667 342 299.333 339.667 294 335ZM782 740L828 786C834 792 837 799 837 807C837 812.333 835.667 817.167 833 821.5C830.333 825.833 826.667 829.333 822 832C817.333 834.667 812.667 836 808 836H807C799 836 792 833 786 827L741 782C734.333 776 731 768.667 731 760C731 752 733.833 745.167 739.5 739.5C745.167 733.833 752 731 760 731C768.667 730.333 776 733.333 782 740Z" fill="black"/>
</svg>
