<svg width="1075" height="1075" viewBox="0 0 1075 1075" fill="none" xmlns="http://www.w3.org/2000/svg">
<path d="M440 661C430 661 422 664.667 416 672L261 828C249 839.333 235.5 848.5 220.5 855.5C205.5 862.5 189.667 866 173 866C153 866 135.333 862.5 120 855.5C104.667 848.5 91.8333 839.333 81.5 828C71.1667 816.667 63.1667 803.5 57.5 788.5C51.8333 773.5 49 758 49 742C49 722 52.1667 701.833 58.5 681.5C64.8333 661.167 71.3333 641.667 78 623L176 333C185.333 305 200.667 282.667 222 266C243.333 249.333 270 241 302 241H443C449 231.667 457 224 467 218C477 212 487.667 209 499 209H577C588.333 209 599.167 212 609.5 218C619.833 224 628 231.667 634 241H773C805 241 831.667 249.333 853 266C874.333 282.667 889.667 305 899 333L997 623C1003.67 641.667 1010.17 661.167 1016.5 681.5C1022.83 701.833 1026 722 1026 742C1026 758 1023.17 773.5 1017.5 788.5C1011.83 803.5 1003.83 816.667 993.5 828C983.167 839.333 970.333 848.5 955 855.5C939.667 862.5 922 866 902 866C885.333 866 869.5 862.5 854.5 855.5C839.5 848.5 826 839.333 814 828L659 672C653.667 664.667 646 661 636 661H440ZM636 606C647.333 606 658.667 608.333 670 613C681.333 617.667 691 624 699 632L853 789C866.333 803.667 882.667 811 902 811C910.667 811 919.167 809.167 927.5 805.5C935.833 801.833 943.167 796.833 949.5 790.5C955.833 784.167 961 776.833 965 768.5C969 760.167 971 751.333 971 742C971 724.667 968 707.667 962 691C956 674.333 950.333 657.667 945 641L847 350C841.667 333.333 832.167 320.167 818.5 310.5C804.833 300.833 789.667 296 773 296H596L591 277C589 269 584 265 576 265H499C491.667 265 487.333 269 486 277L479 296H302C286 296 271.167 300.833 257.5 310.5C243.833 320.167 234.333 333.333 229 350L131 641C125 657.667 119.167 674.333 113.5 691C107.833 707.667 105 724.667 105 742C105 761.333 112 777.667 126 791C140 804.333 156 811 174 811C192.667 811 208.667 803.667 222 789L376 632C393.333 614.667 414.667 606 440 606H636ZM259 426H329V356H380V426H449V477H380V547H329V477H259V426ZM626 442C626 451.333 629.5 459.5 636.5 466.5C643.5 473.5 652 477 662 477C671.333 477 679.5 473.5 686.5 466.5C693.5 459.5 697 451.333 697 442C697 432 693.5 423.667 686.5 417C679.5 410.333 671.333 407 662 407C652 407 643.5 410.333 636.5 417C629.5 423.667 626 432 626 442ZM753 442C753 451.333 756.5 459.5 763.5 466.5C770.5 473.5 779 477 789 477C798.333 477 806.5 473.5 813.5 466.5C820.5 459.5 824 451.333 824 442C824 432 820.5 423.667 813.5 417C806.5 410.333 798.333 407 789 407C779 407 770.5 410.333 763.5 417C756.5 423.667 753 432 753 442ZM690 505C690 514.333 693.5 522.5 700.5 529.5C707.5 536.5 715.667 540 725 540C734.333 540 742.5 536.5 749.5 529.5C756.5 522.5 760 514.333 760 505C760 495.667 756.5 487.5 749.5 480.5C742.5 473.5 734.333 470 725 470C715.667 470 707.5 473.5 700.5 480.5C693.5 487.5 690 495.667 690 505ZM690 378C690 388 693.5 396.333 700.5 403C707.5 409.667 715.667 413 725 413C734.333 413 742.5 409.667 749.5 403C756.5 396.333 760 388 760 378C760 368.667 756.5 360.667 749.5 354C742.5 347.333 734.333 344 725 344C715.667 344 707.5 347.333 700.5 354C693.5 360.667 690 368.667 690 378Z" fill="black"/>
</svg>
