<svg viewBox="0 0 1188 1074.237" xmlns="http://www.w3.org/2000/svg"><path d="M235 413.237q72-72 174-72t174 72q72 72 72 173.5t-72 173.5q-72 72-174 72t-174-72q-72-72-72-173.5t72-173.5zm174 372v-397q-82 0-140.5 58.5t-58.5 140.5q0 82 58.5 140t140.5 58zm380-227q12 0 20.5 8.5t8.5 20.5q0 12-8.5 20.5t-20.5 8.5h-64q-8 0-15-4t-10.5-10.5q-3.5-6.5-3.5-14.5 0-12 8.5-20.5t20.5-8.5h64zm-667 29q0 8-4 14.5t-10.5 10.5q-6.5 4-14.5 4H29q-12 0-20.5-8.5t-8.5-20.5q0-12 8.5-20.5t20.5-8.5h64q12 0 20.5 8.5t8.5 20.5zm510-194h1q-12 0-20.5-9t-8.5-21q0-12 8-20l46-46q9-9 21-9t20.5 8.5q8.5 8.5 8.5 20.5t-9 22l-46 45q-9 9-21 9zm-467 396q8-8 20-8t20.5 9q8.5 9 8.5 21t-8 20l-44 45q-9 9-21 9h-1q-12 0-20.5-8.5t-8.5-20.5q0-12 9-21l45-46zm244-489q-12 0-21-8.5t-9-20.5v-64-2q0-12 8.5-20.5t21-8.5q12.5 0 21 8.5t8.5 20.5v66q0 8-4 14.5t-10.5 10.5q-6.5 4-14.5 4zm29 603v66q0 8-4 14.5t-10.5 10.5q-6.5 4-14.5 4-12 0-20-8.5t-8-20.5v-66q0-12 8-21t20-9q12 0 20.5 9t8.5 21zm-273-519l-45-45q-8-8-8-20t8.5-21q8.5-9 20.5-9t20 8l45 46q7 8 7 19 0 12-8.5 20.5t-20.5 8.5q-11 0-19-7zm488 405l46 46q9 9 9 21 0 8-4 14.5t-11 10.5q-7 4-14 4h-1q-12 0-21-9l-45-45q-10-9-10-22 0-12 8.5-20.5t20.5-8.5q13-1 22 9z"/></svg>