<svg viewBox="0 0 1237 1074.237" xmlns="http://www.w3.org/2000/svg"><path d="M888 650.237q15 44 22 69t7 45q0 24-8.5 45t-23.5 36.5q-15 15.5-34.5 24.5t-41.5 9q-26 0-48.5-10.5t-36.5-24.5l-145-147q-11-9-27-11H364q-15 0-27 11l-144 147q-14 14-37.5 24.5t-49.5 10.5q-47 0-76.5-29.5T0 764.237q0-11 1-19.5t3-18.5q5-20 11.5-39t12.5-36l92-270q13-36 41.5-59t73.5-23h135q8-13 22-21.5t29-8.5h74q14 0 29.5 8.5t21.5 21.5h135q41 0 72 23.5t43 58.5l92 269zm-131-255q-8-23-28.5-39t-47.5-16H517l-4-14q-1-6-7-10.5t-11-5.5h-74q-5 1-11 5.5t-7 10.5l-4 14H235q-29 0-48.5 16t-27.5 39l-92 270q-7 20-11.5 35t-7.5 26q-3 11-4.5 20t-1.5 18q0 34 18 53.5t46 19.5q19 0 32.5-6.5t23.5-16.5l147-146q10-11 25.5-17.5t29.5-6.5h188q14 0 29.5 6.5t25.5 17.5l149 146q23 23 53 23 14 0 26-6.5t21-17q9-10.5 14-23.5t5-26q0-19-6.5-40t-18.5-55l-93-274zm-179 55q14 0 22 9.5t8 21.5q0 14-9 23t-21 9q-12 0-22-9t-10-23q0-13 9-22t23-9zm128 0q13 1 22.5 9t9.5 21q0 14-9.5 23.5t-22.5 9.5q-14 0-23-9.5t-9-23.5q0-14 9.5-22t22.5-8zm-406-48v59h59v41h-59v59h-42v-59h-57v-41h57v-59h42zm342-16q14 0 22 9.5t8 21.5q0 14-9 23t-21 9q-13 0-22.5-9t-9.5-23q0-13 9-22t23-9zm0 128q14 0 22 9.5t8 21.5q0 14-9 23t-21 9q-13 0-22.5-9t-9.5-23q0-13 9-22t23-9z"/></svg>