<svg width="1075" height="1075" viewBox="0 0 1075 1075" fill="none" xmlns="http://www.w3.org/2000/svg">
<path d="M160 988C140 988 123 981 109 967C95 953 88 936 88 916V232C88 212 95 195 109 181C123 167 140 160 160 160H724L754 130C768 116 783.667 105.5 801 98.5C818.333 91.5 836 88 854 88C870.667 88 886.833 91 902.5 97C918.167 103 932.333 112 945 124C958.333 136.667 968.833 151.167 976.5 167.5C984.167 183.833 988 201.333 988 220C988 239.333 984.5 257.333 977.5 274C970.5 290.667 960.667 305.333 948 318L916 350V745C916 755 913.333 762.667 908 768L696 979C690 985 683 988 675 988H160ZM762 198L877 313L910 280C926 264 934 244.333 934 221C934 197.667 925.333 178.333 908 163C892.667 149 874.667 142 854 142C842.667 142 831.667 144.167 821 148.5C810.333 152.833 800.667 159.333 792 168L762 198ZM340 808C320 808 303 801 289 787C275 773 268 756 268 736V626C268 618.667 270.667 612.333 276 607L670 214H160C154.667 214 150.333 215.667 147 219C143.667 222.333 142 226.667 142 232V916C142 921.333 143.667 925.667 147 929C150.333 932.333 154.667 934 160 934H646V790C646 770 653 753 667 739C681 725 698 718 718 718H862V404L466 800C460.667 805.333 454.333 808 447 808H340ZM322 638V736C322 741.333 323.667 745.667 327 749C330.333 752.333 334.667 754 340 754H436L839 351L724 236L322 638ZM718 772C712.667 772 708.333 773.667 705 777C701.667 780.333 700 784.667 700 790V899L827 772H718Z" fill="black"/>
</svg>
