<svg viewBox="0 0 1193 1074.237" xmlns="http://www.w3.org/2000/svg"><path d="M72 981.237q-30 0-51-21t-21-51v-684q0-30 21-51t51-21h564l30-30q21-21 47-31.5t53-10.5q25 0 48.5 9t42.5 27q20 19 31.5 43.5t11.5 52.5q0 29-10.5 54t-29.5 44l-32 32v395q0 15-8 23l-212 211q-9 9-21 9H72zm602-790l115 115 33-33q24-24 24-59t-26-58q-23-21-54-21-17 0-33 6.5t-29 19.5l-30 30zm-422 610q-30 0-51-21t-21-51v-110q0-11 8-19l394-393H72q-8 0-13 5t-5 13v684q0 8 5 13t13 5h486v-144q0-30 21-51t51-21h144v-314l-396 396q-8 8-19 8H252zm-18-170v98q0 8 5 13t13 5h96l403-403-115-115-402 402zm396 134q-8 0-13 5t-5 13v109l127-127H630z"/></svg>