<svg width="1075" height="1075" viewBox="0 0 1075 1075" fill="none" xmlns="http://www.w3.org/2000/svg">
<path d="M891 776C904.333 789.333 911 805.333 911 824C911 842.667 904.333 858.667 891 872L872 891C858.667 904.333 842.667 911 824 911C805.333 911 789.333 904.333 776 891L629 744L524 702L443 620C421 641.333 394.667 652 364 652C332.667 652 305.667 640.833 283 618.5C260.333 596.167 249 569 249 537C249 506.333 259.667 480 281 458L185 362C171.667 348.667 165 332.667 165 314C165 295.333 171.667 279.667 185 267L267 184C280.333 170.667 296.333 164 315 164C333.667 164 349.667 170.667 363 184L702 524L744 628L891 776ZM552 660L633 693L693 633L661 551L328 219C324 215 319.5 213 314.5 213C309.5 213 305.333 215 302 219L219 301C215 305 213.167 309.5 213.5 314.5C213.833 319.5 215.667 324 219 328L322 430C335.333 424.667 349 422.333 363 423C395 423 422.167 434.167 444.5 456.5C466.833 478.833 478 505.667 478 537C478 551 475.667 565 471 579L552 660ZM857 837C860.333 833.667 862 829.333 862 824C862 818.667 860.333 814 857 810L721 674L675 720L811 856C815 859.333 819.5 861.167 824.5 861.5C829.5 861.833 834 860 838 856L857 837Z" fill="black"/>
</svg>
