<svg viewBox="0 0 1152 1074.237" xmlns="http://www.w3.org/2000/svg"><path d="M726 822.237q20 20 20 48t-20 48l-19 19q-20 20-48 20t-48-20l-147-147-105-42-81-82q-33 32-79 32-47 0-81-33.5t-34-81.5q0-46 32-79l-96-96q-20-20-20-48t20-47l82-83q20-20 48-20t48 20l339 340 42 104 147 148zm-339-116l81 33 60-60-32-82-333-332q-6-6-13.5-6t-12.5 6l-83 82q-6 6-5.5 13.5t5.5 13.5l103 102q20-8 41-7 48 0 81.5 33.5t33.5 80.5q0 21-7 42l81 81zm305 177q5-5 5-13t-5-14l-136-136-46 46 136 136q6 5 13.5 5.5t13.5-5.5l19-19z"/></svg>