<svg width="1075" height="1075" viewBox="0 0 1075 1075" fill="none" xmlns="http://www.w3.org/2000/svg">
<path d="M537 123C579 123 620.167 128.5 660.5 139.5C700.833 150.5 738 166 772 186C806 206 837.333 230.5 866 259.5C894.667 288.5 919 320 939 354C959 388 974.5 425 985.5 465C996.5 505 1002 546.667 1002 590C1002 635.333 991.833 686.5 971.5 743.5C951.167 800.5 926.667 846.667 898 882L856 848C867.333 834.667 877.667 820.667 887 806L815 765L829 742L900 782C912 758.667 922.833 729.333 932.5 694C942.167 658.667 947.667 627.667 949 601H865V574H949C948.333 547.333 943 516.333 933 481C923 445.667 912 416.333 900 393L829 436L815 412L887 371C877.667 356.333 865.5 340.667 850.5 324C835.5 307.333 819.333 291.333 802 276C784.667 260.667 768.667 248.333 754 239L712 310L689 296L731 226C707.667 213.333 678.5 202.167 643.5 192.5C608.5 182.833 577.667 178 551 178V259H523V176C496.333 176.667 465.5 181.833 430.5 191.5C395.5 201.167 366.333 212.333 343 225L385 295L361 309L319 239C267.667 270.333 223.167 319 185.5 385C147.833 451 127.667 514.333 125 575H208V603H127C127.667 629 132.667 659.667 142 695C151.333 730.333 162 759.667 174 783L245 741L259 764L188 806C198 820.667 208 834.667 218 848L176 883C147.333 847 123 800.167 103 742.5C83 684.833 73 633.333 73 588C73 524.667 85 464.5 109 407.5C133 350.5 165.833 301 207.5 259C249.167 217 298.667 183.833 356 159.5C413.333 135.167 473.667 123 537 123ZM536 683C526.667 683 517.667 681.667 509 679C491 673.667 475.333 662.167 462 644.5C448.667 626.833 442 608 442 588C442 578 443.667 568.667 447 560L234 438C230 434 228 428.833 228 422.5C228 416.167 230 411.167 234 407.5C238 403.833 243 402 249 402H255L468 525C476 517 486.667 509.667 500 503C513.333 496.333 526 493 538 493C564 493 586.333 502.333 605 521C623.667 539.667 633 562 633 588C633 614 623.667 636.333 605 655C586.333 673.667 564 683 538 683H536ZM537 535V534C522.333 534 509.5 539.333 498.5 550C487.5 560.667 482 573.333 482 588V590C482 605.333 487.5 618.167 498.5 628.5C509.5 638.833 522.333 644 537 644C551.667 644 564.333 638.667 575 628C585.667 617.333 591 604.5 591 589.5C591 574.5 585.667 561.667 575 551C564.333 540.333 551.667 535 537 535ZM685 778C698.333 778 709.667 782.5 719 791.5C728.333 800.5 733 811.667 733 825V906C733 918.667 728.333 929.5 719 938.5C709.667 947.5 698.333 952 685 952H389C375.667 952 364.333 947.5 355 938.5C345.667 929.5 341 918.667 341 906V825C341 811.667 345.667 800.5 355 791.5C364.333 782.5 375.667 778 389 778H685ZM692 906V825C692 821 689.667 818.667 685 818H389C384.333 818 381.667 820.333 381 825V906C381 910 383.667 912 389 912H685C689.667 912 692 910 692 906Z" fill="black"/>
</svg>
