<svg width="1075" height="1075" viewBox="0 0 1075 1075" fill="none" xmlns="http://www.w3.org/2000/svg">
<path d="M537 123C579 123 620.167 128.5 660.5 139.5C700.833 150.5 738 166 772 186C806 206 837.333 230.5 866 259.5C894.667 288.5 919 320 939 354C959 388 974.5 425 985.5 465C996.5 505 1002 546.667 1002 590C1002 635.333 991.833 686.5 971.5 743.5C951.167 800.5 926.667 846.667 898 882L856 848C867.333 834.667 877.667 820.667 887 806L815 765L829 742L900 783C912 759.667 922.833 730.5 932.5 695.5C942.167 660.5 947.667 629.667 949 603H865V575H948C946.667 514.333 927 451.167 889 385.5C851 319.833 806 271 754 239L712 310L689 296L731 226C707.667 213.333 678.5 202.167 643.5 192.5C608.5 182.833 577.667 178 551 178V260H523V178C496.333 178.667 465.5 183.667 430.5 193C395.5 202.333 366.333 213.333 343 226L385 296L361 310L319 239C297 253 273.167 273 247.5 299C221.833 325 202 349 188 371L259 413L245 436L174 394C161.333 417.333 150.333 446.667 141 482C131.667 517.333 126.333 548.333 125 575H208V603H127C127.667 629 132.667 659.667 142 695C151.333 730.333 162 759.667 174 783L245 741L259 764L188 806C198 820.667 208 834.667 218 848L176 883C147.333 847 123 800.167 103 742.5C83 684.833 73 633.333 73 588C73 524.667 85 464.5 109 407.5C133 350.5 165.833 301 207.5 259C249.167 217 298.667 183.833 356 159.5C413.333 135.167 473.667 123 537 123ZM847 409C849 412.333 850 416 850 420C850 428 846.333 434 839 438L628 560C630.667 569.333 632 578.667 632 588V590C632 616 622.833 638 604.5 656C586.167 674 563.667 683 537 683C520.333 683 504.833 678.833 490.5 670.5C476.167 662.167 464.667 650.667 456 636C447.333 621.333 443 606 443 590C443 564 452.167 541.5 470.5 522.5C488.833 503.5 511 494 537 494C549 494 561.833 497.167 575.5 503.5C589.167 509.833 600 517 608 525L819 402C821.667 400.667 825 400 829 400C837 400 843 403 847 409ZM591 588C591 573.333 585.667 560.667 575 550C564.333 539.333 551.667 534 537 534C522.333 534 509.5 539.333 498.5 550C487.5 560.667 482 573.333 482 588C482 602.667 487.5 615.5 498.5 626.5C509.5 637.5 522.333 643 537 643C551.667 643 564.333 637.667 575 627C585.667 616.333 591 603.333 591 588ZM685 778C698.333 778 709.667 782.5 719 791.5C728.333 800.5 733 811.667 733 825V906C733 918.667 728.333 929.5 719 938.5C709.667 947.5 698.333 952 685 952H389C375.667 952 364.333 947.5 355 938.5C345.667 929.5 341 918.667 341 906V825C341 811.667 345.667 800.5 355 791.5C364.333 782.5 375.667 778 389 778H685ZM692 906V825C692 821 689.667 818.667 685 818H389C384.333 818 381.667 820.333 381 825V906C381 910 383.667 912 389 912H685C689.667 912 692 910 692 906Z" fill="black"/>
</svg>
