<svg width="1075" height="1075" viewBox="0 0 1075 1075" fill="none" xmlns="http://www.w3.org/2000/svg">
<path d="M537 123C579 123 620.167 128.5 660.5 139.5C700.833 150.5 738 166 772 186C806 206 837.333 230.5 866 259.5C894.667 288.5 919 320 939 354C959 388 974.5 425 985.5 465C996.5 505 1002 546.667 1002 590C1002 635.333 991.833 686.5 971.5 743.5C951.167 800.5 926.667 846.667 898 882L856 848C867.333 834.667 877.667 820.667 887 806L815 765L829 742L900 782C912 758.667 922.833 729.333 932.5 694C942.167 658.667 947.667 627.667 949 601H865V574H949C948.333 547.333 943 516.333 933 481C923 445.667 912 416.333 900 393L829 436L815 412L887 371C877.667 356.333 865.5 340.667 850.5 324C835.5 307.333 819.333 291.333 802 276C784.667 260.667 768.667 248.333 754 239L712 310L689 296L731 226C715 216.667 695.167 208.333 671.5 201C647.833 193.667 624.167 187.667 600.5 183C576.833 178.333 555.667 176 537 176C508.333 176 475.167 180.833 437.5 190.5C399.833 200.167 368.333 212 343 226L385 296L361 310L319 239C297 253 273.167 273 247.5 299C221.833 325 202 349 188 371L259 413L245 436L174 394C161.333 417.333 150.333 446.667 141 482C131.667 517.333 126.333 548.333 125 575H208V603H127C127.667 629 132.667 659.667 142 695C151.333 730.333 162 759.667 174 783L245 741L259 764L188 806C198 820.667 208 834.667 218 848L176 883C147.333 847 123 800.167 103 742.5C83 684.833 73 633.333 73 588C73 524.667 85 464.5 109 407.5C133 350.5 165.833 301 207.5 259C249.167 217 298.667 183.833 356 159.5C413.333 135.167 473.667 123 537 123ZM537 231H535C541 231 546 232.833 550 236.5C554 240.167 556 245 556 251V496C577.333 500 595.167 511.333 609.5 530C623.833 548.667 631 568.667 631 590C631 616 621.667 638.167 603 656.5C584.333 674.833 562 684 536 684C510 684 487.667 674.667 469 656C450.333 637.333 441 615.333 441 590C441 576 444.333 562.333 451 549C457.667 535.667 466.833 524.333 478.5 515C490.167 505.667 502.667 499.333 516 496V251C516 245.667 518.167 241 522.5 237C526.833 233 531.667 231 537 231ZM591 588C591 578 588.5 569 583.5 561C578.5 553 572 546.5 564 541.5C556 536.5 547 534 537 534C522.333 534 509.5 539.333 498.5 550C487.5 560.667 482 573.5 482 588.5C482 603.5 487.5 616.333 498.5 627C509.5 637.667 522.333 643 537 643C551.667 643 564.333 637.667 575 627C585.667 616.333 591 604 591 590V588ZM685 778C698.333 778 709.667 782.5 719 791.5C728.333 800.5 733 811.667 733 825V906C733 918.667 728.333 929.5 719 938.5C709.667 947.5 698.333 952 685 952H389C375.667 952 364.333 947.5 355 938.5C345.667 929.5 341 918.667 341 906V825C341 811.667 345.667 800.5 355 791.5C364.333 782.5 375.667 778 389 778H685ZM692 906V825C692 821 689.667 818.667 685 818H389C384.333 818 381.667 820.333 381 825V906C381 910 383.667 912 389 912H685C689.667 912 692 910 692 906Z" fill="black"/>
</svg>
