<svg width="1075" height="1075" viewBox="0 0 1075 1075" fill="none" xmlns="http://www.w3.org/2000/svg">
<path d="M142 214C136.667 214 132.333 215.667 129 219C125.667 222.333 124 226.667 124 232V718C124 723.333 125.667 727.667 129 731C132.333 734.333 136.667 736 142 736H934C939.333 736 943.667 734.333 947 731C950.333 727.667 952 723.333 952 718V232C952 226.667 950.333 222.333 947 219C943.667 215.667 939.333 214 934 214H142ZM142 790C122 790 105 783 91 769C77 755 70 738 70 718V232C70 212 77 195 91 181C105 167 122 160 142 160H934C954 160 971 167 985 181C999 195 1006 212 1006 232V718C1006 738 999 755 985 769C971 783 954 790 934 790H142ZM331 916C323.667 916 317.333 913.333 312 908C306.667 902.667 304 896.333 304 889C304 881.667 306.667 875.333 312 870C317.333 864.667 323.667 862 331 862H745C752.333 862 758.667 864.667 764 870C769.333 875.333 772 881.667 772 889C772 896.333 769.333 902.667 764 908C758.667 913.333 752.333 916 745 916H331Z" fill="black"/>
</svg>
