<svg width="1075" height="1075" viewBox="0 0 1075 1075" fill="none" xmlns="http://www.w3.org/2000/svg">
<path d="M409 673V375L649 523L409 673ZM552 852L540 902C525.333 904 510.333 905 495 905C427 904.333 363.833 887.167 305.5 853.5C247.167 819.833 201.167 773.833 167.5 715.5C133.833 657.167 117 594 117 526C117 457.333 134 393.667 168 335C202 276.333 248 230.333 306 197C364 163.667 427.333 147 496 147C560 147 620.167 162.667 676.5 194C732.833 225.333 779 268.167 815 322.5C851 376.833 870.667 436 874 500L826 548C826.667 544 827.167 540.167 827.5 536.5C827.833 532.833 827.333 529 826 525C826 433 793.833 354.833 729.5 290.5C665.167 226.167 587.167 194 495.5 194C403.833 194 325.667 226.167 261 290.5C196.333 354.833 164 432.833 164 524.5C164 616.167 196.333 694.5 261 759.5C325.667 824.5 403.667 857 495 857C514.333 857 533.333 855.333 552 852ZM698 884L639 825L900 564L959 623L698 884ZM675 907L594 928L616 848L675 907Z" fill="black"/>
</svg>
