<svg viewBox="0 0 1247 1074.237" xmlns="http://www.w3.org/2000/svg"><path d="M107 962.237q-22 0-41.5-8.5t-34-23.5q-14.5-15-23-34.5t-8.5-41.5q0-22 8.5-41.5t23-34q14.5-14.5 34-23t42.5-8.5q24 0 44.5 9.5t35.5 26.5l119-67q-10-27-10-60 0-32 11-60.5t30-51q19-22.5 45.5-37.5t56.5-20v-140q-35-10-57.5-38.5t-22.5-66.5q0-22 8.5-41.5t23-34q14.5-14.5 34-23t42.5-8.5q22 0 41.5 8.5t34.5 23q15 14.5 23.5 34t8.5 41.5q0 38-23.5 67t-58.5 38v140q31 5 57 20t45.5 37.5q19.5 22.5 30.5 51t11 60.5q0 32-11 60l120 67q15-17 36-26.5t45-9.5q22 0 41.5 8.5t34.5 23q15 14.5 23.5 34t8.5 41.5q0 23-8.5 42.5t-23.5 34q-15 14.5-35 23t-42 8.5q-22 0-41.5-8.5t-34-23.5q-14.5-15-23-34.5t-8.5-41.5q0-6 .5-12t1.5-12l-122-67q-23 29-57.5 46.5t-75.5 17.5q-41 0-75.5-17.5t-57.5-46.5l-120 67q2 5 2 11v13q0 23-8.5 42.5t-23.5 34q-15 14.5-35 23t-42 8.5zm360-423q-24 0-45 9.5t-37 25q-16 15.5-25 37t-9 45.5q0 24 9 45.5t25 37.5q16 16 37 25t45 9q24 0 45.5-9t37.5-25q16-16 25-37.5t9-45.5q0-24-9-45.5t-25-37q-16-15.5-37.5-25t-45.5-9.5zm360 261q-23 0-38 15.5t-15 38.5q0 23 15.5 38.5t38.5 15.5q23 0 38.5-15.5t15.5-38.5q0-23-16-38.5t-39-15.5zm-360-612q-22 0-37.5 16t-15.5 38q0 23 15.5 38.5t38.5 15.5q23 0 38.5-15.5t15.5-38.5q0-23-16-38.5t-39-15.5zm-360 612q-22 0-37.5 15.5t-15.5 38.5q0 23 15.5 38.5t38.5 15.5q23 0 38.5-15.5t15.5-38.5q0-23-17-38.5t-38-15.5z"/></svg>