<svg width="1075" height="1075" viewBox="0 0 1075 1075" fill="none" xmlns="http://www.w3.org/2000/svg">
<path d="M177 951C162.333 951 148.5 948.167 135.5 942.5C122.5 936.833 111.167 929 101.5 919C91.8333 909 84.1667 897.5 78.5 884.5C72.8333 871.5 70 857.667 70 843C70 828.333 72.8333 814.5 78.5 801.5C84.1667 788.5 91.8333 777.167 101.5 767.5C111.167 757.833 122.5 750.167 135.5 744.5C148.5 738.833 162.667 736 178 736C194 736 208.833 739.167 222.5 745.5C236.167 751.833 248 760.667 258 772L377 705C370.333 687 367 667 367 645C367 623.667 370.667 603.5 378 584.5C385.333 565.5 395.333 548.5 408 533.5C420.667 518.5 435.833 506 453.5 496C471.167 486 490 479.333 510 476V336C486.667 329.333 467.5 316.5 452.5 297.5C437.5 278.5 430 256.333 430 231C430 216.333 432.833 202.5 438.5 189.5C444.167 176.5 451.833 165.167 461.5 155.5C471.167 145.833 482.5 138.167 495.5 132.5C508.5 126.833 522.667 124 538 124C552.667 124 566.5 126.833 579.5 132.5C592.5 138.167 604 145.833 614 155.5C624 165.167 631.833 176.5 637.5 189.5C643.167 202.5 646 216.333 646 231C646 256.333 638.167 278.667 622.5 298C606.833 317.333 587.333 330 564 336V476C584.667 479.333 603.667 486 621 496C638.333 506 653.5 518.5 666.5 533.5C679.5 548.5 689.667 565.5 697 584.5C704.333 603.5 708 623.667 708 645C708 666.333 704.333 686.333 697 705L817 772C827 760.667 839 751.833 853 745.5C867 739.167 882 736 898 736C912.667 736 926.5 738.833 939.5 744.5C952.5 750.167 964 757.833 974 767.5C984 777.167 991.833 788.5 997.5 801.5C1003.17 814.5 1006 828.333 1006 843C1006 858.333 1003.17 872.5 997.5 885.5C991.833 898.5 984 909.833 974 919.5C964 929.167 952.333 936.833 939 942.5C925.667 948.167 911.667 951 897 951C882.333 951 868.5 948.167 855.5 942.5C842.5 936.833 831.167 929 821.5 919C811.833 909 804.167 897.5 798.5 884.5C792.833 871.5 790 857.667 790 843C790 839 790.167 835 790.5 831C790.833 827 791.333 823 792 819L670 752C654.667 771.333 635.5 786.833 612.5 798.5C589.5 810.167 564.333 816 537 816C509.667 816 484.5 810.167 461.5 798.5C438.5 786.833 419.333 771.333 404 752L284 819C285.333 822.333 286 826 286 830V843C286 858.333 283.167 872.5 277.5 885.5C271.833 898.5 264 909.833 254 919.5C244 929.167 232.333 936.833 219 942.5C205.667 948.167 191.667 951 177 951ZM537 528C521 528 506 531.167 492 537.5C478 543.833 465.667 552.167 455 562.5C444.333 572.833 436 585.167 430 599.5C424 613.833 421 629 421 645C421 661 424 676.167 430 690.5C436 704.833 444.333 717.333 455 728C465.667 738.667 478 747 492 753C506 759 521 762 537 762C553 762 568.167 759 582.5 753C596.833 747 609.333 738.667 620 728C630.667 717.333 639 704.833 645 690.5C651 676.167 654 661 654 645C654 629 651 613.833 645 599.5C639 585.167 630.667 572.833 620 562.5C609.333 552.167 596.833 543.833 582.5 537.5C568.167 531.167 553 528 537 528ZM897 789C881.667 789 869 794.167 859 804.5C849 814.833 844 827.667 844 843C844 858.333 849.167 871.167 859.5 881.5C869.833 891.833 882.667 897 898 897C913.333 897 926.167 891.833 936.5 881.5C946.833 871.167 952 858.333 952 843C952 827.667 946.667 814.833 936 804.5C925.333 794.167 912.333 789 897 789ZM537 177C522.333 177 509.833 182.333 499.5 193C489.167 203.667 484 216.333 484 231C484 246.333 489.167 259.167 499.5 269.5C509.833 279.833 522.667 285 538 285C553.333 285 566.167 279.833 576.5 269.5C586.833 259.167 592 246.333 592 231C592 215.667 586.667 202.833 576 192.5C565.333 182.167 552.333 177 537 177ZM177 789C162.333 789 149.833 794.167 139.5 804.5C129.167 814.833 124 827.667 124 843C124 858.333 129.167 871.167 139.5 881.5C149.833 891.833 162.667 897 178 897C193.333 897 206.167 891.833 216.5 881.5C226.833 871.167 232 858.333 232 843C232 827.667 226.333 814.833 215 804.5C203.667 794.167 191 789 177 789Z" fill="black"/>
</svg>
