<svg viewBox="0 0 1238 1074.237" xmlns="http://www.w3.org/2000/svg"><path d="M802 445.237q48 0 81.5 34t33.5 82q0 48-33.5 82t-81.5 34q-20 0-37-6-60 50-162 73-4 57-45.5 96t-98.5 39q-38 0-70-18t-51.5-49q-19.5-31-22.5-68-103-24-162-74-18 7-38 7-48 0-81.5-34t-33.5-82q0-48 33.5-82t81.5-34q22 0 43 8 77-62 213-80 7-30 31.5-50t56.5-20q32 0 56.5 20t31.5 50q136 19 213 80 20-8 42-8zm-343-95q-12 0-22.5 6t-16.5 16q-6 10-6 22 0 19 13 32t31.5 13q18.5 0 31.5-13t13-31.5q0-18.5-13-31.5t-31-13zm-392 162q-21 20-21 49t20.5 49.5q20.5 20.5 49.5 20.5t49.5-20.5q20.5-20.5 20.5-49.5t-20.5-49.5q-20.5-20.5-49.5-20.5t-49 21zm392 320q40 0 69-28.5t29-69.5q0-41-29-69.5t-69.5-28.5q-40.5 0-69 28.5t-28.5 69.5q0 27 13 49.5t35.5 35.5q22.5 13 49.5 13zm139-135q68-14 125-52-36-35-36-84 0-47 33-81-66-44-174-60-8 29-32 47t-54.5 18q-30.5 0-54.5-18t-33-47q-107 15-173 60 33 34 33 81 0 49-37 84 57 38 125 52 12-47 50.5-77t88.5-30q33 0 62 14t49 38q20 24 28 55zm204-66q29 0 49.5-20.5t20.5-49.5q0-29-20.5-49.5t-49.5-20.5q-29 0-49.5 20.5t-20.5 49.5q0 19 9.5 35t25.5 25.5q16 9.5 35 9.5z"/></svg>