<svg width="1075" height="1075" viewBox="0 0 1075 1075" fill="none" xmlns="http://www.w3.org/2000/svg">
<path d="M881 392C913 392 940.167 403.333 962.5 426C984.833 448.667 996 476 996 508C996 540 984.833 567.333 962.5 590C940.167 612.667 913 624 881 624C867.667 624 855.333 622 844 618C804 651.333 750 675.667 682 691C679.333 729 664.167 761 636.5 787C608.833 813 576 826 538 826C512.667 826 489.333 820 468 808C446.667 796 429.5 779.667 416.5 759C403.5 738.333 396 715.667 394 691C325.333 675 271.333 650.333 232 617C220 621.667 207.333 624 194 624C162 624 134.833 612.667 112.5 590C90.1667 567.333 79 540 79 508C79 476 90.1667 448.667 112.5 426C134.833 403.333 162 392 194 392C208.667 392 223 394.667 237 400C288.333 358.667 359.333 332 450 320C454.667 300 465.167 283.333 481.5 270C497.833 256.667 516.667 250 538 250C559.333 250 578.167 256.667 594.5 270C610.833 283.333 621.333 300 626 320C716.667 332.667 787.667 359.333 839 400C852.333 394.667 866.333 392 881 392ZM538 297C530 297 522.5 299 515.5 303C508.5 307 503 312.333 499 319C495 325.667 493 333 493 341C493 353.667 497.333 364.333 506 373C514.667 381.667 525.167 386 537.5 386C549.833 386 560.333 381.667 569 373C577.667 364.333 582 353.833 582 341.5C582 329.167 577.667 318.667 569 310C560.333 301.333 550 297 538 297ZM146 459C132 472.333 125 488.667 125 508C125 527.333 131.833 543.833 145.5 557.5C159.167 571.167 175.667 578 195 578C214.333 578 230.833 571.167 244.5 557.5C258.167 543.833 265 527.333 265 508C265 488.667 258.167 472.167 244.5 458.5C230.833 444.833 214.333 438 195 438C175.667 438 159.333 445 146 459ZM538 779C564.667 779 587.667 769.5 607 750.5C626.333 731.5 636 708.333 636 681C636 653.667 626.333 630.5 607 611.5C587.667 592.5 564.5 583 537.5 583C510.5 583 487.5 592.5 468.5 611.5C449.5 630.5 440 653.667 440 681C440 699 444.333 715.5 453 730.5C461.667 745.5 473.5 757.333 488.5 766C503.5 774.667 520 779 538 779ZM677 644C722.333 634.667 764 617.333 802 592C778 568.667 766 540.667 766 508C766 476.667 777 449.667 799 427C755 397.667 697 377.667 625 367C619.667 386.333 609 402 593 414C577 426 558.833 432 538.5 432C518.167 432 500 426 484 414C468 402 457 386.333 451 367C379.667 377 322 397 278 427C300 449.667 311 476.667 311 508C311 540.667 298.667 568.667 274 592C312 617.333 353.667 634.667 399 644C407 612.667 423.833 587 449.5 567C475.167 547 504.667 537 538 537C560 537 580.667 541.667 600 551C619.333 560.333 635.667 573 649 589C662.333 605 671.667 623.333 677 644ZM881 578C900.333 578 916.833 571.167 930.5 557.5C944.167 543.833 951 527.333 951 508C951 488.667 944.167 472.167 930.5 458.5C916.833 444.833 900.333 438 881 438C861.667 438 845.167 444.833 831.5 458.5C817.833 472.167 811 488.667 811 508C811 520.667 814.167 532.333 820.5 543C826.833 553.667 835.333 562.167 846 568.5C856.667 574.833 868.333 578 881 578Z" fill="black"/>
</svg>
