<svg viewBox="0 0 1257 1074.237" xmlns="http://www.w3.org/2000/svg"><path d="M292 571.237q0 94-46.5 137.5t-135.5 44.5H0v-363h110q89 0 135.5 44.5t46.5 136.5zm-247-134v269h61q20 0 44.5-9t39.5-22q33-32 32.5-104t-32.5-102q-9-8-24-16t-31-12.5q-16-4.5-29-4.5-5 0-9 1H45zm595-47v363h-63l-142-232-29-48h-2v280h-55v-363h63l124 201 47 80h2l-2-65v-216h57zm259 271v-2q0-8-3-17-3-8-10-14-9-8-22-14-17-8-34-15-31-9-59-23-22-11-39-25-15-12-22-31-6-17-7-36v-2q-1-1-1-3 0-17 10-37t24-31q16-11 41.5-19t45.5-8h14q27 0 55 8 26 8 49 21l-21 43q-20-12-42-19-21-7-43-7h-10q-26 0-49 12-18 12-18 34v4q0 9 3 19 4 9 13 18 12 9 26 15 21 9 42 16 27 8 53 21 19 8 35 23 15 12 21 28 5 16 5 32v10q0 18-9.5 38.5t-24.5 31.5q-18 11-44 18.5t-47 7.5h-17q-32 0-63-8-29-6-56-21l19-44q24 14 51 21 24 7 51 8h7q28 0 55-14 3-2 6.5-5t6-7q2.5-4 4.5-7.5t3-8q1-4.5 1-8.5v-3z"/></svg>