<svg width="1075" height="1075" viewBox="0 0 1075 1075" fill="none" xmlns="http://www.w3.org/2000/svg">
<path d="M352 538C352 600.667 336.5 646.5 305.5 675.5C274.5 704.5 229.333 719.333 170 720H60V357H170C229.333 357 274.5 371.833 305.5 401.5C336.5 431.167 352 476.667 352 538ZM105 404V673H166C179.333 673 194.167 670 210.5 664C226.833 658 240 650.667 250 642C272 620.667 282.833 586 282.5 538C282.167 490 271.333 456 250 436C244 430.667 236 425.333 226 420C216 414.667 205.667 410.5 195 407.5C184.333 404.5 174.667 403 166 403C162.667 403 159.667 403.333 157 404H105ZM700 357V720H637L495 488L466 440H464V720H409V357H472L596 558L643 638H645L643 573V357H700ZM959 628V626C959 620.667 958 615 956 609C954 603.667 950.667 599 946 595C940 589.667 932.667 585 924 581C912.667 575.667 901.333 570.667 890 566C869.333 560 849.667 552.333 831 543C816.333 535.667 803.333 527.333 792 518C782 510 774.667 499.667 770 487C766 475.667 763.667 463.667 763 451V449C762.333 448.333 762 447.333 762 446C762 434.667 765.333 422.333 772 409C778.667 395.667 786.667 385.333 796 378C806.667 370.667 820.5 364.333 837.5 359C854.5 353.667 869.667 351 883 351H897C915 351 933.333 353.667 952 359C969.333 364.333 985.667 371.333 1001 380L980 423C966.667 415 952.667 408.667 938 404C924 399.333 909.667 397 895 397H885C867.667 397 851.333 401 836 409C824 417 818 428.333 818 443V447C818 453 819 459.333 821 466C823.667 472 828 478 834 484C842 490 850.667 495 860 499C874 505 888 510.333 902 515C920 520.333 937.667 527.333 955 536C967.667 541.333 979.333 549 990 559C1000 567 1007 576.333 1011 587C1014.33 597.667 1016 608.333 1016 619V629C1016 641 1012.83 653.833 1006.5 667.5C1000.17 681.167 992 691.667 982 699C970 706.333 955.333 712.5 938 717.5C920.667 722.5 905 725 891 725H874C852.667 725 831.667 722.333 811 717C791.667 713 773 706 755 696L774 652C790 661.333 807 668.333 825 673C841 677.667 858 680.333 876 681H883C901.667 681 920 676.333 938 667C940 665.667 942.167 664 944.5 662C946.833 660 948.833 657.667 950.5 655C952.167 652.333 953.667 649.833 955 647.5C956.333 645.167 957.333 642.5 958 639.5C958.667 636.5 959 633.667 959 631V628Z" fill="black"/>
</svg>
