<svg viewBox="0 0 1103 1074.237" xmlns="http://www.w3.org/2000/svg"><path d="M216 766.237q-26 0-49-10t-40-27q-17-17-27-40t-10-49q0-11 8-19t19-8q11 0 19 8t8 19q0 15 5.5 28t15.5 22.5q10 9.5 23 15.5t27 6q31 0 52-20.5t21-50.5q0-21-10.5-38.5t-29.5-27.5q-45-23-70-62t-25-90q0-35 13.5-66t36.5-54q23-23 54-36.5t67-13.5q36 0 67 13.5t54 36.5q23 23 36.5 54t13.5 67q0 11-8 19t-19 8q-11 0-19-8t-8-19q0-24-9-45.5t-25-37q-16-15.5-37-25t-45-9.5q-24 0-45.5 9.5t-37.5 25q-16 15.5-25.5 37t-9.5 45.5q0 33 17.5 60.5t47.5 42.5q32 16 50.5 46t18.5 66q0 27-9.5 50t-26.5 40q-17 17-40 27t-49 10zm36 270q-41 0-77-15.5t-63-42.5q-27-27-42.5-63t-15.5-77q0-11 8-19t19-8q11 0 19 8t8 19q0 30 11 56t30.5 45.5q19.5 19.5 45.5 31t56 11.5q28 0 52.5-10t44-27.5q19.5-17.5 32-41.5t15.5-51q1-6 1-12v-12q-4-55 18.5-104t67.5-81q54-38 83-95.5t29-123.5q0-54-21.5-103t-58.5-86q-37-37-85.5-59t-102.5-22q-56 0-105.5 21t-86.5 58q-37 37-58.5 86t-21.5 105q0 11-8 19t-19 8q-11 0-19-8t-8-19q0-68 25.5-127t69.5-103q44-44 103-69t127-25q65 0 123.5 26t103 70.5q44.5 44.5 70.5 103.5t26 125q0 78-35.5 147t-99.5 115q-32 23-48.5 59.5t-14.5 78.5q1 8 .5 15.5t-1.5 15.5q-4 38-20.5 71t-43 57q-26.5 24-60.5 38t-73 14z"/></svg>