<svg width="1075" height="1075" viewBox="0 0 1075 1075" fill="none" xmlns="http://www.w3.org/2000/svg">
<path d="M430 736C412.667 736 396.333 732.667 381 726C365.667 719.333 352.333 710.333 341 699C329.667 687.667 320.667 674.333 314 659C307.333 643.667 304 627.333 304 610C304 602.667 306.667 596.333 312 591C317.333 585.667 323.667 583 331 583C338.333 583 344.667 585.667 350 591C355.333 596.333 358 602.667 358 610C358 620 359.833 629.333 363.5 638C367.167 646.667 372.333 654.167 379 660.5C385.667 666.833 393.333 672 402 676C410.667 680 419.667 682 429 682C449.667 682 467 675.167 481 661.5C495 647.833 502 631 502 611C502 597 498.5 584.167 491.5 572.5C484.5 560.833 474.667 551.667 462 545C432 529.667 408.667 509 392 483C375.333 457 367 427 367 393C367 369.667 371.5 347.667 380.5 327C389.5 306.333 401.667 288.333 417 273C432.333 257.667 450.333 245.5 471 236.5C491.667 227.5 514 223 538 223C562 223 584.333 227.5 605 236.5C625.667 245.5 643.667 257.667 659 273C674.333 288.333 686.5 306.333 695.5 327C704.5 347.667 709 370 709 394C709 401.333 706.333 407.667 701 413C695.667 418.333 689.333 421 682 421C674.667 421 668.333 418.333 663 413C657.667 407.667 655 401.333 655 394C655 378 652 362.833 646 348.5C640 334.167 631.667 321.833 621 311.5C610.333 301.167 598 292.833 584 286.5C570 280.167 555 277 539 277C523 277 507.833 280.167 493.5 286.5C479.167 292.833 466.667 301.167 456 311.5C445.333 321.833 436.833 334.167 430.5 348.5C424.167 362.833 421 378 421 394C421 416 426.833 436.167 438.5 454.5C450.167 472.833 466 487 486 497C507.333 507.667 524.167 523 536.5 543C548.833 563 555 585 555 609C555 627 551.833 643.667 545.5 659C539.167 674.333 530.333 687.667 519 699C507.667 710.333 494.333 719.333 479 726C463.667 732.667 447.333 736 430 736ZM466 1006C438.667 1006 413 1000.83 389 990.5C365 980.167 344 966 326 948C308 930 293.833 909 283.5 885C273.167 861 268 835.333 268 808C268 800.667 270.667 794.333 276 789C281.333 783.667 287.667 781 295 781C302.333 781 308.667 783.667 314 789C319.333 794.333 322 800.667 322 808C322 828 325.667 846.667 333 864C340.333 881.333 350.5 896.5 363.5 909.5C376.5 922.5 391.667 932.833 409 940.5C426.333 948.167 445 952 465 952C483.667 952 501.167 948.667 517.5 942C533.833 935.333 548.5 926.167 561.5 914.5C574.5 902.833 585.167 889 593.5 873C601.833 857 607 840 609 822C609.667 818 610 814 610 810V798C607.333 761.333 613.5 726.667 628.5 694C643.5 661.333 666 634.333 696 613C732 587.667 759.667 555.833 779 517.5C798.333 479.167 808 438 808 394C808 358 800.833 323.667 786.5 291C772.167 258.333 752.667 229.667 728 205C703.333 180.333 674.833 160.667 642.5 146C610.167 131.333 576 124 540 124C502.667 124 467.5 131 434.5 145C401.5 159 372.667 178.333 348 203C323.333 227.667 303.833 256.333 289.5 289C275.167 321.667 268 356.667 268 394C268 401.333 265.333 407.667 260 413C254.667 418.333 248.333 421 241 421C233.667 421 227.333 418.333 222 413C216.667 407.667 214 401.333 214 394C214 348.667 222.5 306.333 239.5 267C256.5 227.667 279.667 193.333 309 164C338.333 134.667 372.667 111.667 412 95C451.333 78.3333 493.667 70 539 70C582.333 70 623.5 78.6667 662.5 96C701.5 113.333 735.833 136.833 765.5 166.5C795.167 196.167 818.667 230.667 836 270C853.333 309.333 862 351 862 395C862 447 850.167 496 826.5 542C802.833 588 769.667 626.333 727 657C705.667 672.333 689.5 692.167 678.5 716.5C667.5 740.833 662.667 767 664 795C664.667 800.333 664.833 805.5 664.5 810.5C664.167 815.5 663.667 820.667 663 826C660.333 851.333 653.5 875 642.5 897C631.5 919 617.167 938 599.5 954C581.833 970 561.667 982.667 539 992C516.333 1001.33 492 1006 466 1006Z" fill="black"/>
</svg>
