<svg width="1075" height="1075" viewBox="0 0 1075 1075" fill="none" xmlns="http://www.w3.org/2000/svg">
<path d="M871 403L362 912H164V714L673 205C700.333 177.667 733.333 164 772 164C810.667 164 843.667 177.667 871 205C898.333 232.333 912 265.333 912 304C912 342.667 898.333 375.667 871 403ZM343 866L755 454L622 321L211 733V866H343ZM838 371C856 352.333 865.333 330 866 304C866 278 856.833 255.833 838.5 237.5C820.167 219.167 798 210 772 210C746 210 724 219.333 706 238L656 288L788 421L838 371Z" fill="black"/>
</svg>
