<svg width="1075" height="1075" viewBox="0 0 1075 1075" fill="none" xmlns="http://www.w3.org/2000/svg">
<path d="M819 538C819 512 828.5 489.667 847.5 471C866.5 452.333 887.667 443 911 443C937.667 443 960.167 452.5 978.5 471.5C996.833 490.5 1006 512.667 1006 538C1006 564.667 996.833 587 978.5 605C960.167 623 937.667 632 911 632C887 632 865.667 623 847 605C828.333 587 819 564.667 819 538ZM445 538C445 512 454.333 489.667 473 471C491.667 452.333 513.667 443 539 443C565 443 586.833 452.5 604.5 471.5C622.167 490.5 631 512.667 631 538C631 564.667 622 587 604 605C586 623 564.333 632 539 632C513 632 490.833 623 472.5 605C454.167 587 445 564.667 445 538ZM69 538C69 512 78.5 489.667 97.5 471C116.5 452.333 138.667 443 164 443C190 443 212 452.5 230 471.5C248 490.5 257 512.667 257 538C257 564.667 247.833 587 229.5 605C211.167 623 189.333 632 164 632C138 632 115.667 623 97 605C78.3333 587 69 564.667 69 538Z" fill="black"/>
</svg>
