<svg width="1075" height="1075" viewBox="0 0 1075 1075" fill="none" xmlns="http://www.w3.org/2000/svg">
<path d="M406 990C390.667 990 376.833 987.167 364.5 981.5C352.167 975.833 340.667 968 330 958L119 748C106.333 735.333 97.1667 723.5 91.5 712.5C85.8333 701.5 83 688.333 83 673C83 657.667 85.8333 644 91.5 632C97.1667 620 106.333 607.667 119 595L629 86L992 448L482 958C460.667 979.333 435.333 990 406 990ZM913 448L629 165L280 514L564 797L913 448ZM141 673C141 680.333 142.833 687 146.5 693C150.167 699 154.667 704.667 160 710L366 915C372 921 378.167 925.667 384.5 929C390.833 932.333 398 934 406 934C420 934 433.333 927.667 446 915L525 836L241 553L158 635C146.667 646.333 141 659 141 673Z" fill="black"/>
</svg>
