<svg viewBox="0 0 1251 1074.237" xmlns="http://www.w3.org/2000/svg"><path d="M0 584.237q0-102 36-188.5t99.5-149.5q63.5-63 150-98.5t186.5-35.5q100 0 186.5 35.5t150 98.5q63.5 63 99.5 149.5t36 188.5q0 102-36 188.5t-99.5 149.5q-63.5 63-150 98.5t-186.5 35.5q-100 0-186.5-35.5t-150-98.5q-63.5-63-99.5-149.5t-36-188.5zm498 72h-53v-290h53v290zm392-72q0-94-32.5-171t-89.5-132q-57-55-133-85t-163-30q-87 0-163 30t-133 85q-57 55-89.5 132t-32.5 171q0 94 32.5 171t89.5 132q57 55 133 85t163 30q87 0 163-30t133-85q57-55 89.5-132t32.5-171zm-382 194q0 16-9.5 26.5t-26.5 10.5q-17 0-26.5-10.5t-9.5-26.5q0-15 9.5-25.5t26.5-10.5q17 0 26.5 10.5t9.5 25.5z"/></svg>