<svg width="1075" height="1075" viewBox="0 0 1075 1075" fill="none" xmlns="http://www.w3.org/2000/svg">
<path d="M66 538C66 470 78 407.167 102 349.5C126 291.833 159.167 242 201.5 200C243.833 158 293.833 125.167 351.5 101.5C409.167 77.8333 471.333 66 538 66C604.667 66 666.833 77.8333 724.5 101.5C782.167 125.167 832.167 158 874.5 200C916.833 242 950 291.833 974 349.5C998 407.167 1010 470 1010 538C1010 606 998 668.833 974 726.5C950 784.167 916.833 834 874.5 876C832.167 918 782.167 950.833 724.5 974.5C666.833 998.167 604.667 1010 538 1010C471.333 1010 409.167 998.167 351.5 974.5C293.833 950.833 243.833 918 201.5 876C159.167 834 126 784.167 102 726.5C78 668.833 66 606 66 538ZM564 610H511V320H564V610ZM956 538C956 475.333 945.167 418.333 923.5 367C901.833 315.667 872 271.667 834 235C796 198.333 751.667 170 701 150C650.333 130 596 120 538 120C480 120 425.667 130 375 150C324.333 170 280 198.333 242 235C204 271.667 174.167 315.667 152.5 367C130.833 418.333 120 475.333 120 538C120 600.667 130.833 657.667 152.5 709C174.167 760.333 204 804.333 242 841C280 877.667 324.333 906 375 926C425.667 946 480 956 538 956C596 956 650.333 946 701 926C751.667 906 796 877.667 834 841C872 804.333 901.833 760.333 923.5 709C945.167 657.667 956 600.667 956 538ZM574 732C574 742.667 570.833 751.5 564.5 758.5C558.167 765.5 549.333 769 538 769C526.667 769 517.833 765.5 511.5 758.5C505.167 751.5 502 742.667 502 732C502 722 505.167 713.5 511.5 706.5C517.833 699.5 526.667 696 538 696C549.333 696 558.167 699.5 564.5 706.5C570.833 713.5 574 722 574 732Z" fill="black"/>
</svg>
