<svg width="1075" height="1075" viewBox="0 0 1075 1075" fill="none" xmlns="http://www.w3.org/2000/svg">
<path d="M196 970C176 970 159 963 145 949C131 935 124 918 124 898V178C124 158 131 141 145 127C159 113 176 106 196 106H574C594 106 611 113 625 127C639 141 646 158 646 178V241C646 248.333 643.333 254.667 638 260C632.667 265.333 626.333 268 619 268C611.667 268 605.333 265.333 600 260C594.667 254.667 592 248.333 592 241V178C592 172.667 590.333 168.333 587 165C583.667 161.667 579.333 160 574 160H196C190.667 160 186.333 161.667 183 165C179.667 168.333 178 172.667 178 178V898C178 903.333 179.667 907.667 183 911C186.333 914.333 190.667 916 196 916H574C579.333 916 583.667 914.333 587 911C590.333 907.667 592 903.333 592 898V835C592 827.667 594.667 821.333 600 816C605.333 810.667 611.667 808 619 808C626.333 808 632.667 810.667 638 816C643.333 821.333 646 827.667 646 835V898C646 918 639 935 625 949C611 963 594 970 574 970H196ZM763 745C755.667 745 749.333 742.333 744 737C738.667 731.667 736 725.333 736 718C736 710 738.667 703.333 744 698L877 565H511C503.667 565 497.333 562.333 492 557C486.667 551.667 484 545.333 484 538C484 530.667 486.667 524.333 492 519C497.333 513.667 503.667 511 511 511H878L744 377C738.667 372.333 736 366 736 358C736 350.667 738.5 344.333 743.5 339C748.5 333.667 755 331 763 331C771 331 777.333 333.333 782 338L932 488C945.333 502.667 952 519.333 952 538C952 557.333 945.333 573.667 932 587L782 737C776.667 742.333 770.333 745 763 745Z" fill="black"/>
</svg>
