<svg viewBox="0 0 1193 1074.237" xmlns="http://www.w3.org/2000/svg"><path d="M72 999.237q-30 0-51-21t-21-51v-720q0-30 21-51t51-21h378q30 0 51 21t21 51v63q0 11-8 19t-19 8q-11 0-19-8t-8-19v-63q0-8-5-13t-13-5H72q-8 0-13 5t-5 13v720q0 8 5 13t13 5h378q8 0 13-5t5-13v-63q0-11 8-19t19-8q11 0 19 8t8 19v63q0 30-21 51t-51 21H72zm567-225q-11 0-19-8t-8-19q0-12 8-20l133-133H387q-11 0-19-8t-8-19q0-11 8-19t19-8h367l-134-134q-8-7-8-19 0-11 7.5-19t19.5-8q12 0 19 7l150 150q20 22 20 50 0 29-20 49l-150 150q-8 8-19 8z"/></svg>