<svg width="1075" height="1075" viewBox="0 0 1075 1075" fill="none" xmlns="http://www.w3.org/2000/svg">
<path d="M538 988C476 988 417.667 976.167 363 952.5C308.333 928.833 260.667 896.667 220 856C179.333 815.333 147.167 767.667 123.5 713C99.8333 658.333 88 600 88 538C88 499.333 93 461.333 103 424C105 416.667 109.167 411.167 115.5 407.5C121.833 403.833 128.667 402.667 136 404C143.333 406 148.833 410.167 152.5 416.5C156.167 422.833 157 429.667 155 437C146.333 469 142 502.667 142 538C142 592.667 152.333 644 173 692C193.667 740 222 782 258 818C294 854 336 882.333 384 903C432 923.667 483.333 934 538 934C592.667 934 644 923.667 692 903C740 882.333 782 854 818 818C854 782 882.333 740 903 692C923.667 644 934 592.667 934 538C934 483.333 923.667 432 903 384C882.333 336 854 294 818 258C782 222 740 193.667 692 173C644 152.333 592.667 142 538 142C482 142 429.167 153 379.5 175C329.833 197 286.333 228 249 268H349C356.333 268 362.667 270.667 368 276C373.333 281.333 376 287.667 376 295C376 302.333 373.333 308.667 368 314C362.667 319.333 356.333 322 349 322H196C186 322 177.5 318.5 170.5 311.5C163.5 304.5 160 296 160 286V133C160 125.667 162.667 119.333 168 114C173.333 108.667 179.667 106 187 106C194.333 106 200.667 108.667 206 114C211.333 119.333 214 125.667 214 133V226C256.667 182 305.833 148 361.5 124C417.167 100 476 88 538 88C600 88 658.333 99.8333 713 123.5C767.667 147.167 815.333 179.333 856 220C896.667 260.667 928.833 308.333 952.5 363C976.167 417.667 988 476 988 538C988 600 976.167 658.333 952.5 713C928.833 767.667 896.667 815.333 856 856C815.333 896.667 767.667 928.833 713 952.5C658.333 976.167 600 988 538 988ZM606 547C592 547 579.667 547.667 569 549C558.333 550.333 547.333 552.667 536 556V408H702V450H589V507C593 506.333 597 505.833 601 505.5C605 505.167 609 505 613 505C646.333 505 672.5 512.667 691.5 528C710.5 543.333 720 564.667 720 592C720 622 710.5 645 691.5 661C672.5 677 645.333 685 610 685C574.667 685 544.667 674.333 520 653L547 618C569 634.667 590 643 610 643C627.333 643 641 638.667 651 630C661 621.333 666 609.667 666 595C666 579.667 660.833 567.833 650.5 559.5C640.167 551.167 625.333 547 606 547ZM411 681V461L346 507L319 469L411 407H464V681H411Z" fill="black"/>
</svg>
