<svg viewBox="0 0 1229 1074.237" xmlns="http://www.w3.org/2000/svg"><path d="M450 1017.237q-93 0-175-35.5t-143-96.5q-61-61-96.5-143t-35.5-175q0-93 35.5-175t96.5-143q61-61 143-96.5t175-35.5q93 0 176.5 36t147.5 102v-93q0-11 8-19t19-8q11 0 19 8t8 19v153q0 15-10.5 25.5t-25.5 10.5H639q-11 0-19-8t-8-19q0-11 8-19t19-8h100q-57-60-131-93t-158-33q-82 0-154 31t-126 85q-54 54-85 126t-31 154q0 82 31 154t85 126q54 54 126 85t154 31q82 0 154-31t126-85q54-54 85-126t31-154q0-53-13-101-3-11 2.5-20.5t16.5-12.5q11-2 20.5 3.5t12.5 16.5q15 56 15 114 0 93-35.5 175t-96.5 143q-61 61-143 96.5t-175 35.5zm68-441q-21 0-37 2t-33 7v-148h166v42H501v57q6-1 12-1.5t12-.5q50 0 78.5 23t28.5 64q0 45-28.5 69t-81.5 24q-53 0-90-32l27-35q33 25 63 25 26 0 41-13t15-35q0-23-15.5-35.5t-44.5-12.5zm-195-86l-65 46-27-38 92-62h53v274h-53v-220z"/></svg>