<svg width="1075" height="1075" viewBox="0 0 1075 1075" fill="none" xmlns="http://www.w3.org/2000/svg">
<path d="M538 988C476 988 417.667 976.167 363 952.5C308.333 928.833 260.667 896.667 220 856C179.333 815.333 147.167 767.667 123.5 713C99.8333 658.333 88 600 88 538C88 476 99.8333 417.667 123.5 363C147.167 308.333 179.333 260.667 220 220C260.667 179.333 308.333 147.167 363 123.5C417.667 99.8333 476 88 538 88C600 88 658.833 100 714.5 124C770.167 148 819.333 182 862 226V133C862 125.667 864.667 119.333 870 114C875.333 108.667 881.667 106 889 106C896.333 106 902.667 108.667 908 114C913.333 119.333 916 125.667 916 133V286C916 296 912.5 304.5 905.5 311.5C898.5 318.5 890 322 880 322H727C719.667 322 713.333 319.333 708 314C702.667 308.667 700 302.333 700 295C700 287.667 702.667 281.333 708 276C713.333 270.667 719.667 268 727 268H827C789 228 745.333 197 696 175C646.667 153 594 142 538 142C483.333 142 432 152.333 384 173C336 193.667 294 222 258 258C222 294 193.667 336 173 384C152.333 432 142 483.333 142 538C142 592.667 152.333 644 173 692C193.667 740 222 782 258 818C294 854 336 882.333 384 903C432 923.667 483.333 934 538 934C592.667 934 644 923.667 692 903C740 882.333 782 854 818 818C854 782 882.333 740 903 692C923.667 644 934 592.667 934 538C934 502.667 929.667 469 921 437C919 429.667 919.833 422.833 923.5 416.5C927.167 410.167 932.667 406 940 404C947.333 402.667 954.167 403.833 960.5 407.5C966.833 411.167 971 416.667 973 424C983 461.333 988 499.333 988 538C988 600 976.167 658.333 952.5 713C928.833 767.667 896.667 815.333 856 856C815.333 896.667 767.667 928.833 713 952.5C658.333 976.167 600 988 538 988ZM606 547C592 547 579.667 547.667 569 549C558.333 550.333 547.333 552.667 536 556V408H702V450H589V507C593 506.333 597 505.833 601 505.5C605 505.167 609 505 613 505C646.333 505 672.5 512.667 691.5 528C710.5 543.333 720 564.667 720 592C720 622 710.5 645 691.5 661C672.5 677 645.333 685 610 685C574.667 685 544.667 674.333 520 653L547 618C569 634.667 590 643 610 643C627.333 643 641 638.667 651 630C661 621.333 666 609.667 666 595C666 579.667 660.833 567.833 650.5 559.5C640.167 551.167 625.333 547 606 547ZM411 461L346 507L319 469L411 407H464V681H411V461Z" fill="black"/>
</svg>
