<svg viewBox="0 0 1229 1074.237" xmlns="http://www.w3.org/2000/svg"><path d="M450 1017.237q-93 0-175-35.5t-143-96.5q-61-61-96.5-143t-35.5-175q0-58 15-114 3-11 12.5-16.5t20.5-3.5q11 3 16.5 12.5t2.5 20.5q-13 48-13 101 0 82 31 154t85 126q54 54 126 85t154 31q82 0 154-31t126-85q54-54 85-126t31-154q0-82-31-154t-85-126q-54-54-126-85t-154-31q-84 0-158.5 33t-130.5 93h100q11 0 19 8t8 19q0 11-8 19t-19 8H108q-15 0-25.5-10.5t-10.5-25.5v-153q0-11 8-19t19-8q11 0 19 8t8 19v93q64-66 147.5-102t176.5-36q93 0 175 35.5t143 96.5q61 61 96.5 143t35.5 175q0 93-35.5 175t-96.5 143q-61 61-143 96.5t-175 35.5zm68-441q-21 0-37 2t-33 7v-148h166v42H501v57q6-1 12-1.5t12-.5q50 0 78.5 23t28.5 64q0 45-28.5 69t-81.5 24q-53 0-90-32l27-35q33 25 63 25 26 0 41-13t15-35q0-23-15.5-35.5t-44.5-12.5zm-195 134v-220l-65 46-27-38 92-62h53v274h-53z"/></svg>