<svg viewBox="0 0 1181 1074.237" xmlns="http://www.w3.org/2000/svg"><path d="M713 168.237q39 0 65 27t26 66v458q0 39-26.5 65.5t-64.5 26.5h-22v-49h22q18 0 30.5-12.5t12.5-30.5v-458q0-18-13-31t-30-13H254q-18 0-30.5 12.5t-12.5 31.5v20h-49v-20q0-39 27-66t65-27h459zm-162 162q25 0 46 12.5t33 33.5q12 21 12 46v459q0 39-26.5 65.5t-64.5 26.5H92q-25 0-46.5-12.5t-33.5-33.5q-12-21-12-46v-459q0-39 27-65.5t65-26.5h459zm43 551v-459q0-18-13-30.5t-30-12.5H92q-18 0-30.5 12.5t-12.5 30.5v459q0 18 12.5 30.5t30.5 12.5h459q18 0 30.5-12.5t12.5-30.5z"/></svg>