<svg viewBox="0 0 1139 1074.237" xmlns="http://www.w3.org/2000/svg"><path d="M72 1035.237q-30 0-51-21t-21-51v-792q0-30 21-51t51-21h405q11 0 19 8l216 216q8 8 8 19v621q0 30-21 51t-51 21H72zm0-882q-8 0-13 5t-5 13v792q0 8 5 13t13 5h576q8 0 13-5t5-13v-594H522q-30 0-51-21t-21-51v-144H72zm207 418q0 32-20.5 45.5t-46.5 13.5h-28v63h-40v-180h68q30 0 48.5 14.5t18.5 43.5zm159 0q0 31-20.5 45t-46.5 14h-29v63h-39v-180h68q29 0 48 14.5t19 43.5zm12-58h140v33h-50v147h-40v-147h-50v-33zm72-198h106l-124-124v106q0 8 5 13t13 5zm-180 231v51h28q14 0 21-7.5t7-18.5q0-14-8.5-19.5t-19.5-5.5h-28zm-158 0v51h28q27 0 27-26 0-25-27-25h-28z"/></svg>