<svg width="1075" height="1075" viewBox="0 0 1075 1075" fill="none" xmlns="http://www.w3.org/2000/svg">
<path d="M849 135C875 135 896.667 144 914 162C931.333 180 940 202 940 228V686C940 712 931.167 733.833 913.5 751.5C895.833 769.167 874.333 778 849 778H827V729H849C861 729 871.167 724.833 879.5 716.5C887.833 708.167 892 698 892 686V228C892 216 887.667 205.667 879 197C870.333 188.333 860.333 184 849 184H390C378 184 367.833 188.167 359.5 196.5C351.167 204.833 347 215.333 347 228V248H298V228C298 202 307 180 325 162C343 144 364.667 135 390 135H849ZM687 297C703.667 297 719 301.167 733 309.5C747 317.833 758 329 766 343C774 357 778 372.333 778 389V848C778 874 769.167 895.833 751.5 913.5C733.833 931.167 712.333 940 687 940H228C211.333 940 195.833 935.833 181.5 927.5C167.167 919.167 156 908 148 894C140 880 136 864.667 136 848V389C136 363 145 341.167 163 323.5C181 305.833 202.667 297 228 297H687ZM730 848V389C730 377 725.667 366.833 717 358.5C708.333 350.167 698.333 346 687 346H228C216 346 205.833 350.167 197.5 358.5C189.167 366.833 185 377 185 389V848C185 860 189.167 870.167 197.5 878.5C205.833 886.833 216 891 228 891H687C699 891 709.167 886.833 717.5 878.5C725.833 870.167 730 860 730 848Z" fill="black"/>
</svg>
