<svg width="1075" height="1075" viewBox="0 0 1075 1075" fill="none" xmlns="http://www.w3.org/2000/svg">
<path d="M250 1006C230 1006 213 999 199 985C185 971 178 954 178 934V142C178 122 185 105 199 91C213 77 230 70 250 70H655C662.333 70 668.667 72.6667 674 78L890 294C895.333 299.333 898 305.667 898 313V934C898 954 891 971 877 985C863 999 846 1006 826 1006H250ZM250 124C244.667 124 240.333 125.667 237 129C233.667 132.333 232 136.667 232 142V934C232 939.333 233.667 943.667 237 947C240.333 950.333 244.667 952 250 952H826C831.333 952 835.667 950.333 839 947C842.333 943.667 844 939.333 844 934V340H700C680 340 663 333 649 319C635 305 628 288 628 268V124H250ZM457 542C457 563.333 450.167 578.5 436.5 587.5C422.833 596.5 407.333 601 390 601H362V664H322V484H390C410 484 426.167 488.833 438.5 498.5C450.833 508.167 457 522.667 457 542ZM616 542C616 562.667 609.167 577.667 595.5 587C581.833 596.333 566.333 601 549 601H520V664H481V484H549C568.333 484 584.333 488.833 597 498.5C609.667 508.167 616 522.667 616 542ZM628 484H768V517H718V664H678V517H628V484ZM700 286H806L682 162V268C682 273.333 683.667 277.667 687 281C690.333 284.333 694.667 286 700 286ZM520 517V568H548C557.333 568 564.333 565.5 569 560.5C573.667 555.5 576 549.333 576 542C576 532.667 573.167 526.167 567.5 522.5C561.833 518.833 555.333 517 548 517H520ZM362 517V568H390C408 568 417 559.333 417 542C417 525.333 408 517 390 517H362Z" fill="black"/>
</svg>
