<svg width="1075" height="1075" viewBox="0 0 1075 1075" fill="none" xmlns="http://www.w3.org/2000/svg">
<path d="M116 771C116 783 120 793 128 801C136 809 146 813 158 813H576V855H158C134.667 855 114.833 846.667 98.5 830C82.1667 813.333 74 793.667 74 771V134H354L454 234H934V705H892V276H437L337 176H116V771ZM961 780L1002 781C1000.67 825 983.667 862.833 951 894.5C918.333 926.167 879.833 942 835.5 942C791.167 942 752.667 926.333 720 895C687.333 863.667 670.333 825.667 669 781V566L574 660L545 631L690 488L833 631L804 660L710 566V793C710 810.333 713.333 826.667 720 842C726.667 857.333 735.5 870.667 746.5 882C757.5 893.333 770.833 902.333 786.5 909C802.167 915.667 818.667 919 836 919C870.667 919 900.333 906.667 925 882C949.667 857.333 962 827.667 962 793C962 788.333 961.667 784 961 780Z" fill="black"/>
</svg>
