<svg width="1075" height="1075" viewBox="0 0 1075 1075" fill="none" xmlns="http://www.w3.org/2000/svg">
<path d="M880 196C902 255.333 913 316.667 913 380C913 438 904 494.167 886 548.5C868 602.833 842.667 651.667 810 695C777.333 738.333 739.167 776.5 695.5 809.5C651.833 842.5 602.833 868 548.5 886C494.167 904 438.667 913 382 913C318.667 913 256.667 902 196 880L190 862C172.667 808.667 163.667 753 163 695C163 637 172 581 190 527C208 473 233.333 424.167 266 380.5C298.667 336.833 336.833 298.667 380.5 266C424.167 233.333 473.167 207.833 527.5 189.5C581.833 171.167 638 162 696 162C759.333 162 820.333 173.333 879 196H880ZM842 234C794.667 218.667 746 211 696 211H695C663 211 631.333 214.333 600 221L854 475C860.667 443.667 864 411.333 864 378C864 328.667 856.667 280.667 842 234ZM235 841H234C281.333 856.333 330 864 380 864H382C422 864 461 859.333 499 850L228 577C218.667 615.667 213.333 655 212 695C212 745 219.667 793.667 235 841ZM723 722C780.333 664.667 820 597 842 519L556 232C482 254 417 291.833 361 345.5C305 399.167 264.333 462 239 534L541 836L538 838C608.667 813.333 670.333 774.667 723 722ZM538 297C541.333 295.667 544.667 295 548 295C554.667 295 560.333 297.333 565 302C569.667 306.667 572 312.333 572 319C572 329.667 567.333 337.667 558 343L540 350C536.667 352 533 352.667 529 352C522.333 352 516.667 349.667 512 345C507.333 340.333 505 334.667 505 328C505 317.333 510 309.667 520 305L538 297ZM448 349C452.667 345 457.667 343.333 463 344C469.667 344 475.5 346.333 480.5 351C485.5 355.667 488 361 488 367C488 374.333 485 381 479 387L464 399C459.333 403 454 405 448 405C441.333 405 435.667 402.667 431 398C426.333 393.333 424 387.667 424 381C424 373.667 427 367.333 433 362L448 349ZM350 497C360 501 364.667 508.333 364 519C364 522.333 363.333 525.667 362 529L354 545C350 554.333 342.667 559.333 332 560C328.667 560 325.333 559.333 322 558C312.667 553.333 308 545.667 308 535C308 531.667 308.667 528.333 310 525L318 508C322 498.667 329.333 494 340 494C343.333 494.667 346.667 495.667 350 497ZM374 420C378.667 414 385 411.333 393 412C399.667 412 405.5 414.333 410.5 419C415.5 423.667 418 429.333 418 436C418 442 416 447.333 412 452L399 466C394.333 472 388.667 475 382 475C375.333 475 369.333 472.667 364 468C358.667 463.333 356 457.667 356 451C356 445 358 439.667 362 435L374 420Z" fill="black"/>
</svg>
