<svg viewBox="0 0 1154 1074.237" xmlns="http://www.w3.org/2000/svg"><path d="M717 242.237q33 89 33 184 0 87-27 168.5t-76 146.5q-49 65-114.5 114.5t-147 76.5q-81.5 27-166.5 27-95 0-186-33l-6-18q-26-80-27-167 0-87 27-168t76-146.5q49-65.5 114.5-114.5t147-76.5q81.5-27.5 168.5-27.5 95 0 183 34h1zm-38 38q-71-23-146-23h-1q-48 0-95 10l254 254q10-47 10-97 0-74-22-144zm-607 607h-1q71 23 146 23h2q60 0 117-14l-271-273q-14 58-16 118 0 75 23 146zm488-119q86-86 119-203l-286-287q-111 33-195 113.5t-122 188.5l302 302-3 2q106-37 185-116zm-185-425q5-2 10-2 10 0 17 7t7 17q0 16-14 24l-18 7q-5 3-11 2-10 0-17-7t-7-17q0-16 15-23l18-8zm-90 52q7-6 15-5 10 0 17.5 7t7.5 16q0 11-9 20l-15 12q-7 6-16 6-10 0-17-7t-7-17q0-11 9-19l15-13zm-98 148q15 6 14 22 0 5-2 10l-8 16q-6 14-22 15-5 0-10-2-14-7-14-23 0-5 2-10l8-17q6-14 22-14 5 1 10 3zm24-77q7-9 19-8 10 0 17.5 7t7.5 17q0 9-6 16l-13 14q-7 9-17 9t-18-7q-8-7-8-17 0-9 6-16l12-15z"/></svg>