<svg width="1075" height="1075" viewBox="0 0 1075 1075" fill="none" xmlns="http://www.w3.org/2000/svg">
<path d="M367 900V849H470V900H367ZM143 644C143 654.667 146.833 663.667 154.5 671C162.167 678.333 171.333 682 182 682H470V734H182C157.333 734 136.167 725.167 118.5 707.5C100.833 689.833 92 668.667 92 644V208C92 182.667 100.833 161.333 118.5 144C136.167 126.667 157.333 118 182 118H887C911.667 118 932.833 126.667 950.5 144C968.167 161.333 977 182.667 977 208V445H925V207C925 197 921.333 188.167 914 180.5C906.667 172.833 897.667 169 887 169H182C176.667 169 171.667 170 167 172C162.333 174 158.333 176.667 155 180C151.667 183.333 148.833 187.5 146.5 192.5C144.167 197.5 143 202.333 143 207V644ZM534 509H983V958H534V509ZM932 560H586V757L691 652L794 756L848 702L932 786V560ZM586 906H932V858L848 775L794 828L691 725L586 830V906Z" fill="black"/>
</svg>
