<svg viewBox="0 0 1282 1074.237" xmlns="http://www.w3.org/2000/svg"><path d="M704 484.237q0 15 10.5 25t25.5 10q14 0 24.5-10t10.5-25q0-15-10.5-25t-24.5-10q-15 0-25.5 10t-10.5 25zm-127 0q0 15 10.5 25t25.5 10q14 0 24.5-10t10.5-25q0-15-10.5-25t-24.5-10q-15 0-25.5 10t-10.5 25zm64-64q0 15 10.5 25t24.5 10q14 0 24.5-10t10.5-25q0-14-10.5-24t-24.5-10q-14 0-24.5 10t-10.5 24zm0 127q0 15 10.5 25t24.5 10q14 0 24.5-10t10.5-25q0-14-10.5-24t-24.5-10q-14 0-24.5 10t-10.5 24zm-20 109q17 7 29 19l154 156q22 22 49 22 13 0 25.5-5.5t22-14.5q9.5-9 15.5-21.5t6-26.5q0-26-9-51.5t-17-50.5l-98-291q-8-24-28.5-39t-45.5-15H548l-6-19q-3-11-15-11h-77q-11 0-13 11l-6 19H270l337 313q7 2 14 5zm-411-187h70v-49l-72-67q-20 15-28 39l-98 291q-8 25-17 50.5t-9 51.5q0 28 21 48t48 20q29 0 48-22l154-156q26-26 64-26h136l-140-130h-56v70h-51v-70h-70v-50zm121 0h2l-2-2v2zm435 402l-180-167H391q-15 0-24 10l-155 156q-38 38-87 38-30 0-53.5-10t-39-27.5q-15.5-17.5-24-39.5t-8.5-46q0-31 10-61t19-58l98-291q13-37 39-61l-153-142 37-38 166 154q17-5 37-5h141q9-14 24-22.5t32-8.5h78q17 0 32.5 8.5t24.5 22.5h139q48 0 80 25t46 67l98 291q10 28 19.5 58t9.5 61q0 24-8.5 46t-24 39.5q-15.5 17.5-38.5 27.5-12 5-25 7l88 82-36 39-153-143-14-12z"/></svg>