<svg width="1075" height="1075" viewBox="0 0 1075 1075" fill="none" xmlns="http://www.w3.org/2000/svg">
<path d="M967 614C977 643.333 984.333 666.333 989 683C993.667 699.667 996 714.667 996 728C996 744 993.167 759 987.5 773C981.833 787 974 799.167 964 809.5C954 819.833 942.5 828 929.5 834C916.5 840 902.667 843 888 843C870.667 843 854.5 839.5 839.5 832.5C824.5 825.5 812.333 817.333 803 808L658 661C650.667 655 641.667 651.333 631 650H443C433 650 424 653.667 416 661L272 808C262.667 817.333 250.167 825.5 234.5 832.5C218.833 839.5 202.333 843 185 843C153.667 843 128.167 833.167 108.5 813.5C88.8333 793.833 79 765.333 79 728C79 720.667 79.3333 714.167 80 708.5C80.6667 702.833 81.6667 696.667 83 690C86.3333 676.667 90.1667 663.667 94.5 651C98.8333 638.333 103 626.333 107 615L199 345C207.667 321 221.5 301.333 240.5 286C259.5 270.667 284 263 314 263H449C454.333 254.333 461.667 247.167 471 241.5C480.333 235.833 490 233 500 233H574C583.333 233 593.167 235.833 603.5 241.5C613.833 247.167 621 254.333 625 263H760C787.333 263 811.333 270.833 832 286.5C852.667 302.167 867 321.667 875 345L967 614ZM836 359C830.667 343.667 821.167 330.667 807.5 320C793.833 309.333 778 304 760 304H596L592 290C591.333 286 589 282.5 585 279.5C581 276.5 577.333 274.667 574 274H500C496.667 274.667 493 276.5 489 279.5C485 282.5 482.667 286 482 290L478 304H314C294.667 304 278.5 309.333 265.5 320C252.5 330.667 243.333 343.667 238 359L146 629C141.333 642.333 137.5 654 134.5 664C131.5 674 129 682.667 127 690C125 697.333 123.5 704 122.5 710C121.5 716 121 722 121 728C121 750.667 127 768.5 139 781.5C151 794.5 166.333 801 185 801C197.667 801 208.5 798.833 217.5 794.5C226.5 790.167 234.333 784.667 241 778L388 632C394.667 624.667 403.167 618.833 413.5 614.5C423.833 610.167 433.667 608 443 608H631C640.333 608 650.167 610.167 660.5 614.5C670.833 618.833 679.333 624.667 686 632L835 778C850.333 793.333 868 801 888 801C897.333 801 906 798.833 914 794.5C922 790.167 929 784.5 935 777.5C941 770.5 945.667 762.667 949 754C952.333 745.333 954 736.667 954 728C954 715.333 951.833 702 947.5 688C943.167 674 937 655.667 929 633L836 359ZM657 414C666.333 414 673.667 417.167 679 423.5C684.333 429.833 687 437 687 445C687 454.333 684 462 678 468C672 474 665 477 657 477C649 477 641.667 474 635 468C628.333 462 625 454.333 625 445C625 436.333 628 429 634 423C640 417 647.667 414 657 414ZM785 414C793.667 414.667 801.167 417.667 807.5 423C813.833 428.333 817 435.333 817 444C817 453.333 813.833 461.167 807.5 467.5C801.167 473.833 793.667 477 785 477C775.667 477 768 473.833 762 467.5C756 461.167 753 453.333 753 444C753 434.667 756.167 427.333 762.5 422C768.833 416.667 776.333 414 785 414ZM379 366V425H438V466H379V525H337V466H280V425H337V366H379ZM721 350C730.333 350 737.667 353.167 743 359.5C748.333 365.833 751 373 751 381C751 390.333 748 398 742 404C736 410 729 413 721 413C712.333 413 704.833 410 698.5 404C692.167 398 689 390.333 689 381C689 372.333 692 365 698 359C704 353 711.667 350 721 350ZM721 478C730.333 478 737.667 481.167 743 487.5C748.333 493.833 751 501 751 509C751 518.333 748 526 742 532C736 538 729 541 721 541C712.333 541 704.833 538 698.5 532C692.167 526 689 518.333 689 509C689 500.333 692 493 698 487C704 481 711.667 478 721 478Z" fill="black"/>
</svg>
