<svg width="1075" height="1075" viewBox="0 0 1075 1075" fill="none" xmlns="http://www.w3.org/2000/svg">
<path d="M753 442C753 452 756.5 460.333 763.5 467C770.5 473.667 779 477 789 477C798.333 477 806.5 473.667 813.5 467C820.5 460.333 824 452 824 442C824 432 820.5 423.667 813.5 417C806.5 410.333 798.333 407 789 407C779 407 770.5 410.333 763.5 417C756.5 423.667 753 432 753 442ZM626 442C626 452 629.5 460.333 636.5 467C643.5 473.667 652 477 662 477C671.333 477 679.5 473.667 686.5 467C693.5 460.333 697 452 697 442C697 432 693.5 423.667 686.5 417C679.5 410.333 671.333 407 662 407C652 407 643.5 410.333 636.5 417C629.5 423.667 626 432 626 442ZM690 378C690 388 693.5 396.333 700.5 403C707.5 409.667 715.667 413 725 413C734.333 413 742.5 409.667 749.5 403C756.5 396.333 760 388 760 378C760 368.667 756.5 360.667 749.5 354C742.5 347.333 734.333 344 725 344C715.667 344 707.5 347.333 700.5 354C693.5 360.667 690 368.667 690 378ZM690 505C690 515 693.5 523.333 700.5 530C707.5 536.667 715.667 540 725 540C734.333 540 742.5 536.667 749.5 530C756.5 523.333 760 515 760 505C760 495.667 756.5 487.667 749.5 481C742.5 474.333 734.333 471 725 471C715.667 471 707.5 474.333 700.5 481C693.5 487.667 690 495.667 690 505ZM670 614C681.333 618.667 691 625 699 633L853 789C867.667 803.667 884 811 902 811C910.667 811 919.167 809.167 927.5 805.5C935.833 801.833 943.167 797 949.5 791C955.833 785 961 777.833 965 769.5C969 761.167 971 752.333 971 743C971 725.667 968 708.5 962 691.5C956 674.5 950.333 657.667 945 641L847 350C841.667 334 832.167 321 818.5 311C804.833 301 789.667 296 773 296H597L591 277C589 269.667 584 266 576 266H499C491.667 266 487.333 269.667 486 277L480 296H319L656 609C660.667 610.333 665.333 612 670 614ZM259 427H329V378L257 311C243.667 321 234.333 334 229 350L131 641C125.667 657.667 120 674.5 114 691.5C108 708.5 105 725.667 105 743C105 761.667 112 777.667 126 791C140 804.333 156 811 174 811C193.333 811 209.333 803.667 222 789L376 633C393.333 615.667 414.667 607 440 607H576L436 477H380V547H329V477H259V427ZM380 427H382L380 425V427ZM815 829L635 662H440C430 662 422 665.333 416 672L261 828C235.667 853.333 206.667 866 174 866C154 866 136.167 862.667 120.5 856C104.833 849.333 91.8333 840.167 81.5 828.5C71.1667 816.833 63.1667 803.667 57.5 789C51.8333 774.333 49 759 49 743C49 722.333 52.3333 702 59 682C65.6667 662 72 642.667 78 624L176 333C184.667 308.333 197.667 288 215 272L62 130L99 92L265 246C276.333 242.667 288.667 241 302 241H443C449 231.667 457 224.167 467 218.5C477 212.833 487.667 210 499 210H577C588.333 210 599.167 212.833 609.5 218.5C619.833 224.167 628 231.667 634 241H773C805 241 831.667 249.333 853 266C874.333 282.667 889.667 305 899 333L997 624C1003.67 642.667 1010.17 662 1016.5 682C1022.83 702 1026 722.333 1026 743C1026 759 1023.17 774.333 1017.5 789C1011.83 803.667 1003.83 816.833 993.5 828.5C983.167 840.167 970.333 849.333 955 856C947 859.333 938.667 861.667 930 863L1018 945L982 984L829 841L815 829Z" fill="black"/>
</svg>
