<svg viewBox="0 0 1282 1074.237" xmlns="http://www.w3.org/2000/svg"><path d="M391 703.237q-15 0-24 11l-155 156q-18 17-40.5 27.5t-47.5 10.5q-30 0-53-10.5t-38.5-27.5q-15.5-17-24-39.5t-8.5-46.5q0-30 9.5-60.5t19.5-58.5l98-290q14-42 46-67t80-25h141q9-14 24-23t32-9h78q17 0 32.5 9t24.5 23h139q48 0 80 25t46 67l98 290q10 28 19.5 58.5t9.5 60.5q0 24-8.5 46.5t-24 39.5q-15.5 17-38.5 27.5t-53 10.5q-25 0-47.5-10.5t-40.5-27.5l-155-156q-8-11-23-11H391zm196-55q17 0 34 7t29 19l154 157q20 22 49 22 13 0 25.5-5.5t22-15q9.5-9.5 15.5-22t6-26.5q0-26-9-51t-17-50l-98-291q-8-25-28.5-39.5t-45.5-14.5H547l-5-19q-3-12-15-12h-77q-11 0-13 12l-7 19H253q-24 0-44.5 14.5t-28.5 39.5l-98 291q-9 25-17.5 50t-8.5 51q0 29 21 49t48 20q28 0 48-22l154-157q26-26 64-26h196zm-377-180h70v-70h51v70h69v51h-69v70h-51v-70h-70v-51zm367 16q0 14 10.5 24.5t25.5 10.5q14 0 24.5-10.5t10.5-24.5q0-15-10.5-25t-24.5-10q-15 0-25.5 10t-10.5 25zm127 0q0 14 10.5 24.5t25.5 10.5q14 0 24.5-10.5t10.5-24.5q0-15-10.5-25t-24.5-10q-15 0-25.5 10t-10.5 25zm-63 63q0 14 10.5 24.5t24.5 10.5q14 0 24.5-10.5t10.5-24.5q0-14-10.5-24.5t-24.5-10.5q-14 0-24.5 10.5t-10.5 24.5zm0-127q0 15 10.5 25t24.5 10q14 0 24.5-10t10.5-25q0-14-10.5-24t-24.5-10q-14 0-24.5 10t-10.5 24z"/></svg>