<svg viewBox="0 0 1232 1074.237" xmlns="http://www.w3.org/2000/svg"><path d="M813 579.237q0 15-1 26l94 77-139 241-114-45q-20 14-42 25l-19 122H314l-19-122q-22-11-42-25l-115 45-138-241 94-75v-13-38l-94-79 138-241 115 45q20-14 42-25l19-122h278l19 122q22 11 42 25l115-45 138 241-93 77v25zm23 115l-81-66 2-15q2-17 2-34t-2-34l-2-15 81-66-92-161-98 38-12-9q-27-20-58-34l-13-6-17-105H360l-16 105-14 6q-31 14-57 34l-13 9-97-38-93 162 81 66-2 14q-2 18-2 34.5t2 34.5l2 15-81 65 93 162 97-38 13 9q26 20 57 32l14 7 16 105h186l17-105 13-7q31-14 58-32l12-10 98 39 92-162zm-383-290q71 3 120.5 54t49.5 121.5q0 70.5-49.5 121.5t-120.5 54q-71-3-120-54t-49-121.5q0-70.5 49-121.5t120-54zm121 175q0-49-35-85t-86-36q-48 2-82.5 37.5t-34.5 84q0 48.5 34.5 84t82.5 38.5q21 0 46-10.5t39-25.5q14-15 25-40t11-47z"/></svg>