<svg width="1075" height="1075" viewBox="0 0 1075 1075" fill="none" xmlns="http://www.w3.org/2000/svg">
<path d="M356 538C356 516 360.167 494.333 368.5 473C376.833 451.667 388.667 432.5 404 415.5C419.333 398.5 438.333 384.667 461 374C483.667 363.333 509.333 358 538 358C566.667 358 592.333 363.333 615 374C637.667 384.667 656.667 398.5 672 415.5C687.333 432.5 699.167 451.667 707.5 473C715.833 494.333 720 516 720 538C720 560 715.833 581.833 707.5 603.5C699.167 625.167 687.333 644.5 672 661.5C656.667 678.5 637.667 692.167 615 702.5C592.333 712.833 566.667 718 538 718C509.333 718 483.667 712.833 461 702.5C438.333 692.167 419.333 678.5 404 661.5C388.667 644.5 376.833 625.167 368.5 603.5C360.167 581.833 356 560 356 538ZM226 538C226 544 227 554.667 229 570C231 585.333 233.333 598 236 608L155 670L232 805L336 764C340.667 768.667 347.5 774.167 356.5 780.5C365.5 786.833 375 793.167 385 799.5C395 805.833 404.833 811.833 414.5 817.5C424.167 823.167 432 827.333 438 830L456 937H620L638 830C644 827.333 651.667 823.167 661 817.5C670.333 811.833 680 805.833 690 799.5C700 793.167 709.5 786.833 718.5 780.5C727.5 774.167 734.667 768.667 740 764L844 805L921 670L840 608C842.667 598 845 585.333 847 570C849 554.667 850 544 850 538C850 532 849 521.333 847 506C845 490.667 842.667 478 840 468L921 406L844 271L740 312C734.667 307.333 727.5 301.833 718.5 295.5C709.5 289.167 700 282.833 690 276.5C680 270.167 670.333 264.167 661 258.5C651.667 252.833 644 248.667 638 246L620 139H456L438 246C432 248.667 424.167 252.833 414.5 258.5C404.833 264.167 395 270.167 385 276.5C375 282.833 365.5 289.167 356.5 295.5C347.5 301.833 340.667 307.333 336 312L232 271L155 406L236 468C233.333 478 231 490.667 229 506C227 521.333 226 532 226 538ZM415 538C415 555.333 417.667 571.833 423 587.5C428.333 603.167 436.167 616.667 446.5 628C456.833 639.333 469.667 648.333 485 655C500.333 661.667 518 665 538 665C558 665 575.667 661.667 591 655C606.333 648.333 619.167 639.333 629.5 628C639.833 616.667 647.667 603.167 653 587.5C658.333 571.833 661 555.333 661 538C661 520.667 658.333 504.333 653 489C647.667 473.667 639.833 460.167 629.5 448.5C619.167 436.833 606.333 427.667 591 421C575.667 414.333 558 411 538 411C518 411 500.333 414.333 485 421C469.667 427.667 456.833 436.833 446.5 448.5C436.167 460.167 428.333 473.667 423 489C417.667 504.333 415 520.667 415 538ZM898 538C898 551.333 897 566 895 582L990 656L866 872L748 827C738 835 727.5 842.333 716.5 849C705.5 855.667 695 861.333 685 866L665 990H411L391 866C381 861.333 370.5 855.667 359.5 849C348.5 842.333 338 835 328 827L210 872L86 656L181 582C179 566 178 551.333 178 538C178 524.667 179 510 181 494L86 420L210 204L328 249C338 241 348.5 233.667 359.5 227C370.5 220.333 381 214.667 391 210L411 86H665L685 210C695 214.667 705.5 220.333 716.5 227C727.5 233.667 738 241 748 249L866 204L990 420L895 494C897 510 898 524.667 898 538Z" fill="black"/>
</svg>
