<svg viewBox="0 0 1231 1074.237" xmlns="http://www.w3.org/2000/svg"><path d="M270 578.237q0-33 12.5-65t35.5-57.5q23-25.5 57-41.5t77-16q43 0 77 16t57 41.5q23 25.5 35.5 57.5t12.5 65q0 33-12.5 65.5t-35.5 58q-23 25.5-57 41t-77 15.5q-43 0-77-15.5t-57-41q-23-25.5-35.5-58t-12.5-65.5zm-130 0q0 9 3 32t7 38l-81 62 77 135 104-41q7 7 20.5 16.5t28.5 19q15 9.5 29.5 18t23.5 12.5l18 107h164l18-107q9-4 23-12.5t29-18q15-9.5 28.5-19t21.5-16.5l104 41 77-135-81-62q4-15 7-38t3-32q0-9-3-32t-7-38l81-62-77-135-104 41q-8-7-21.5-16.5t-28.5-19q-15-9.5-29-18t-23-12.5l-18-107H370l-18 107q-9 4-23.5 12.5t-29.5 18q-15 9.5-28.5 19t-20.5 16.5l-104-41-77 135 81 62q-4 15-7 38t-3 32zm189 0q0 26 8 49.5t23.5 40.5q15.5 17 38.5 27t53 10q30 0 53-10t38.5-27q15.5-17 23.5-40.5t8-49.5q0-26-8-49t-23.5-40.5q-15.5-17.5-38.5-27.5t-53-10q-30 0-53 10t-38.5 27.5q-15.5 17.5-23.5 40.5t-8 49zm483 0q0 20-3 44l95 74-124 216-118-45q-15 12-31.5 22t-31.5 17l-20 124H325l-20-124q-15-7-31.5-17t-31.5-22l-118 45-124-216 95-74q-3-24-3-44t3-44l-95-74 124-216 118 45q15-12 31.5-22t31.5-17l20-124h254l20 124q15 7 31.5 17t31.5 22l118-45 124 216-95 74q3 24 3 44z"/></svg>