<svg width="1075" height="1075" viewBox="0 0 1075 1075" fill="none" xmlns="http://www.w3.org/2000/svg">
<path d="M863 411C863 494.333 835.167 566.833 779.5 628.5C723.833 690.167 655 725.333 573 734H704V812C668.667 812 638.667 824.333 614 849C589.333 873.667 577 903.667 577 939V990H499V939V938C499 903.333 486.667 873.667 462 849C437.333 824.333 407.667 812 373 812V734H503C421 726 352.167 691 296.5 629C240.833 567 213 494.333 213 411C213 321 244.667 244.167 308 180.5C371.333 116.833 448 85 538 85C628 85 704.667 116.833 768 180.5C831.333 244.167 863 321 863 411ZM343 606C397 660 462.167 687 538.5 687C614.833 687 680 660 734 606C788 552 815 486.833 815 410.5C815 334.167 788 269 734 215C680 161 614.833 134 538.5 134C462.167 134 397 161 343 215C289 269 262 334.167 262 410.5C262 486.833 289 552 343 606ZM594 483C584 483 575.667 479.5 569 472.5C562.333 465.5 559 457.333 559 448C559 441.333 560.5 435.333 563.5 430C566.5 424.667 570.833 420.333 576.5 417C582.167 413.667 588 412 594 412C604 412 612.5 415.5 619.5 422.5C626.5 429.5 630 437.833 630 447.5C630 457.167 626.5 465.5 619.5 472.5C612.5 479.5 604 483 594 483ZM681 423C687.667 415.667 696 412 706 412C716 412 724.333 415.5 731 422.5C737.667 429.5 741 437.833 741 447.5C741 457.167 737.667 465.5 731 472.5C724.333 479.5 716 483 706 483C696 483 687.667 479.5 681 472.5C674.333 465.5 671 457.167 671 447.5C671 437.833 674.333 429.667 681 423ZM632 381C620 374.333 614.333 364.333 615 351C615 345 616.667 339 620 333C626.667 321 636.667 315.333 650 316C660 316 668.5 319.333 675.5 326C682.5 332.667 686 341 686 351C686 361 682.5 369.333 675.5 376C668.5 382.667 660 386 650 386C643.333 386 637.333 384.333 632 381ZM668 514C680 520.667 686 530.667 686 544C686 550 684.333 556 681 562C674.333 574 664 580 650 580C640 580 631.667 576.5 625 569.5C618.333 562.5 615 554.167 615 544.5C615 534.833 618.5 526.5 625.5 519.5C632.5 512.5 640.667 509 650 509C656.667 509 662.667 510.667 668 514ZM556 514C567.333 520.667 573 530.667 573 544C573 550.667 571.667 556.667 569 562C562.333 573.333 552 579 538 579C528 579 519.667 575.667 513 569C506.333 562.333 503 554.167 503 544.5C503 534.833 506.5 526.5 513.5 519.5C520.5 512.5 528.667 509 538 509C544.667 509 550.667 510.667 556 514Z" fill="black"/>
</svg>
