<svg viewBox="0 0 1104 1074.237" xmlns="http://www.w3.org/2000/svg"><path d="M650 456.237q0 125-83.5 217.5T360 779.237h131v78q-53 0-90 37t-37 90v2-2 51h-78v-51-1q0-52-37-89t-89-37v-78h130q-123-12-206.5-105t-83.5-218q0-135 95-230.5t230-95.5q135 0 230 95.5t95 230.5zm-520 195q81 81 195.5 81t195.5-81q81-81 81-195.5t-81-195.5q-81-81-195.5-81t-195.5 81q-81 81-81 195.5t81 195.5zm251-123q-15 0-25-10.5t-10-24.5q0-10 4.5-18t13-13q8.5-5 17.5-5 15 0 25.5 10.5t10.5 25q0 14.5-10.5 25t-25.5 10.5zm87-60q10-11 25-11t25 10.5q10 10.5 10 25t-10 25q-10 10.5-25 10.5t-25-10.5q-10-10.5-10-25t10-24.5zm-49-42q-18-10-17-30 0-9 5-18 10-18 30-17 15 0 25.5 10t10.5 25q0 15-10.5 25t-25.5 10q-10 0-18-5zm36 133q18 10 18 30 0 9-5 18-10 18-31 18-15 0-25-10.5t-10-25q0-14.5 10.5-25t24.5-10.5q10 0 18 5zm-112 0q17 10 17 30 0 10-4 18-10 17-31 17-15 0-25-10t-10-24.5q0-14.5 10.5-25t24.5-10.5q10 0 18 5z"/></svg>