<svg viewBox="0 0 1184 1074.237" xmlns="http://www.w3.org/2000/svg"><path d="M757 559.237q16 0 29 10.5t13 28.5q0 44-16 84.5t-44.5 71.5q-28.5 31-67 49t-83.5 18q-49 0-89.5-22t-69.5-64v203q0 17-14 30.5t-32 13.5q-44 0-82.5-16.5t-67-45q-28.5-28.5-45.5-67t-17-82.5q0-49 19.5-93.5t52.5-66.5H42q-19 0-30.5-13t-11.5-32q0-44 17-83.5t46-69.5q29-30 67.5-48t81.5-18q51 0 93 22.5t74 63.5v-212q0-18 11-30.5t28-12.5q45 0 84.5 17t68.5 46.5q29 29.5 46 69t17 83.5q0 48-22.5 91t-66.5 74h212zm-330-6q30-1 58-13.5t50-34.5q22-22 35-50.5t13-60.5q0-33-13-62.5t-35-52q-22-22.5-50-36t-58-14.5v324zm-215-151q-32 0-61 12.5t-50.5 34q-21.5 21.5-35.5 50.5t-16 62h325q-1-33-14.5-62t-35-50.5q-21.5-21.5-50.5-34t-62-12.5zm169 203q-35 1-64 14t-50 35q-21 22-33 51.5t-12 63.5q0 33 12 62t33 50.5q21 21.5 50 35t64 14.5v-326zm207 161q33 0 62-13.5t50.5-35.5q21.5-22 34.5-50t14-58H426q2 30 15.5 58t35 50q21.5 22 50.5 35.5t61 13.5z"/></svg>