<svg width="1075" height="1075" viewBox="0 0 1075 1075" fill="none" xmlns="http://www.w3.org/2000/svg">
<path d="M895 517C905.667 517 915.333 520.5 924 527.5C932.667 534.5 937 544 937 556C937 585.333 931.667 613.5 921 640.5C910.333 667.5 895.5 691.333 876.5 712C857.5 732.667 835.167 749 809.5 761C783.833 773 756 779 726 779C693.333 779 663.5 771.667 636.5 757C609.5 742.333 586.333 721 567 693V896C567 907.333 562.333 917.5 553 926.5C543.667 935.5 533 940 521 940C491.667 940 464.167 934.5 438.5 923.5C412.833 912.5 390.5 897.5 371.5 878.5C352.5 859.5 337.333 837.167 326 811.5C314.667 785.833 309 758.333 309 729C309 696.333 315.5 665.167 328.5 635.5C341.5 605.833 359 583.667 381 569H180C167.333 569 157.167 564.667 149.5 556C141.833 547.333 138 536.667 138 524C138 494.667 143.667 466.833 155 440.5C166.333 414.167 181.667 391 201 371C220.333 351 242.833 335 268.5 323C294.167 311 321.333 305 350 305C384 305 415 312.5 443 327.5C471 342.5 495.667 363.667 517 391V179C517 167 520.667 156.833 528 148.5C535.333 140.167 544.667 136 556 136C586 136 614.167 141.667 640.5 153C666.833 164.333 689.667 179.833 709 199.5C728.333 219.167 743.667 242.167 755 268.5C766.333 294.833 772 322.667 772 352C772 384 764.5 414.333 749.5 443C734.5 471.667 712.333 496.333 683 517H895ZM565 511C585 510.333 604.333 505.833 623 497.5C641.667 489.167 658.333 477.667 673 463C687.667 448.333 699.333 431.5 708 412.5C716.667 393.5 721 373.333 721 352C721 330 716.667 309.167 708 289.5C699.333 269.833 687.667 252.5 673 237.5C658.333 222.5 641.667 210.5 623 201.5C604.333 192.5 585 187.667 565 187V511ZM350 360C328.667 360 308.333 364.167 289 372.5C269.667 380.833 252.833 392.167 238.5 406.5C224.167 420.833 212.333 437.667 203 457C193.667 476.333 188.333 497 187 519H512C511.333 497 506.5 476.333 497.5 457C488.5 437.667 476.833 420.833 462.5 406.5C448.167 392.167 431.333 380.833 412 372.5C392.667 364.167 372 360 350 360ZM519 563C495.667 563.667 474.333 568.333 455 577C435.667 585.667 419 597.333 405 612C391 626.667 380 643.833 372 663.5C364 683.167 360 704.333 360 727C360 749 364 769.667 372 789C380 808.333 391 825.167 405 839.5C419 853.833 435.667 865.5 455 874.5C474.333 883.5 495.667 888.333 519 889V563ZM726 724C748 724 768.667 719.5 788 710.5C807.333 701.5 824.167 689.667 838.5 675C852.833 660.333 864.333 643.667 873 625C881.667 606.333 886.333 587 887 567H564C565.333 587 570.5 606.333 579.5 625C588.5 643.667 600.167 660.333 614.5 675C628.833 689.667 645.667 701.5 665 710.5C684.333 719.5 704.667 724 726 724Z" fill="black"/>
</svg>
