<svg width="1075" height="1075" viewBox="0 0 1075 1075" fill="none" xmlns="http://www.w3.org/2000/svg">
<path d="M257 509V345H514V509H257ZM444 727V681H818V727H444ZM444 626V579H818V626H444ZM257 727V681H397V727H257ZM257 626V579H397V626H257ZM859 199C881.667 199 901 207 917 223C933 239 941 258.333 941 281V795C941 817.667 933 837 917 853C901 869 881.667 877 859 877H216C193.333 877 174 869 158 853C142 837 134 817.667 134 795V281C134 265.667 137.667 251.833 145 239.5C152.333 227.167 162.333 217.333 175 210C187.667 202.667 201.333 199 216 199H859ZM895 795V281C895 271 891.5 262.5 884.5 255.5C877.5 248.5 869 245 859 245H216C206 245 197.5 248.5 190.5 255.5C183.5 262.5 180 271 180 281V795C180 805 183.5 813.5 190.5 820.5C197.5 827.5 206 831 216 831H859C869 831 877.5 827.5 884.5 820.5C891.5 813.5 895 805 895 795Z" fill="black"/>
</svg>
