<svg width="1075" height="1075" viewBox="0 0 1075 1075" fill="none" xmlns="http://www.w3.org/2000/svg">
<path d="M595 961C547 961 501 951.833 457 933.5C413 915.167 374 889 340 855L150 665C130 645 120 621 120 593C120 579 122.667 565.833 128 553.5C133.333 541.167 140.667 530.5 150 521.5C159.333 512.5 170.167 505.333 182.5 500C194.833 494.667 208 492 222 492C235.333 492 248.167 494.333 260.5 499C272.833 503.667 284 511 294 521L303 531V253C303 239 305.667 225.833 311 213.5C316.333 201.167 323.667 190.333 333 181C342.333 171.667 353.167 164.333 365.5 159C377.833 153.667 391 151 405 151C426.333 151 446 157.333 464 170C472 153.333 484.167 139.833 500.5 129.5C516.833 119.167 535 114 555 114C572.333 114 588.333 118.333 603 127C617.667 135.667 629.667 146.667 639 160C648.333 152.667 658.333 147 669 143C679.667 139 691.333 137 704 137C728 137 749.167 144.5 767.5 159.5C785.833 174.5 797.667 193 803 215C810.333 211 818.333 207.667 827 205C835.667 202.333 844.667 201 854 201C868 201 881.167 203.667 893.5 209C905.833 214.333 916.5 221.667 925.5 231C934.5 240.333 941.667 251.167 947 263.5C952.333 275.833 955 289 955 303V600C955 650 945.5 696.833 926.5 740.5C907.5 784.167 881.833 822.333 849.5 855C817.167 887.667 779.167 913.5 735.5 932.5C691.833 951.5 645 961 595 961ZM629 587C621.667 587 615.333 584.333 610 579C604.667 573.667 602 567.333 602 560V216C602 202.667 597.5 191.333 588.5 182C579.5 172.667 568.333 168 555 168C541.667 168 530.333 172.667 521 182C511.667 191.333 507 202.667 507 216V560C507 567.333 504.333 573.667 499 579C493.667 584.333 487.333 587 480 587C472.667 587 466.333 584.333 461 579C455.667 573.667 453 567.333 453 560V249C451.667 236.333 446.333 225.833 437 217.5C427.667 209.167 417 205 405 205C391.667 205 380.333 209.667 371 219C361.667 228.333 357 239.667 357 253V596C357 604 354.333 610.5 349 615.5C343.667 620.5 337.333 623 330 623C322.667 623 316.333 620.333 311 615L256 560C246.667 550.667 235.333 546 222 546C208.667 546 197.333 550.5 188 559.5C178.667 568.5 174 579.667 174 593C174 606.333 178.667 617.667 188 627L378 817C407.333 846.333 440.5 868.667 477.5 884C514.5 899.333 553.667 907 595 907C637 907 676.667 899 714 883C751.333 867 783.833 845 811.5 817C839.167 789 861 756.333 877 719C893 681.667 901 642 901 600V303C901 289.667 896.5 278.333 887.5 269C878.5 259.667 867.333 255 854 255C840.667 255 829.667 259.333 821 268C812.333 276.667 807.333 287 806 299V565C806 572.333 803.333 578.667 798 584C792.667 589.333 786.333 592 779 592C771.667 592 765.333 589.333 760 584C754.667 578.667 752 572.333 752 565V239C752 225.667 747.333 214.333 738 205C728.667 195.667 717.333 191 704 191C690.667 191 679.333 195.667 670 205C660.667 214.333 656 225.667 656 239V560C656 567.333 653.333 573.667 648 579C642.667 584.333 636.333 587 629 587Z" fill="black"/>
</svg>
