<svg viewBox="0 0 1217 1074.237" xmlns="http://www.w3.org/2000/svg"><path d="M475 980.237q-72 0-138-27.5t-117-78.5l-190-190q-30-30-30-72 0-21 8-39.5t22-32q14-13.5 32.5-21.5t39.5-8q20 0 38.5 7t33.5 22l9 10v-278q0-21 8-39.5t22-32.5q14-14 32.5-22t39.5-8q32 0 59 19 12-25 36.5-40.5t54.5-15.5q26 0 48 13t36 33q14-11 30-17t35-6q36 0 63.5 22.5t35.5 55.5q11-6 24-10t27-4q21 0 39.5 8t32 22q13.5 14 21.5 32.5t8 39.5v297q0 75-28.5 140.5t-77 114.5q-48.5 49-114 77.5t-140.5 28.5zm34-374q-11 0-19-8t-8-19v-344q0-20-13.5-34t-33.5-14q-20 0-34 14t-14 34v344q0 11-8 19t-19 8q-11 0-19-8t-8-19v-311q-2-19-16-31.5t-32-12.5q-20 0-34 14t-14 34v343q0 12-8 19.5t-19 7.5q-11 0-19-8l-55-55q-14-14-34-14t-34 13.5q-14 13.5-14 33.5t14 34l190 190q44 44 99.5 67t117.5 23q63 0 119-24t97.5-66q41.5-42 65.5-98t24-119v-297q0-20-13.5-34t-33.5-14q-20 0-33 13t-15 31v266q0 11-8 19t-19 8q-11 0-19-8t-8-19v-326q0-20-14-34t-34-14q-20 0-34 14t-14 34v321q0 11-8 19t-19 8z"/></svg>