<svg width="1075" height="1075" viewBox="0 0 1075 1075" fill="none" xmlns="http://www.w3.org/2000/svg">
<path d="M910 655H701V936H849C865.667 936 879.833 930 891.5 918C903.167 906 909.333 892 910 876V655ZM373 655L166 656V893C166 905 170.5 915.333 179.5 924C188.5 932.667 199 937 211 937H373V655ZM538 92C592 92 644.167 102.667 694.5 124C744.833 145.333 788.5 173.667 825.5 209C862.5 244.333 892.833 286.5 916.5 335.5C940.167 384.5 953.333 436 956 490V876C956 905.333 945.5 930.333 924.5 951C903.5 971.667 878.333 982.333 849 983H656V607H896V490C893.333 428.667 875.833 372.167 843.5 320.5C811.167 268.833 768.333 228 715 198C661.667 168 604.333 153 543 153H533C471.667 153 414.333 168 361 198C307.667 228 264.833 268.833 232.5 320.5C200.167 372.167 182.667 428.667 180 490V609H420V983H211C185 983 163.333 974.167 146 956.5C128.667 938.833 120 917.667 120 893V490C123.333 418.667 144.333 352.333 183 291C221.667 229.667 272.5 181.167 335.5 145.5C398.5 109.833 465.667 92 537 92H538Z" fill="black"/>
</svg>
