<svg viewBox="0 0 1247.0282 1074.237" xmlns="http://www.w3.org/2000/svg"><path d="M464.028 943.237q15-9 36-23h94q-56 42-115 78l-15 8-13-8q-12-7-30.5-18.5t-63.5-43.5q-45-32-87-66.5t-92-84.5q-50-50-87-99.5t-62-110.5q-25-61-29-119-7-134 65-211 70-73 185-73h1q65 0 121.5 30.5t91.5 81.5q36-52 92.5-82t121.5-30h1q116 0 184 74 73 76 66 210-7 130-127 274v-88q69-100 74-189 6-111-53-171-53-56-144-56h-1q-56 0-103.5 28t-74.5 75l-8 14h-55l-8-14q-27-47-74.5-75t-103.5-28q-93 0-147 56-57 60-50 171 3 65 41 135t86.5 123q48.5 53 112 106.5t100.5 79q37 25.5 70 46.5zm473-144v54h-209v209h-54v-209h-210v-54h210v-209h54v209h209z"/></svg>