<svg width="1075" height="1075" viewBox="0 0 1075 1075" fill="none" xmlns="http://www.w3.org/2000/svg">
<path d="M537.62 955L523.62 947C515.62 942.333 505.62 936.167 493.62 928.5C481.62 920.833 460.454 906.167 430.12 884.5C399.787 862.833 370.787 840.667 343.12 818C315.454 795.333 284.787 767.333 251.12 734C217.454 700.667 188.454 667.5 164.12 634.5C139.787 601.5 118.954 564.667 101.62 524C84.2869 483.333 74.9536 443.333 73.6203 404C68.9536 314.667 90.6203 244.667 138.62 194C184.62 145.333 246.287 121 323.62 121H324.62C367.954 121 408.287 131 445.62 151C482.954 171 513.62 198.333 537.62 233C549.62 216.333 563.287 201 578.62 187C593.954 173 610.62 161.167 628.62 151.5C646.62 141.833 666.12 134.333 687.12 129C708.12 123.667 729.62 121 751.62 121H752.62C829.954 121 891.287 145.333 936.62 194C985.287 244.667 1007.29 314.667 1002.62 404C1000.62 442.667 990.787 482.5 973.12 523.5C955.454 564.5 934.62 601.5 910.62 634.5C886.62 667.5 857.787 700.833 824.12 734.5C790.454 768.167 759.954 796.167 732.62 818.5C705.287 840.833 676.12 863 645.12 885C614.12 907 593.12 921.5 582.12 928.5C571.12 935.5 560.954 941.667 551.62 947L537.62 955ZM323.62 175C262.287 175 213.62 193.667 177.62 231C140.287 271 123.287 328 126.62 402C127.954 433.333 135.62 465.5 149.62 498.5C163.62 531.5 180.454 562.167 200.12 590.5C219.787 618.833 243.454 647.5 271.12 676.5C298.787 705.5 324.787 730.5 349.12 751.5C373.454 772.5 399.62 793.5 427.62 814.5C455.62 835.5 477.287 851.333 492.62 862C507.954 872.667 522.954 882.667 537.62 892C549.62 884.667 562.287 876.5 575.62 867.5C588.954 858.5 607.12 845.667 630.12 829C653.12 812.333 675.287 795 696.62 777C717.954 759 740.954 738.667 765.62 716C790.287 693.333 812.787 669.667 833.12 645C853.454 620.333 872.287 594.833 889.62 568.5C906.954 542.167 920.787 514.833 931.12 486.5C941.454 458.167 947.287 430 948.62 402C952.62 328 935.62 271 897.62 231C862.287 193.667 813.954 175 752.62 175H751.62C714.287 175 679.62 184.333 647.62 203C615.62 221.667 590.62 246.667 572.62 278L564.62 291H510.62L502.62 278C484.62 246.667 459.787 221.667 428.12 203C396.454 184.333 361.62 175 323.62 175Z" fill="black"/>
</svg>
