<svg width="1075" height="1075" viewBox="0 0 1075 1075" fill="none" xmlns="http://www.w3.org/2000/svg">
<path d="M936.62 194C984.62 244.667 1006.62 315 1002.62 405C1001.29 435.667 994.954 466.667 983.62 498C972.287 529.333 958.454 558.667 942.12 586C925.787 613.333 906.12 641 883.12 669C860.12 697 837.454 722 815.12 744C792.787 766 768.454 788 742.12 810C715.787 832 692.954 850.167 673.62 864.5C654.287 878.833 634.287 893 613.62 907C592.954 921 578.787 930.333 571.12 935C563.454 939.667 556.954 943.667 551.62 947L537.62 955L523.62 947C515.62 942.333 505.62 936.167 493.62 928.5C481.62 920.833 460.454 906.167 430.12 884.5C399.787 862.833 370.787 840.667 343.12 818C315.454 795.333 284.787 767.333 251.12 734C217.454 700.667 188.454 667.5 164.12 634.5C139.787 601.5 118.954 564.667 101.62 524C84.2869 483.333 74.9536 443.667 73.6203 405C68.9536 315.667 90.6203 245.333 138.62 194C184.62 145.333 245.954 121.333 322.62 122L323.62 121C352.954 121 381.12 125.667 408.12 135C435.12 144.333 459.454 157.333 481.12 174C502.787 190.667 521.62 210.333 537.62 233C561.62 198.333 592.287 171.167 629.62 151.5C666.954 131.833 707.62 122 751.62 122H752.62C829.287 121.333 890.62 145.333 936.62 194Z" fill="black"/>
</svg>
