<svg width="1075" height="1075" viewBox="0 0 1075 1075" fill="none" xmlns="http://www.w3.org/2000/svg">
<path d="M533.62 864C543.62 858 555.62 850.333 569.62 841H663.62C626.287 869 587.954 895 548.62 919L533.62 927L520.62 919C512.62 914.333 502.454 908.167 490.12 900.5C477.787 892.833 456.62 878.333 426.62 857C396.62 835.667 367.62 813.5 339.62 790.5C311.62 767.5 280.954 739.333 247.62 706C214.287 672.667 185.287 639.5 160.62 606.5C135.954 573.5 115.287 536.667 98.6203 496C81.9536 455.333 72.2869 415.667 69.6203 377C64.9536 287.667 86.6203 217.333 134.62 166C181.287 117.333 242.954 93 319.62 93H320.62C363.954 93 404.454 103.167 442.12 123.5C479.787 143.833 510.287 171 533.62 205C557.62 170.333 588.454 143 626.12 123C663.787 103 704.287 93 747.62 93H748.62C825.954 93 887.287 117.667 932.62 167C981.287 217.667 1003.29 287.667 998.62 377C993.954 463.667 951.62 555 871.62 651V563C917.62 496.333 942.287 433.333 945.62 374C949.62 300 931.954 243 892.62 203C857.287 165.667 809.287 147 748.62 147H747.62C710.287 147 675.787 156.333 644.12 175C612.454 193.667 587.62 218.667 569.62 250L561.62 264H506.62L498.62 250C480.62 218.667 455.787 193.667 424.12 175C392.454 156.333 357.954 147 320.62 147C258.62 147 209.62 165.667 173.62 203C135.62 243 118.954 300 123.62 374C125.62 417.333 139.287 462.333 164.62 509C189.954 555.667 218.787 596.667 251.12 632C283.454 667.333 320.787 702.833 363.12 738.5C405.454 774.167 438.954 800.5 463.62 817.5C488.287 834.5 511.62 850 533.62 864ZM1006.62 720V774H797.62V983H743.62V774H533.62V720H743.62V511H797.62V720H1006.62Z" fill="black"/>
</svg>
