<svg width="1075" height="1075" viewBox="0 0 1075 1075" fill="none" xmlns="http://www.w3.org/2000/svg">
<path d="M894.622 205C858.622 167 809.622 148 747.622 148H746.622C720.622 148 696.122 152.333 673.122 161C650.122 169.667 629.456 182 611.122 198C592.789 214 577.622 232 565.622 252L558.622 264H506.622L499.622 252C480.956 220 455.622 194.667 423.622 176C391.622 157.333 356.622 148 318.622 148C256.622 148 207.289 167 170.622 205C132.621 245 115.62 302.667 119.62 378C120.954 409.333 128.62 441.833 142.62 475.5C156.62 509.167 173.62 540.167 193.62 568.5C213.62 596.833 237.62 625.667 265.62 655C293.62 684.333 319.954 709.667 344.62 731C369.287 752.333 395.454 773.5 423.12 794.5C450.787 815.5 472.62 831.333 488.62 842C504.62 852.667 519.287 862.333 532.62 871V927L520.62 920C512.62 915.333 502.62 909.167 490.62 901.5C478.62 893.833 457.454 879.333 427.12 858C396.787 836.667 367.787 814.667 340.12 792C312.454 769.333 281.954 741.333 248.62 708C215.287 674.667 186.454 641.5 162.12 608.5C137.787 575.5 116.954 538.833 99.6203 498.5C82.2869 458.167 72.6203 418.667 70.6203 380C65.9536 291.333 87.6203 221.667 135.62 171C180.954 123 241.954 99 318.62 99C362.62 99 403.454 109.333 441.12 130C478.787 150.667 509.287 178.333 532.62 213C555.954 177.667 586.454 149.833 624.12 129.5C661.787 109.167 702.62 99 746.62 99H747.62C824.954 99 885.954 123.333 930.62 172C978.62 222 1000.62 291.333 996.62 380C993.287 427.333 980.954 472 959.62 514H905.62C929.62 470.667 943.287 425.333 946.62 378C949.954 302.667 932.62 245 894.62 205H894.622ZM607.622 809V759H1005.62V809H607.622ZM607.622 640V591H1005.62V640H607.622ZM607.622 977V928H1005.62V977H607.622Z" fill="black"/>
</svg>
