<svg viewBox="0 0 1246.0285 1074.237" xmlns="http://www.w3.org/2000/svg"><path d="M824.03 274.237q-54-57-147-57h-1q-39 0-73.5 13t-62 37q-27.5 24-45.5 54l-7 12h-52l-7-12q-28-48-76-76t-105-28q-93 0-148 57-57.002 60-51.002 173 2 47 23 97.5t51 93q30 42.5 72 86.5t79 76q37 32 78.5 63.5t65.5 47.5q24 16 44 29v56l-12-7q-12-7-30-18.5t-63.5-43.5q-45.5-32-87-66t-91.5-84q-50-50-86.5-99.5t-62.5-110q-26-60.5-29-118.5-7-133 65-209 68-72 183-72 66 0 122.5 31t91.5 83q35-53 91.5-83.5t122.5-30.5h1q116 0 183 73 72 75 66 208-5 71-37 134h-54q36-65 41-136 5-113-52-173zm-287 604v-50h398v50h-398zm0-169v-49h398v49h-398zm0 337v-49h398v49h-398z"/></svg>