<svg width="1075" height="1075" viewBox="0 0 1075 1075" fill="none" xmlns="http://www.w3.org/2000/svg">
<path d="M538 268C580 268.667 615.833 284 645.5 314C675.167 344 690 380 690 422V423C690 470.333 672.333 509.667 637 541L627 551C617.667 559 610.833 565.167 606.5 569.5C602.167 573.833 597.5 579.5 592.5 586.5C587.5 593.5 582.667 601.667 578 611C570 629.667 565.667 657.667 565 695H511C511 647.667 517 611.667 529 587C543.667 557 564.333 531.667 591 511L601 502C624.333 481.333 636 455.333 636 424V419C636 391.667 626.5 368.5 607.5 349.5C588.5 330.5 565.333 321 538 321C510.667 321 487.5 330.333 468.5 349C449.5 367.667 440 391 440 419V438H386V424V422C386 380 400.833 344 430.5 314C460.167 284 496 268.667 538 268ZM511 821V747H565V821H511ZM1010 538C1010 589.333 1002.17 639 986.5 687C970.833 735 948.333 778.333 919 817C889.667 855.667 855.667 889.5 817 918.5C778.333 947.5 735 970 687 986C639 1002 589.333 1010 538 1010C474 1010 412.833 997.5 354.5 972.5C296.167 947.5 246 914 204 872C162 830 128.5 780 103.5 722C78.5 664 66 602.833 66 538.5C66 474.167 78.5 412.833 103.5 354.5C128.5 296.167 162 245.833 204 203.5C246 161.167 296.167 127.667 354.5 103C412.833 78.3333 474 66 538 66C602 66 663.167 78.3333 721.5 103C779.833 127.667 830.167 161.167 872.5 203.5C914.833 245.833 948.333 296.167 973 354.5C997.667 412.833 1010 474 1010 538ZM328 900C392 937.333 462 956 538 956C614 956 684 937.333 748 900C812 862.667 862.667 811.833 900 747.5C937.333 683.167 956 613.167 956 537.5C956 461.833 937.333 392 900 328C862.667 264 812 213.333 748 176C684 138.667 614 120 538 120C462 120 392 138.667 328 176C264 213.333 213.333 264 176 328C138.667 392 120 461.833 120 537.5C120 613.167 138.667 683.167 176 747.5C213.333 811.833 264 862.667 328 900Z" fill="black"/>
</svg>
