<svg viewBox="0 0 1251 1074.237" xmlns="http://www.w3.org/2000/svg"><path d="M472 314.237q63 1 107.5 46t44.5 108v1q0 71-53 118l-10 10q-14 12-20.5 18.5t-14 17q-7.5 10.5-14.5 24.5-12 28-13 84h-54q0-71 18-108 22-45 62-76l10-9q35-31 35-78v-5q0-41-28.5-69.5t-69.5-28.5q-41 0-69.5 28t-28.5 70v19h-54v-14-2q0-63 44.5-108t107.5-46zm-27 553v-74h54v74h-54zm499-283q0 77-23.5 149t-67.5 130q-44 58-102 101.5t-130 67.5q-72 24-149 24-96 0-183.5-37.5T138 918.237q-63-63-100.5-150T0 584.737q0-96.5 37.5-184t100.5-151q63-63.5 150.5-100.5t183.5-37q96 0 183.5 37t151 100.5q63.5 63.5 100.5 151t37 183.5zm-682 362q96 56 210 56t210-56q96-56 152-152.5t56-210q0-113.5-56-209.5t-152-152q-96-56-210-56t-210 56q-96 56-152 152t-56 209.5q0 113.5 56 210t152 152.5z"/></svg>