<svg viewBox="0 0 1274 1074.237" xmlns="http://www.w3.org/2000/svg"><path d="M878 968.237q-11 0-19-8l-117-117q-116 66-238 66-131 0-255-75.5t-235-222.5q-14-18-14-44 0-11 3-22.5t11-21.5q49-64 100-115t105-88l-107-107q-8-8-8-20 0-11 8-19t19-8q9 0 19 8l117 117q114-66 237-66 132 0 256 75.5t234 222.5q8 10 11 21.5t3 22.5q0 26-14 44-99 131-205 203l108 108q8 7 8 19 0 11-8 19t-19 8zm-374-689q-99 0-198 52l53 52q30-23 66.5-36.5t78.5-13.5q48 0 91 18.5t74.5 50q31.5 31.5 50 74.5t18.5 91q0 42-13.5 79t-37.5 67l63 62q104-69 201-197 4-4 4-11t-4-11q-103-137-216-207t-231-70zm0 522q-48 0-91-18.5t-74.5-50q-31.5-31.5-50-74.5t-18.5-91q0-42 13.5-78.5t36.5-66.5l-61-62q-106 70-201 196-4 4-4 11t4 11q102 137 215 207t231 70q51 0 100-13t98-38l-53-53q-30 23-66.5 36.5t-78.5 13.5zm-180-234q0 37 14 70t38.5 57.5q24.5 24.5 57.5 38.5t70 14q30 0 57-9t50-26l-252-251q-17 23-26 49.5t-9 56.5zm180-180q-30 0-56.5 9t-49.5 26l251 252q17-23 26-50t9-57q0-37-14-70t-38.5-57.5q-24.5-24.5-57.5-38.5t-70-14z"/></svg>