<svg width="1075" height="1075" viewBox="0 0 1075 1075" fill="none" xmlns="http://www.w3.org/2000/svg">
<path d="M912 939C904.667 939 898.333 936.333 893 931L776 814C698.667 858 619.333 880 538 880C450.667 880 365.667 854.833 283 804.5C200.333 754.167 122 680 48 582C38.6667 570 34 555.333 34 538C34 530.667 35 523.167 37 515.5C39 507.833 42.6667 500.667 48 494C80.6667 451.333 114 413 148 379C182 345 217 315.667 253 291L146 184C140.667 178.667 138 172 138 164C138 156.667 140.667 150.333 146 145C151.333 139.667 157.667 137 165 137C171 137 177.333 139.667 184 145L301 262C377 218 456 196 538 196C626 196 711.333 221.167 794 271.5C876.667 321.833 954.667 396 1028 494C1033.33 500.667 1037 507.833 1039 515.5C1041 523.167 1042 530.667 1042 538C1042 555.333 1037.33 570 1028 582C962 669.333 893.667 737 823 785L931 893C936.333 897.667 939 904 939 912C939 919.333 936.333 925.667 931 931C925.667 936.333 919.333 939 912 939ZM538 250C472 250 406 267.333 340 302L393 354C413 338.667 435.167 326.5 459.5 317.5C483.833 308.5 510 304 538 304C570 304 600.333 310.167 629 322.5C657.667 334.833 682.5 351.5 703.5 372.5C724.5 393.5 741.167 418.333 753.5 447C765.833 475.667 772 506 772 538C772 566 767.5 592.333 758.5 617C749.5 641.667 737 664 721 684L784 746C853.333 700 920.333 634.333 985 549C987.667 546.333 989 542.667 989 538C989 533.333 987.667 529.667 985 527C916.333 435.667 844.333 366.667 769 320C693.667 273.333 616.667 250 538 250ZM538 772C506 772 475.667 765.833 447 753.5C418.333 741.167 393.5 724.5 372.5 703.5C351.5 682.5 334.833 657.667 322.5 629C310.167 600.333 304 570 304 538C304 510 308.5 483.833 317.5 459.5C326.5 435.167 338.667 413 354 393L293 331C222.333 377.667 155.333 443 92 527C89.3333 529.667 88 533.333 88 538C88 542.667 89.3333 546.333 92 549C160 640.333 231.667 709.333 307 756C382.333 802.667 459.333 826 538 826C572 826 605.333 821.667 638 813C670.667 804.333 703.333 791.667 736 775L683 722C663 737.333 640.833 749.5 616.5 758.5C592.167 767.5 566 772 538 772ZM358 538C358 562.667 362.667 586 372 608C381.333 630 394.167 649.167 410.5 665.5C426.833 681.833 446 694.667 468 704C490 713.333 513.333 718 538 718C558 718 577 715 595 709C613 703 629.667 694.333 645 683L393 432C381.667 447.333 373 463.833 367 481.5C361 499.167 358 518 358 538ZM538 358C518 358 499.167 361 481.5 367C463.833 373 447.333 381.667 432 393L683 645C694.333 629.667 703 613 709 595C715 577 718 558 718 538C718 513.333 713.333 490 704 468C694.667 446 681.833 426.833 665.5 410.5C649.167 394.167 630 381.333 608 372C586 362.667 562.667 358 538 358Z" fill="black"/>
</svg>
