<svg viewBox="0 0 1153 1074.237" xmlns="http://www.w3.org/2000/svg"><path d="M230 580.237H74q-30 0-52-21.5t-22-51.5v-45q0-30 21.5-51.5t52.5-21.5h156q20 0 36.5 10t26.5 27q10 17 10 36v45q0 30-21.5 51.5t-51.5 21.5zm-156-142q-10 0-17.5 7t-7.5 17v45q0 10 7.5 17t17.5 7h156q10 0 17-7t7-17v-45q0-10-7-17t-17-7H74zm262 194q28-52 60-111t57.5-105.5q25.5-46.5 47.5-85l34-59.5 12-21h201q-166 428-224 559-12 30-28.5 53t-42 45.5q-25.5 22.5-63.5 35t-86 12.5H0l53-280h216q29 0 42-9.5t25-33.5zm341-334H575q-109 191-195 356-11 21-22 34.5t-34.5 24.5q-23.5 11-54.5 11H93l-34 182h245q39 0 69-9t50-27q20-18 32.5-36.5t24.5-43.5q48-110 197-492z"/></svg>