<svg width="1075" height="1075" viewBox="0 0 1075 1075" fill="none" xmlns="http://www.w3.org/2000/svg">
<path d="M394 515H238C218 515 200.667 507.833 186 493.5C171.333 479.167 164 462 164 442V397C164 377 171.167 359.833 185.5 345.5C199.833 331.167 217.333 324 238 324H394C407.333 324 419.5 327.333 430.5 334C441.5 340.667 450.333 349.667 457 361C463.667 372.333 467 384.333 467 397V442C467 462 459.833 479.167 445.5 493.5C431.167 507.833 414 515 394 515ZM238 373C231.333 373 225.5 375.333 220.5 380C215.5 384.667 213 390.333 213 397V442C213 448.667 215.5 454.333 220.5 459C225.5 463.667 231.333 466 238 466H394C400.667 466 406.333 463.667 411 459C415.667 454.333 418 448.667 418 442V397C418 390.333 415.667 384.667 411 380C406.333 375.333 400.667 373 394 373H238ZM500 567C518.667 532.333 538.667 495.333 560 456C581.333 416.667 600.5 381.5 617.5 350.5C634.5 319.5 650.333 291.167 665 265.5L699 206L711 185H912C801.333 470.333 726.667 656.667 688 744C680 764 670.5 781.667 659.5 797C648.5 812.333 634.5 827.5 617.5 842.5C600.5 857.5 579.333 869.167 554 877.5C528.667 885.833 500 890 468 890H164L217 610H433C452.333 610 466.333 606.833 475 600.5C483.667 594.167 492 583 500 567ZM841 233H739C666.333 360.333 601.333 479 544 589C536.667 603 529.333 614.5 522 623.5C514.667 632.5 503.167 640.667 487.5 648C471.833 655.333 453.667 659 433 659H257L223 841H468C494 841 517 838 537 832C557 826 573.667 817 587 805C600.333 793 611.167 780.833 619.5 768.5C627.833 756.167 636 741.667 644 725C676 651.667 741.667 487.667 841 233Z" fill="black"/>
</svg>
