<svg viewBox="0 0 1193 1074.237" xmlns="http://www.w3.org/2000/svg"><path d="M72 207.237q-8 0-13 5t-5 13v684q0 8 5 13t13 5h684q8 0 13-5t5-13v-684q0-8-5-13t-13-5H72zm0 774q-30 0-51-21t-21-51v-684q0-30 21-51t51-21h684q30 0 51 21t21 51v684q0 30-21 51t-51 21H72zm108-549q-23 0-38.5-15.5t-15.5-38.5q0-23 15.5-38.5t38.5-15.5q23 0 38.5 15.5t15.5 38.5q0 23-15.5 38.5t-38.5 15.5zm153-27q-11 0-19-8t-8-19q0-11 8-19t19-8h342q11 0 19 8t8 19q0 11-8 19t-19 8H333zm-153 216q-23 0-38.5-15.5t-15.5-38.5q0-23 15.5-38.5t38.5-15.5q23 0 38.5 15.5t15.5 38.5q0 23-15.5 38.5t-38.5 15.5zm153-27q-11 0-19-8t-8-19q0-11 8-19t19-8h342q11 0 19 8t8 19q0 11-8 19t-19 8H333zm-153 216q-23 0-38.5-15.5t-15.5-38.5q0-23 15.5-38.5t38.5-15.5q23 0 38.5 15.5t15.5 38.5q0 23-15.5 38.5t-38.5 15.5zm153-27q-11 0-19-8t-8-19q0-11 8-19t19-8h342q11 0 19 8t8 19q0 11-8 19t-19 8H333z"/></svg>