<svg width="1075" height="1075" viewBox="0 0 1075 1075" fill="none" xmlns="http://www.w3.org/2000/svg">
<path d="M196 178C190.667 178 186.333 179.667 183 183C179.667 186.333 178 190.667 178 196V880C178 885.333 179.667 889.667 183 893C186.333 896.333 190.667 898 196 898H880C885.333 898 889.667 896.333 893 893C896.333 889.667 898 885.333 898 880V196C898 190.667 896.333 186.333 893 183C889.667 179.667 885.333 178 880 178H196ZM196 952C176 952 159 945 145 931C131 917 124 900 124 880V196C124 176 131 159 145 145C159 131 176 124 196 124H880C900 124 917 131 931 145C945 159 952 176 952 196V880C952 900 945 917 931 931C917 945 900 952 880 952H196ZM304 403C288.667 403 275.833 397.833 265.5 387.5C255.167 377.167 250 364.333 250 349C250 333.667 255.167 320.833 265.5 310.5C275.833 300.167 288.667 295 304 295C319.333 295 332.167 300.167 342.5 310.5C352.833 320.833 358 333.667 358 349C358 364.333 352.833 377.167 342.5 387.5C332.167 397.833 319.333 403 304 403ZM457 376C449.667 376 443.333 373.333 438 368C432.667 362.667 430 356.333 430 349C430 341.667 432.667 335.333 438 330C443.333 324.667 449.667 322 457 322H799C806.333 322 812.667 324.667 818 330C823.333 335.333 826 341.667 826 349C826 356.333 823.333 362.667 818 368C812.667 373.333 806.333 376 799 376H457ZM304 592C288.667 592 275.833 586.833 265.5 576.5C255.167 566.167 250 553.333 250 538C250 522.667 255.167 509.833 265.5 499.5C275.833 489.167 288.667 484 304 484C319.333 484 332.167 489.167 342.5 499.5C352.833 509.833 358 522.667 358 538C358 553.333 352.833 566.167 342.5 576.5C332.167 586.833 319.333 592 304 592ZM457 565C449.667 565 443.333 562.333 438 557C432.667 551.667 430 545.333 430 538C430 530.667 432.667 524.333 438 519C443.333 513.667 449.667 511 457 511H799C806.333 511 812.667 513.667 818 519C823.333 524.333 826 530.667 826 538C826 545.333 823.333 551.667 818 557C812.667 562.333 806.333 565 799 565H457ZM304 781C288.667 781 275.833 775.833 265.5 765.5C255.167 755.167 250 742.333 250 727C250 711.667 255.167 698.833 265.5 688.5C275.833 678.167 288.667 673 304 673C319.333 673 332.167 678.167 342.5 688.5C352.833 698.833 358 711.667 358 727C358 742.333 352.833 755.167 342.5 765.5C332.167 775.833 319.333 781 304 781ZM457 754C449.667 754 443.333 751.333 438 746C432.667 740.667 430 734.333 430 727C430 719.667 432.667 713.333 438 708C443.333 702.667 449.667 700 457 700H799C806.333 700 812.667 702.667 818 708C823.333 713.333 826 719.667 826 727C826 734.333 823.333 740.667 818 746C812.667 751.333 806.333 754 799 754H457Z" fill="black"/>
</svg>
