<svg viewBox="0 0 1247 1074.237" xmlns="http://www.w3.org/2000/svg"><path d="M468 1035.237q-97 0-182-37t-148.5-100.5Q74 834.237 37 749.237t-37-182q0-97 37-182t100.5-148.5q63.5-63.5 148.5-100.5t182-37q97 0 182 37t148.5 100.5q63.5 63.5 100.5 148.5t37 182q0 97-37 182t-100.5 148.5q-63.5 63.5-148.5 100.5t-182 37zm0-882q-86 0-161 32.5t-131.5 89q-56.5 56.5-89 132T54 567.237q0 86 32.5 161t89 131.5q56.5 56.5 131.5 89t161 32.5q85 0 160.5-32.5t132-89q56.5-56.5 89-131.5t32.5-161q0-85-32.5-160.5t-89-132q-56.5-56.5-132-89t-160.5-32.5zm81 657H405q-11 0-19-8t-8-19q0-11 8-19t19-8h45v-198h-36q-11 0-19-8t-8-19q0-11 8-19t19-8h63q11 0 19 8t8 19v225h45q11 0 19 8t8 19q0 11-8 19t-19 8zm-81-396q-19 0-32-13t-13-32q0-19 13-32t32-13q19 0 32 13t13 32q0 19-13 32t-32 13z"/></svg>