<svg width="1075" height="1075" viewBox="0 0 1075 1075" fill="none" xmlns="http://www.w3.org/2000/svg">
<path d="M538 1006C473.333 1006 412.667 993.667 356 969C299.333 944.333 249.833 910.833 207.5 868.5C165.167 826.167 131.667 776.667 107 720C82.3333 663.333 70 602.667 70 538C70 473.333 82.3333 412.667 107 356C131.667 299.333 165.167 249.833 207.5 207.5C249.833 165.167 299.333 131.667 356 107C412.667 82.3333 473.333 70 538 70C602.667 70 663.333 82.3333 720 107C776.667 131.667 826.167 165.167 868.5 207.5C910.833 249.833 944.333 299.333 969 356C993.667 412.667 1006 473.333 1006 538C1006 602.667 993.667 663.333 969 720C944.333 776.667 910.833 826.167 868.5 868.5C826.167 910.833 776.667 944.333 720 969C663.333 993.667 602.667 1006 538 1006ZM538 124C480.667 124 427 134.833 377 156.5C327 178.167 283.167 207.833 245.5 245.5C207.833 283.167 178.167 327.167 156.5 377.5C134.833 427.833 124 481.333 124 538C124 595.333 134.833 649 156.5 699C178.167 749 207.833 792.833 245.5 830.5C283.167 868.167 327 897.833 377 919.5C427 941.167 480.667 952 538 952C594.667 952 648.167 941.167 698.5 919.5C748.833 897.833 792.833 868.167 830.5 830.5C868.167 792.833 897.833 749 919.5 699C941.167 649 952 595.333 952 538C952 481.333 941.167 427.833 919.5 377.5C897.833 327.167 868.167 283.167 830.5 245.5C792.833 207.833 748.833 178.167 698.5 156.5C648.167 134.833 594.667 124 538 124ZM619 781H475C467.667 781 461.333 778.333 456 773C450.667 767.667 448 761.333 448 754C448 746.667 450.667 740.333 456 735C461.333 729.667 467.667 727 475 727H520V529H484C476.667 529 470.333 526.333 465 521C459.667 515.667 457 509.333 457 502C457 494.667 459.667 488.333 465 483C470.333 477.667 476.667 475 484 475H547C554.333 475 560.667 477.667 566 483C571.333 488.333 574 494.667 574 502V727H619C626.333 727 632.667 729.667 638 735C643.333 740.333 646 746.667 646 754C646 761.333 643.333 767.667 638 773C632.667 778.333 626.333 781 619 781ZM538 385C525.333 385 514.667 380.667 506 372C497.333 363.333 493 352.667 493 340C493 327.333 497.333 316.667 506 308C514.667 299.333 525.333 295 538 295C550.667 295 561.333 299.333 570 308C578.667 316.667 583 327.333 583 340C583 352.667 578.667 363.333 570 372C561.333 380.667 550.667 385 538 385Z" fill="black"/>
</svg>
