<svg width="1075" height="1075" viewBox="0 0 1075 1075" fill="none" xmlns="http://www.w3.org/2000/svg">
<path d="M1003 388C1011 388 1017.5 390.667 1022.5 396C1027.5 401.333 1030 407.667 1030 415C1030 422.333 1027.33 428.667 1022 434C1016.67 439.333 1010.33 442 1003 442H813V607H487C441 606.333 399.5 590 362.5 558C325.5 526 304.333 487.333 299 442H269C221.667 444 181.333 462.167 148 496.5C114.667 530.833 98 571.667 98 619C98 666.333 114.667 707.333 148 742C181.333 776.667 221.667 794.667 269 796H677V850H269C207 848.667 154.167 825.333 110.5 780C66.8333 734.667 45 681.167 45 619.5C45 557.833 66.8333 504.333 110.5 459C154.167 413.667 207 390 269 388H299C302.333 358.667 313.167 331.5 331.5 306.5C349.833 281.5 372.667 261.667 400 247C427.333 232.333 456.333 225 487 225H813V388H1003ZM758 551V279H487C449.667 279 417.5 292.333 390.5 319C363.5 345.667 350 377.833 350 415.5C350 453.167 363.5 485.167 390.5 511.5C417.5 537.833 449.667 551 487 551H758Z" fill="black"/>
</svg>
