<svg width="1075" height="1075" viewBox="0 0 1075 1075" fill="none" xmlns="http://www.w3.org/2000/svg">
<path d="M538 988C476 988 417.667 976.167 363 952.5C308.333 928.833 260.667 896.667 220 856C179.333 815.333 147.167 767.667 123.5 713C99.8333 658.333 88 600 88 538C88 476 99.8333 417.667 123.5 363C147.167 308.333 179.333 260.667 220 220C260.667 179.333 308.333 147.167 363 123.5C417.667 99.8333 476 88 538 88C600 88 658.833 100 714.5 124C770.167 148 819.333 182 862 226V133C862 125.667 864.667 119.333 870 114C875.333 108.667 881.667 106 889 106C896.333 106 902.667 108.667 908 114C913.333 119.333 916 125.667 916 133V286C916 296 912.5 304.5 905.5 311.5C898.5 318.5 890 322 880 322H727C719.667 322 713.333 319.333 708 314C702.667 308.667 700 302.333 700 295C700 287.667 702.667 281.333 708 276C713.333 270.667 719.667 268 727 268H827C789 228 745.333 197 696 175C646.667 153 594 142 538 142C483.333 142 432 152.333 384 173C336 193.667 294 222 258 258C222 294 193.667 336 173 384C152.333 432 142 483.333 142 538C142 592.667 152.333 644 173 692C193.667 740 222 782 258 818C294 854 336 882.333 384 903C432 923.667 483.333 934 538 934C592.667 934 644 923.667 692 903C740 882.333 782 854 818 818C854 782 882.333 740 903 692C923.667 644 934 592.667 934 538C934 502.667 929.667 469 921 437C919 429.667 919.833 422.833 923.5 416.5C927.167 410.167 932.667 406 940 404C947.333 402.667 954.167 403.833 960.5 407.5C966.833 411.167 971 416.667 973 424C983 461.333 988 499.333 988 538C988 600 976.167 658.333 952.5 713C928.833 767.667 896.667 815.333 856 856C815.333 896.667 767.667 928.833 713 952.5C658.333 976.167 600 988 538 988ZM521 544C521 498.667 530.167 463.833 548.5 439.5C566.833 415.167 593 403 627 403C661 403 687.167 415.333 705.5 440C723.833 464.667 733 499.333 733 544C733 589.333 723.833 624.167 705.5 648.5C687.167 672.833 661 685 627 685C593 685 566.833 672.833 548.5 648.5C530.167 624.167 521 589.333 521 544ZM404 681V461L339 507L312 469L404 407H458V681H404ZM574 544C574 575.333 578.667 599.667 588 617C597.333 634.333 610.333 643 627 643C643.667 643 656.667 634.333 666 617C675.333 599.667 680 575.333 680 544C680 512.667 675.333 488.333 666 471C656.667 453.667 643.667 445 627 445C610.333 445 597.333 453.667 588 471C578.667 488.333 574 512.667 574 544Z" fill="black"/>
</svg>
