<svg width="1075" height="1075" viewBox="0 0 1075 1075" fill="none" xmlns="http://www.w3.org/2000/svg">
<path d="M538 988C476 988 417.667 976.167 363 952.5C308.333 928.833 260.667 896.667 220 856C179.333 815.333 147.167 767.667 123.5 713C99.8333 658.333 88 600 88 538C88 499.333 93 461.333 103 424C105 416.667 109.167 411.167 115.5 407.5C121.833 403.833 128.667 402.667 136 404C143.333 406 148.833 410.167 152.5 416.5C156.167 422.833 157 429.667 155 437C146.333 469 142 502.667 142 538C142 592.667 152.333 644 173 692C193.667 740 222 782 258 818C294 854 336 882.333 384 903C432 923.667 483.333 934 538 934C592.667 934 644 923.667 692 903C740 882.333 782 854 818 818C854 782 882.333 740 903 692C923.667 644 934 592.667 934 538C934 483.333 923.667 432 903 384C882.333 336 854 294 818 258C782 222 740 193.667 692 173C644 152.333 592.667 142 538 142C482 142 429.167 153 379.5 175C329.833 197 286.333 228 249 268H349C356.333 268 362.667 270.667 368 276C373.333 281.333 376 287.667 376 295C376 302.333 373.333 308.667 368 314C362.667 319.333 356.333 322 349 322H196C186 322 177.5 318.5 170.5 311.5C163.5 304.5 160 296 160 286V133C160 125.667 162.667 119.333 168 114C173.333 108.667 179.667 106 187 106C194.333 106 200.667 108.667 206 114C211.333 119.333 214 125.667 214 133V226C256.667 182 305.833 148 361.5 124C417.167 100 476 88 538 88C600 88 658.333 99.8333 713 123.5C767.667 147.167 815.333 179.333 856 220C896.667 260.667 928.833 308.333 952.5 363C976.167 417.667 988 476 988 538C988 600 976.167 658.333 952.5 713C928.833 767.667 896.667 815.333 856 856C815.333 896.667 767.667 928.833 713 952.5C658.333 976.167 600 988 538 988ZM521 544C521 498.667 530.167 463.833 548.5 439.5C566.833 415.167 593 403 627 403C661 403 687.167 415.333 705.5 440C723.833 464.667 733 499.333 733 544C733 561.333 731.333 578.5 728 595.5C724.667 612.5 719 627.667 711 641C703 654.333 692.167 665 678.5 673C664.833 681 647.667 685 627 685C606.333 685 589.167 681 575.5 673C561.833 665 551 654.333 543 641C535 627.667 529.333 612.667 526 596C522.667 579.333 521 562 521 544ZM404 681V461L339 507L312 469L404 407H458V681H404ZM574 544C574 575.333 578.667 599.667 588 617C597.333 634.333 610.333 643 627 643C643.667 643 656.667 634.333 666 617C675.333 599.667 680 575.333 680 544C680 512.667 675.333 488.333 666 471C656.667 453.667 643.667 445 627 445C610.333 445 597.333 453.667 588 471C578.667 488.333 574 512.667 574 544Z" fill="black"/>
</svg>
