<svg viewBox="0 0 1229 1074.237" xmlns="http://www.w3.org/2000/svg"><path d="M450 1017.237q-93 0-175-35.5t-143-96.5q-61-61-96.5-143t-35.5-175q0-58 15-114 3-11 12.5-16.5t20.5-3.5q11 3 16.5 12.5t2.5 20.5q-13 48-13 101 0 82 31 154t85 126q54 54 126 85t154 31q82 0 154-31t126-85q54-54 85-126t31-154q0-82-31-154t-85-126q-54-54-126-85t-154-31q-84 0-158.5 33t-130.5 93h100q11 0 19 8t8 19q0 11-8 19t-19 8H108q-15 0-25.5-10.5t-10.5-25.5v-153q0-11 8-19t19-8q11 0 19 8t8 19v93q64-66 147.5-102t176.5-36q93 0 175 35.5t143 96.5q61 61 96.5 143t35.5 175q0 93-35.5 175t-96.5 143q-61 61-143 96.5t-175 35.5zm-17-444q0-68 27.5-104.5t78.5-36.5q51 0 78.5 37t27.5 104q0 26-5 51.5t-17 45.5q-12 20-32.5 32t-51.5 12q-31 0-51.5-12t-32.5-32q-12-20-17-45t-5-52zm-117 137v-220l-65 46-27-38 92-62h54v274h-54zm170-137q0 47 14 73t39 26q25 0 39-26t14-73q0-47-14-73t-39-26q-25 0-39 26t-14 73z"/></svg>