<svg viewBox="0 0 1287 1074.237" xmlns="http://www.w3.org/2000/svg"><path d="M508 523.237h-16l134 127q3-17 10-34 15-35 40-61.5t58.5-41.5q33.5-15 71.5-15t71.5 15q33.5 15 58.5 41.5t39.5 61.5q14.5 35 14.5 74v124q0 39-15 74-13 32-36 57l46 43-37 40-51-48q-9 6-20 11-33 15-71 15t-71.5-15q-33.5-15-58.5-41.5t-39.5-61.5q-14.5-35-14.5-74v-92l-77-72H254v-63h224l-110-104v40h-89v-63h64l-80-76h-34v-31l-142-134h-1q-14 0-25 10.5t-11 25.5v447q0 15 11 26t25 11h473v51H86q-18 0-33.5-7t-27-19q-11.5-12-18.5-28t-7-34v-447q0-18 7-34t19-27q8-9 19-15l-45-42 39-41 77 72h635q36 0 61 25.5t25 61.5v187h-50v-187q0-15-10.5-25.5t-25.5-10.5H170l108 102h39v37l108 102h83v63zm298 24q-28 0-53 11.5t-43.5 31q-18.5 19.5-29 45.5t-10.5 55v1l234 221q16-19 26-43 11-26 11-55v-124q0-29-10.5-55t-29-45.5q-18.5-19.5-43-31t-52.5-11.5zm-126 322q11 26 29.5 45.5t43.5 30.5q25 11 53 11t52-11l1-1-189-177v47q0 29 10 55zm126-149q-16 0-27-11t-11-26v-58q0-16 11-27t27-11q16 0 27 11t11 27v58q0 15-11 26t-27 11zm-577-197h-90v-63h90v63zm368-139h-89v-63h89v63zm139 0h-89v-63h89v63zm-89 139h-89v-63h89v63zm-470-139H89v-63h88v63zm279 0h-88v-63h88v63z"/></svg>