<svg viewBox="0 0 1265 1074.237" xmlns="http://www.w3.org/2000/svg"><path d="M66 819.237q-27 0-46.5-19.5T0 753.237v-462q0-27 19.5-46.5t46.5-19.5h768q27 0 46.5 20t19.5 48v211q0 11-8 19t-19 8q-11 0-19-8t-8-19v-211q0-13-12-13H66q-12 0-12 11v462q0 12 12 12h465q11 0 19 8t8 19q0 11-8 19t-19 8H66zm87-126q-11 0-19-8t-8-19q0-11 8-19t19-8h378q11 0 19 8t8 19q0 11-8 19t-19 8H153zm27-342q8 0 13 5t5 13v36q0 8-5 13t-13 5h-36q-8 0-13-5t-5-13v-36q0-8 5-13t13-5h36zm576 0q8 0 13 5t5 13v36q0 8-5 13t-13 5h-36q-8 0-13-5t-5-13v-36q0-8 5-13t13-5h36zm-144 0q8 0 13 5t5 13v36q0 8-5 13t-13 5h-36q-8 0-13-5t-5-13v-36q0-8 5-13t13-5h36zm-144 0q8 0 13 5t5 13v36q0 8-5 13t-13 5h-36q-8 0-13-5t-5-13v-36q0-8 5-13t13-5h36zm-144 0q8 0 13 5t5 13v36q0 8-5 13t-13 5h-36q-8 0-13-5t-5-13v-36q0-8 5-13t13-5h36zm-144 144q8 0 13 5t5 13v36q0 8-5 13t-13 5h-36q-8 0-13-5t-5-13v-36q0-8 5-13t13-5h36zm576 0q8 0 13 5t5 13v36q0 8-5 13t-13 5h-36q-8 0-13-5t-5-13v-36q0-8 5-13t13-5h36zm-144 0q8 0 13 5t5 13v36q0 8-5 13t-13 5h-36q-8 0-13-5t-5-13v-36q0-8 5-13t13-5h36zm-144 0q8 0 13 5t5 13v36q0 8-5 13t-13 5h-36q-8 0-13-5t-5-13v-36q0-8 5-13t13-5h36zm-144 0q8 0 13 5t5 13v36q0 8-5 13t-13 5h-36q-8 0-13-5t-5-13v-36q0-8 5-13t13-5h36zm477 324q-11 0-19-8t-8-19v-54q0-11 8-19t19-8q11 0 19 8t8 19v54q0 11-8 19t-19 8zm0 234q-35 0-66.5-13.5t-54.5-36.5q-23-23-36.5-54.5t-13.5-66.5v-108q0-35 13.5-66t36.5-54.5q23-23.5 54.5-37t66.5-13.5q35 0 66 13.5t54.5 37q23.5 23.5 37 54.5t13.5 66v108q0 35-13.5 66.5t-37 54.5q-23.5 23-54.5 36.5t-66 13.5zm0-396q-24 0-45.5 9t-37.5 25q-16 16-25 37.5t-9 45.5v108q0 24 9 45.5t25 37.5q16 16 37.5 25t45.5 9q24 0 45.5-9t37.5-25q16-16 25-37.5t9-45.5v-108q0-24-9-45.5t-25-37.5q-16-16-37.5-25t-45.5-9z"/></svg>