<svg width="1075" height="1075" viewBox="0 0 1075 1075" fill="none" xmlns="http://www.w3.org/2000/svg">
<path d="M873 838H205C181.667 838 162 830.333 146 815C130 799.667 122 780.333 122 757V319C122 308.333 124.167 298 128.5 288C132.833 278 138.833 269.167 146.5 261.5C154.167 253.833 162.833 247.833 172.5 243.5C182.167 239.167 192.333 237 203 237H873C895 237 914 245.167 930 261.5C946 277.833 954 297 954 319V757C954 780.333 946 799.667 930 815C914 830.333 895 838 873 838ZM205 279C193.667 279 184 283 176 291C168 299 164 308.333 164 319V757C164 767.667 168 776.833 176 784.5C184 792.167 193.667 796 205 796H873C883.667 796 892.667 792.167 900 784.5C907.333 776.833 911 767.667 911 757V319C911 308.333 907.333 299 900 291C892.667 283 883.667 279 873 279H205ZM498 425V383H578V425H498ZM632 425V383H711V425H632ZM767 425V383H845V425H767ZM566 559V517H644V559H566ZM699 559V517H777V559H699ZM432 559V517H511V559H432ZM380 692V650H697V692H380Z" fill="black"/>
</svg>
