<svg width="1075" height="1075" viewBox="0 0 1075 1075" fill="none" xmlns="http://www.w3.org/2000/svg">
<path d="M118 718C100 718 84.5 711.5 71.5 698.5C58.5 685.5 52 670 52 652V190C52 172 58.5 156.5 71.5 143.5C84.5 130.5 100 124 118 124H886C904 124 919.5 130.667 932.5 144C945.5 157.333 952 173.333 952 192V403C952 410.333 949.333 416.667 944 422C938.667 427.333 932.333 430 925 430C917.667 430 911.333 427.333 906 422C900.667 416.667 898 410.333 898 403V192C898 183.333 894 179 886 179H118C110 179 106 182.667 106 190V652C106 660 110 664 118 664H583C590.333 664 596.667 666.667 602 672C607.333 677.333 610 683.667 610 691C610 698.333 607.333 704.667 602 710C596.667 715.333 590.333 718 583 718H118ZM205 592C197.667 592 191.333 589.333 186 584C180.667 578.667 178 572.333 178 565C178 557.667 180.667 551.333 186 546C191.333 540.667 197.667 538 205 538H583C590.333 538 596.667 540.667 602 546C607.333 551.333 610 557.667 610 565C610 572.333 607.333 578.667 602 584C596.667 589.333 590.333 592 583 592H205ZM232 250C237.333 250 241.667 251.667 245 255C248.333 258.333 250 262.667 250 268V304C250 309.333 248.333 313.667 245 317C241.667 320.333 237.333 322 232 322H196C190.667 322 186.333 320.333 183 317C179.667 313.667 178 309.333 178 304V268C178 262.667 179.667 258.333 183 255C186.333 251.667 190.667 250 196 250H232ZM808 250C813.333 250 817.667 251.667 821 255C824.333 258.333 826 262.667 826 268V304C826 309.333 824.333 313.667 821 317C817.667 320.333 813.333 322 808 322H772C766.667 322 762.333 320.333 759 317C755.667 313.667 754 309.333 754 304V268C754 262.667 755.667 258.333 759 255C762.333 251.667 766.667 250 772 250H808ZM664 250C669.333 250 673.667 251.667 677 255C680.333 258.333 682 262.667 682 268V304C682 309.333 680.333 313.667 677 317C673.667 320.333 669.333 322 664 322H628C622.667 322 618.333 320.333 615 317C611.667 313.667 610 309.333 610 304V268C610 262.667 611.667 258.333 615 255C618.333 251.667 622.667 250 628 250H664ZM520 250C525.333 250 529.667 251.667 533 255C536.333 258.333 538 262.667 538 268V304C538 309.333 536.333 313.667 533 317C529.667 320.333 525.333 322 520 322H484C478.667 322 474.333 320.333 471 317C467.667 313.667 466 309.333 466 304V268C466 262.667 467.667 258.333 471 255C474.333 251.667 478.667 250 484 250H520ZM376 250C381.333 250 385.667 251.667 389 255C392.333 258.333 394 262.667 394 268V304C394 309.333 392.333 313.667 389 317C385.667 320.333 381.333 322 376 322H340C334.667 322 330.333 320.333 327 317C323.667 313.667 322 309.333 322 304V268C322 262.667 323.667 258.333 327 255C330.333 251.667 334.667 250 340 250H376ZM232 394C237.333 394 241.667 395.667 245 399C248.333 402.333 250 406.667 250 412V448C250 453.333 248.333 457.667 245 461C241.667 464.333 237.333 466 232 466H196C190.667 466 186.333 464.333 183 461C179.667 457.667 178 453.333 178 448V412C178 406.667 179.667 402.333 183 399C186.333 395.667 190.667 394 196 394H232ZM808 394C813.333 394 817.667 395.667 821 399C824.333 402.333 826 406.667 826 412V448C826 453.333 824.333 457.667 821 461C817.667 464.333 813.333 466 808 466H772C766.667 466 762.333 464.333 759 461C755.667 457.667 754 453.333 754 448V412C754 406.667 755.667 402.333 759 399C762.333 395.667 766.667 394 772 394H808ZM664 394C669.333 394 673.667 395.667 677 399C680.333 402.333 682 406.667 682 412V448C682 453.333 680.333 457.667 677 461C673.667 464.333 669.333 466 664 466H628C622.667 466 618.333 464.333 615 461C611.667 457.667 610 453.333 610 448V412C610 406.667 611.667 402.333 615 399C618.333 395.667 622.667 394 628 394H664ZM520 394C525.333 394 529.667 395.667 533 399C536.333 402.333 538 406.667 538 412V448C538 453.333 536.333 457.667 533 461C529.667 464.333 525.333 466 520 466H484C478.667 466 474.333 464.333 471 461C467.667 457.667 466 453.333 466 448V412C466 406.667 467.667 402.333 471 399C474.333 395.667 478.667 394 484 394H520ZM376 394C381.333 394 385.667 395.667 389 399C392.333 402.333 394 406.667 394 412V448C394 453.333 392.333 457.667 389 461C385.667 464.333 381.333 466 376 466H340C334.667 466 330.333 464.333 327 461C323.667 457.667 322 453.333 322 448V412C322 406.667 323.667 402.333 327 399C330.333 395.667 334.667 394 340 394H376ZM853 718C845.667 718 839.333 715.333 834 710C828.667 704.667 826 698.333 826 691V637C826 629.667 828.667 623.333 834 618C839.333 612.667 845.667 610 853 610C860.333 610 866.667 612.667 872 618C877.333 623.333 880 629.667 880 637V691C880 698.333 877.333 704.667 872 710C866.667 715.333 860.333 718 853 718ZM853 952C829.667 952 807.5 947.5 786.5 938.5C765.5 929.5 747.333 917.333 732 902C716.667 886.667 704.5 868.5 695.5 847.5C686.5 826.5 682 804.333 682 781V673C682 649.667 686.5 627.667 695.5 607C704.5 586.333 716.667 568.167 732 552.5C747.333 536.833 765.5 524.5 786.5 515.5C807.5 506.5 829.667 502 853 502C876.333 502 898.333 506.5 919 515.5C939.667 524.5 957.833 536.833 973.5 552.5C989.167 568.167 1001.5 586.333 1010.5 607C1019.5 627.667 1024 649.667 1024 673V781C1024 804.333 1019.5 826.5 1010.5 847.5C1001.5 868.5 989.167 886.667 973.5 902C957.833 917.333 939.667 929.5 919 938.5C898.333 947.5 876.333 952 853 952ZM853 556C837 556 821.833 559 807.5 565C793.167 571 780.667 579.333 770 590C759.333 600.667 751 613.167 745 627.5C739 641.833 736 657 736 673V781C736 797 739 812.167 745 826.5C751 840.833 759.333 853.333 770 864C780.667 874.667 793.167 883 807.5 889C821.833 895 837 898 853 898C869 898 884.167 895 898.5 889C912.833 883 925.333 874.667 936 864C946.667 853.333 955 840.833 961 826.5C967 812.167 970 797 970 781V673C970 657 967 641.833 961 627.5C955 613.167 946.667 600.667 936 590C925.333 579.333 912.833 571 898.5 565C884.167 559 869 556 853 556Z" fill="black"/>
</svg>
