<svg width="1075" height="1075" viewBox="0 0 1075 1075" fill="none" xmlns="http://www.w3.org/2000/svg">
<path d="M551 499H535L669 626C671 614.667 674.333 603.333 679 592C689 568.667 702.333 548.167 719 530.5C735.667 512.833 755.167 499 777.5 489C799.833 479 823.667 474 849 474C874.333 474 898.167 479 920.5 489C942.833 499 962.333 512.833 979 530.5C995.667 548.167 1008.83 568.667 1018.5 592C1028.17 615.333 1033 640 1033 666V790C1033 816 1028 840.667 1018 864C1009.33 885.333 997.333 904.333 982 921L1028 964L991 1004L940 956C934 960 927.333 963.667 920 967C898 977 874.333 982 849 982C823.667 982 799.833 977 777.5 967C755.167 957 735.667 943.167 719 925.5C702.333 907.833 689.167 887.333 679.5 864C669.833 840.667 665 816 665 790V698L588 626H297V563H521L411 459V499H322V436H386L306 360H272V329L130 195H129C119.667 195 111.333 198.5 104 205.5C96.6667 212.5 93 221 93 231V678C93 688 96.6667 696.667 104 704C111.333 711.333 119.667 715 129 715H602V766H129C117 766 105.833 763.667 95.5 759C85.1667 754.333 76.1667 748 68.5 740C60.8333 732 54.6667 722.667 50 712C45.3333 701.333 43 690 43 678V231C43 219 45.3333 207.667 50 197C54.6667 186.333 61 177.333 69 170C74.3333 164 80.6667 159 88 155L43 113L82 72L159 144H794C818 144 838.333 152.5 855 169.5C871.667 186.5 880 207 880 231V418H830V231C830 221 826.5 212.5 819.5 205.5C812.5 198.5 804 195 794 195H213L321 297H360V334L468 436H551V499ZM849 523C830.333 523 812.667 526.833 796 534.5C779.333 542.167 764.833 552.5 752.5 565.5C740.167 578.5 730.5 593.667 723.5 611C716.5 628.333 713 646.667 713 666V667L947 888C957.667 875.333 966.333 861 973 845C980.333 827.667 984 809.333 984 790V666C984 646.667 980.5 628.333 973.5 611C966.5 593.667 956.833 578.5 944.5 565.5C932.167 552.5 917.833 542.167 901.5 534.5C885.167 526.833 867.667 523 849 523ZM723 845C730.333 862.333 740.167 877.5 752.5 890.5C764.833 903.5 779.333 913.667 796 921C812.667 928.333 830.333 932 849 932C867.667 932 885 928.333 901 921L902 920L713 743V790C713 809.333 716.333 827.667 723 845ZM849 696C838.333 696 829.333 692.333 822 685C814.667 677.667 811 669 811 659V601C811 590.333 814.667 581.333 822 574C829.333 566.667 838.333 563 849 563C859.667 563 868.667 566.667 876 574C883.333 581.333 887 590.333 887 601V659C887 669 883.333 677.667 876 685C868.667 692.333 859.667 696 849 696ZM272 499H182V436H272V499ZM640 360H551V297H640V360ZM779 360H690V297H779V360ZM690 499H601V436H690V499ZM220 360H132V297H220V360ZM499 360H411V297H499V360Z" fill="black"/>
</svg>
