<svg viewBox="0 0 1245 1074.237" xmlns="http://www.w3.org/2000/svg"><path d="M434 823.237q10-10 22.5-10t22 9.5q9.5 9.5 9.5 22t-9.5 22q-9.5 9.5-22 9.5t-22-9.5q-9.5-9.5-9.5-22t9-21.5zm109 0q9-10 22.5-10t23 9.5q9.5 9.5 9.5 22t-9.5 22q-9.5 9.5-23 9.5t-22.5-9.5q-9-9.5-9-22t9-21.5zm109 0q9-10 21.5-10t22 9.5q9.5 9.5 9.5 22t-9.5 22q-9.5 9.5-22 9.5t-21.5-9.5q-9-9.5-9-22t9-21.5zm-175-546l184 455h55v36H543v-36h46l-48-118H349l-48 118h42v36H225v-36h37l180-455h35zm-115 300h163l-83-199-80 199zm476-481q39 0 66 28t28 67v742q0 39-27.5 67t-66.5 28H94q-39 0-66.5-28t-27.5-67v-742q0-39 28-67t66-28h744zm40 837v-742q0-17-12.5-29t-27.5-12H94q-11 0-20 5t-14.5 14.5q-5.5 9.5-5.5 21.5v742q0 17 12.5 28.5t27.5 11.5h744q17 0 28.5-11.5t11.5-28.5z"/></svg>