<svg width="1075" height="1075" viewBox="0 0 1075 1075" fill="none" xmlns="http://www.w3.org/2000/svg">
<path d="M506 799C512.667 792.333 520.167 789 528.5 789C536.833 789 544.167 792.167 550.5 798.5C556.833 804.833 560 812.167 560 820.5C560 828.833 556.833 836.167 550.5 842.5C544.167 848.833 536.833 852 528.5 852C520.167 852 512.833 848.833 506.5 842.5C500.167 836.167 497 828.833 497 820.5C497 812.167 500 805 506 799ZM615 799C621 792.333 628.5 789 637.5 789C646.5 789 654.167 792.167 660.5 798.5C666.833 804.833 670 812.167 670 820.5C670 828.833 666.833 836.167 660.5 842.5C654.167 848.833 646.5 852 637.5 852C628.5 852 621 848.833 615 842.5C609 836.167 606 828.833 606 820.5C606 812.167 609 805 615 799ZM724 799C730 792.333 737.167 789 745.5 789C753.833 789 761.167 792.167 767.5 798.5C773.833 804.833 777 812.167 777 820.5C777 828.833 773.833 836.167 767.5 842.5C761.167 848.833 753.833 852 745.5 852C737.167 852 730 848.833 724 842.5C718 836.167 715 828.833 715 820.5C715 812.167 718 805 724 799ZM549 253L733 708H788V744H615V708H661L613 590H421L373 708H415V744H297V708H334L514 253H549ZM434 553H597L514 354L434 553ZM910 72C936 72 958 81.3333 976 100C994 118.667 1003.33 141 1004 167V909C1004 935 994.833 957.333 976.5 976C958.167 994.667 936 1004 910 1004H166C140 1004 117.833 994.667 99.5 976C81.1667 957.333 72 935 72 909V167C72 141 81.3333 118.667 100 100C118.667 81.3333 140.667 72 166 72H910ZM950 909V167C950 155.667 945.833 146 937.5 138C929.167 130 920 126 910 126H166C158.667 126 152 127.667 146 131C140 134.333 135.167 139.167 131.5 145.5C127.833 151.833 126 159 126 167V909C126 920.333 130.167 929.833 138.5 937.5C146.833 945.167 156 949 166 949H910C921.333 949 930.833 945.167 938.5 937.5C946.167 929.833 950 920.333 950 909Z" fill="black"/>
</svg>
