<svg viewBox="0 0 1223 1074.237" xmlns="http://www.w3.org/2000/svg"><path d="M394 699.237q-49-21-69.5-70.5t0-99q20.5-49.5 70-70t99 0q49.5 20.5 70 70t0 99q-20.5 49.5-70 70t-99.5.5zm27-424v-116q1-9 7.5-15.5t15.5-6.5q9 0 15.5 6.5t6.5 15.5v116q0 10-6 17t-16 7q-10 0-16.5-7t-6.5-17zm45 609v117q-1 9-7 15.5t-15 6.5q-9 0-16-7t-7-15v-117q0-10 6.5-16.5t16.5-6.5q10 0 16 7t6 16zm-303-617l82 81q6 7 6 15 0 10-7 17t-17 7q-9 0-15-6l-82-82q-7-7-7-17t7-16.5q7-6.5 16.5-6t16.5 7.5zm513 511l82 83q5 6 5 15 0 6-3 11.5t-8.5 8.5q-5.5 3-11.5 3-8 0-15-5l-82-83q-6-7-6-15 0-10 7-16.5t17-6.5q8-1 15 5zm-536-175H23q-10 0-16.5-6.5t-6.5-16.5q0-10 6.5-17t16.5-7h117q10 0 16.5 7t6.5 17q0 10-7 16.5t-16 6.5zm725-47q6 0 11.5 3.5t8.5 8.5q3 5 3 12 0 10-6.5 16.5t-16.5 6.5H748q-10 0-16.5-6.5t-6.5-16.5q0-10 7-17t16-7h117zm-653 222q7-7 16.5-6.5t16.5 7q7 6.5 7 16t-7 16.5l-82 83q-7 7-16.5 7t-16.5-7q-7-7-7-16.5t7-16.5l82-83zm447-390q-10 0-16.5-7t-6.5-16.5q0-9.5 7-16.5l82-81q7-7 16.5-7.5t16.5 6q7 6.5 7 16t-7 17.5l-82 82q-7 7-17 7z"/></svg>