<svg width="1075" height="1075" viewBox="0 0 1075 1075" fill="none" xmlns="http://www.w3.org/2000/svg">
<path d="M488 657C455.333 643 432.167 619.5 418.5 586.5C404.833 553.5 404.833 520.5 418.5 487.5C432.167 454.5 455.5 431.167 488.5 417.5C521.5 403.833 554.5 403.833 587.5 417.5C620.5 431.167 643.833 454.5 657.5 487.5C671.167 520.5 671.167 553.5 657.5 586.5C643.833 619.5 620.5 642.833 587.5 656.5C554.5 670.167 521.333 670.333 488 657ZM515 233V117C515.667 111 518.167 105.833 522.5 101.5C526.833 97.1667 532 95 538 95C544 95 549.167 97.1667 553.5 101.5C557.833 105.833 560 111 560 117V233C560 239.667 558 245.333 554 250C550 254.667 544.667 257 538 257C531.333 257 525.833 254.667 521.5 250C517.167 245.333 515 239.667 515 233ZM560 842V959C559.333 965 557 970.167 553 974.5C549 978.833 544 981 538 981C532 981 526.667 978.667 522 974C517.333 969.333 515 964.333 515 959V842C515 835.333 517.167 829.833 521.5 825.5C525.833 821.167 531.333 819 538 819C544.667 819 550 821.333 554 826C558 830.667 560 836 560 842ZM257 225L339 306C343 310.667 345 315.667 345 321C345 327.667 342.667 333.333 338 338C333.333 342.667 327.667 345 321 345C315 345 310 343 306 339L224 257C219.333 252.333 217 246.667 217 240C217 233.333 219.333 227.833 224 223.5C228.667 219.167 234.167 217.167 240.5 217.5C246.833 217.833 252.333 220.333 257 225ZM770 736L852 819C855.333 823 857 828 857 834C857 838 856 841.833 854 845.5C852 849.167 849.167 852 845.5 854C841.833 856 838 857 834 857C828.667 857 823.667 855.333 819 852L737 769C733 764.333 731 759.333 731 754C731 747.333 733.333 741.833 738 737.5C742.667 733.167 748.333 731 755 731C760.333 730.333 765.333 732 770 736ZM234 561H117C110.333 561 104.833 558.833 100.5 554.5C96.1667 550.167 94 544.667 94 538C94 531.333 96.1667 525.667 100.5 521C104.833 516.333 110.333 514 117 514H234C240.667 514 246.167 516.333 250.5 521C254.833 525.667 257 531.333 257 538C257 544.667 254.667 550.167 250 554.5C245.333 558.833 240 561 234 561ZM959 514C963 514 966.833 515.167 970.5 517.5C974.167 519.833 977 522.667 979 526C981 529.333 982 533.333 982 538C982 544.667 979.833 550.167 975.5 554.5C971.167 558.833 965.667 561 959 561H842C835.333 561 829.833 558.833 825.5 554.5C821.167 550.167 819 544.667 819 538C819 531.333 821.333 525.667 826 521C830.667 516.333 836 514 842 514H959ZM306 736C310.667 731.333 316.167 729.167 322.5 729.5C328.833 729.833 334.333 732.167 339 736.5C343.667 740.833 346 746.167 346 752.5C346 758.833 343.667 764.333 339 769L257 852C252.333 856.667 246.833 859 240.5 859C234.167 859 228.667 856.667 224 852C219.333 847.333 217 841.833 217 835.5C217 829.167 219.333 823.667 224 819L306 736ZM753 346C746.333 346 740.833 343.667 736.5 339C732.167 334.333 730 328.833 730 322.5C730 316.167 732.333 310.667 737 306L819 225C823.667 220.333 829.167 217.833 835.5 217.5C841.833 217.167 847.333 219.167 852 223.5C856.667 227.833 859 233.167 859 239.5C859 245.833 856.667 251.667 852 257L770 339C765.333 343.667 759.667 346 753 346Z" fill="black"/>
</svg>
