<svg viewBox="0 0 1072 1074.237" xmlns="http://www.w3.org/2000/svg"><path d="M293 438.237q121 0 207 86t86 208v286H0v-286q0-122 85.5-208t207.5-86zm247 534v-240-5q0-102-72.5-174.5t-174.5-72.5q-102 0-174.5 72t-72.5 175v245h494zm-196-399q26 14 41.5 39t15.5 55q0 45-32 76.5t-76.5 31.5q-44.5 0-76-31.5t-31.5-76.5q0-20 7.5-38.5t20-32.5q12.5-14 29.5-23v43q-21 21-21 51 0 20 9.5 36.5t26 26.5q16.5 10 36.5 10 30 0 51.5-21.5t21.5-51.5q0-30-22-51v-43zm-68 76v-114h35v114h-35zm-112-335h1q61-30 129-30t129 30l-21 42q-51-25-109-25-57 0-108 25l-21-42zm129-138h-1q-119 0-217 65l-26-39q111-72 245-72 133 0 243 72l-25 39q-100-65-219-65z"/></svg>