<svg width="1075" height="1075" viewBox="0 0 1075 1075" fill="none" xmlns="http://www.w3.org/2000/svg">
<path d="M538 402C618.667 402 687.667 430.667 745 488C802.333 545.333 831 614.667 831 696V982H245V696C245 614.667 273.5 545.333 330.5 488C387.5 430.667 456.667 402 538 402ZM785 936V696V691C785 623 760.833 564.833 712.5 516.5C664.167 468.167 606 444 538 444C470 444 411.833 468 363.5 516C315.167 564 291 622.333 291 691V936H785ZM589 537C606.333 546.333 620.167 559.333 630.5 576C640.833 592.667 646 611 646 631C646 661 635.333 686.5 614 707.5C592.667 728.5 567.167 739 537.5 739C507.833 739 482.5 728.5 461.5 707.5C440.5 686.5 430 661 430 631C430 617.667 432.5 604.833 437.5 592.5C442.5 580.167 449.167 569.333 457.5 560C465.833 550.667 475.667 543 487 537V580C473 594 466 611 466 631C466 644.333 469.167 656.5 475.5 667.5C481.833 678.5 490.5 687.333 501.5 694C512.5 700.667 524.667 704 538 704C558 704 575.167 696.833 589.5 682.5C603.833 668.167 611 651 611 631C611 611 603.667 594 589 580V537ZM521 613V499H556V613H521ZM409 278H410C450.667 258 493.667 248 539 248C584.333 248 627.333 258 668 278L647 320C613 303.333 576.667 295 538 295C500 295 464 303.333 430 320L409 278ZM538 140H537C457.667 140 385.333 161.667 320 205L294 166C368 118 449.667 94 539 94C627.667 94 708.667 118 782 166L757 205C690.333 161.667 617.333 140 538 140Z" fill="black"/>
</svg>
