<svg viewBox="0 0 1229 1074.237" xmlns="http://www.w3.org/2000/svg"><path d="M622 231.237v130h-64v-237h237v64H677q101 60 160.5 162.5t59.5 223.5q0 48-10 94-26-22-58-37 5-31 5-57 0-55-15.5-107.5t-43.5-96.5q-28-44-67-80t-86-59zm13 310v64H419v-227h64v163h152zm-186 417q29 0 57-4 15 32 37 58-47 10-94 10l-1 1q-91 0-174-36t-143-96q-60-60-95.5-143t-35.5-174q0-161 101-284t255-155l13 63q-132 27-218.5 132.5T64 574.237q0 104 51.5 192.5t140 140q88.5 51.5 193.5 51.5zm280-275q71 0 120.5 50t49.5 120v1q0 70-50 120t-120.5 50q-70.5 0-120.5-50t-50-120q0-35 13.5-66.5t36.5-54.5q23-23 54.5-36.5t66.5-13.5z"/></svg>