<svg viewBox="0 0 1199 1074.237" xmlns="http://www.w3.org/2000/svg"><path d="M644 603.237H383v-296h81v215h180v81zm-133 378q-19 4-41 6.5t-42 2.5h-4q-86 0-163-33.5t-135-91q-58-57.5-92-135t-34-165.5q0-87 34-164.5t92-135.5q58-58 135-91.5t163-33.5h4q86 0 163 33.5t135 91q58 57.5 92 134.5t34 164q0 20-2.5 43.5t-6.5 42.5q-17-14-33.5-25t-35.5-19q2-8 2.5-20t.5-20q0-75-27-139.5t-74-112q-47-47.5-111-74t-139-26.5q-75 0-139 26.5t-111 74q-47 47.5-74 112t-27 139.5q0 75 27 139.5t74 112q47 47.5 111 74t139 26.5q24 0 47-3 14 35 38 67zm178-316q-33 0-62.5 13t-51.5 35q-22 22-35 51.5t-13 62.5q0 34 13 63.5t35 51.5q22 22 51.5 34.5t62.5 12.5q33 0 62.5-12.5t51.5-34.5q22-22 34.5-51.5t12.5-63.5q0-33-12.5-62.5t-34.5-51.5q-22-22-51.5-35t-62.5-13zm-50 262v-199l163 99-163 100z"/></svg>