<svg width="1075" height="1075" viewBox="0 0 1075 1075" fill="none" xmlns="http://www.w3.org/2000/svg">
<path d="M723 506V570H508V342H572V506H723ZM767 152L766 153C810.667 179 849.333 211.5 882 250.5C914.667 289.5 940.167 333.833 958.5 383.5C976.833 433.167 986 485 986 539C986 571 982.667 602.333 976 633C958.667 617.667 939.333 605.333 918 596C920.667 577.333 922 558.333 922 539V538C922 489.333 913 442.5 895 397.5C877 352.5 852.167 313 820.5 279C788.833 245 752.333 217.333 711 196V326H647V88H884V152H767ZM538 923C557.333 923 576.333 921.667 595 919C605 940.333 617.333 959.667 632 977C601.333 983.667 570 987 538 987C476.667 987 418.333 975.167 363 951.5C307.667 927.833 260 896 220 856C180 816 148.167 768.333 124.5 713C100.833 657.667 89 599.667 89 539C89 431.667 122.667 337 190 255C257.333 173 342.333 121 445 99L458 162C400.667 174 348.667 198 302 234C255.333 270 218.833 314.667 192.5 368C166.167 421.333 153 478 153 538C153 608 170.167 672.5 204.5 731.5C238.833 790.5 285.5 837.167 344.5 871.5C403.5 905.833 468 923 538 923ZM918 663L973 718L872 818L973 919L918 974L818 873L717 974L663 919L763 818L663 718L717 663L818 764L918 663Z" fill="black"/>
</svg>
