<svg viewBox="0 0 1228 1074.237" xmlns="http://www.w3.org/2000/svg"><path d="M634 540.237v64H419v-228h64v164h151zm44-354l-1 1q67 39 116 97.5t76.5 133q27.5 74.5 27.5 155.5 0 48-10 94-26-23-58-37 4-28 4-57v-1q0-73-27-140.5t-74.5-118.5q-47.5-51-109.5-83v130h-64v-238h237v64H678zm-229 771q29 0 57-4 15 32 37 58-46 10-94 10-92 0-175-35.5t-143-95.5q-60-60-95.5-143t-35.5-174q0-161 101-284t255-156l13 63q-86 18-156 72t-109.5 134q-39.5 80-39.5 170 0 105 51.5 193.5t140 140q88.5 51.5 193.5 51.5zm380-260l55 55-101 100 101 101-55 55-100-101-101 101-54-55 100-101-100-100 54-55 101 101 100-101z"/></svg>