<svg width="1075" height="1075" viewBox="0 0 1075 1075" fill="none" xmlns="http://www.w3.org/2000/svg">
<path d="M710 195V325H646V88H883V152H765C832.333 192 885.833 246.167 925.5 314.5C965.167 382.833 985 457.333 985 538C985 570 981.667 601.333 975 632C957.667 617.333 938.333 605 917 595C920.333 574.333 922 555.333 922 538C922 501.333 916.833 465.5 906.5 430.5C896.167 395.5 881.667 363.333 863 334C844.333 304.667 822 278 796 254C770 230 741.333 210.333 710 195ZM723 505V569H507V342H571V505H723ZM537 922C556.333 922 575.333 920.667 594 918C604 939.333 616.333 958.667 631 976C599.667 982.667 568.333 986 537 986L536 987C475.333 987 417.333 975 362 951C306.667 927 259 895 219 855C179 815 147.167 767.333 123.5 712C99.8333 656.667 88 598.667 88 538C88 430.667 121.667 336 189 254C256.333 172 341.333 120.333 444 99L457 162C369 180 296.167 224.167 238.5 294.5C180.833 364.833 152 446 152 538C152 607.333 169.167 671.5 203.5 730.5C237.833 789.5 284.5 836.167 343.5 870.5C402.5 904.833 467 922 537 922ZM817 647C864.333 647 904.5 663.667 937.5 697C970.5 730.333 987 770.333 987 817V818C987 864.667 970.333 904.667 937 938C903.667 971.333 863.5 988 816.5 988C769.5 988 729.333 971.333 696 938C662.667 904.667 646 864.667 646 818C646 794.667 650.5 772.5 659.5 751.5C668.5 730.5 680.667 712.333 696 697C711.333 681.667 729.5 669.5 750.5 660.5C771.5 651.5 793.667 647 817 647Z" fill="black"/>
</svg>
