<svg width="1075" height="1075" viewBox="0 0 1075 1075" fill="none" xmlns="http://www.w3.org/2000/svg">
<path d="M756 576H495V280H576V495H756V576ZM623 954C610.333 956.667 596.667 958.833 582 960.5C567.333 962.167 553.333 963 540 963H536C478.667 963 424.333 951.833 373 929.5C321.667 907.167 276.667 876.833 238 838.5C199.333 800.167 168.667 755.167 146 703.5C123.333 651.833 112 596.667 112 538C112 480 123.333 425.167 146 373.5C168.667 321.833 199.333 276.667 238 238C276.667 199.333 321.667 168.833 373 146.5C424.333 124.167 478.667 113 536 113H540C597.333 113 651.667 124.167 703 146.5C754.333 168.833 799.333 199.167 838 237.5C876.667 275.833 907.333 320.667 930 372C952.667 423.333 964 478 964 536C964 549.333 963.167 563.833 961.5 579.5C959.833 595.167 957.667 609.333 955 622C943.667 612.667 932.5 604.333 921.5 597C910.5 589.667 898.667 583.333 886 578C887.333 572.667 888.167 566 888.5 558C888.833 550 889 543.333 889 538C889 488 880 441.5 862 398.5C844 355.5 819.333 318.167 788 286.5C756.667 254.833 719.667 230.167 677 212.5C634.333 194.833 588 186 538 186C488 186 441.667 194.833 399 212.5C356.333 230.167 319.333 254.833 288 286.5C256.667 318.167 232 355.5 214 398.5C196 441.5 187 488 187 538C187 588 196 634.5 214 677.5C232 720.5 256.667 757.833 288 789.5C319.333 821.167 356.333 845.833 399 863.5C441.667 881.167 488 890 538 890C554 890 569.667 889 585 887C594.333 910.333 607 932.667 623 954ZM801 638C779 638 758.167 642.333 738.5 651C718.833 659.667 701.667 671.333 687 686C672.333 700.667 660.667 717.833 652 737.5C643.333 757.167 639 778 639 800C639 822.667 643.333 843.833 652 863.5C660.667 883.167 672.333 900.333 687 915C701.667 929.667 718.833 941.167 738.5 949.5C758.167 957.833 779 962 801 962C823 962 843.833 957.833 863.5 949.5C883.167 941.167 900.333 929.667 915 915C929.667 900.333 941.167 883.167 949.5 863.5C957.833 843.833 962 822.667 962 800C962 778 957.833 757.167 949.5 737.5C941.167 717.833 929.667 700.667 915 686C900.333 671.333 883.167 659.667 863.5 651C843.833 642.333 823 638 801 638ZM751 900V701L914 800L751 900Z" fill="black"/>
</svg>
