<svg width="1075" height="1075" viewBox="0 0 1075 1075" fill="none" xmlns="http://www.w3.org/2000/svg">
<path d="M538 555C515.333 555 494.167 550.833 474.5 542.5C454.833 534.167 437.667 522.667 423 508C408.333 493.333 396.833 476.167 388.5 456.5C380.167 436.833 376 415.667 376 393C376 371 380.167 350.167 388.5 330.5C396.833 310.833 408.333 293.667 423 279C437.667 264.333 454.833 252.667 474.5 244C494.167 235.333 515.333 231 538 231C560 231 580.833 235.333 600.5 244C620.167 252.667 637.333 264.333 652 279C666.667 293.667 678.333 310.833 687 330.5C695.667 350.167 700 371 700 393C700 415.667 695.667 436.833 687 456.5C678.333 476.167 666.667 493.333 652 508C637.333 522.667 620.167 534.167 600.5 542.5C580.833 550.833 560 555 538 555ZM538 285C522.667 285 508.5 287.833 495.5 293.5C482.5 299.167 471.167 307 461.5 317C451.833 327 444.167 338.5 438.5 351.5C432.833 364.5 430 378.333 430 393C430 408.333 432.833 422.5 438.5 435.5C444.167 448.5 451.833 459.833 461.5 469.5C471.167 479.167 482.5 486.833 495.5 492.5C508.5 498.167 522.667 501 538 501C552.667 501 566.5 498.167 579.5 492.5C592.5 486.833 604 479.167 614 469.5C624 459.833 631.833 448.5 637.5 435.5C643.167 422.5 646 408.333 646 393C646 378.333 643.167 364.5 637.5 351.5C631.833 338.5 624 327 614 317C604 307 592.5 299.167 579.5 293.5C566.5 287.833 552.667 285 538 285ZM538 1005C524.667 1005 512.667 1001.83 502 995.5C491.333 989.167 482.667 980.333 476 969L261 595C243.667 564.333 230 533.833 220 503.5C210 473.167 205 440 205 404C205 357.333 213.667 313.833 231 273.5C248.333 233.167 272.167 198 302.5 168C332.833 138 368.167 114.333 408.5 97C448.833 79.6667 492 71 538 71C584 71 627.167 79.6667 667.5 97C707.833 114.333 743.167 138 773.5 168C803.833 198 827.667 233.167 845 273.5C862.333 313.833 871 357.333 871 404C871 440 866 473.167 856 503.5C846 533.833 832.333 564.333 815 595L600 969C593.333 980.333 584.667 989.167 574 995.5C563.333 1001.83 551.333 1005 538 1005ZM538 123C499.333 123 463.167 130.333 429.5 145C395.833 159.667 366.333 179.667 341 205C315.667 230.333 295.667 260.167 281 294.5C266.333 328.833 259 365.333 259 404C259 434 263.667 462.5 273 489.5C282.333 516.5 294.667 543.667 310 571L474 859C482.667 873.667 491 887.833 499 901.5C507 915.167 514.667 928.667 522 942C524.667 946 527.667 948.5 531 949.5C534.333 950.5 536.667 951 538 951C539.333 951 541.667 950.5 545 949.5C548.333 948.5 551.333 946 554 942C561.333 928.667 569 915.167 577 901.5C585 887.833 593.333 873.667 602 859L766 571C781.333 543.667 793.667 516.5 803 489.5C812.333 462.5 817 434 817 404C817 365.333 809.667 328.833 795 294.5C780.333 260.167 760.333 230.333 735 205C709.667 179.667 680.167 159.667 646.5 145C612.833 130.333 576.667 123 538 123Z" fill="black"/>
</svg>
