<svg viewBox="0 0 1112 1074.237" xmlns="http://www.w3.org/2000/svg"><path d="M333 585.237q-34 0-63.5-12.5t-51.5-34.5q-22-22-34.5-51.5t-12.5-63.5q0-33 12.5-62.5t34.5-51.5q22-22 51.5-35t63.5-13q33 0 62.5 13t51.5 35q22 22 35 51.5t13 62.5q0 34-13 63.5t-35 51.5q-22 22-51.5 34.5t-62.5 12.5zm0-270q-23 0-42.5 8.5t-34 23.5q-14.5 15-23 34.5t-8.5 41.5q0 23 8.5 42.5t23 34q14.5 14.5 34 23t42.5 8.5q22 0 41.5-8.5t34.5-23q15-14.5 23.5-34t8.5-42.5q0-22-8.5-41.5t-23.5-34.5q-15-15-34.5-23.5t-41.5-8.5zm0 720q-20 0-36-9.5t-26-26.5l-215-374q-26-46-41-91.5t-15-99.5q0-70 26-130.5t71.5-105.5q45.5-45 106-71t129.5-26q69 0 129.5 26t106 71q45.5 45 71.5 105.5t26 130.5q0 54-15 99.5t-41 91.5l-215 374q-10 17-26 26.5t-36 9.5zm0-882q-58 0-108.5 22t-88.5 60q-38 38-60 89.5t-22 109.5q0 45 14 85.5t37 81.5l164 288q13 22 25 42.5t23 40.5q4 6 9 7.5t7 1.5q2 0 7-1.5t9-7.5q11-20 23-40.5t25-42.5l164-288q23-41 37-81.5t14-85.5q0-58-22-109.5t-60-89.5q-38-38-88.5-60t-108.5-22z"/></svg>