<svg width="1075" height="1075" viewBox="0 0 1075 1075" fill="none" xmlns="http://www.w3.org/2000/svg">
<path d="M761 493H891V874C891 885.333 890.333 894.833 889 902.5C887.667 910.167 884.167 917.167 878.5 923.5C872.833 929.833 866 935.333 858 940C816 958.667 763.833 974.5 701.5 987.5C639.167 1000.5 585.333 1007 540 1007H534C504.667 1007 471.167 1004 433.5 998C395.833 992 358.5 984 321.5 974C284.5 964 252.667 953 226 941C214 936.333 204 928 196 916C188 904 184 891.667 184 879V493H314V283C314.667 224.333 336.667 173.833 380 131.5C423.333 89.1667 474.333 68 533 68H542C600.667 68 651.5 88.8333 694.5 130.5C737.5 172.167 759.667 223 761 283V493ZM574 769V658H500V769H574ZM685 493V283C684.333 244.333 669.833 211.333 641.5 184C613.167 156.667 580 143 542 143H534C515.333 143 497.167 146.667 479.5 154C461.833 161.333 446.833 171.333 434.5 184C422.167 196.667 411.833 211.333 403.5 228C395.167 244.667 390.667 263 390 283V493H685Z" fill="black"/>
</svg>
