<svg viewBox="0 0 1247 1074.237" xmlns="http://www.w3.org/2000/svg"><path d="M72 981.237q-30 0-51-21t-21-51v-38q0-60 16.5-113.5t47-98q30.5-44.5 74.5-78.5t99-55q-41-35-63.5-83t-22.5-102q0-51 19.5-95t53-76.5q33.5-32.5 79-51.5t97.5-19q48 0 92 19.5t77 53q33 33.5 52.5 78t19.5 93.5q0 53-22.5 101t-63.5 81q57 22 102.5 59t77.5 85q4 7 4 15 0 11-7.5 19t-18.5 8q-15 0-23-13-31-48-78-81.5t-106-50.5q-11-3-17.5-11t-8.5-19q-3-23 17-35 40-25 65-66t25-91q0-39-15-73.5t-40.5-60.5q-25.5-26-60-41.5t-72.5-15.5q-41 0-76 15t-61.5 40.5q-26.5 25.5-41.5 59.5t-15 73q0 50 24 92t66 68q20 12 17 35t-25 30q-54 15-97 44t-73.5 68.5q-30.5 39.5-46.5 88.5t-16 104v38q0 8 5 13t13 5h648q11 0 19 8t8 19q0 11-8 19t-19 8H72zm747-72q-11 0-19-8t-8-19q0-10 8-20l45-43H423q-11 0-19-8t-8-19q0-11 8-19t19-8h422l-45-44q-8-8-8-19t8-19q8-8 19-8 12 0 19 7l88 86q10 10 10 24t-10 24l-88 85q-8 8-19 8z"/></svg>