<svg width="1075" height="1075" viewBox="0 0 1075 1075" fill="none" xmlns="http://www.w3.org/2000/svg">
<path d="M142 979C122 979 105 972 91 958C77 944 70 927 70 907V869C70 829 75.5 791.167 86.5 755.5C97.5 719.833 113.167 687.167 133.5 657.5C153.833 627.833 178.667 601.667 208 579C237.333 556.333 270.333 538 307 524C279.667 500.667 258.5 473 243.5 441C228.5 409 221 375 221 339C221 305 227.5 273.333 240.5 244C253.5 214.667 271.167 189.167 293.5 167.5C315.833 145.833 342.167 128.667 372.5 116C402.833 103.333 435.333 97 470 97C502 97 532.667 103.5 562 116.5C591.333 129.5 617 147.167 639 169.5C661 191.833 678.5 217.833 691.5 247.5C704.5 277.167 711 308.333 711 341C711 376.333 703.5 410 688.5 442C673.5 474 652.333 501 625 523C663 537.667 697.167 557.333 727.5 582C757.833 606.667 783.667 635 805 667C807.667 671.667 809 676.667 809 682C809 689.333 806.5 695.667 801.5 701C796.5 706.333 790.333 709 783 709C773 709 765.333 704.667 760 696C739.333 664 713.333 636.833 682 614.5C650.667 592.167 615.333 575.333 576 564C568.667 562 562.833 558.333 558.5 553C554.167 547.667 551.333 541.333 550 534C548 518.667 553.667 507 567 499C593.667 482.333 615.333 460.333 632 433C648.667 405.667 657 375.333 657 342C657 316 652 291.5 642 268.5C632 245.5 618.5 225.333 601.5 208C584.5 190.667 564.5 176.833 541.5 166.5C518.5 156.167 494.333 151 469 151C441.667 151 416.333 156 393 166C369.667 176 349.167 189.5 331.5 206.5C313.833 223.5 300 243.333 290 266C280 288.667 275 313 275 339C275 372.333 283 403 299 431C315 459 337 481.667 365 499C378.333 507 384 518.667 382 534C380 549.333 371.667 559.333 357 564C321 574 288.667 588.667 260 608C231.333 627.333 206.833 650.167 186.5 676.5C166.167 702.833 150.667 732.333 140 765C129.333 797.667 124 832.333 124 869V907C124 912.333 125.667 916.667 129 920C132.333 923.333 136.667 925 142 925H790C797.333 925 803.667 927.667 809 933C814.333 938.333 817 944.667 817 952C817 959.333 814.333 965.667 809 971C803.667 976.333 797.333 979 790 979H142ZM889 907C881.667 907 875.333 904.333 870 899C864.667 893.667 862 887.333 862 880C862 873.333 864.667 866.667 870 860L915 817H493C485.667 817 479.333 814.333 474 809C468.667 803.667 466 797.333 466 790C466 782.667 468.667 776.333 474 771C479.333 765.667 485.667 763 493 763H915L870 719C864.667 713.667 862 707.333 862 700C862 692.667 864.667 686.333 870 681C875.333 675.667 881.667 673 889 673C897 673 903.333 675.333 908 680L996 766C1002.67 772.667 1006 780.667 1006 790C1006 799.333 1002.67 807.333 996 814L908 899C902.667 904.333 896.333 907 889 907Z" fill="black"/>
</svg>
