<svg width="1075" height="1075" viewBox="0 0 1075 1075" fill="none" xmlns="http://www.w3.org/2000/svg">
<path d="M981 924L923 980L665 723C638.333 743.667 603.5 761.5 560.5 776.5C517.5 791.5 479.333 799 446 799C382.667 799 324 783.167 270 751.5C216 719.833 173.167 676.833 141.5 622.5C109.833 568.167 94 509.667 94 447C94 399 103.333 353.333 122 310C140.667 266.667 165.833 229.333 197.5 198C229.167 166.667 266.667 141.667 310 123C353.333 104.333 398.667 95 446 95C493.333 95 538.833 104.333 582.5 123C626.167 141.667 663.667 166.667 695 198C726.333 229.333 751.167 266.667 769.5 310C787.833 353.333 797 399 797 447C797 481 789.667 519.167 775 561.5C760.333 603.833 742.667 638.333 722 665L981 924ZM256 638C308.667 690.667 372.167 717 446.5 717C520.833 717 584.333 690.667 637 638C689.667 585.333 716 521.667 716 447C716 372.333 689.667 308.667 637 256C584.333 203.333 520.833 177 446.5 177C372.167 177 308.667 203.333 256 256C203.333 308.667 177 372.333 177 447C177 521.667 203.333 585.333 256 638Z" fill="black"/>
</svg>
