<svg width="1075" height="1075" viewBox="0 0 1075 1075" fill="none" xmlns="http://www.w3.org/2000/svg">
<path d="M160 301V248H761V301H160ZM445 733C444.333 743 444 748.667 444 750C444 762.667 445.333 775.333 448 788H160V733H445ZM160 490H656C648 492 639 494.833 629 498.5C619 502.167 609 506.5 599 511.5C589 516.5 579.5 521.833 570.5 527.5C561.5 533.167 553.333 538.333 546 543H160V490ZM862 153H916V750C914.667 798 896.667 838.667 862 872C827.333 905.333 786 922 738 922H729C681.667 922 640.667 905.167 606 871.5C571.333 837.833 553.333 797.333 552 750C552.667 719.333 561 690.667 577 664C593 637.333 614.5 616.333 641.5 601C668.5 585.667 697.667 578 729 578H734C754.667 578 777.333 583 802 593C826.667 603 846.667 615 862 629V153ZM734 869H739C760.333 869 780.167 863.667 798.5 853C816.833 842.333 831.833 828 843.5 810C855.167 792 861.333 772.333 862 751C860.667 718.333 848 690.5 824 667.5C800 644.5 771.667 633 739 633H729C713 633 697.5 636 682.5 642C667.5 648 654.667 656.167 644 666.5C633.333 676.833 624.333 689.5 617 704.5C609.667 719.5 605.667 735 605 751C606.333 783 619.167 810.667 643.5 834C667.833 857.333 696.333 869 729 869H734Z" fill="black"/>
</svg>
