<svg width="1075" height="1075" viewBox="0 0 1075 1075" fill="none" xmlns="http://www.w3.org/2000/svg">
<path d="M593 501L520 597L560 649V739L338 451L121 732V801H505C493.667 808.333 483 816.833 473 826.5C463 836.167 455.333 846.333 450 857H117C101.667 857 88.8333 851.833 78.5 841.5C68.1667 831.167 63 818.333 63 803V128C63 112.667 68.1667 99.8333 78.5 89.5C88.8333 79.1667 101.667 74 117 74H846C860.667 74 873.333 79.1667 884 89.5C894.667 99.8333 900 112.667 900 128V467L842 478V130H121V642L338 360L485 551L594 411L666 508L607 519L593 501ZM1012 888C1011.33 900.667 1008.17 911.833 1002.5 921.5C996.833 931.167 989.667 939.333 981 946C972.333 952.667 962.5 957.667 951.5 961C940.5 964.333 929.333 966 918 966C906.667 966 895.333 964.167 884 960.5C872.667 956.833 862.667 951.667 854 945C845.333 938.333 838.333 930.167 833 920.5C827.667 910.833 825 900 825 888C825 876 827.5 865.167 832.5 855.5C837.5 845.833 844.167 837.5 852.5 830.5C860.833 823.5 870.667 818.167 882 814.5C893.333 810.833 905.333 809 918 809C923.333 809 929.167 809.333 935.5 810C941.833 810.667 948 812 954 814V581L687 629V923C687 935 684.167 946 678.5 956C672.833 966 665.5 974.333 656.5 981C647.5 987.667 637.5 992.833 626.5 996.5C615.5 1000.17 604.667 1002 594 1002C582.667 1002 571.333 1000.17 560 996.5C548.667 992.833 538.667 987.5 530 980.5C521.333 973.5 514.333 965.167 509 955.5C503.667 945.833 501 935 501 923C501 899.667 509.667 880.833 527 866.5C544.333 852.167 566.667 845 594 845C600 845 606 845.333 612 846C618 846.667 623.667 848.333 629 851V583L1012 514V888Z" fill="black"/>
</svg>
