<svg width="1075" height="1075" viewBox="0 0 1075 1075" fill="none" xmlns="http://www.w3.org/2000/svg">
<path d="M967 614C990.333 614 1009.33 621.333 1024 636C1038.67 650.667 1046 669.667 1046 693V831C1046 852.333 1038.67 871 1024 887C1009.33 903 990.333 911 967 911H371C347.667 911 328.833 903.5 314.5 888.5C300.167 873.5 293 854.333 293 831V772C281 774 269 775 257 775C226.333 775 197.333 769.5 170 758.5C142.667 747.5 118.667 732 98 712C77.3333 692 60.8333 668.167 48.5 640.5C36.1667 612.833 30 582.333 30 549C30 521 34.8333 494.167 44.5 468.5C54.1667 442.833 67.5 420 84.5 400C101.5 380 121.5 363.333 144.5 350C167.5 336.667 192.333 328 219 324C230.333 300.667 244.833 279.167 262.5 259.5C280.167 239.833 300 223 322 209C344 195 367.667 184.167 393 176.5C418.333 168.833 445 165 473 165C505 165 535.5 169.667 564.5 179C593.5 188.333 620.167 201.5 644.5 218.5C668.833 235.5 690.167 255.833 708.5 279.5C726.833 303.167 740.667 329.667 750 359C776.667 362.333 801.5 370.667 824.5 384C847.5 397.333 867.5 414.167 884.5 434.5C901.5 454.833 915 477.667 925 503C935 528.333 940 555 940 583C940 593 939 603.333 937 614H967ZM886 583C886 558.333 882 535.167 874 513.5C866 491.833 854.333 473 839 457C823.667 441 805 428.333 783 419C761 409.667 736 404.667 708 404C702.667 377.333 693.167 352.667 679.5 330C665.833 307.333 649 287.667 629 271C609 254.333 586 241.333 560 232C534 222.667 506.333 218 477 218C425 218 379.167 231.333 339.5 258C299.833 284.667 271.333 321 254 367C230 368.333 207.333 374 186 384C164.667 394 146.167 407.167 130.5 423.5C114.833 439.833 102.333 458.667 93 480C83.6667 501.333 79 524.333 79 549C79 574.333 83.3333 597.833 92 619.5C100.667 641.167 113 659.833 129 675.5C145 691.167 163.833 703.5 185.5 712.5C207.167 721.5 231 726 257 726C269.667 726 281.667 725.333 293 724V693C293 669.667 300.167 650.667 314.5 636C328.833 621.333 347.667 614 371 614H884C885.333 604 886 593.667 886 583ZM998 693C998 684.333 995.167 676.667 989.5 670C983.833 663.333 976.333 660 967 660H371C362.333 660 355.333 663.333 350 670C344.667 676.667 342 684.333 342 693V831C342 840.333 344.667 848.333 350 855C355.333 861.667 362.333 865 371 865H967C976.333 865 983.833 861.667 989.5 855C995.167 848.333 998 840.333 998 831V693ZM420 784C414.667 784 409.5 782 404.5 778C399.5 774 397 768.333 397 761C397 753.667 399.667 748 405 744C410.333 740 415.333 738 420 738H811C815.667 738 820.667 740 826 744C831.333 748 834 753.667 834 761C834 768.333 831.5 774 826.5 778C821.5 782 816.333 784 811 784H420ZM437 527V361L564 444L437 527ZM916 735C923.333 735 929.5 737.667 934.5 743C939.5 748.333 942 754.667 942 762C942 770 939.5 776.667 934.5 782C929.5 787.333 923.333 790 916 790C909.333 790 903.333 787.333 898 782C892.667 776.667 890 770 890 762C890 754.667 892.667 748.333 898 743C903.333 737.667 909.333 735 916 735Z" fill="black"/>
</svg>
