<svg width="1075" height="1075" viewBox="0 0 1075 1075" fill="none" xmlns="http://www.w3.org/2000/svg">
<path d="M910 146C936 146 958.167 155.333 976.5 174C994.833 192.667 1004 215 1004 241V834C1004 860 994.833 882.333 976.5 901C958.167 919.667 936 929 910 929H166C140 929 117.833 919.833 99.5 901.5C81.1667 883.167 72 860.667 72 834V241C72 215 81.3333 192.667 100 174C118.667 155.333 140.667 146 166 146H910ZM950 834V241C950 233.667 948.167 226.833 944.5 220.5C940.833 214.167 935.667 209.333 929 206C922.333 202.667 916 201 910 201H166C161.333 201 156.5 202 151.5 204C146.5 206 142.167 208.667 138.5 212C134.833 215.333 131.833 219.667 129.5 225C127.167 230.333 126 235.667 126 241V834C126 845.333 130.167 854.833 138.5 862.5C146.833 870.167 156 874 166 874H910C921.333 874 930.833 870.167 938.5 862.5C946.167 854.833 950 845.333 950 834ZM196 801V537H534V801H196Z" fill="black"/>
</svg>
