<svg width="1075" height="1075" viewBox="0 0 1075 1075" fill="none" xmlns="http://www.w3.org/2000/svg">
<path d="M754 76C780 76 801.5 85 818.5 103C835.5 121 844 142.333 844 167V910C844 934.667 835.333 955.833 818 973.5C800.667 991.167 779.333 1000 754 1000H322C306 1000 291 996 277 988C263 980 252 969 244 955C236 941 232 926 232 910V167C232 142.333 240.667 121 258 103C275.333 85 296.667 76 322 76H754ZM322 122V124C314 124 306.667 125.833 300 129.5C293.333 133.167 288 138.333 284 145C280 151.667 278 159 278 167V205H798V167C798 159 796 151.667 792 145C788 138.333 782.5 132.833 775.5 128.5C768.5 124.167 761.333 122 754 122H322ZM798 251H278V825H798V251ZM754 953C766 953 776.333 949 785 941C793.667 933 798 922.667 798 910V872H278V910C278 922 282.5 932.167 291.5 940.5C300.5 948.833 310.667 953 322 953H754Z" fill="black"/>
</svg>
