<svg width="1075" height="1075" viewBox="0 0 1075 1075" fill="none" xmlns="http://www.w3.org/2000/svg">
<path d="M172 615H825C832.333 615 837.667 617.333 841 622C844.333 626.667 846 631.833 846 637.5C846 643.167 844.167 648.333 840.5 653C836.833 657.667 831.667 660 825 660H172C164.667 660 159.333 657.667 156 653C152.667 648.333 151 643.167 151 637.5C151 631.833 152.667 626.667 156 622C159.333 617.333 164.667 615 172 615ZM253 417H567C573.667 417 578.833 419.333 582.5 424C586.167 428.667 588 433.833 588 439.5C588 445.167 586.167 450.333 582.5 455C578.833 459.667 573.667 462 567 462H253C245.667 462 240.333 459.667 237 455C233.667 450.333 232 445.167 232 439.5C232 433.833 233.667 428.667 237 424C240.333 419.333 245.667 417 253 417ZM475 216H752C758.667 216 763.833 218.333 767.5 223C771.167 227.667 773 232.833 773 238.5C773 244.167 771.167 249.333 767.5 254C763.833 258.667 758.667 261 752 261H475C468.333 261 463.167 258.667 459.5 254C455.833 249.333 454 244.167 454 238.5C454 232.833 455.667 227.667 459 223C462.333 218.333 467.667 216 475 216ZM342 815H572C578.667 815 583.833 817.333 587.5 822C591.167 826.667 593 831.833 593 837.5C593 843.167 591.167 848.333 587.5 853C583.833 857.667 578.667 860 572 860H342C335.333 860 330.167 857.667 326.5 853C322.833 848.333 321 843.167 321 837.5C321 831.833 322.667 826.667 326 822C329.333 817.333 334.667 815 342 815ZM733 417H906C913.333 417 918.667 419.333 922 424C925.333 428.667 927 433.833 927 439.5C927 445.167 925.167 450.333 921.5 455C917.833 459.667 912.667 462 906 462H733C726.333 462 721.167 459.667 717.5 455C713.833 450.333 712 445.167 712 439.5C712 433.833 713.667 428.667 717 424C720.333 419.333 725.667 417 733 417ZM741 838C741 845.333 738.667 851.333 734 856C729.333 860.667 723.333 863 716 863C708.667 863 702.667 860.667 698 856C693.333 851.333 691 845.333 691 838C691 830.667 693.333 824.5 698 819.5C702.667 814.5 708.667 812 716 812C723.333 812 729.333 814.5 734 819.5C738.667 824.5 741 830.667 741 838ZM129 438C129 445.333 126.667 451.5 122 456.5C117.333 461.5 111.333 464 104 464C96.6667 464 90.5 461.5 85.5 456.5C80.5 451.5 78 445.333 78 438C78 431.333 80.5 425.667 85.5 421C90.5 416.333 96.6667 414 104 414C111.333 414 117.333 416.333 122 421C126.667 425.667 129 431.333 129 438ZM998 638C998 644.667 995.5 650.333 990.5 655C985.5 659.667 979.333 662 972 662C965.333 662 959.667 659.667 955 655C950.333 650.333 948 644.667 948 638C948 630.667 950.333 624.5 955 619.5C959.667 614.5 965.333 612 972 612C979.333 612 985.5 614.5 990.5 619.5C995.5 624.5 998 630.667 998 638ZM366 238C366 245.333 363.5 251.5 358.5 256.5C353.5 261.5 347.333 264 340 264C334 264 328.667 261.5 324 256.5C319.333 251.5 317 245.333 317 238C317 230.667 319.333 224.667 324 220C328.667 215.333 334 213 340 213C347.333 213 353.5 215.333 358.5 220C363.5 224.667 366 230.667 366 238Z" fill="black"/>
</svg>
