<svg viewBox="0 0 1239 1074.237" xmlns="http://www.w3.org/2000/svg"><path d="M94 654.237h653q11 0 16 7t5 15.5q0 8.5-5.5 15.5t-15.5 7H94q-11 0-16-7t-5-15.5q0-8.5 5-15.5t16-7zm81-198h314q10 0 15.5 7t5.5 15.5q0 8.5-5.5 15.5t-15.5 7H175q-11 0-16-7t-5-15.5q0-8.5 5-15.5t16-7zm222-201h277q10 0 15.5 7t5.5 15.5q0 8.5-5.5 15.5t-15.5 7H397q-10 0-15.5-7t-5.5-15.5q0-8.5 5-15.5t16-7zm-133 599h230q10 0 15.5 7t5.5 15.5q0 8.5-5.5 15.5t-15.5 7H264q-10 0-15.5-7t-5.5-15.5q0-8.5 5-15.5t16-7zm391-398h173q11 0 16 7t5 15.5q0 8.5-5.5 15.5t-15.5 7H655q-10 0-15.5-7t-5.5-15.5q0-8.5 5-15.5t16-7zm8 421q0 11-7 18t-18 7q-11 0-18-7t-7-18q0-11 7-18.5t18-7.5q11 0 18 7.5t7 18.5zm-612-400q0 11-7 18.5t-18 7.5q-11 0-18.5-7.5t-7.5-18.5q0-10 7.5-17t18.5-7q11 0 18 7t7 17zm869 200q0 10-7.5 17t-18.5 7q-10 0-17-7t-7-17q0-11 7-18.5t17-7.5q11 0 18.5 7.5t7.5 18.5zm-632-400q0 11-7.5 18.5t-18.5 7.5q-9 0-16-7.5t-7-18.5q0-11 7-18t16-7q11 0 18.5 7t7.5 18z"/></svg>