<svg viewBox="0 0 1129 1074.237" xmlns="http://www.w3.org/2000/svg"><path d="M350 146.237q-126 1-215 90.5t-89 215.5v250q0 126 89 215t215 89q126 0 215-88.5t89-215.5v-250q0-125-89-215t-215-91zm0-46q96 0 176.5 47.5t127.5 128q47 80.5 47 176.5v242q-1 56-19.5 108t-51.5 94q-33 42-76 73.5t-95.5 49q-52.5 17.5-108.5 17.5-93 0-173-46t-127.5-125q-47.5-79-49.5-171v-242q0-72 27.5-137t74.5-112q47-47 111.5-75t136.5-28zm0 320q-9 0-16-7t-7-16v-122q0-9 7-16t16-7q9 0 15.5 6.5t6.5 17.5v121q0 9-6.5 16t-15.5 7z"/></svg>