<svg width="1075" height="1075" viewBox="0 0 1075 1075" fill="none" xmlns="http://www.w3.org/2000/svg">
<path d="M537 116C453 116.667 381.333 146.833 322 206.5C262.667 266.167 233 338 233 422V672C233 756 262.667 827.667 322 887C381.333 946.333 453 976 537 976C621 976 692.667 946.5 752 887.5C811.333 828.5 841 756.667 841 672V422C841 338.667 811.333 267 752 207C692.667 147 621 116.667 537 116ZM537 70C601 70 659.833 85.8333 713.5 117.5C767.167 149.167 809.667 191.833 841 245.5C872.333 299.167 888 358 888 422V664C887.333 701.333 880.833 737.333 868.5 772C856.167 806.667 839 838 817 866C795 894 769.667 918.5 741 939.5C712.333 960.5 680.5 976.833 645.5 988.5C610.5 1000.17 574.333 1006 537 1006C475 1006 417.333 990.667 364 960C310.667 929.333 268.167 887.667 236.5 835C204.833 782.333 188.333 725.333 187 664V422C187 374 196.167 328.333 214.5 285C232.833 241.667 257.667 204.333 289 173C320.333 141.667 357.5 116.667 400.5 98C443.5 79.3333 489 70 537 70ZM537 390C531 390 525.667 387.667 521 383C516.333 378.333 514 373 514 367V245C514 239 516.333 233.667 521 229C525.667 224.333 531 222 537 222C543 222 548.167 224.167 552.5 228.5C556.833 232.833 559 238.667 559 246V367C559 373 556.833 378.333 552.5 383C548.167 387.667 543 390 537 390Z" fill="black"/>
</svg>
