<svg viewBox="0 0 1264 1074.237" xmlns="http://www.w3.org/2000/svg"><path d="M667 298.237q-12 0-19-8l-150-149q-5-5-12-5-8 0-13 5l-150 149q-8 8-19 8t-19-8q-8-8-8-19t8-19l149-149q21-21 51-21 28 0 51 21l150 149q8 8 8 19t-8 19q-8 8-19 8zm114 477q-11 0-19-8t-8-19q0-11 8-19l149-150q6-4 6-12t-6-13l-149-149q-7-8-7-19t7.5-19q7.5-8 18.5-8 12 0 19 8l149 149q22 20 22 51 0 29-22 51l-149 149q-8 8-19 8zm-591 0q-11 0-19-8l-150-149q-11-11-16-24t-5-27q0-30 21-51l149-150q8-8 19-8 10 0 20 8 7 7 7 19t-7 20l-150 149q-5 5-5 12 0 8 5 13l150 150q7 7 7 19 0 11-7.5 19t-18.5 8zm295 277q-14 0-27-5t-24-16l-149-149q-7-7-7-19 0-11 7.5-19t18.5-8q11 0 19 8l150 149q5 5 13 5 7 0 12-5l149-150q8-7 20-7t19 7q8 10 8 20 0 11-8 19l-150 149q-21 21-51 21z"/></svg>