<svg width="1075" height="1075" viewBox="0 0 1075 1075" fill="none" xmlns="http://www.w3.org/2000/svg">
<path d="M719 269C711 269 704.667 266.333 700 261L550 112C546.667 108.667 542.667 107 538 107C532.667 107 528.333 108.667 525 112L375 261C369.667 266.333 363.333 269 356 269C348.667 269 342.333 266.333 337 261C331.667 255.667 329 249.333 329 242C329 234.667 331.667 228.333 337 223L486 74C500 60 517 53 537 53C555.667 53 572.667 60 588 74L738 223C743.333 228.333 746 234.667 746 242C746 249.333 743.333 255.667 738 261C732.667 266.333 726.333 269 719 269ZM833 746C825.667 746 819.333 743.333 814 738C808.667 732.667 806 726.333 806 719C806 711.667 808.667 705.333 814 700L963 550C967 547.333 969 543.333 969 538C969 532.667 967 528.333 963 525L814 376C809.333 370.667 807 364.333 807 357C807 349.667 809.5 343.333 814.5 338C819.5 332.667 825.667 330 833 330C841 330 847.333 332.667 852 338L1001 487C1015.67 500.333 1023 517.333 1023 538C1023 557.333 1015.67 574.333 1001 589L852 738C846.667 743.333 840.333 746 833 746ZM242 746C234.667 746 228.333 743.333 223 738L73 589C65.6667 581.667 60.3333 573.667 57 565C53.6667 556.333 52 547.333 52 538C52 518 59 501 73 487L222 337C227.333 331.667 233.667 329 241 329C247.667 329 254.333 331.667 261 337C265.667 341.667 268 348 268 356C268 364 265.667 370.667 261 376L111 525C107.667 528.333 106 532.333 106 537C106 542.333 107.667 546.667 111 550L261 700C265.667 704.667 268 711 268 719C268 726.333 265.5 732.667 260.5 738C255.5 743.333 249.333 746 242 746ZM537 1023C527.667 1023 518.667 1021.33 510 1018C501.333 1014.67 493.333 1009.33 486 1002L337 853C332.333 848.333 330 842 330 834C330 826.667 332.5 820.333 337.5 815C342.5 809.667 348.667 807 356 807C363.333 807 369.667 809.667 375 815L525 964C528.333 967.333 532.667 969 538 969C542.667 969 546.667 967.333 550 964L699 814C704.333 809.333 711 807 719 807C727 807 733.333 809.333 738 814C743.333 820.667 746 827.333 746 834C746 841.333 743.333 847.667 738 853L588 1002C574 1016 557 1023 537 1023Z" fill="black"/>
</svg>
