<svg width="1075" height="1075" viewBox="0 0 1075 1075" fill="none" xmlns="http://www.w3.org/2000/svg">
<path d="M142 898C122 898 105 891 91 877C77 863 70 846 70 826V250C70 230 77 213 91 199C105 185 122 178 142 178H934C954 178 971 185 985 199C999 213 1006 230 1006 250V826C1006 846 999 863 985 877C971 891 954 898 934 898H142ZM934 844C939.333 844 943.667 842.333 947 839C950.333 835.667 952 831.333 952 826V376H124V826C124 831.333 125.667 835.667 129 839C132.333 842.333 136.667 844 142 844H934ZM458 772C445.333 772 434.5 767.5 425.5 758.5C416.5 749.5 412 738.667 412 726V494C412 480.667 416.667 469.667 426 461C435.333 452.333 446.333 448 459 448C467.667 448 475.667 450.333 483 455L665 571C679 579.667 686 592.667 686 610C686 627.333 679 640.333 665 649L483 765C475.667 769.667 467.333 772 458 772ZM466 509V711L625 610L466 509ZM520 322H670L789 232H640L520 322ZM287 322H430L549 232H406L287 322ZM952 250C952 244.667 950.333 240.333 947 237C943.667 233.667 939.333 232 934 232H879L760 322H952V250ZM142 232C136.667 232 132.333 233.667 129 237C125.667 240.333 124 244.667 124 250V322H197L316 232H142Z" fill="black"/>
</svg>
