<svg viewBox="0 0 1247 1074.237" xmlns="http://www.w3.org/2000/svg"><path d="M72 927.237q-30 0-51-21t-21-51v-576q0-30 21-51t51-21h792q30 0 51 21t21 51v576q0 30-21 51t-51 21H72zm792-54q8 0 13-5t5-13v-450H54v450q0 8 5 13t13 5h792zm-476-72q-19 0-32.5-13.5t-13.5-32.5v-232q0-20 14-33t33-13q13 0 24 7l182 116q21 13 21 39t-21 39l-182 116q-11 7-25 7zm8-263v202l159-101-159-101zm54-187h150l119-90H570l-120 90zm-233 0h143l119-90H336l-119 90zm665-72q0-8-5-13t-13-5h-55l-119 90h192v-72zm-810-18q-8 0-13 5t-5 13v72h73l119-90H72z"/></svg>