<svg width="1075" height="1075" viewBox="0 0 1075 1075" fill="none" xmlns="http://www.w3.org/2000/svg">
<path d="M439 869H178C152.667 869 131.167 860.333 113.5 843C95.8333 825.667 87 804.333 87 779V129H379L479 230H967V428H912V284H457L356 183H142V779C142 789 145.5 797.5 152.5 804.5C159.5 811.5 168 815 178 815H439V869ZM988 837C988 857.667 979.333 875.333 962 890C944.667 904.667 923.667 912 899 912C875 912 854.333 904.667 837 890C819.667 875.333 811 857.667 811 837C811 815.667 819.667 797.833 837 783.5C854.333 769.167 875 762 899 762C910.333 762 921.667 763.667 933 767V548L680 594V871C680 891.667 671.333 909.333 654 924C636.667 938.667 615.667 946 591 946C566.333 946 545.5 938.667 528.5 924C511.5 909.333 503 891.667 503 871C503 850.333 511.5 832.667 528.5 818C545.5 803.333 566.333 796 591 796C603.667 796 615 798 625 802V548L988 483V837Z" fill="black"/>
</svg>
