<svg width="1075" height="1075" viewBox="0 0 1075 1075" fill="none" xmlns="http://www.w3.org/2000/svg">
<path d="M432 184L956 126V691C954 738.333 935.833 778.833 901.5 812.5C867.167 846.167 826 863 778 863H768C720 863 678.667 846.167 644 812.5C609.333 778.833 591.333 738 590 690C591.333 659.333 600 630.833 616 604.5C632 578.167 653.333 557.167 680 541.5C706.667 525.833 736 518 768 518H772C793.333 518 816.5 523.167 841.5 533.5C866.5 543.833 886.333 556 901 570V185L484 231V778C483.333 826 465.667 866.667 431 900C396.333 933.333 355.333 950 308 950H298C250.667 950 209.667 933.333 175 900C140.333 866.667 122 826 120 778C122 730 140.167 689.5 174.5 656.5C208.833 623.5 250 607 298 607H303H318C329.333 607 347.5 611.833 372.5 621.5C397.5 631.167 417.333 643 432 657V184ZM308 897C330 897 350.333 891.833 369 881.5C387.667 871.167 402.667 856.833 414 838.5C425.333 820.167 431.333 800 432 778C430.667 745.333 417.833 717.333 393.5 694C369.167 670.667 340.667 659 308 659H298C276 659 255.833 664.333 237.5 675C219.167 685.667 204.167 700 192.5 718C180.833 736 174.667 756 174 778C174.667 800 180.833 820.167 192.5 838.5C204.167 856.833 219.333 871.167 238 881.5C256.667 891.833 276.667 897 298 897H308ZM772 809V810H777C799 810 819.167 804.5 837.5 793.5C855.833 782.5 870.833 768 882.5 750C894.167 732 900.333 712 901 690C899.667 658 886.833 630.167 862.5 606.5C838.167 582.833 809.667 571 777 571H766C734 571 705.667 582.667 681 606C656.333 629.333 643.333 657.333 642 690C643.333 722.667 656.333 750.667 681 774C705.667 797.333 734.667 809 768 809H772Z" fill="black"/>
</svg>
