<svg viewBox="0 0 1217 1074.237" xmlns="http://www.w3.org/2000/svg"><path d="M312 211.237l524-58v565q-3 71-54.5 121.5t-123.5 50.5h-10q-72 0-124-50.5t-54-122.5q2-46 26-85.5t64-63q40-23.5 88-23.5h4q32 0 69.5 15.5t59.5 36.5v-385l-417 46v547q-1 72-53 122t-123 50h-10q-71 0-123-50t-55-122q3-72 54.5-121.5t123.5-49.5h5 15q17 0 54.5 14.5t59.5 35.5v-473zm-124 713q33 0 61-15.5t45-43q17-27.5 18-60.5-2-49-38.5-84t-85.5-35h-10q-33 0-60.5 16t-45 43q-17.5 27-18.5 60 1 33 18.5 60.5t45.5 43q28 15.5 60 15.5h10zm464-88v1h5q33 0 60.5-16.5t45-43.5q17.5-27 18.5-60-2-48-38.5-83.5t-85.5-35.5h-11q-48 0-85 35t-39 84q2 49 39 84t87 35h4z"/></svg>