<svg viewBox="0 0 1211 1074.237" xmlns="http://www.w3.org/2000/svg"><path d="M46 900.237q-19 0-32.5-13.5T0 853.237v-55q0-54 14-102.5t40-88.5q26-40 63-71t84-50q-35-32-54-75t-19-91q0-46 17-86.5t46.5-70.5q29.5-30 69-47t85.5-17q46 0 86 17t69 47q29 30 46 70.5t17 86.5q0 48-19 91t-54 75q47 19 86 52 10 9 10 20 0 12-7.5 19.5t-19.5 7.5q-10 0-17-6-45-36-98-53-25-8-25-34 0-20 16-31 35-23 54.5-60.5t19.5-80.5q0-35-12.5-65.5t-35-53q-22.5-22.5-52.5-35.5t-64-13q-35 0-64.5 13t-52 35.5q-22.5 22.5-35 53t-12.5 65.5q0 43 19.5 80.5t54.5 60.5q16 11 16 30 0 12-6.5 21.5t-18.5 13.5q-45 14-80.5 40t-60.5 61.5q-25 35.5-38.5 78.5t-13.5 92v48h333q11 0 19 8t8 19q0 11-8 19t-19 8H46zm467-63q-11 0-19-8t-8-19q0-11 8-19t19-8h324q11 0 19 8t8 19q0 11-8 19t-19 8H513zm0 126q-11 0-19-8t-8-19q0-11 8-19t19-8h324q11 0 19 8t8 19q0 11-8 19t-19 8H513zm0-252q-11 0-19-8t-8-19q0-11 8-19t19-8h324q11 0 19 8t8 19q0 11-8 19t-19 8H513z"/></svg>