<svg width="1075" height="1075" viewBox="0 0 1075 1075" fill="none" xmlns="http://www.w3.org/2000/svg">
<path d="M152 907C139.333 907 128.5 902.5 119.5 893.5C110.5 884.5 106 873.333 106 860V805C106 769 110.667 734.833 120 702.5C129.333 670.167 142.667 640.667 160 614C177.333 587.333 198.333 563.667 223 543C247.667 522.333 275.667 505.667 307 493C283.667 471.667 265.667 446.667 253 418C240.333 389.333 234 359 234 327C234 296.333 239.667 267.5 251 240.5C262.333 213.5 277.833 190 297.5 170C317.167 150 340.167 134.333 366.5 123C392.833 111.667 421.333 106 452 106C482.667 106 511.333 111.667 538 123C564.667 134.333 587.667 150 607 170C626.333 190 641.667 213.5 653 240.5C664.333 267.5 670 296.333 670 327C670 359 663.667 389.333 651 418C638.333 446.667 620.333 471.667 597 493C628.333 505.667 657 523 683 545C689.667 551 693 557.667 693 565C693 573 690.5 579.5 685.5 584.5C680.5 589.5 674 592 666 592C659.333 592 653.667 590 649 586C619 562 586.333 544.333 551 533C534.333 527.667 526 516.333 526 499C526 485.667 531.333 475.333 542 468C565.333 452.667 583.5 432.5 596.5 407.5C609.5 382.5 616 355.667 616 327C616 303.667 611.833 281.833 603.5 261.5C595.167 241.167 583.5 223.5 568.5 208.5C553.5 193.5 536 181.667 516 173C496 164.333 474.667 160 452 160C428.667 160 407.167 164.333 387.5 173C367.833 181.667 350.5 193.5 335.5 208.5C320.5 223.5 308.833 241.167 300.5 261.5C292.167 281.833 288 303.667 288 327C288 355.667 294.5 382.5 307.5 407.5C320.5 432.5 338.667 452.667 362 468C372.667 475.333 378 485.333 378 498C378 506 375.833 513.167 371.5 519.5C367.167 525.833 361 530.333 353 533C323 542.333 296.167 555.667 272.5 573C248.833 590.333 228.667 610.833 212 634.5C195.333 658.167 182.5 684.333 173.5 713C164.5 741.667 160 772.333 160 805V853H493C500.333 853 506.667 855.667 512 861C517.333 866.333 520 872.667 520 880C520 887.333 517.333 893.667 512 899C506.667 904.333 500.333 907 493 907H152ZM619 844C611.667 844 605.333 841.333 600 836C594.667 830.667 592 824.333 592 817C592 809.667 594.667 803.333 600 798C605.333 792.667 611.667 790 619 790H943C950.333 790 956.667 792.667 962 798C967.333 803.333 970 809.667 970 817C970 824.333 967.333 830.667 962 836C956.667 841.333 950.333 844 943 844H619ZM619 970C611.667 970 605.333 967.333 600 962C594.667 956.667 592 950.333 592 943C592 935.667 594.667 929.333 600 924C605.333 918.667 611.667 916 619 916H943C950.333 916 956.667 918.667 962 924C967.333 929.333 970 935.667 970 943C970 950.333 967.333 956.667 962 962C956.667 967.333 950.333 970 943 970H619ZM619 718C611.667 718 605.333 715.333 600 710C594.667 704.667 592 698.333 592 691C592 683.667 594.667 677.333 600 672C605.333 666.667 611.667 664 619 664H943C950.333 664 956.667 666.667 962 672C967.333 677.333 970 683.667 970 691C970 698.333 967.333 704.667 962 710C956.667 715.333 950.333 718 943 718H619Z" fill="black"/>
</svg>
