<svg width="1075" height="1075" viewBox="0 0 1075 1075" fill="none" xmlns="http://www.w3.org/2000/svg">
<path d="M240 240C322 158 421.333 117 538 117C654.667 117 754 158 836 240C918 322 959 421.333 959 538C959 654.667 918 754 836 836C754 918 654.667 959 538 959C421.333 959 322 918 240 836C158 754 117 654.667 117 538C117 421.333 158 322 240 240ZM906 474C890.667 385.333 848.333 311.5 779 252.5C709.667 193.5 629.333 164 538 164H528C484.667 218 451 277.667 427 343C484.333 352.333 538.333 370.667 589 398C610.333 410.667 630.667 424.333 650 439C664 437.667 680 437 698 437C770 437.667 839.333 450 906 474ZM396 508V531C422 514.333 449 499 477 485C511 469 546.667 457 584 449C582.667 448.333 580.833 447.167 578.5 445.5C576.167 443.833 574 442.5 572 441.5C570 440.5 568 439.333 566 438C517.333 412 466 395.333 412 388C401.333 427.333 396 467.333 396 508ZM464 171C416 181 371.667 199.5 331 226.5C290.333 253.5 256.333 286.667 229 326H239C286.333 326 333 329 379 335C400.333 276.333 428.667 221.667 464 171ZM201 374C176.333 425.333 164 480 164 538C164 604 180.333 665.667 213 723C249 661 295 607.667 351 563C349.667 543.667 349 525 349 507C349 463.667 354.667 421.667 366 381C324 376.333 282 373.667 240 373C226.667 373 213.667 373.333 201 374ZM242 767C270.667 803 304.833 833.167 344.5 857.5C384.167 881.833 427 898 473 906C410.333 820.667 371.667 725.333 357 620C309 661.333 270.667 710.333 242 767ZM538 912C597.333 912 653.333 898.5 706 871.5C758.667 844.5 802.667 808 838 762C792.667 654.667 725.667 563.333 637 488C588.333 494 541.667 507.333 497 528C463 544 430.667 563.333 400 586C410.667 709.333 456.333 818 537 912H538ZM869 714C898.333 659.333 912.667 601 912 539V526C844.667 499.333 775 485.333 703 484C773 550.667 828.333 627.333 869 714Z" fill="black"/>
</svg>
