<svg viewBox="0 0 1200 1074.237" xmlns="http://www.w3.org/2000/svg"><path d="M123 276.237q123-123 298-123t298 123q123 123 123 298t-123 298q-123 123-298 123t-298-123q-123-123-123-298t123-298zm666 234q-23-133-127-221.5t-241-88.5h-10q-65 81-101 179 86 14 162 55 32 19 61 41 21-2 48-2 108 1 208 37zm-510 34v23q39-25 81-46 51-24 107-36-2-1-5.5-3.5t-6.5-4q-3-1.5-6-3.5-73-39-154-50-16 59-16 120zm68-337q-72 15-133 55.5t-102 99.5h10q71 0 140 9 32-88 85-164zm-263 203q-37 77-37 164 0 99 49 185 54-93 138-160-2-29-2-56 0-65 17-126-63-7-126-8-20 0-39 1zm41 393q43 54 102.5 90.5t128.5 48.5q-94-128-116-286-72 62-115 147zm296 145q89 0 168-40.5t132-109.5q-68-161-201-274-73 9-140 40-51 24-97 58 16 185 137 326h1zm331-198q44-82 43-175v-13q-101-40-209-42 105 100 166 230z"/></svg>