<svg viewBox="0 0 1198 1074.237" xmlns="http://www.w3.org/2000/svg"><path d="M377 212.237q-131 0-224.5 92t-93.5 224q-1 1-1 2 0 132 93 225t225.5 93q132.5 0 225-93.5t92.5-224.5q0-132-92.5-225t-224.5-93zm0-59q102 0 188.5 50.5t137 137.5q50.5 87 50.5 189v1q0 76-30 145t-80.5 119.5q-50.5 50.5-120 80t-146.5 29.5q-102 0-189-50.5t-137-136.5q-50-86-50-188t50-189q50-87 137-137.5t189-50.5h1zm313 812q-25-25-25-60.5t25.5-61q25.5-25.5 61-25.5t61 25.5q25.5 25.5 25.5 61t-25.5 61q-25.5 25.5-61 25.5t-61.5-26z"/></svg>