<svg width="1075" height="1075" viewBox="0 0 1075 1075" fill="none" xmlns="http://www.w3.org/2000/svg">
<path d="M496 178C408.667 178 333.833 208.667 271.5 270C209.167 331.333 178 406 178 494C177.333 494.667 177 495.333 177 496C177 584 208 659 270 721C332 783 407.167 814 495.5 814C583.833 814 658.833 782.833 720.5 720.5C782.167 658.167 813 583.333 813 496C813 408 782.167 333 720.5 271C658.833 209 584 178 496 178ZM496 119C564 119 626.833 135.833 684.5 169.5C742.167 203.167 787.833 249 821.5 307C855.167 365 872 428 872 496V497C872 547.667 862 596 842 642C822 688 795.167 727.833 761.5 761.5C727.833 795.167 687.833 821.833 641.5 841.5C595.167 861.167 546.333 871 495 871C427 871 364 854.167 306 820.5C248 786.833 202.333 741.333 169 684C135.667 626.667 119 564 119 496C119 428 135.667 365 169 307C202.333 249 248 203.167 306 169.5C364 135.833 427 119 495 119H496ZM809 931C792.333 914.333 784 894.167 784 870.5C784 846.833 792.5 826.5 809.5 809.5C826.5 792.5 846.833 784 870.5 784C894.167 784 914.5 792.5 931.5 809.5C948.5 826.5 957 846.833 957 870.5C957 894.167 948.5 914.5 931.5 931.5C914.5 948.5 894.167 957 870.5 957C846.833 957 826.333 948.333 809 931Z" fill="black"/>
</svg>
