<svg width="1075" height="1075" viewBox="0 0 1075 1075" fill="none" xmlns="http://www.w3.org/2000/svg">
<path d="M342 366V449H111V218H195V286C221 250.667 251.5 220 286.5 194C321.5 168 360.667 147.833 404 133.5C447.333 119.167 492 112 538 112C615.333 112 686.667 131 752 169C817.333 207 869 258.667 907 324C945 389.333 964 460.333 964 537C964 569.667 960.333 602 953 634C931 612.667 905.667 596.333 877 585C879.667 567.667 881 551 881 535C881 473 865.667 415.833 835 363.5C804.333 311.167 762.833 269.667 710.5 239C658.167 208.333 601 193 539 193C476.333 193 418.667 208.667 366 240C313.333 271.333 272 313.333 242 366H342ZM538 880C554 879.333 570 878 586 876C596.667 904.667 612.667 930 634 952C602.667 959.333 570.667 963 538 963C436.667 962.333 347.167 930.167 269.5 866.5C191.833 802.833 142.667 722.333 122 625L203 608C219.667 686 259.333 750.667 322 802C384.667 853.333 456.667 879.333 538 880ZM953 795C953 838.333 937.667 875.333 907 906C876.333 936.667 839.333 952 796 952C752.667 952 715.667 936.667 685 906C654.333 875.333 639 838.333 639 795C639 751.667 654.333 714.667 685 684C715.667 653.333 752.667 638 796 638C839.333 638 876.333 653.333 907 684C937.667 714.667 953 751.667 953 795ZM573 690H514V442L452 471L433 432L534 383H573V690Z" fill="black"/>
</svg>
