<svg width="1075" height="1075" viewBox="0 0 1075 1075" fill="none" xmlns="http://www.w3.org/2000/svg">
<path d="M538 109L539 108.5L540 108C616.667 108 687.5 127 752.5 165C817.5 203 869 254.5 907 319.5C945 384.5 964 455.333 964 532C964 557.333 961.667 582.333 957 607L874 601C878 579 880 557 880 535V534H881C881 472 865.667 414.667 835 362C804.333 309.333 762.667 267.667 710 237C657.333 206.333 600 191 538 191C476 191 418.667 206.667 366 238C313.333 269.333 272 311 242 363H342V446H111V215H195V283C233.667 229 283 186.5 343 155.5C403 124.5 467.667 109 537 109H538ZM538 877C571.333 877 604 872 636 862L663 941C622.333 953.667 581 960 539 960H538C436.667 959.333 347.167 927.167 269.5 863.5C191.833 799.833 142.667 719.333 122 622L203 605C214.333 656.333 235.833 702.5 267.5 743.5C299.167 784.5 338.667 816.833 386 840.5C433.333 864.167 484 876.333 538 877ZM573 687H514V438L452 468L433 429L534 380H573V687ZM719 651L939 664L776 810L822 940L743 968L641 679L719 651Z" fill="black"/>
</svg>
