<svg viewBox="0 0 1206 1074.237" xmlns="http://www.w3.org/2000/svg"><path d="M231 398.237v83H0v-231h84v68q39-53 91.5-92t117.5-60.5q65-21.5 134-21.5 116 0 214 57t155 155q57 98 57 213 0 49-11 97-33-32-76-49 4-26 4-50 0-93-46-171.5t-124.5-124.5q-78.5-46-171.5-46-94 0-173 47t-124 126h100zm196 514q24-1 48-4 16 43 48 76-47 11-96 11-152-1-268.5-96.5T11 657.237l81-17q25 117 119 194t216 78zm415-85q0 65-46 111t-111 46q-65 0-111-46t-46-111q0-65 46-111t111-46q65 0 111 46t46 111zm-380-105h-59v-248l-62 29-19-39 101-49h39v307z"/></svg>