<svg viewBox="0 0 1206 1074.237" xmlns="http://www.w3.org/2000/svg"><path d="M427 144.237l1-.5 1-.5q115 0 212.5 57t154.5 154.5q57 97.5 57 212.5 0 38-7 75l-83-6q6-33 6-66v-1h1q0-93-46-172t-125-125q-79-46-172-46t-172 47q-79 47-124 125h100v83H0v-231h84v68q58-81 148-127.5t194-46.5h1zm0 768q50 0 98-15l27 79q-61 19-124 19h-1q-152-1-268.5-96.5T11 657.237l81-17q17 77 64.5 138.5t118.5 97q71 35.5 152 36.5zm35-190h-59v-249l-62 30-19-39 101-49h39v307zm146-36l220 13-163 146 46 130-79 28-102-289 78-28z"/></svg>