<svg viewBox="0 0 1139 1074.237" xmlns="http://www.w3.org/2000/svg"><path d="M360 747.237q-14 0-27.5-1t-27.5-4l-130 225q-9 14-25 14-20 0-27-19l-23-64-66 12q-14 2-24-6t-10-22q0-9 4-14l130-225q-33-39-52-88t-19-105q0-61 23.5-115.5t63.5-94.5q40-40 94-63.5t116-23.5q61 0 115 23.5t94.5 63.5q40.5 40 64 94.5t23.5 115.5q0 56-19 105t-52 88l130 225q4 8 4 14 0 14-10 22t-24 6l-67-12-23 64q-3 9-10.5 14t-16.5 5q-16 0-25-14l-129-225q-14 3-27.5 4t-27.5 1zm0-540q-50 0-94.5 19t-77.5 52q-33 33-52 77.5t-19 94.5q0 50 19 94.5t52 77.5q33 33 77.5 52t94.5 19q50 0 94.5-19t77.5-52q33-33 52-77.5t19-94.5q0-50-19-94.5t-52-77.5q-33-33-77.5-52t-94.5-19zm0 414q-36 0-67-13.5t-54-36.5q-23-23-36.5-54.5t-13.5-66.5q0-35 13.5-66t36.5-54.5q23-23.5 54-37t67-13.5q35 0 66 13.5t54.5 37q23.5 23.5 37 54.5t13.5 66q0 35-13.5 66.5t-37 54.5q-23.5 23-54.5 36.5t-66 13.5zm0-288q-24 0-45.5 9t-37.5 25q-16 16-25 37.5t-9 45.5q0 24 9 45.5t25 37q16 15.5 37.5 25t45.5 9.5q24 0 45.5-9.5t37-25q15.5-15.5 25-37t9.5-45.5q0-24-9.5-45.5t-25-37.5q-15.5-16-37-25t-45.5-9zm-248 508q11-2 19.5 3t12.5 16l12 32 95-165q-21-8-40.5-20t-37.5-26l-95 166 34-6zm452 51l12-32q3-10 12-15.5t20-3.5l34 6-96-165q-34 27-78 44l96 166z"/></svg>