<svg width="1075" height="1075" viewBox="0 0 1075 1075" fill="none" xmlns="http://www.w3.org/2000/svg">
<path d="M538 718C528.667 718 519.5 717.667 510.5 717C501.5 716.333 492.333 715 483 713L353 938C347 947.333 338.667 952 328 952C314.667 952 305.667 945.667 301 933L278 869L212 881C202.667 882.333 194.667 880.333 188 875C181.333 869.667 178 862.333 178 853C178 847 179.333 842.333 182 839L312 614C290 588 272.667 558.667 260 526C247.333 493.333 241 458.333 241 421C241 380.333 248.833 341.833 264.5 305.5C280.167 269.167 301.333 237.667 328 211C354.667 184.333 386 163.167 422 147.5C458 131.833 496.667 124 538 124C578.667 124 617 131.833 653 147.5C689 163.167 720.5 184.333 747.5 211C774.5 237.667 795.833 269.167 811.5 305.5C827.167 341.833 835 380.333 835 421C835 458.333 828.667 493.333 816 526C803.333 558.667 786 588 764 614L894 839C896.667 844.333 898 849 898 853C898 862.333 894.667 869.667 888 875C881.333 880.333 873.333 882.333 864 881L797 869L774 933C772 939 768.5 943.667 763.5 947C758.5 950.333 753 952 747 952C736.333 952 728 947.333 722 938L593 713C583.667 715 574.5 716.333 565.5 717C556.5 717.667 547.333 718 538 718ZM538 178C504.667 178 473.167 184.333 443.5 197C413.833 209.667 388 227 366 249C344 271 326.667 296.833 314 326.5C301.333 356.167 295 387.667 295 421C295 454.333 301.333 485.833 314 515.5C326.667 545.167 344 571 366 593C388 615 413.833 632.333 443.5 645C473.167 657.667 504.667 664 538 664C571.333 664 602.833 657.667 632.5 645C662.167 632.333 688 615 710 593C732 571 749.333 545.167 762 515.5C774.667 485.833 781 454.333 781 421C781 387.667 774.667 356.167 762 326.5C749.333 296.833 732 271 710 249C688 227 662.167 209.667 632.5 197C602.833 184.333 571.333 178 538 178ZM538 592C514 592 491.667 587.5 471 578.5C450.333 569.5 432.333 557.333 417 542C401.667 526.667 389.5 508.5 380.5 487.5C371.5 466.5 367 444.333 367 421C367 397.667 371.5 375.667 380.5 355C389.5 334.333 401.667 316.167 417 300.5C432.333 284.833 450.333 272.5 471 263.5C491.667 254.5 514 250 538 250C561.333 250 583.333 254.5 604 263.5C624.667 272.5 642.833 284.833 658.5 300.5C674.167 316.167 686.5 334.333 695.5 355C704.5 375.667 709 397.667 709 421C709 444.333 704.5 466.5 695.5 487.5C686.5 508.5 674.167 526.667 658.5 542C642.833 557.333 624.667 569.5 604 578.5C583.333 587.5 561.333 592 538 592ZM538 304C522 304 506.833 307 492.5 313C478.167 319 465.667 327.333 455 338C444.333 348.667 436 361.167 430 375.5C424 389.833 421 405 421 421C421 437 424 452.167 430 466.5C436 480.833 444.333 493.167 455 503.5C465.667 513.833 478.167 522.167 492.5 528.5C506.833 534.833 522 538 538 538C554 538 569.167 534.833 583.5 528.5C597.833 522.167 610.167 513.833 620.5 503.5C630.833 493.167 639.167 480.833 645.5 466.5C651.833 452.167 655 437 655 421C655 405 651.833 389.833 645.5 375.5C639.167 361.167 630.833 348.667 620.5 338C610.167 327.333 597.833 319 583.5 313C569.167 307 554 304 538 304ZM290 812C297.333 810.667 303.833 811.667 309.5 815C315.167 818.333 319.333 823.667 322 831L334 863L429 698C415 692.667 401.5 686 388.5 678C375.5 670 363 661.333 351 652L256 818L290 812ZM742 863L754 831C756 824.333 760 819.167 766 815.5C772 811.833 778.667 810.667 786 812L820 818L724 653C701.333 671 675.333 685.667 646 697L742 863Z" fill="black"/>
</svg>
