<svg width="1075" height="1075" viewBox="0 0 1075 1075" fill="none" xmlns="http://www.w3.org/2000/svg">
<path d="M693 569C681.667 595.667 666.667 620.333 648 643L871 865L836 899L614 677C560.667 721.667 499.333 744 430 744C351.333 744 284.333 716.333 229 661C173.667 605.667 146 538.833 146 460.5C146 382.167 173.833 315.167 229.5 259.5C285.167 203.833 352 176 430 176C489.333 176 543.667 193 593 227V289C547.667 245.667 493.667 224.333 431 225C366.333 225 311 248 265 294C219 340 196 395.333 196 460C196 524.667 219 580 265 626C311 672 366.333 695 431 695C471.667 695 509.333 685.5 544 666.5C578.667 647.5 606.667 621.667 628 589C651.333 588.333 673 581.667 693 569ZM929 176L930 449H928C927.333 468.333 919 483.333 903 494C890.333 502 876.333 506.333 861 507C845 507 830 502.667 816 494C814.667 493.333 813.333 492 812 490C808.667 487.333 806 484.333 804 481C796 471.667 792 461 792 449C792 437 796 426.333 804 417C806.667 413.667 809.333 411 812 409C813.333 407 814.667 405.667 816 405C819.333 402.333 823.333 400.333 828 399C834 396.333 840 394 846 392C850.667 391.333 855.333 391.167 860 391.5C864.667 391.833 869 392 873 392C876.333 392.667 880 394 884 396V230L693 265V475H691C690.333 495 681.333 510 664 520C651.333 528 637.667 532.333 623 533C616.333 533 609.667 532 603 530L596 528C588 525.333 581 521.333 575 516C561.667 506 555 492.5 555 475.5C555 458.5 561.667 445 575 435C581.667 429.667 588.667 425.333 596 422C598 421.333 600.333 420.667 603 420C609.667 418 616.333 417.667 623 419C631 419 639 420 647 422V226L929 176Z" fill="black"/>
</svg>
