<svg width="1075" height="1075" viewBox="0 0 1075 1075" fill="none" xmlns="http://www.w3.org/2000/svg">
<path d="M196 952C176 952 159 945 145 931C131 917 124 900 124 880V196C124 176 131 159 145 145C159 131 176 124 196 124H880C900 124 917 131 931 145C945 159 952 176 952 196V880C952 900 945 917 931 931C917 945 900 952 880 952H196ZM196 178C190.667 178 186.333 179.667 183 183C179.667 186.333 178 190.667 178 196V880C178 885.333 179.667 889.667 183 893C186.333 896.333 190.667 898 196 898H880C885.333 898 889.667 896.333 893 893C896.333 889.667 898 885.333 898 880V196C898 190.667 896.333 186.333 893 183C889.667 179.667 885.333 178 880 178H196ZM286 826C276 826 267.5 822.5 260.5 815.5C253.5 808.5 250 800 250 790V673C250 665.667 252.667 659.333 258 654C263.333 648.667 269.667 646 277 646C284.333 646 290.667 648.667 296 654C301.333 659.333 304 665.667 304 673V734L429 609C434.333 603.667 440.667 601 448 601C455.333 601 461.667 603.667 467 609C472.333 614.333 475 620.667 475 628C475 635.333 472.333 641.667 467 647L342 772H403C410.333 772 416.667 774.667 422 780C427.333 785.333 430 791.667 430 799C430 806.333 427.333 812.667 422 818C416.667 823.333 410.333 826 403 826H286ZM673 826C665.667 826 659.333 823.333 654 818C648.667 812.667 646 806.333 646 799C646 791.667 648.667 785.333 654 780C659.333 774.667 665.667 772 673 772H734L609 647C603.667 642.333 601 636 601 628C601 620.667 603.667 614.333 609 609C614.333 603.667 620.667 601 628 601C635.333 601 641.667 603.667 647 609L772 734V673C772 665.667 774.667 659.333 780 654C785.333 648.667 791.667 646 799 646C806.333 646 812.667 648.667 818 654C823.333 659.333 826 665.667 826 673V790C826 800 822.5 808.5 815.5 815.5C808.5 822.5 800 826 790 826H673ZM277 430C269.667 430 263.333 427.333 258 422C252.667 416.667 250 410.333 250 403V286C250 276 253.5 267.5 260.5 260.5C267.5 253.5 276 250 286 250H403C410.333 250 416.667 252.667 422 258C427.333 263.333 430 269.667 430 277C430 284.333 427.333 290.667 422 296C416.667 301.333 410.333 304 403 304H342L467 429C472.333 434.333 475 440.667 475 448C475 455.333 472.333 461.667 467 467C461.667 472.333 455.333 475 448 475C440.667 475 434.333 472.333 429 467L304 342V403C304 410.333 301.333 416.667 296 422C290.667 427.333 284.333 430 277 430ZM799 430C791.667 430 785.333 427.333 780 422C774.667 416.667 772 410.333 772 403V342L647 467C641.667 472.333 635.333 475 628 475C620.667 475 614.333 472.333 609 467C603.667 461.667 601 455.333 601 448C601 440 603.667 433.667 609 429L734 304H673C665.667 304 659.333 301.333 654 296C648.667 290.667 646 284.333 646 277C646 269.667 648.667 263.333 654 258C659.333 252.667 665.667 250 673 250H790C800 250 808.5 253.5 815.5 260.5C822.5 267.5 826 276 826 286V403C826 410.333 823.333 416.667 818 422C812.667 427.333 806.333 430 799 430Z" fill="black"/>
</svg>
