<svg viewBox="0 0 1193 1074.237" xmlns="http://www.w3.org/2000/svg"><path d="M72 981.237q-30 0-51-21t-21-51v-684q0-30 21-51t51-21h684q30 0 51 21t21 51v684q0 30-21 51t-51 21H72zm0-774q-8 0-13 5t-5 13v684q0 8 5 13t13 5h684q8 0 13-5t5-13v-684q0-8-5-13t-13-5H72zm90 648q-15 0-25.5-10.5t-10.5-25.5v-117q0-11 8-19t19-8q11 0 19 8t8 19v61l125-125q8-8 19-8t19 8q8 8 8 19t-8 19l-125 125h61q11 0 19 8t8 19q0 11-8 19t-19 8H162zm387 0q-11 0-19-8t-8-19q0-11 8-19t19-8h61l-125-125q-8-7-8-19 0-11 8-19t19-8q11 0 19 8l125 125v-61q0-11 8-19t19-8q11 0 19 8t8 19v117q0 15-10.5 25.5t-25.5 10.5H549zm-396-396q-11 0-19-8t-8-19v-117q0-15 10.5-25.5t25.5-10.5h117q11 0 19 8t8 19q0 11-8 19t-19 8h-61l125 125q8 8 8 19t-8 19q-8 8-19 8t-19-8l-125-125v61q0 11-8 19t-19 8zm522 0q-11 0-19-8t-8-19v-61l-125 125q-8 8-19 8t-19-8q-8-8-8-19 0-12 8-19l125-125h-61q-11 0-19-8t-8-19q0-11 8-19t19-8h117q15 0 25.5 10.5t10.5 25.5v117q0 11-8 19t-19 8z"/></svg>