<svg viewBox="0 0 1233 1074.237" xmlns="http://www.w3.org/2000/svg"><path d="M329 754.237v-350h68v350h-68zm202 0v-350h68v350h-68zm398-176q0 95-36.5 181.5t-99 149q-62.5 62.5-148.5 99.5t-181 37q-76 0-147-24t-128.5-67q-57.5-43-100.5-100.5t-65.5-128.5q-22.5-71-22.5-146.5t22.5-146.5q22.5-71 65.5-127.5t100.5-100q57.5-43.5 128.5-67.5t147-24q76 0 147 24t128.5 67.5q57.5 43.5 100.5 100t66 127.5q23 71 23 146zm-53 0q0-112-55.5-206.5t-150-149.5q-94.5-55-206.5-55-67 0-130 21t-113.5 59q-50.5 38-88.5 88.5t-59 113.5q-21 63-21 129 0 112 55.5 207.5t150 150q94.5 54.5 206.5 54.5t206.5-55.5q94.5-55.5 150-150t55.5-206.5z"/></svg>