<svg width="1075" height="1075" viewBox="0 0 1075 1075" fill="none" xmlns="http://www.w3.org/2000/svg">
<path d="M402 713V363H470V713H402ZM604 713V363H672V713H604ZM1002 537C1002 600.333 989.833 660.833 965.5 718.5C941.167 776.167 908.167 825.833 866.5 867.5C824.833 909.167 775.333 942.333 718 967C660.667 991.667 600.333 1004 537 1004C486.333 1004 437.333 996 390 980C342.667 964 299.833 941.667 261.5 913C223.167 884.333 189.667 850.833 161 812.5C132.333 774.167 110.5 731.333 95.5 684C80.5 636.667 73 587.833 73 537.5C73 487.167 80.5 438.333 95.5 391C110.5 343.667 132.333 301.167 161 263.5C189.667 225.833 223.167 192.5 261.5 163.5C299.833 134.5 342.667 112 390 96C437.333 80 486.333 72 537 72C587.667 72 636.667 80 684 96C731.333 112 774.167 134.5 812.5 163.5C850.833 192.5 884.333 225.833 913 263.5C941.667 301.167 963.667 343.667 979 391C994.333 438.333 1002 487 1002 537ZM949 537C949 462.333 930.5 393.5 893.5 330.5C856.5 267.5 806.5 217.667 743.5 181C680.5 144.333 611.667 126 537 126C492.333 126 449 133 407 147C365 161 327.167 180.667 293.5 206C259.833 231.333 230.333 260.833 205 294.5C179.667 328.167 160 366 146 408C132 450 125 493 125 537C125 611.667 143.5 680.833 180.5 744.5C217.5 808.167 267.5 858.167 330.5 894.5C393.5 930.833 462.333 949 537 949C611.667 949 680.5 930.5 743.5 893.5C806.5 856.5 856.5 806.5 893.5 743.5C930.5 680.5 949 611.667 949 537Z" fill="black"/>
</svg>
