<svg viewBox="0 0 1247 1074.237" xmlns="http://www.w3.org/2000/svg"><path d="M711 1053.237q-57 0-106.5-24t-82.5-66H261q-11 0-19-8t-8-19q0-11 8-19t19-8h228q-16-36-20-72H72q-30 0-51-21t-21-51v-486q0-30 21-51t51-21h792q30 0 51 21t21 51v439q8 22 13 45t5 47q0 50-19 94.5t-52 77.5q-33 33-77.5 52t-94.5 19zm0-486q50 0 94 19t77 51v-358q0-8-5-13t-13-5H72q-8 0-13 5t-5 13v486q0 8 5 13t13 5h397q5-45 26-84.5t53.5-69q32.5-29.5 74-46t88.5-16.5zm0 54q-32 0-61 10.5t-52 27.5l264 264q17-24 27.5-52.5t10.5-60.5q0-39-15-73.5t-40.5-60q-25.5-25.5-60-40.5t-73.5-15zm-189 186q0 40 15 75t40.5 61q25.5 26 60 41t73.5 15q32 0 60.5-10t51.5-28l-264-263q-17 23-27 50.5t-10 58.5z"/></svg>