<svg width="1075" height="1075" viewBox="0 0 1075 1075" fill="none" xmlns="http://www.w3.org/2000/svg">
<path d="M772 961C734 961 698.5 953 665.5 937C632.5 921 605 899 583 871H322C314.667 871 308.333 868.333 303 863C297.667 857.667 295 851.333 295 844C295 836.667 297.667 830.333 303 825C308.333 819.667 314.667 817 322 817H550C539.333 793 532.667 769 530 745H133C113 745 96 738 82 724C68 710 61 693 61 673V187C61 167 68 150 82 136C96 122 113 115 133 115H925C945 115 962 122 976 136C990 150 997 167 997 187V626C1002.33 640.667 1006.67 655.667 1010 671C1013.33 686.333 1015 702 1015 718C1015 751.333 1008.67 782.833 996 812.5C983.333 842.167 966 868 944 890C922 912 896.167 929.333 866.5 942C836.833 954.667 805.333 961 772 961ZM772 475C805.333 475 836.667 481.333 866 494C895.333 506.667 921 523.667 943 545V187C943 181.667 941.333 177.333 938 174C934.667 170.667 930.333 169 925 169H133C127.667 169 123.333 170.667 120 174C116.667 177.333 115 181.667 115 187V673C115 678.333 116.667 682.667 120 686C123.333 689.333 127.667 691 133 691H530C533.333 661 542 632.833 556 606.5C570 580.167 587.833 557.167 609.5 537.5C631.167 517.833 655.833 502.5 683.5 491.5C711.167 480.5 740.667 475 772 475ZM772 529C750.667 529 730.333 532.5 711 539.5C691.667 546.5 674.333 555.667 659 567L923 831C934.333 815 943.5 797.5 950.5 778.5C957.5 759.5 961 739.333 961 718C961 692 956 667.5 946 644.5C936 621.5 922.5 601.5 905.5 584.5C888.5 567.5 868.5 554 845.5 544C822.5 534 798 529 772 529ZM583 715C583 741.667 588 766.667 598 790C608 813.333 621.5 833.667 638.5 851C655.5 868.333 675.5 882 698.5 892C721.5 902 746 907 772 907C793.333 907 813.5 903.667 832.5 897C851.5 890.333 868.667 881 884 869L620 606C608.667 621.333 599.667 638.167 593 656.5C586.333 674.833 583 694.333 583 715Z" fill="black"/>
</svg>
