<svg width="1075" height="1075" viewBox="0 0 1075 1075" fill="none" xmlns="http://www.w3.org/2000/svg">
<path d="M270 890C258 890 246.667 887 236 881L172 945C167.333 949.667 161.667 952 155 952C149 952 143.667 949.667 139 945L130 936C125.333 931.333 123 926 123 920C123 913.333 125.333 907.667 130 903L193 839C187.667 827 185 815 185 803C185 791 187.333 780 192 770L255 634C250.333 623.333 248 613.667 248 605C248 589 254 575 266 563L688 141C699.333 129.667 713.333 124 730 124C738 124 745.833 125.333 753.5 128C761.167 130.667 768 135 774 141L934 301C946 313 952 327.333 952 344C952 360.667 946 375 934 387L512 809C500 821 485.333 827 468 827C459.333 827 450.333 824.667 441 820L305 882C295 887.333 283.333 890 270 890ZM299 598C296.333 600.667 295 603.333 295 606C295 608.667 296 611 298 613L461 777C463 779 465.333 780 468 780C471.333 780 474.333 778.667 477 776L900 353C902.667 350.333 904 347.667 904 345C904 343 902.667 340.667 900 338L738 176C735.333 173.333 732.667 172 730 172C726.667 172 723.667 173.333 721 176L299 598ZM289 673L236 790C234 794 233 798.333 233 803C233 811.667 236.333 820.333 243 829C249.667 838.333 258 843 268 843C272.667 843 278.333 841.667 285 839L402 786L289 673Z" fill="black"/>
</svg>
