<svg viewBox="0 0 1224 1074.237" xmlns="http://www.w3.org/2000/svg"><path d="M445 391.237q-10 0-17-7t-7-17v-48q1-9 8-15t16-6q9 0 15.5 6t6.5 15v48q0 10-6 17t-16 7zm0 300q-6 0-11.5-3t-9-8.5q-3.5-5.5-3.5-12.5v-47q1-9 8-15.5t16-6.5q9 0 15.5 6t6.5 16v47q0 10-6 17t-16 7zm-123-321l34 34-34-34zm18 51l-34-34q-7-7-7-17 0-6 3-11.5t8.5-8q5.5-2.5 11.5-2.5 10 0 18 6l33 34q7 7 6.5 16.5t-7 16.5q-6.5 7-16.5 7t-16-7zm194 162l34 33-34-33zm18 50l-34-34q-7-7-6.5-16.5t7-16.5q6.5-7 16-7t17.5 7l33 34q7 7 7 16.5t-7 16.5q-7 7-16.5 7t-16.5-7zm-281-140h48-48zm48 24h-48q-10 0-16.5-7t-6.5-16.5q0-9.5 7.5-16.5t15.5-7h48q10 0 16.5 7t6.5 16.5q0 9.5-6.5 16.5t-16.5 7zm252-24h48-48zm48 24h-48q-10 0-16.5-7t-6.5-16.5q0-9.5 7-16.5t16-7h48q10 0 17 7t7 16.5q0 9.5-7 16.5t-17 7zm-297 99l34-33-34 33zm-16-16l34-34q7-7 16-7 5 0 9 2t7.5 5q3.5 3 5 7t1.5 10q0 10-6 16l-33 34q-8 7-17.5 7t-16.5-7q-7-7-7-16.5t7-16.5zm228-196l34-34-34 34zm-16-16l34-34q7-7 16.5-6.5t16.5 7q7 6.5 7 16t-7 16.5l-34 34q-7 7-16.5 7t-16.5-7q-7-7-7-16.5t7-16.5zm-132 105q0-25 17.5-42t42-17q24.5 0 42 17.5t17.5 42q0 24.5-17.5 42t-42.5 17.5q-16 0-29.5-8t-21.5-22q-8-14-8-30zm-110 477v-47h337v47H276zm526-785q36 0 62 26t26 62v441q0 36-26 62t-62 26H89q-36 0-62.5-26t-26.5-62v-441q0-18 7-34t19-28q12-12 28.5-19t34.5-7h713zm40 529v-441q0-17-11.5-29t-28.5-12H89q-17 0-29 12t-12 29v441q0 17 12 29t29 12h711q17 0 29.5-12t12.5-29z"/></svg>