<svg viewBox="0 0 1203 1074.237" xmlns="http://www.w3.org/2000/svg"><path d="M424 458.237q-9 0-16.5-7.5t-7.5-17.5v-55-3q0-11 7.5-18t16.5-7q9 0 16.5 7t8.5 15v61q0 9-7 17t-18 8zm-24 321v-56-1q0-11 7.5-18.5t16.5-7.5q6 0 12 3.5t9 8.5q3 5 4 12v59q0 9-7 16.5t-17 7.5q-10 0-17.5-7.5t-7.5-16.5zm-117-344l39 39-39-39zm39 65q-11 0-18-8l-39-39q-6-7-6-17 0-9 7.5-16.5t16.5-7.5q8 0 15 4l2 3 39 39q7 7 7 18 0 9-6.5 16.5t-17.5 7.5zm205 181l39 39-39-39zm39 63q-9 0-16-8l-40-38q-8-7-8-17 0-9 6-18 7-7 18-9 9 0 16 7 2 1 2 2l40 39q6 7 6 17t-6 17q-7 8-18 8zm-287-142h-55-1q-11 0-17.5-7t-6.5-18q0-9 6-16.5t17-7.5h59q6 0 12 3.5t9 8.5q3 5 4 11v1q0 9-7 17t-16 8h-4zm346 0h-55q-11 0-17.5-7t-6.5-17.5q0-10.5 7-17.5t17-7h57q6 0 11.5 3.5t8.5 8.5q3 5 4 11v1q0 9-6.5 17t-16.5 8h-3zm-342 118l39-39-39 39zm0 24q-11 0-18-8-6-7-6-17t6-17l39-39q7-8 20-9 9 0 16.5 7t7.5 17q0 10-7 17l-2 3-39 38q-8 8-17 8zm244-270l39-39-39 39zm0 26h-1q-9 0-16.5-7t-7.5-17q0-11 8-18l40-39q7-8 17-9 9 0 17 6 7 7 7 18 0 9-5 17l-2 2-40 39q-6 8-17 8zm-171 77q0-19 9.5-34.5t25-24.5q15.5-9 33.5-9 29 0 49.5 20t20.5 48q0 14-5.5 27.5t-15 22q-9.5 8.5-22 14t-27.5 5.5q-28 0-48-20.5t-20-48.5zm407 363H86q-36 0-61-25.5t-25-61.5v-541q0-24 11.5-43.5t31.5-31q20-11.5 43-11.5h677q36 0 61 25t25 61v541q0 36-25 61.5t-61 25.5zm-677-666q-16 0-26.5 10.5t-10.5 27.5v542q0 15 10.5 26t25.5 11h678q16 0 26.5-11t10.5-26v-542q0-6-1.5-12t-5.5-10.5q-4-4.5-9-7.5t-10.5-5.5q-5.5-2.5-10.5-2.5H86z"/></svg>