<svg width="1075" height="1075" viewBox="0 0 1075 1075" fill="none" xmlns="http://www.w3.org/2000/svg">
<path d="M538 351C531.333 351 525.667 348.667 521 344C516.333 339.333 514 333.667 514 327V279C514.667 273 517.333 268 522 264C526.667 260 532 258 538 258C544 258 549.167 260 553.5 264C557.833 268 560 273 560 279V327C560 333.667 558 339.333 554 344C550 348.667 544.667 351 538 351ZM538 651C534 651 530.167 650 526.5 648C522.833 646 519.833 643.167 517.5 639.5C515.167 635.833 514 631.667 514 627V580C514.667 574 517.333 568.833 522 564.5C526.667 560.167 532 558 538 558C544 558 549.167 560 553.5 564C557.833 568 560 573.333 560 580V627C560 633.667 558 639.333 554 644C550 648.667 544.667 651 538 651ZM433 381L399 347C394.333 342.333 392 336.667 392 330C392 326 393 322.167 395 318.5C397 314.833 399.833 312.167 403.5 310.5C407.167 308.833 411 308 415 308C421.667 308 427.667 310 433 314L466 348C470.667 352.667 472.833 358.167 472.5 364.5C472.167 370.833 469.833 376.333 465.5 381C461.167 385.667 455.667 388 449 388C442.333 388 437 385.667 433 381ZM645 593L611 559C606.333 554.333 604.167 548.833 604.5 542.5C604.833 536.167 607.167 530.667 611.5 526C615.833 521.333 621.167 519 627.5 519C633.833 519 639.667 521.333 645 526L678 560C682.667 564.667 685 570.167 685 576.5C685 582.833 682.667 588.333 678 593C673.333 597.667 667.833 600 661.5 600C655.167 600 649.667 597.667 645 593ZM412 477H364C357.333 477 351.833 474.667 347.5 470C343.167 465.333 341 459.833 341 453.5C341 447.167 343.5 441.667 348.5 437C353.5 432.333 358.667 430 364 430H412C418.667 430 424.167 432.333 428.5 437C432.833 441.667 435 447.167 435 453.5C435 459.833 432.833 465.333 428.5 470C424.167 474.667 418.667 477 412 477ZM712 477H664C657.333 477 651.833 474.667 647.5 470C643.167 465.333 641 459.833 641 453.5C641 447.167 643.333 441.667 648 437C652.667 432.333 658 430 664 430H712C718.667 430 724.333 432.333 729 437C733.667 441.667 736 447.167 736 453.5C736 459.833 733.667 465.333 729 470C724.333 474.667 718.667 477 712 477ZM399 560L433 526C437.667 521.333 443 519 449 519C452.333 519 455.333 519.667 458 521C460.667 522.333 463.167 524 465.5 526C467.833 528 469.5 530.333 470.5 533C471.5 535.667 472 539 472 543C472 549.667 470 555 466 559L433 593C427.667 597.667 421.833 600 415.5 600C409.167 600 403.667 597.667 399 593C394.333 588.333 392 582.833 392 576.5C392 570.167 394.333 564.667 399 560ZM611 348L645 314C649.667 309.333 655.167 307.167 661.5 307.5C667.833 307.833 673.333 310.167 678 314.5C682.667 318.833 685 324.167 685 330.5C685 336.833 682.667 342.333 678 347L644 381C639.333 385.667 633.833 388 627.5 388C621.167 388 615.667 385.667 611 381C606.333 376.333 604 370.833 604 364.5C604 358.167 606.333 352.667 611 348ZM479 453C479 436.333 484.833 422.333 496.5 411C508.167 399.667 522.167 394 538.5 394C554.833 394 568.833 399.833 580.5 411.5C592.167 423.167 598 437.167 598 453.5C598 469.833 592.167 483.833 580.5 495.5C568.833 507.167 554.667 513 538 513C527.333 513 517.5 510.333 508.5 505C499.5 499.667 492.333 492.333 487 483C481.667 473.667 479 463.667 479 453ZM369 930V883H706V930H369ZM895 145C919 145 939.667 153.667 957 171C974.333 188.333 983 209 983 233V674C983 698 974.333 718.667 957 736C939.667 753.333 919 762 895 762H182C158 762 137.167 753.333 119.5 736C101.833 718.667 93 698 93 674V233C93 221 95.3333 209.667 100 199C104.667 188.333 111 179 119 171C127 163 136.5 156.667 147.5 152C158.5 147.333 170 145 182 145H895ZM935 674V233C935 221.667 931.167 212 923.5 204C915.833 196 906.333 192 895 192H182C170.667 192 161 196 153 204C145 212 141 221.667 141 233V674C141 685.333 145 695 153 703C161 711 170.667 715 182 715H893C904.333 715 914.167 711 922.5 703C930.833 695 935 685.333 935 674Z" fill="black"/>
</svg>
