<svg width="1075" height="1075" viewBox="0 0 1075 1075" fill="none" xmlns="http://www.w3.org/2000/svg">
<path d="M537 413C531 413 525.5 410.5 520.5 405.5C515.5 400.5 513 394.667 513 388V333V330C513 322.667 515.5 316.667 520.5 312C525.5 307.333 531 305 537 305C543 305 548.5 307.333 553.5 312C558.5 316.667 561.333 321.667 562 327V388C562 394 559.667 399.667 555 405C550.333 410.333 544.333 413 537 413ZM513 734V678V677C513 669.667 515.5 663.5 520.5 658.5C525.5 653.5 531 651 537 651C541 651 545 652.167 549 654.5C553 656.833 556 659.667 558 663C560 666.333 561.333 670.333 562 675V734C562 740 559.667 745.5 555 750.5C550.333 755.5 544.667 758 538 758C531.333 758 525.5 755.5 520.5 750.5C515.5 745.5 513 740 513 734ZM435 455C427.667 455 421.667 452.333 417 447L378 408C374 403.333 372 397.667 372 391C372 385 374.5 379.5 379.5 374.5C384.5 369.5 390 367 396 367C401.333 367 406.333 368.333 411 371L413 374L452 413C456.667 417.667 459 423.667 459 431C459 437 456.833 442.5 452.5 447.5C448.167 452.5 442.333 455 435 455ZM679 699C673 699 667.667 696.333 663 691L623 653C617.667 648.333 615 642.667 615 636C615 630 617 624 621 618C625.667 613.333 631.667 610.333 639 609C645 609 650.333 611.333 655 616C656.333 616.667 657 617.333 657 618L697 657C701 661.667 703 667.333 703 674C703 680.667 701 686.333 697 691C692.333 696.333 686.333 699 679 699ZM392 557H337H336C328.667 557 322.833 554.667 318.5 550C314.167 545.333 312 539.333 312 532C312 526 314 520.5 318 515.5C322 510.5 327.667 508 335 508H394C398 508 402 509.167 406 511.5C410 513.833 413 516.667 415 520C417 523.333 418.333 527 419 531V532C419 538 416.667 543.667 412 549C407.333 554.333 402 557 396 557H392ZM738 557H683C675.667 557 669.833 554.667 665.5 550C661.167 545.333 659 539.5 659 532.5C659 525.5 661.333 519.667 666 515C670.667 510.333 676.333 508 683 508H740C744 508 747.833 509.167 751.5 511.5C755.167 513.833 758 516.667 760 520C762 523.333 763.333 527 764 531V532C764 538 761.833 543.667 757.5 549C753.167 554.333 747.667 557 741 557H738ZM396 699C388.667 699 382.667 696.333 378 691C374 686.333 372 680.667 372 674C372 667.333 374 661.667 378 657L417 618C421.667 612.667 428.333 609.667 437 609C443 609 448.5 611.333 453.5 616C458.5 620.667 461 626.333 461 633C461 639.667 458.667 645.333 454 650L452 653L413 691C407.667 696.333 402 699 396 699ZM640 455H639C633 455 627.5 452.667 622.5 448C617.5 443.333 615 437.667 615 431C615 423.667 617.667 417.667 623 413L663 374C667.667 368.667 673.333 365.667 680 365C686 365 691.667 367 697 371C701.667 375.667 704 381.667 704 389C704 395 702.333 400.667 699 406L697 408L657 447C653 452.333 647.333 455 640 455ZM469 532C469 519.333 472.167 507.833 478.5 497.5C484.833 487.167 493.167 479 503.5 473C513.833 467 525 464 537 464C556.333 464 572.833 470.667 586.5 484C600.167 497.333 607 513.333 607 532C607 541.333 605.167 550.5 601.5 559.5C597.833 568.5 592.833 575.833 586.5 581.5C580.167 587.167 572.833 591.833 564.5 595.5C556.167 599.167 547 601 537 601C518.333 601 502.333 594.167 489 580.5C475.667 566.833 469 550.667 469 532ZM876 895H199C175 895 154.667 886.5 138 869.5C121.333 852.5 113 832 113 808V267C113 251 116.833 236.5 124.5 223.5C132.167 210.5 142.667 200.167 156 192.5C169.333 184.833 183.667 181 199 181H876C900 181 920.333 189.333 937 206C953.667 222.667 962 243 962 267V808C962 832 953.667 852.5 937 869.5C920.333 886.5 900 895 876 895ZM199 229C188.333 229 179.5 232.5 172.5 239.5C165.5 246.5 162 255.667 162 267V809C162 819 165.5 827.667 172.5 835C179.5 842.333 188 846 198 846H876C886.667 846 895.5 842.333 902.5 835C909.5 827.667 913 819 913 809V267C913 263 912.5 259 911.5 255C910.5 251 908.667 247.5 906 244.5C903.333 241.5 900.333 239 897 237C893.667 235 890.167 233.167 886.5 231.5C882.833 229.833 879.333 229 876 229H199Z" fill="black"/>
</svg>
