<svg width="1075" height="1075" viewBox="0 0 1075 1075" fill="none" xmlns="http://www.w3.org/2000/svg">
<path d="M686 205C732 205 775.333 213.833 816 231.5C856.667 249.167 891.833 272.667 921.5 302C951.167 331.333 974.833 366.833 992.5 408.5C1010.17 450.167 1019 493 1019 537C1019 597.667 1004 653.5 974 704.5C944 755.5 903.5 795.833 852.5 825.5C801.5 855.167 745.667 870 685 870C657 870 629.333 866.667 602 860V864C578.667 868.667 554.833 871 530.5 871C506.167 871 482.333 868.667 459 864C436.333 868 413.667 870 391 870C330.333 870 274.5 855.167 223.5 825.5C172.5 795.833 132 755.5 102 704.5C72 653.5 57 598 57 538C57 478 72 422.333 102 371C132 319.667 172.667 279.167 224 249.5C275.333 219.833 331 205 391 205C413.667 205 436.333 207 459 211V212C483.667 207.333 508.333 205 533 205C555.667 205 578.333 207 601 211V216C629 208.667 657.333 205 686 205ZM108 537C108 605 131.833 666.167 179.5 720.5C227.167 774.833 284.333 806.667 351 816C309 789.333 273.333 748.5 244 693.5C214.667 638.5 200 586.333 200 537C200 487.667 214.667 435.667 244 381C273.333 326.333 309 285.333 351 258C283.667 268 226.333 300.167 179 354.5C131.667 408.833 108 469.667 108 537ZM251 537V538C251 608.667 276 671.667 326 727C376 782.333 436.333 813 507 819C464.333 791.667 427.833 750.833 397.5 696.5C367.167 642.167 352 589.333 352 538C352 505.333 359 470.5 373 433.5C387 396.5 405.833 362.333 429.5 331C453.167 299.667 479 275.333 507 258C435.667 264.667 375.167 295.167 325.5 349.5C275.833 403.833 251 466.333 251 537ZM686 819C764 819 830.5 791.667 885.5 737C940.5 682.333 968 615.833 968 537.5C968 459.167 940.333 392.667 885 338C829.667 283.333 763.167 256 685.5 256C607.833 256 541.5 283.333 486.5 338C431.5 392.667 404 459.167 404 537.5C404 615.833 431.5 682.333 486.5 737C541.5 791.667 608 819 686 819ZM609 673V403L827 537L609 673Z" fill="black"/>
</svg>
