<svg width="1075" height="1075" viewBox="0 0 1075 1075" fill="none" xmlns="http://www.w3.org/2000/svg">
<path d="M537 1004C473.667 1004 413.333 991.5 356 966.5C298.667 941.5 249.167 908.333 207.5 867C165.833 825.667 133 776.167 109 718.5C85 660.833 73 600.333 73 537C73 486.333 80.5 437.5 95.5 390.5C110.5 343.5 132.333 300.833 161 262.5C189.667 224.167 223.167 190.5 261.5 161.5C299.833 132.5 342.667 110.333 390 95C437.333 79.6667 486.333 72 537 72C600.333 72 660.667 84.3333 718 109C775.333 133.667 824.833 166.667 866.5 208C908.167 249.333 941.167 298.833 965.5 356.5C989.833 414.167 1002 474.333 1002 537C1002 587.667 994.333 636.667 979 684C963.667 731.333 941.667 774.167 913 812.5C884.333 850.833 850.833 884.333 812.5 913C774.167 941.667 731.333 964 684 980C636.667 996 587.667 1004 537 1004ZM743 181C680.333 144.333 611.667 126 537 126C462.333 126 393.5 144.333 330.5 181C267.5 217.667 217.5 267.667 180.5 331C143.5 394.333 125 463.167 125 537.5C125 611.833 143.5 680.833 180.5 744.5C217.5 808.167 267.5 858.167 330.5 894.5C393.5 930.833 462.333 949 537 949C611.667 949 680.667 930.833 744 894.5C807.333 858.167 857.333 808.167 894 744.5C930.667 680.833 949 611.833 949 537.5C949 463.167 930.5 394.333 893.5 331C856.5 267.667 806.333 217.667 743 181ZM436 727V349L719 537L436 727Z" fill="black"/>
</svg>
