<svg viewBox="0 0 1260 1074.237" xmlns="http://www.w3.org/2000/svg"><path d="M629 246.237q69 0 130 26.5t105.5 70.5q44.5 44 71 106.5t26.5 128.5q0 91-45 167.5t-121.5 121q-76.5 44.5-167.5 44.5-42 0-83-10v4q-35 7-71.5 7t-71.5-7q-34 6-68 6-91 0-167.5-44.5t-121.5-121q-45-76.5-45-166.5t45-167q45-77 122-121.5t167-44.5q34 0 68 6v1q37-7 74-7 34 0 68 6v5q42-11 85-11zm-578 332q0 102 71.5 183.5t171.5 95.5q-63-40-107-122.5t-44-156.5q0-74 44-156t107-123q-101 15-172 96.5t-71 182.5zm143 0v1q0 106 75 189t181 92q-64-41-109.5-122.5t-45.5-158.5q0-49 21-104.5t56.5-102.5q35.5-47 77.5-73-107 10-181.5 91.5t-74.5 187.5zm435 282q117 0 199.5-82t82.5-199.5q0-117.5-83-199.5t-199.5-82q-116.5 0-199 82t-82.5 199.5q0 117.5 82.5 199.5t199.5 82zm-77-146v-270l218 134-218 136z"/></svg>