<svg viewBox="0 0 1233 1074.237" xmlns="http://www.w3.org/2000/svg"><path d="M464 1045.237q-95 0-181-37.5t-148.5-99.5q-62.5-62-98.5-148.5t-36-181.5q0-76 22.5-146.5t65.5-128q43-57.5 100.5-101t128.5-66.5q71-23 147-23 95 0 181 37t148.5 99q62.5 62 99 148.5t36.5 180.5q0 76-23 147t-66 128.5q-43 57.5-100.5 100.5t-128.5 67q-71 24-147 24zm206-823q-94-55-206-55t-206.5 55q-94.5 55-150 150T52 578.737q0 111.5 55.5 207t150 150q94.5 54.5 206.5 54.5t207-54.5q95-54.5 150-150t55-207q0-111.5-55.5-206.5t-150.5-150zm-307 546v-378l283 188-283 190z"/></svg>