<svg width="1075" height="1075" viewBox="0 0 1075 1075" fill="none" xmlns="http://www.w3.org/2000/svg">
<path d="M430 898C380 898 333.167 888.5 289.5 869.5C245.833 850.5 207.833 824.667 175.5 792C143.167 759.333 117.5 721.167 98.5 677.5C79.5 633.833 70 587.333 70 538V250C70 230 77 213 91 199C105 185 122 178 142 178H430C479.333 178 525.833 187.5 569.5 206.5C613.167 225.5 651.333 251.167 684 283.5C716.667 315.833 742.5 353.833 761.5 397.5C780.5 441.167 790 488 790 538C790 587.333 780.5 633.833 761.5 677.5C742.5 721.167 716.667 759.333 684 792C651.333 824.667 613.167 850.5 569.5 869.5C525.833 888.5 479.333 898 430 898ZM142 232C136.667 232 132.333 233.667 129 237C125.667 240.333 124 244.667 124 250V538C124 580 132 619.667 148 657C164 694.333 185.833 726.833 213.5 754.5C241.167 782.167 273.667 804 311 820C348.333 836 388 844 430 844C472 844 511.667 836 549 820C586.333 804 618.833 782.167 646.5 754.5C674.167 726.833 696 694.333 712 657C728 619.667 736 580 736 538C736 496 728 456.333 712 419C696 381.667 674.167 349.167 646.5 321.5C618.833 293.833 586.333 272 549 256C511.667 240 472 232 430 232H142ZM799 898C791.667 898 785.333 895.333 780 890C774.667 884.667 772 878.333 772 871C772 863.667 774.667 857.333 780 852C785.333 846.667 791.667 844 799 844H862V232H799C791.667 232 785.333 229.333 780 224C774.667 218.667 772 212.333 772 205C772 197.667 774.667 191.333 780 186C785.333 180.667 791.667 178 799 178H979C986.333 178 992.667 180.667 998 186C1003.33 191.333 1006 197.667 1006 205C1006 212.333 1003.33 218.667 998 224C992.667 229.333 986.333 232 979 232H916V844H979C986.333 844 992.667 846.667 998 852C1003.33 857.333 1006 863.667 1006 871C1006 878.333 1003.33 884.667 998 890C992.667 895.333 986.333 898 979 898H799Z" fill="black"/>
</svg>
