<svg width="1075" height="1075" viewBox="0 0 1075 1075" fill="none" xmlns="http://www.w3.org/2000/svg">
<path d="M124 232C118.667 232 114.333 233.667 111 237C107.667 240.333 106 244.667 106 250V538C106 580 114 619.667 130 657C146 694.333 167.833 726.833 195.5 754.5C223.167 782.167 255.667 804 293 820C330.333 836 370 844 412 844C454 844 493.667 836 531 820C568.333 804 600.833 782.167 628.5 754.5C656.167 726.833 678 694.333 694 657C710 619.667 718 580 718 538C718 496 710 456.333 694 419C678 381.667 656.167 349.167 628.5 321.5C600.833 293.833 568.333 272 531 256C493.667 240 454 232 412 232H124ZM412 898C362 898 315.167 888.5 271.5 869.5C227.833 850.5 189.833 824.667 157.5 792C125.167 759.333 99.5 721.167 80.5 677.5C61.5 633.833 52 587.333 52 538V250C52 230 59 213 73 199C87 185 104 178 124 178H412C461.333 178 507.833 187.5 551.5 206.5C595.167 225.5 633.333 251.167 666 283.5C698.667 315.833 724.5 353.833 743.5 397.5C762.5 441.167 772 488 772 538C772 587.333 762.5 633.833 743.5 677.5C724.5 721.167 698.667 759.333 666 792C633.333 824.667 595.167 850.5 551.5 869.5C507.833 888.5 461.333 898 412 898ZM853 520C845.667 520 839.333 517.333 834 512C828.667 506.667 826 500.333 826 493C826 485.667 828.667 479.333 834 474C839.333 468.667 845.667 466 853 466H925C932.333 466 938.667 468.667 944 474C949.333 479.333 952 485.667 952 493C952 500.333 949.333 506.667 944 512C938.667 517.333 932.333 520 925 520H853ZM871 709C863.667 709 857.333 706.333 852 701C846.667 695.667 844 689.333 844 682C844 674.667 846.667 668.333 852 663C857.333 657.667 863.667 655 871 655H961C968.333 655 974.667 657.667 980 663C985.333 668.333 988 674.667 988 682C988 689.333 985.333 695.667 980 701C974.667 706.333 968.333 709 961 709H871ZM745 898C737.667 898 731.333 895.333 726 890C720.667 884.667 718 878.333 718 871C718 863.667 720.667 857.333 726 852C731.333 846.667 737.667 844 745 844H997C1004.33 844 1010.67 846.667 1016 852C1021.33 857.333 1024 863.667 1024 871C1024 878.333 1021.33 884.667 1016 890C1010.67 895.333 1004.33 898 997 898H745Z" fill="black"/>
</svg>
