<svg viewBox="0 0 1247 1074.237" xmlns="http://www.w3.org/2000/svg"><path d="M360 927.237q-75 0-140.5-28.5t-114-77.5q-48.5-49-77-114.5T0 567.237v-288q0-30 21-51t51-21h288q74 0 139.5 28.5t114.5 77q49 48.5 77.5 114t28.5 140.5q0 74-28.5 139.5t-77.5 114.5q-49 49-114.5 77.5t-139.5 28.5zm-288-666q-8 0-13 5t-5 13v288q0 63 24 119t65.5 97.5q41.5 41.5 97.5 65.5t119 24q63 0 119-24t97.5-65.5q41.5-41.5 65.5-97.5t24-119q0-63-24-119t-65.5-97.5q-41.5-41.5-97.5-65.5t-119-24H72zm657 666q-11 0-19-8t-8-19q0-11 8-19t19-8h63v-612h-63q-11 0-19-8t-8-19q0-11 8-19t19-8h180q11 0 19 8t8 19q0 11-8 19t-19 8h-63v612h63q11 0 19 8t8 19q0 11-8 19t-19 8H729z"/></svg>