<svg width="1075" height="1075" viewBox="0 0 1075 1075" fill="none" xmlns="http://www.w3.org/2000/svg">
<path d="M514 458V100H564V458H514ZM941 573C941 645.667 923 712.833 887 774.5C851 836.167 802.167 885 740.5 921C678.833 957 611.667 975 539 975H538C465.333 975 398 957.167 336 921.5C274 885.833 225 837 189 775C153 713 135 645.667 135 573C135 502.333 151.833 437 185.5 377C219.167 317 264.667 269 322 233L349 275C316.333 295.667 288 321.167 264 351.5C240 381.833 221 416 207 454C193 492 186 531.667 186 573C186 637 201.667 696 233 750C264.333 804 307.167 846.833 361.5 878.5C415.833 910.167 475 926 539 926C587 926 632.667 916.667 676 898C719.333 879.333 756.833 854.167 788.5 822.5C820.167 790.833 845.333 753.333 864 710C882.667 666.667 892 621 892 573C892 511.667 877.167 454.667 847.5 402C817.833 349.333 778 307 728 275L755 233C812.333 269 857.667 317 891 377C924.333 437 941 502 941 572V573Z" fill="black"/>
</svg>
