<svg width="1075" height="1075" viewBox="0 0 1075 1075" fill="none" xmlns="http://www.w3.org/2000/svg">
<path d="M1002 537C1002 600.333 989.833 660.833 965.5 718.5C941.167 776.167 908.167 825.833 866.5 867.5C824.833 909.167 775.333 942.333 718 967C660.667 991.667 600.333 1004 537 1004C486.333 1004 437.333 996 390 980C342.667 964 299.833 941.667 261.5 913C223.167 884.333 189.667 850.833 161 812.5C132.333 774.167 110.5 731.333 95.5 684C80.5 636.667 73 587.833 73 537.5C73 487.167 80.5 438.333 95.5 391C110.5 343.667 132.333 301.167 161 263.5C189.667 225.833 223.167 192.5 261.5 163.5C299.833 134.5 342.667 112 390 96C437.333 80 486.333 72 537 72C587.667 72 636.667 80 684 96C731.333 112 774.167 134.5 812.5 163.5C850.833 192.5 884.333 225.833 913 263.5C941.667 301.167 963.667 343.667 979 391C994.333 438.333 1002 487 1002 537ZM949 537C949 462.333 930.5 393.5 893.5 330.5C856.5 267.5 806.5 217.667 743.5 181C680.5 144.333 611.667 126 537 126C492.333 126 449 133 407 147C365 161 327.167 180.667 293.5 206C259.833 231.333 230.333 260.833 205 294.5C179.667 328.167 160 366 146 408C132 450 125 493 125 537C125 611.667 143.5 680.833 180.5 744.5C217.5 808.167 267.5 858.167 330.5 894.5C393.5 930.833 462.333 949 537 949C611.667 949 680.5 930.5 743.5 893.5C806.5 856.5 856.5 806.5 893.5 743.5C930.5 680.5 949 611.667 949 537ZM632 344C666 360 694.667 387 718 425C741.333 463 753 500.333 753 537C753 596.333 732 647.167 690 689.5C648 731.833 597.167 753 537.5 753C477.833 753 426.833 732 384.5 690C342.167 648 321 597 321 537C321 499.667 332.833 462.167 356.5 424.5C380.167 386.833 408.667 360 442 344V407C424 420.333 408.333 439.833 395 465.5C381.667 491.167 375 515.333 375 538C375 582 390.833 620.167 422.5 652.5C454.167 684.833 492.333 701 537 701C581.667 701 619.833 685 651.5 653C683.167 621 699 582.667 699 538C699 522.667 696 506.667 690 490C684 473.333 675.833 457.5 665.5 442.5C655.167 427.5 644 415.667 632 407V344ZM510 468V251H564V468H510Z" fill="black"/>
</svg>
