<svg viewBox="0 0 1233 1074.237" xmlns="http://www.w3.org/2000/svg"><path d="M929 578.237q0 95-36.5 181.5t-99 149q-62.5 62.5-148.5 99.5t-181 37q-76 0-147-24t-128.5-67q-57.5-43-100.5-100.5t-65.5-128.5q-22.5-71-22.5-146.5t22.5-146.5q22.5-71 65.5-127.5t100.5-100q57.5-43.5 128.5-67.5t147-24q76 0 147 24t128.5 67.5q57.5 43.5 100.5 100t66 127.5q23 71 23 146zm-53 0q0-112-55.5-206.5t-150-149.5q-94.5-55-206.5-55-67 0-130 21t-113.5 59q-50.5 38-88.5 88.5t-59 113.5q-21 63-21 129 0 112 55.5 207.5t150 150q94.5 54.5 206.5 54.5t206.5-55.5q94.5-55.5 150-150t55.5-206.5zm-317-193q51 24 86 81t35 112q0 89-63 152.5t-152.5 63.5q-89.5 0-153-63t-63.5-153q0-56 35.5-112.5t85.5-80.5v63q-27 20-47 58.5t-20 72.5q0 66 47.5 114.5t114.5 48.5q67 0 114.5-48t47.5-115q0-23-9-48t-24.5-47.5q-15.5-22.5-33.5-35.5v-63zm-122 124v-217h54v217h-54z"/></svg>