<svg viewBox="0 0 1177 1074.237" xmlns="http://www.w3.org/2000/svg"><path d="M724 823.237q-36-39-87-54-69-22-131-62l46-32q48 28 101 45 58 18 102 61l-31 42zm-673 38v54h454l-36 51H0v-105q0-36 39-78.5t104-62.5q53-17 101-45l46 31q-62 41-132 62-49 16-78 46t-29 47zm771-89h63l-208 297-148-102 30-44 104 73 159-224zm-608-371q0-98 52-163.5t132-65.5q52 0 94 30t65.5 82.5q23.5 52.5 23.5 116.5 0 62-23 121.5t-66 99q-43 39.5-94.5 39.5t-94.5-39.5q-43-39.5-66-99t-23-121.5zm52 0q0 48 17 96t48 80.5q31 32.5 66.5 32.5t66.5-32.5q31-32.5 48.5-80t17.5-96.5q0-77-37.5-127.5t-95-50.5q-57.5 0-94.5 50.5t-37 127.5z"/></svg>