<svg width="1075" height="1075" viewBox="0 0 1075 1075" fill="none" xmlns="http://www.w3.org/2000/svg">
<path d="M819 740C795 714 766 696 732 686C686 671.333 642.333 650.667 601 624L647 592C679 610.667 712.667 625.667 748 637C786.667 649 820.667 669.333 850 698L819 740ZM146 778V832H600L564 883H95V778C95 754 108 727.833 134 699.5C160 671.167 194.667 650.333 238 637C273.333 625.667 307 610.667 339 592L385 623C343.667 650.333 299.667 671 253 685C220.333 695.667 194.333 711 175 731C155.667 751 146 766.667 146 778ZM917 689H980L772 986L624 884L654 840L758 913L917 689ZM309 318C309 252.667 326.333 198.167 361 154.5C395.667 110.833 439.667 89 493 89C527.667 89 559 99 587 119C615 139 636.833 166.5 652.5 201.5C668.167 236.5 676 275.333 676 318C676 359.333 668.333 399.833 653 439.5C637.667 479.167 615.667 512.167 587 538.5C558.333 564.833 526.833 578 492.5 578C458.167 578 426.667 564.833 398 538.5C369.333 512.167 347.333 479.167 332 439.5C316.667 399.833 309 359.333 309 318ZM361 318C361 350 366.667 382 378 414C389.333 446 405.333 472.833 426 494.5C446.667 516.167 468.833 527 492.5 527C516.167 527 538.333 516.167 559 494.5C579.667 472.833 595.833 446.167 607.5 414.5C619.167 382.833 625 350.667 625 318C625 266.667 612.5 224.167 587.5 190.5C562.5 156.833 530.833 140 492.5 140C454.167 140 422.667 156.833 398 190.5C373.333 224.167 361 266.667 361 318Z" fill="black"/>
</svg>
