<svg width="1075" height="1075" viewBox="0 0 1075 1075" fill="none" xmlns="http://www.w3.org/2000/svg">
<path d="M793 689C836.333 702.333 870.833 723.167 896.5 751.5C922.167 779.833 935 806 935 830V935H140V830C140 806 153 779.833 179 751.5C205 723.167 239.667 702.333 283 689C318.333 677.667 352 662.667 384 644L430 675C388.667 702.333 344.667 723 298 737C264.667 747.667 238.5 763 219.5 783C200.5 803 191 818.667 191 830V885H884V830C884 818.667 874.5 803.167 855.5 783.5C836.5 763.833 810.333 748.667 777 738C730.333 723.333 686.667 702.667 646 676L692 644C724 662.667 757.667 677.667 793 689ZM354 370C354 304.667 371.333 250.167 406 206.5C440.667 162.833 484.667 141 538 141C572.667 141 604 151 632 171C660 191 681.833 218.5 697.5 253.5C713.167 288.5 721 327.333 721 370C721 411.333 713.333 451.833 698 491.5C682.667 531.167 660.667 564.167 632 590.5C603.333 616.833 571.833 630 537.5 630C503.167 630 471.667 616.833 443 590.5C414.333 564.167 392.333 531.167 377 491.5C361.667 451.833 354 411.333 354 370ZM406 370C406 402 411.667 434 423 466C434.333 498 450.333 524.833 471 546.5C491.667 568.167 513.833 579 537.5 579C561.167 579 583.333 568.167 604 546.5C624.667 524.833 640.833 498.167 652.5 466.5C664.167 434.833 670 402.667 670 370C670 318.667 657.5 276.167 632.5 242.5C607.5 208.833 575.833 192 537.5 192C499.167 192 467.667 208.833 443 242.5C418.333 276.167 406 318.667 406 370Z" fill="black"/>
</svg>
