<svg width="1075" height="1075" viewBox="0 0 1075 1075" fill="none" xmlns="http://www.w3.org/2000/svg">
<path d="M893 165C917 165 937.833 173.5 955.5 190.5C973.167 207.5 982 228.333 982 253V823C982 847 973.5 867.667 956.5 885C939.5 902.333 918.333 911 893 911H182C158 911 137.333 902.333 120 885C102.667 867.667 94 847 94 823V253C94 229 102.5 208.333 119.5 191C136.5 173.667 157.333 165 182 165H893ZM936 823V253C936 241.667 931.833 232 923.5 224C915.167 216 905 212 893 212H182C170.667 212 160.833 216 152.5 224C144.167 232 140 241.667 140 253V823C140 830.333 141.833 837.167 145.5 843.5C149.167 849.833 154.333 854.833 161 858.5C167.667 862.167 174.667 864 182 864H893C904.333 864 914.333 860 923 852C931.667 844 936 834.333 936 823ZM683 413C717.667 413 747.167 425.167 771.5 449.5C795.833 473.833 808 503.333 808 538C808 572.667 795.833 602.167 771.5 626.5C747.167 650.833 717.667 663 683 663C645 662.333 613.333 647.667 588 619L538 570L488 619C484.667 622.333 480.333 626.333 475 631C469.667 635.667 458.667 642.167 442 650.5C425.333 658.833 409 663 393 663C374.333 663 355.5 658.333 336.5 649C317.5 639.667 301.333 625 288 605C274.667 585 268 562.667 268 538C268 503.333 280.167 473.667 304.5 449C328.833 424.333 358.333 412 393 412C429.667 412 459.667 425.333 483 452L538 505L591 453C615.667 427 646.333 413.667 683 413ZM456 585L504 538L451 486C435 469.333 415.667 460.333 393 459H392C370.667 459 352.333 466.667 337 482C321.667 497.333 314 515.667 314 537V538C314 548.667 316.167 559 320.5 569C324.833 579 330.5 587.333 337.5 594C344.5 600.667 352.833 606 362.5 610C372.167 614 382.333 616 393 616C402.333 616 412.333 613.333 423 608C433.667 602.667 441.667 597.667 447 593L456 585ZM683 616H684C705.333 616 723.667 608.333 739 593C754.333 577.667 762 559.333 762 538C762 516 754.333 497.5 739 482.5C723.667 467.5 705.333 460 684 460C660.667 461.333 640.667 470.333 624 487L572 538L622 587C638 605 658.333 614.667 683 616Z" fill="black"/>
</svg>
