<svg width="1075" height="1075" viewBox="0 0 1075 1075" fill="none" xmlns="http://www.w3.org/2000/svg">
<path d="M460 718H145C119.667 718 98.8333 709.5 82.5 692.5C66.1667 675.5 58 654.333 58 629V194C58 168.667 66.1667 147.167 82.5 129.5C98.8333 111.833 119.667 103 145 103H855C880.333 103 900.833 111.833 916.5 129.5C932.167 147.167 940 168.667 940 194V451H889V194C889 183.333 885.667 174.667 879 168C872.333 161.333 864.333 158 855 158H145C134.333 158 126 161.333 120 168C114 174.667 111 183.333 111 194V629C111 638.333 114 646.833 120 654.5C126 662.167 134.333 666 145 666H460V718ZM894 765L855 724L918 667H554V615H917L855 559L894 518L1017 642L894 765ZM665 973L541 849L665 726L703 766L639 824H1004V876H641L703 932L665 973Z" fill="black"/>
</svg>
