<svg viewBox="0 0 1178 1074.237" xmlns="http://www.w3.org/2000/svg"><path d="M195 684.237h-1q-39 0-66.5-27.5t-27.5-66.5q0-39 27.5-66.5t66.5-27.5q39 0 67 27.5t28 66.5q0 35-23 61h90q-22-26-22-61 0-39 27.5-67t66.5-28q39 0 67 28t28 67q0 39-28 66.5t-67 27.5H195zm233-33q17 0 31-8t22-22q8-14 8-31 0-25-18-43t-43-18q-25 0-43 18t-18 43q0 25 18 43t43 18zm-190-104q-18-18-43.5-18t-43 18q-17.5 18-17.5 43t17.5 43q17.5 18 43 18t43.5-18q18-18 18-43t-18-43zm514-190h65v466h-65l-141-140v101q0 33-22.5 55.5t-54.5 22.5H78q-32 0-55-22.5t-23-55.5v-467h611v180l141-140zm-185 427v-422H45v422q0 14 9.5 24t23.5 10h456q13 0 23-10t10-24zm205-5v-378h-2l-154 155v68l154 155h2z"/></svg>