<svg width="1075" height="1075" viewBox="0 0 1075 1075" fill="none" xmlns="http://www.w3.org/2000/svg">
<path d="M324 632H323C297 632 274.833 622.833 256.5 604.5C238.167 586.167 229 564 229 538C229 512 238.167 489.833 256.5 471.5C274.833 453.167 297 444 323 444C349 444 371.333 453.167 390 471.5C408.667 489.833 418 512 418 538C418 561.333 410.333 581.667 395 599H485C470.333 581.667 463 561.333 463 538C463 512 472.167 489.667 490.5 471C508.833 452.333 531 443 557 443C583 443 605.333 452.333 624 471C642.667 489.667 652 512 652 538C652 564 642.667 586.167 624 604.5C605.333 622.833 583 632 557 632H324ZM557 599C568.333 599 578.667 596.333 588 591C597.333 585.667 604.667 578.333 610 569C615.333 559.667 618 549.333 618 538C618 521.333 612 507 600 495C588 483 573.667 477 557 477C540.333 477 526 483 514 495C502 507 496 521.333 496 538C496 554.667 502 569 514 581C526 593 540.333 599 557 599ZM367 495C355 483 340.5 477 323.5 477C306.5 477 292.167 483 280.5 495C268.833 507 263 521.333 263 538C263 554.667 268.833 569 280.5 581C292.167 593 306.5 599 323.5 599C340.5 599 355 593 367 581C379 569 385 554.667 385 538C385 521.333 379 507 367 495ZM881 305H946V771H881L740 631V732C740 754 732.5 772.5 717.5 787.5C702.5 802.5 684.333 810 663 810H207C185.667 810 167.333 802.5 152 787.5C136.667 772.5 129 754 129 732V265H740V445L881 305ZM696 732V310H174V732C174 741.333 177.167 749.333 183.5 756C189.833 762.667 197.667 766 207 766H663C671.667 766 679.333 762.667 686 756C692.667 749.333 696 741.333 696 732ZM901 727V349H899L745 504V572L899 727H901Z" fill="black"/>
</svg>
