<svg width="1075" height="1075" viewBox="0 0 1075 1075" fill="none" xmlns="http://www.w3.org/2000/svg">
<path d="M633 76C741.667 98 831.667 152.333 903 239C974.333 325.667 1010 426 1010 540C1010 591.333 1002 640.833 986 688.5C970 736.167 947.5 779.333 918.5 818C889.5 856.667 855.667 890.5 817 919.5C778.333 948.5 735 971 687 987C639 1003 589.333 1011 538 1011C474 1011 412.833 998.5 354.5 973.5C296.167 948.5 246 915 204 873C162 831 128.5 780.833 103.5 722.5C78.5 664.167 66 603.333 66 540C66 455.333 87 376.833 129 304.5C171 232.167 227.333 175 298 133H133V65H423V355H356V178C288.667 212 234.667 261.333 194 326C153.333 390.667 133 462 133 540C133 613.333 151.167 681 187.5 743C223.833 805 273 854.167 335 890.5C397 926.833 464.833 945 538.5 945C612.167 945 680 926.833 742 890.5C804 854.167 853.167 805 889.5 743C925.833 681 944 613.333 944 540C944 445.333 914.667 361.333 856 288C797.333 214.667 723 167 633 145V76Z" fill="black"/>
</svg>
