<svg viewBox="0 0 1032 1074.237" xmlns="http://www.w3.org/2000/svg"><path d="M252 909.237q-28 0-52.5-10.5t-43-29q-18.5-18.5-29-43t-10.5-52.5q0-28 10.5-52.5t29-43q18.5-18.5 43-29t52.5-10.5q28 0 52.5 10.5t43 29q18.5 18.5 29 43t10.5 52.5q0 28-10.5 52.5t-29 43q-18.5 18.5-43 29t-52.5 10.5zm0-216q-34 0-57.5 23.5t-23.5 57.5q0 34 23.5 57.5t57.5 23.5q34 0 57.5-23.5t23.5-57.5q0-34-23.5-57.5t-57.5-23.5zm-90-432q8 0 13 5t5 13v36q0 8-5 13t-13 5h-36q-8 0-13-5t-5-13v-36q0-8 5-13t13-5h36zm108 0q8 0 13 5t5 13v36q0 8-5 13t-13 5h-36q-8 0-13-5t-5-13v-36q0-8 5-13t13-5h36zm108 0q8 0 13 5t5 13v36q0 8-5 13t-13 5h-36q-8 0-13-5t-5-13v-36q0-8 5-13t13-5h36zm-216 108q8 0 13 5t5 13v36q0 8-5 13t-13 5h-36q-8 0-13-5t-5-13v-36q0-8 5-13t13-5h36zm108 0q8 0 13 5t5 13v36q0 8-5 13t-13 5h-36q-8 0-13-5t-5-13v-36q0-8 5-13t13-5h36zm108 0q8 0 13 5t5 13v36q0 8-5 13t-13 5h-36q-8 0-13-5t-5-13v-36q0-8 5-13t13-5h36zm-216 108q8 0 13 5t5 13v36q0 8-5 13t-13 5h-36q-8 0-13-5t-5-13v-36q0-8 5-13t13-5h36zm108 0q8 0 13 5t5 13v36q0 8-5 13t-13 5h-36q-8 0-13-5t-5-13v-36q0-8 5-13t13-5h36zm108 0q8 0 13 5t5 13v36q0 8-5 13t-13 5h-36q-8 0-13-5t-5-13v-36q0-8 5-13t13-5h36zm-306-324q-8 0-13 5t-5 13v792q0 8 5 13t13 5h360q8 0 13-5t5-13v-792q0-8-5-13t-13-5H72zm0 882q-30 0-51-21t-21-51v-792q0-30 21-51t51-21h360q30 0 51 21t21 51v792q0 30-21 51t-51 21H72z"/></svg>