<svg viewBox="0 0 1265 1074.237" xmlns="http://www.w3.org/2000/svg"><path d="M391 710.237l-36-36 95-95-96-95 36-36 96 95 94-96 37 36-95 96 96 94-38 37-94-95-95 95zm-340-131q0 57 32.5 121.5t77.5 98.5l-36 37q-52-40-88.5-115.5T0 578.237q0-88 43.5-162.5t118.5-119q75-44.5 163-45.5h323q26 0 51 4l-80-80 36-36 140 141-140 139-36-36 75-76q-23-3-46-3H325q-114 0-194 80.5t-80 193.5v1zm802-254q49 40 84.5 114.5t35.5 138.5q0 88-43.5 163.5T811 861.237q-75 44-163 46H325q-21 0-44-4l80 81-36 35-140-140 140-139 36 36-76 75q20 3 40 4h323q114 0 194.5-81t80.5-195q0-56-31.5-119.5t-75.5-98.5l37-36z"/></svg>