<svg width="1075" height="1075" viewBox="0 0 1075 1075" fill="none" xmlns="http://www.w3.org/2000/svg">
<path d="M442 669L406 633L501 538L405 443L441 407L537 502L631 406L668 442L573 538L669 632L631 669L537 574L442 669ZM102 538C102 576 112.833 616.5 134.5 659.5C156.167 702.5 182 735.333 212 758L176 795C141.333 768.333 111.833 729.833 87.5 679.5C63.1667 629.167 51 581.667 51 537C51 478.333 65.5 424.167 94.5 374.5C123.5 324.833 163 285.167 213 255.5C263 225.833 317.333 210.667 376 210H699C716.333 210 733.333 211.333 750 214L670 134L706 98L846 239L706 378L670 342L745 266C729.667 264 714.333 263 699 263H376C300 263 235.333 289.833 182 343.5C128.667 397.167 102 461.667 102 537V538ZM904 284C936.667 310.667 964.833 348.833 988.5 398.5C1012.17 448.167 1024 494.333 1024 537C1024 595.667 1009.5 650.167 980.5 700.5C951.5 750.833 912 790.667 862 820C812 849.333 757.667 864.667 699 866H376C362 866 347.333 864.667 332 862L412 943L376 978L236 838L376 699L412 735L336 810C349.333 812 362.667 813.333 376 814H699C775 814 839.833 787 893.5 733C947.167 679 974 614 974 538C974 500.667 963.5 460.833 942.5 418.5C921.5 376.167 896.333 343.333 867 320L904 284Z" fill="black"/>
</svg>
