<svg viewBox="0 0 1265 1074.237" xmlns="http://www.w3.org/2000/svg"><path d="M459 419.237h56l133 321h-68l-32-86H425l-33 86h-65l132-321zm-13 186h83l-41-110-42 110zm-395-26q0 57 32.5 121.5t77.5 98.5l-36 37q-52-40-88.5-115.5T0 579.237q0-89 43.5-163.5t118.5-119q75-44.5 163-45.5h323q26 0 51 4l-80-80 36-36 140 141-140 139-36-36 75-76q-23-3-46-3H325q-114 0-194 80.5t-80 194.5zm802-254q49 40 84.5 114.5t35.5 138.5q0 88-43.5 163.5T811 861.237q-75 44-163 46H325q-21 0-44-4l80 81-36 35-140-140 140-139 36 36-76 77q19 2 40 2h324q113-1 193.5-82t80.5-194q0-56-31-119t-75-99l36-36z"/></svg>