<svg width="1075" height="1075" viewBox="0 0 1075 1075" fill="none" xmlns="http://www.w3.org/2000/svg">
<path d="M581 699H519V439L454 471L435 430L539 378H581V699ZM102 538C102 576 112.833 616.5 134.5 659.5C156.167 702.5 182 735.333 212 758L176 795C141.333 768.333 111.833 729.833 87.5 679.5C63.1667 629.167 51 581.667 51 537C51 478.333 65.5 424.167 94.5 374.5C123.5 324.833 163 285 213 255C263 225 317.333 210 376 210H699C716.333 210 733.333 211.333 750 214L670 134L706 98L846 239L706 378L670 342L745 266C730.333 264 715 263 699 263H376C300 263 235.333 289.833 182 343.5C128.667 397.167 102 462 102 538ZM904 284C925.333 301.333 945.333 324.5 964 353.5C982.667 382.5 997.333 413.333 1008 446C1018.67 478.667 1024 509 1024 537C1024 595.667 1009.5 650 980.5 700C951.5 750 912 789.833 862 819.5C812 849.167 757.667 864 699 864H376C362 864 347.333 863.333 332 862L412 943L376 978L236 838L376 699L412 735L336 810C349.333 812 362.667 813.333 376 814H699C775 813.333 839.667 786 893 732C946.333 678 973 613.333 973 538C973 500.667 962.667 461 942 419C921.333 377 896.333 344 867 320L904 284Z" fill="black"/>
</svg>
