<svg width="1075" height="1075" viewBox="0 0 1075 1075" fill="none" xmlns="http://www.w3.org/2000/svg">
<path d="M510 378H566L699 699H631L599 613H476L443 699H378L510 378ZM497 564H580L539 454L497 564ZM102 538C102 576 112.833 616.5 134.5 659.5C156.167 702.5 182 735.333 212 758L176 795C141.333 768.333 111.833 729.833 87.5 679.5C63.1667 629.167 51 582 51 538C51 478.667 65.5 424.167 94.5 374.5C123.5 324.833 163 285.167 213 255.5C263 225.833 317.333 210.667 376 210H699C716.333 210 733.333 211.333 750 214L670 134L706 98L846 239L706 378L670 342L745 266C729.667 264 714.333 263 699 263H376C300 263 235.333 289.833 182 343.5C128.667 397.167 102 462 102 538ZM904 284C936.667 310.667 964.833 348.833 988.5 398.5C1012.17 448.167 1024 494.333 1024 537C1024 595.667 1009.5 650.167 980.5 700.5C951.5 750.833 912 790.667 862 820C812 849.333 757.667 864.667 699 866H376C362 866 347.333 864.667 332 862L412 943L376 978L236 838L376 699L412 735L336 812C348.667 813.333 362 814 376 814H700C775.333 813.333 839.833 786 893.5 732C947.167 678 974 613.333 974 538C974 500.667 963.667 461 943 419C922.333 377 897.333 344 868 320L904 284Z" fill="black"/>
</svg>
