<svg viewBox="0 0 1265 1074.237" xmlns="http://www.w3.org/2000/svg"><path d="M530 740.237h-62v-260l-65 32-19-41 104-52h42v321zm-479-161q0 57 32.5 121.5t77.5 98.5l-36 37q-52-40-88.5-115.5T0 578.237q0-88 43.5-162.5t118.5-119.5q75-45 163-45h323q26 0 51 4l-80-80 36-36 140 141-140 139-36-36 75-76q-22-3-46-3H325q-114 0-194 80.5t-80 194.5zm802-254q32 26 60 69.5t44 92.5q16 49 16 91 0 88-43.5 163T811 860.737q-75 44.5-163 44.5H325q-21 0-44-2l80 81-36 35-140-140 140-139 36 36-76 75q20 3 40 4h323q114-1 194-82t80-194q0-56-31-119t-75-99l37-36z"/></svg>