<svg width="1075" height="1075" viewBox="0 0 1075 1075" fill="none" xmlns="http://www.w3.org/2000/svg">
<path d="M538 987C476 987 417.667 975.167 363 951.5C308.333 927.833 260.667 895.667 220 855C179.333 814.333 147.167 766.667 123.5 712C99.8333 657.333 88 599 88 537C88 500.333 92.5 464.333 101.5 429C110.5 393.667 123.167 360.167 139.5 328.5C155.833 296.833 175.833 267.5 199.5 240.5C223.167 213.5 250 189.333 280 168H151C143.667 168 137.333 165.333 132 160C126.667 154.667 124 148.333 124 141C124 133.667 126.667 127.333 132 122C137.333 116.667 143.667 114 151 114H340C350 114 358.5 117.5 365.5 124.5C372.5 131.5 376 140 376 150V339C376 346.333 373.333 352.667 368 358C362.667 363.333 356.333 366 349 366C341.667 366 335.333 363.333 330 358C324.667 352.667 322 346.333 322 339V205C294 223 269 244.167 247 268.5C225 292.833 206.167 319.333 190.5 348C174.833 376.667 162.833 407 154.5 439C146.167 471 142 503.667 142 537C142 591.667 152.333 643 173 691C193.667 739 222 781 258 817C294 853 336 881.333 384 902C432 922.667 483.333 933 538 933C592 933 643 922.5 691 901.5C739 880.5 781 852 817 816C853 780 881.5 738 902.5 690C923.5 642 934 591 934 537C934 485 924.5 435.667 905.5 389C886.5 342.333 860.167 301.333 826.5 266C792.833 230.667 753.5 202 708.5 180C663.5 158 615 145.333 563 142C555.667 141.333 549.667 138.5 545 133.5C540.333 128.5 538 122.333 538 115C538 107 540.667 100.5 546 95.5C551.333 90.5 557.667 88 565 88C624.333 88 679.667 100.667 731 126C782.333 151.333 827 185 865 227C903 269 933 317 955 371C977 425 988 480.333 988 537C988 598.333 976 656.167 952 710.5C928 764.833 895.5 812.5 854.5 853.5C813.5 894.5 765.667 927 711 951C656.333 975 598.667 987 538 987ZM461 718C453 718 445 716 437 712C429.667 707.333 423.667 701.333 419 694C414.333 686.667 412 678.333 412 669V404C412 390.667 416.833 379.333 426.5 370C436.167 360.667 447.667 356 461 356C471 356 479.667 358.333 487 363L694 496C709.333 506 717 519.667 717 537C717 554.333 709.333 568 694 578L487 710C478.333 715.333 469.667 718 461 718ZM466 414V659L658 537L466 414Z" fill="black"/>
</svg>
