<svg viewBox="0 0 1230 1074.237" xmlns="http://www.w3.org/2000/svg"><path d="M450 1017.237q-93 0-175-35.5t-143-96.5q-61-61-96.5-143t-35.5-175q0-55 13.5-108t38-100.5q24.5-47.5 60-88t80.5-72.5H63q-11 0-19-8t-8-19q0-11 8-19t19-8h189q15 0 25.5 10.5t10.5 25.5v189q0 11-8 19t-19 8q-11 0-19-8t-8-19v-134q-42 27-75 63.5t-56.5 79.5q-23.5 43-36 91t-12.5 98q0 82 31 154t85 126q54 54 126 85t154 31q81 0 153-31.5t126-85.5q54-54 85.5-126t31.5-153q0-78-28.5-148t-79-123q-50.5-53-118-86t-145.5-38q-11-1-18-8.5t-7-18.5q0-12 8-19.5t19-7.5q89 0 166 38t134 101q57 63 90 144t33 166q0 92-36 173.5t-97.5 143q-61.5 61.5-143.5 97.5t-173 36zm-77-269q-12 0-24-6-11-7-18-18t-7-25v-265q0-20 14.5-34t34.5-14q15 0 26 7l207 133q23 15 23 41t-23 41l-207 132q-13 8-26 8zm5-304v245l192-122-192-123z"/></svg>