<svg viewBox="0 0 1249 1074.237" xmlns="http://www.w3.org/2000/svg"><path d="M886 343.237v-135h55v243H697v-55h156q-46-100-157.5-171t-222.5-71q-85 0-162.5 33.5t-133 89q-55.5 55.5-89 133T55 572.237q0 114 56 210.5t152.5 152q96.5 55.5 209.5 55.5 134 0 253-91.5t152-222.5h55q-22 100-92 185t-168 134.5q-98 49.5-201 49.5-96 0-183-37.5t-150.5-100.5q-63.5-63-101-151t-37.5-184q0-96 37.5-183.5t101-151q63.5-63.5 150.5-100.5t183-37q116 0 237 71t177 172zm-413 129q41 0 70.5 29.5t30 71q.5 41.5-29 71t-71.5 29.5q-42 0-71.5-29.5t-29.5-71q0-41.5 29.5-71t71.5-29.5z"/></svg>