<svg width="1075" height="1075" viewBox="0 0 1075 1075" fill="none" xmlns="http://www.w3.org/2000/svg">
<path d="M953 308V173H1008V416H764V361H920C889.333 294.333 836.833 237.333 762.5 190C688.167 142.667 614 119 540 119C483.333 119 429.167 130.167 377.5 152.5C325.833 174.833 281.5 204.5 244.5 241.5C207.5 278.5 177.833 322.833 155.5 374.5C133.167 426.167 122 480.333 122 537C122 613 140.667 683.167 178 747.5C215.333 811.833 266.167 862.5 330.5 899.5C394.833 936.5 464.667 955 540 955C629.333 955 713.667 924.5 793 863.5C872.333 802.5 923 728.333 945 641H1000C985.333 707.667 954.667 769.333 908 826C861.333 882.667 805.333 927.5 740 960.5C674.667 993.5 607.667 1010 539 1010C475 1010 414 997.5 356 972.5C298 947.5 247.833 914 205.5 872C163.167 830 129.5 779.667 104.5 721C79.5 662.333 67 601 67 537C67 473 79.5 411.833 104.5 353.5C129.5 295.167 163.167 244.833 205.5 202.5C247.833 160.167 298 126.667 356 102C414 77.3333 475 65 539 65C616.333 65 695.333 88.6667 776 136C856.667 183.333 915.667 240.667 953 308ZM540 437C567.333 437 590.833 446.833 610.5 466.5C630.167 486.167 640.167 509.833 640.5 537.5C640.833 565.167 631.167 588.833 611.5 608.5C591.833 628.167 568 638 540 638C512 638 488.167 628.167 468.5 608.5C448.833 588.833 439 565.167 439 537.5C439 509.833 448.833 486.167 468.5 466.5C488.167 446.833 512 437 540 437Z" fill="black"/>
</svg>
