<svg width="1075" height="1075" viewBox="0 0 1075 1075" fill="none" xmlns="http://www.w3.org/2000/svg">
<path d="M962 552C981.333 552 998.167 559 1012.5 573C1026.83 587 1034 604.333 1034 625V839C1034 852.333 1030.83 864.333 1024.5 875C1018.17 885.667 1009.33 894.167 998 900.5C986.667 906.833 974.667 910 962 910H114C94.6667 910 77.8333 903 63.5 889C49.1667 875 42 858.333 42 839V625C42 604.333 49 587 63 573C77 559 94 552 114 552H660V356C654.667 352.667 650 348.333 646 343C641.333 335 639 327 639 319C639 311 641 303.667 645 297C649 290.333 654.5 285 661.5 281C668.5 277 675.667 275 683 275C695 275 705.167 279.333 713.5 288C721.833 296.667 726 307 726 319C726 323.667 725.167 328.333 723.5 333C721.833 337.667 719.5 342 716.5 346C713.5 350 710 353.333 706 356V552H962ZM988 839V625C988 617.667 985.5 611.667 980.5 607C975.5 602.333 969.333 600 962 600H114C106.667 600 100.667 602.333 96 607C91.3333 611.667 89 617.667 89 625V839C89 846.333 91.3333 852.333 96 857C100.667 861.667 106.667 864 114 864H962C969.333 864 975.5 861.667 980.5 857C985.5 852.333 988 846.333 988 839ZM332 708V707C338 707 343.5 709.333 348.5 714C353.5 718.667 356 724.333 356 731C356 737.667 353.5 743.167 348.5 747.5C343.5 751.833 338 754 332 754H172C166.667 753.333 161.833 751 157.5 747C153.167 743 151 738.333 151 733V731C151 725.667 152.833 720.667 156.5 716C160.167 711.333 165.333 708.667 172 708H332ZM536 444L499 473C483.667 455 470.667 430.833 460 400.5C449.333 370.167 444 343.167 444 319.5C444 295.833 449.333 268.833 460 238.5C470.667 208.167 483.667 183.667 499 165L536 194C523.333 208.667 512.833 228.333 504.5 253C496.167 277.667 492 299.667 492 319C492 338.333 496.167 360.333 504.5 385C512.833 409.667 523.333 429.333 536 444ZM616 380L579 408C573.667 400.667 568.5 391.833 563.5 381.5C558.5 371.167 554.667 360.333 552 349C549.333 337.667 548 327.667 548 319C548 305.667 551 290.167 557 272.5C563 254.833 570.333 240.333 579 229L616 259C602 276.333 595 296.5 595 319.5C595 342.5 602 362.667 616 380ZM830 444C838 434 845.333 421.667 852 407C858.667 392.333 864 377.333 868 362C872 346.667 874 332.667 874 320C874 300.667 869.833 278.5 861.5 253.5C853.167 228.5 843 208.667 831 194L866 165C880.667 183.667 893.5 208 904.5 238C915.5 268 921 295 921 319C921 343 915.667 370.167 905 400.5C894.333 430.833 881.333 455 866 473L830 444ZM750 380C764 362.667 771 342.667 771 320C771 297.333 764 277.333 750 260L786 230C791.333 237.333 796.5 246.167 801.5 256.5C806.5 266.833 810.167 277.667 812.5 289C814.833 300.333 816 310.667 816 320C816 334 813.167 349.5 807.5 366.5C801.833 383.5 794.667 397.667 786 409L750 380Z" fill="black"/>
</svg>
