<svg viewBox="0 0 1275 1074.237" xmlns="http://www.w3.org/2000/svg"><path d="M920 561.237q29 0 50.5 21t21.5 52v214q0 20-9.5 36t-26.5 25.5q-17 9.5-36 9.5H72q-29 0-50.5-21t-21.5-50v-214q0-31 21-52t51-21h546v-196q-8-5-14-13-7-12-7-24t6-22q6-10 16.5-16t21.5-6q18 0 30.5 13t12.5 31q0 7-2.5 14t-7 13q-4.5 6-10.5 10v196h256zm26 287v-214q0-11-7.5-18t-18.5-7H72q-11 0-18 7t-7 18v214q0 11 7 18t18 7h848q11 0 18.5-7t7.5-18zm-656-131v-1q9 0 16.5 7t7.5 17q0 10-7.5 16.5t-16.5 6.5H130q-8-1-14.5-7t-6.5-14v-2q0-8 5.5-15t15.5-8h160zm204-264l-37 29q-23-27-39-72.5t-16-81q0-35.5 16-81t39-73.5l37 29q-19 22-31.5 59t-12.5 66q0 29 12.5 66t31.5 59zm80-64l-37 28q-8-11-15.5-26.5t-11.5-32.5q-4-17-4-30 0-20 9-46.5t22-43.5l37 30q-21 26-21 60.5t21 60.5zm214 64q12-15 22-37t16-45q6-23 6-42 0-29-12.5-66.5t-30.5-59.5l35-29q22 28 38.5 73t16.5 81q0 36-16 81.5t-39 72.5l-36-29zm-80-64q21-26 21-60t-21-60l36-30q8 11 15.5 26.5t11 32.5q3.5 17 3.5 31 0 21-8.5 46.5t-21.5 42.5l-36-29z"/></svg>