<svg width="1075" height="1075" viewBox="0 0 1075 1075" fill="none" xmlns="http://www.w3.org/2000/svg">
<path d="M446 424C454.667 424 462.167 427.167 468.5 433.5C474.833 439.833 478 447.333 478 456C478 460.667 477.167 465 475.5 469C473.833 473 471.5 476.333 468.5 479C465.5 481.667 462 483.833 458 485.5C454 487.167 450 488 446 488C436.667 488 428.833 485 422.5 479C416.167 473 413 465.333 413 456C413 450 414.5 444.667 417.5 440C420.5 435.333 424.5 431.5 429.5 428.5C434.5 425.5 440 424 446 424ZM446 546C454.667 546 462.167 549.167 468.5 555.5C474.833 561.833 478 569.333 478 578C478 587.333 474.833 595.167 468.5 601.5C462.167 607.833 454.5 611 445.5 611C436.5 611 428.833 607.833 422.5 601.5C416.167 595.167 413 587.5 413 578.5C413 569.5 416.167 561.833 422.5 555.5C428.833 549.167 436.667 546 446 546ZM446 660C454.667 660 462.167 663.167 468.5 669.5C474.833 675.833 478 683.5 478 692.5C478 701.5 474.833 709.167 468.5 715.5C462.167 721.833 454.5 725 445.5 725C436.5 725 428.833 721.833 422.5 715.5C416.167 709.167 413 701.5 413 692.5C413 683.5 416.167 675.833 422.5 669.5C428.833 663.167 436.667 660 446 660ZM332 546C340.667 546.667 347.833 550 353.5 556C359.167 562 362 569.333 362 578C362 586.667 359.167 594.167 353.5 600.5C347.833 606.833 340.667 610 332 610C331.333 610.667 330.667 611 330 611C321.333 611 313.833 607.833 307.5 601.5C301.167 595.167 298 587.333 298 578C298 572 299.333 566.667 302 562C304.667 557.333 308.5 553.5 313.5 550.5C318.5 547.5 324 546 330 546H332ZM364 692V693C364 701.667 360.833 709.167 354.5 715.5C348.167 721.833 340.333 725 331 725C322.333 724.333 315 721 309 715C303 709 299.667 701.667 299 693C299 683.667 302.333 675.833 309 669.5C315.667 663.167 323.333 660 332 660C340.667 660 348.167 663.167 354.5 669.5C360.833 675.833 364 683.333 364 692ZM536 456C536 447.333 539.167 439.833 545.5 433.5C551.833 427.167 559.333 424 568 424C577.333 424 585.167 427.167 591.5 433.5C597.833 439.833 601 447.5 601 456.5C601 465.5 597.833 473.167 591.5 479.5C585.167 485.833 577.5 489 568.5 489C559.5 489 551.833 485.833 545.5 479.5C539.167 473.167 536 465.333 536 456ZM667 479C661 472.333 658 464.667 658 456C658 447.333 661.167 439.833 667.5 433.5C673.833 427.167 681.5 424 690.5 424C699.5 424 707.167 427.167 713.5 433.5C719.833 439.833 723 447.333 723 456C723 464.667 719.833 472.167 713.5 478.5C707.167 484.833 699.5 488 690.5 488C681.5 488 673.667 485 667 479ZM716 546C770 546 816.167 565.167 854.5 603.5C892.833 641.833 912 688 912 742C912 796 892.833 842.167 854.5 880.5C816.167 918.833 770 938 716 938C668 938 626 922.333 590 891H244C222 891 203 883.167 187 867.5C171 851.833 163 833 163 811V206H283V137H329V206H706V137H752V206H865V537C850.333 526.333 835 517.333 819 510V252H209V811C209 820.333 212.333 828.333 219 835C225.667 841.667 234 845 244 845H550C530 813.667 520 779.333 520 742C520 688 539.167 641.833 577.5 603.5C615.833 565.167 662 546 716 546ZM610 848C639.333 877.333 674.667 892 716 892C757.333 892 792.667 877.333 822 848C851.333 818.667 866 783.333 866 742C866 700.667 851.333 665.333 822 636C792.667 606.667 757.333 592 716 592C674.667 592 639.333 606.667 610 636C580.667 665.333 566 700.667 566 742C566 783.333 580.667 818.667 610 848ZM726 631V732H817V767H692V631H726Z" fill="black"/>
</svg>
