<svg viewBox="0 0 1144 1074.237" xmlns="http://www.w3.org/2000/svg"><path d="M283 488.237q13 0 22.5 9.5t9.5 22.5q0 7-2.5 13t-7 10q-4.5 4-10.5 6.5t-12 2.5q-14 0-23.5-9t-9.5-23q0-9 4.5-16t12-11.5q7.5-4.5 16.5-4.5zm0 122q13 0 22.5 9.5t9.5 22.5q0 14-9.5 23.5t-23 9.5q-13.5 0-23-9.5t-9.5-23q0-13.5 9.5-23t23.5-9.5zm0 114q13 0 22.5 9.5t9.5 23q0 13.5-9.5 23t-23 9.5q-13.5 0-23-9.5t-9.5-23q0-13.5 9.5-23t23.5-9.5zm-114-114q13 1 21.5 10t8.5 22q0 13-8.5 22.5t-21.5 9.5q-1 1-2 1-13 0-22.5-9.5t-9.5-23.5q0-9 4-16t11.5-11.5q7.5-4.5 16.5-4.5h2zm32 146v1q0 13-9.5 22.5t-23.5 9.5q-13-1-22-10t-10-22q0-14 10-23.5t23-9.5q13 0 22.5 9.5t9.5 22.5zm172-236q0-13 9.5-22.5t22.5-9.5q14 0 23.5 9.5t9.5 23q0 13.5-9.5 23t-23 9.5q-13.5 0-23-9.5t-9.5-23.5zm131 23q-9-10-9-23t9.5-22.5q9.5-9.5 23-9.5t23 9.5q9.5 9.5 9.5 22.5t-9.5 22.5q-9.5 9.5-23 9.5t-23.5-9zm49 67q81 0 138.5 57.5t57.5 138.5q0 81-57.5 138.5t-138.5 57.5q-72 0-126-47H81q-33 0-57-23.5t-24-56.5v-605h120v-69h46v69h377v-69h46v69h113v331q-22-16-46-27v-258H46v559q0 14 10 24t25 10h306q-30-47-30-103 0-81 57.5-138.5t138.5-57.5zm-106 302q44 44 106 44t106-44q44-44 44-106t-44-106q-44-44-106-44t-106 44q-44 44-44 106t44 106zm116-217v101h91v35H529v-136h34z"/></svg>