<svg viewBox="0 0 1245 1074.237" xmlns="http://www.w3.org/2000/svg"><path d="M547 379.237q57 22 96.5 81t39.5 119q0 59-29 109t-79 79q-50 29-109 29-89 0-152.5-63.5t-63.5-153.5q0-23 7-48.5t19.5-48.5q12.5-23 29-43t37.5-35q21-15 44-25v60q-16 8-33.5 25.5t-27.5 33.5q-21 39-21 81 0 67 47.5 114.5t114 47.5q66.5 0 114-47.5t47.5-114.5q0-39-23.5-80t-57.5-60v-60zm-54 40v92h-53v-189h53v97zm345-245q39 0 66.5 28t27.5 67v593q0 39-27.5 67t-66.5 28H94q-39 0-66.5-27.5T0 862.237v-593q0-39 28-67t66-28h744zm40 688v-593q0-11-5.5-20.5t-15.5-14.5q-10-5-19-5H94q-7 0-14.5 3t-13 8q-5.5 5-9 13t-3.5 16v593q0 17 12.5 28.5t27.5 11.5h744q17 0 28.5-11.5t11.5-28.5z"/></svg>