<svg width="1075" height="1075" viewBox="0 0 1075 1075" fill="none" xmlns="http://www.w3.org/2000/svg">
<path d="M619 351C657 365.667 689.167 392.667 715.5 432C741.833 471.333 755 511 755 551C755 590.333 745.333 626.667 726 660C706.667 693.333 680.333 719.667 647 739C613.667 758.333 577.333 768 538 768C478.667 768 427.833 746.833 385.5 704.5C343.167 662.167 322 611 322 551C322 535.667 324.333 519.5 329 502.5C333.667 485.5 340.167 469.333 348.5 454C356.833 438.667 366.5 424.333 377.5 411C388.5 397.667 401 386 415 376C429 366 443.667 357.667 459 351V411C448.333 416.333 437.167 424.833 425.5 436.5C413.833 448.167 404.667 459.333 398 470C384 496 377 523 377 551C377 595.667 392.833 633.833 424.5 665.5C456.167 697.167 494.167 713 538.5 713C582.833 713 620.833 697.167 652.5 665.5C684.167 633.833 700 595.667 700 551C700 525 692.167 498.333 676.5 471C660.833 443.667 641.667 423.667 619 411V351ZM565 391V483H512V294H565V391ZM910 146C936 146 958.167 155.333 976.5 174C994.833 192.667 1004 215 1004 241V834C1004 860 994.833 882.333 976.5 901C958.167 919.667 936 929 910 929H166C140 929 117.833 919.833 99.5 901.5C81.1667 883.167 72 860.667 72 834V241C72 215 81.3333 192.667 100 174C118.667 155.333 140.667 146 166 146H910ZM950 834V241C950 233.667 948.167 226.833 944.5 220.5C940.833 214.167 935.667 209.333 929 206C922.333 202.667 916 201 910 201H166C161.333 201 156.5 202 151.5 204C146.5 206 142.167 208.667 138.5 212C134.833 215.333 131.833 219.667 129.5 225C127.167 230.333 126 235.667 126 241V834C126 845.333 130.167 854.833 138.5 862.5C146.833 870.167 156 874 166 874H910C921.333 874 930.833 870.167 938.5 862.5C946.167 854.833 950 845.333 950 834Z" fill="black"/>
</svg>
