<svg width="1075" height="1075" viewBox="0 0 1075 1075" fill="none" xmlns="http://www.w3.org/2000/svg">
<path d="M142 232C136.667 232 132.333 233.667 129 237C125.667 240.333 124 244.667 124 250V826C124 831.333 125.667 835.667 129 839C132.333 842.333 136.667 844 142 844H934C939.333 844 943.667 842.333 947 839C950.333 835.667 952 831.333 952 826V250C952 244.667 950.333 240.333 947 237C943.667 233.667 939.333 232 934 232H142ZM142 898C122 898 105 891 91 877C77 863 70 846 70 826V250C70 230 77 213 91 199C105 185 122 178 142 178H934C954 178 971 185 985 199C999 213 1006 230 1006 250V826C1006 846 999 863 985 877C971 891 954 898 934 898H142ZM448 415V660L640 538L448 415ZM443 719C429.667 719 418.167 714.167 408.5 704.5C398.833 694.833 394 683.333 394 670V405C394 391.667 398.833 380.333 408.5 371C418.167 361.667 429.667 357 443 357C453 357 461.667 359.333 469 364L677 497C691.667 506.333 699 520 699 538C699 546 697.167 553.667 693.5 561C689.833 568.333 684.333 574.333 677 579L469 711C460.333 716.333 451.667 719 443 719Z" fill="black"/>
</svg>
