<svg viewBox="0 0 1181 1074.237" xmlns="http://www.w3.org/2000/svg"><path d="M663 715.237q59 0 100.5 41.5t41.5 100q0 58.5-41.5 100t-100 41.5q-58.5 0-100.5-41t-42-100q0-14 3-28l-270-156q-42 56-113 55-39 0-71.5-19t-51-51.5Q0 625.237 0 587.237q0-59 41.5-100.5t99.5-41.5q68 0 111 53l272-154q-3-14-3-27 0-59 42-100.5t100.5-41.5q58.5 0 99.5 41.5t41 100.5q0 39-18.5 71.5t-51.5 51.5q-33 19-71 19-24 0-46.5-8t-40.5-22.5q-18-14.5-31-33.5l-267 155q5 18 5 37.5t-5 36.5l267 154q19-29 50.5-46t67.5-17zm-88-398q0 36 26 62t62 26q36 0 62-26t26-62q0-36-26-62t-62-26q-36 0-62 25.5t-26 62.5zm-495 332q25 26 61.5 25.5t62-26q25.5-25.5 25.5-61.5t-25.5-62q-25.5-26-62-26t-62 26q-25.5 26-25.5 62t26 62zm583 296q18 0 34-7t28-19q12-12 19-28t7-34q0-24-12-44t-32-32q-20-12-44-12-36 0-62 26t-26 62q0 36 26 62t62 26z"/></svg>