<svg width="1075" height="1075" viewBox="0 0 1075 1075" fill="none" xmlns="http://www.w3.org/2000/svg">
<path d="M798 666C837.333 666 870.833 679.833 898.5 707.5C926.167 735.167 940 768.5 940 807.5C940 846.5 926.167 879.833 898.5 907.5C870.833 935.167 837.5 949 798.5 949C759.5 949 726 935.333 698 908C670 880.667 656 847.333 656 808C656 798.667 657 789.333 659 780L389 624C361 661.333 323.333 679.667 276 679C250 679 226.167 672.667 204.5 660C182.833 647.333 165.833 630.167 153.5 608.5C141.167 586.833 135 563.333 135 538C135 498.667 148.833 465.167 176.5 437.5C204.167 409.833 237.333 396 276 396C321.333 396 358.333 413.667 387 449L659 295C657 285.667 656 276.667 656 268C656 228.667 670 195.167 698 167.5C726 139.833 759.5 126 798.5 126C837.5 126 870.667 139.833 898 167.5C925.333 195.167 939 228.667 939 268C939 294 932.833 317.833 920.5 339.5C908.167 361.167 891 378.333 869 391C847 403.667 823.333 410 798 410C782 410 766.5 407.333 751.5 402C736.5 396.667 723 389.167 711 379.5C699 369.833 688.667 358.667 680 346L413 501C416.333 513 418 525.5 418 538.5C418 551.5 416.333 563.667 413 575L680 729C692.667 709.667 709.5 694.333 730.5 683C751.5 671.667 774 666 798 666ZM710 268C710 292 718.667 312.667 736 330C753.333 347.333 774 356 798 356C822 356 842.667 347.333 860 330C877.333 312.667 886 292 886 268C886 244 877.333 223.333 860 206C842.667 188.667 822 180 798 180C774 180 753.333 188.5 736 205.5C718.667 222.5 710 243.333 710 268ZM215 600C231.667 617.333 252.167 625.833 276.5 625.5C300.833 625.167 321.5 616.5 338.5 599.5C355.5 582.5 364 562 364 538C364 514 355.5 493.333 338.5 476C321.5 458.667 300.833 450 276.5 450C252.167 450 231.5 458.667 214.5 476C197.5 493.333 189 514 189 538C189 562 197.667 582.667 215 600ZM798 896C810 896 821.333 893.667 832 889C842.667 884.333 852 878 860 870C868 862 874.333 852.667 879 842C883.667 831.333 886 820 886 808C886 792 882 777.333 874 764C866 750.667 855.333 740 842 732C828.667 724 814 720 798 720C774 720 753.333 728.667 736 746C718.667 763.333 710 784 710 808C710 832 718.667 852.667 736 870C753.333 887.333 774 896 798 896Z" fill="black"/>
</svg>
