<svg viewBox="0 0 1193 1074.237" xmlns="http://www.w3.org/2000/svg"><path d="M612 549.237q-11 0-19-8t-8-19v-63H261v63q0 11-8 19t-19 8q-11 0-19-8t-8-19v-63H72q-8 0-13 5t-5 13v351q0 32 12 59.5t33 48.5q21 21 48.5 33t59.5 12h252q11 0 19 8t8 19q0 11-8 19t-19 8H207q-43 0-80.5-16.5t-65.5-44.5q-28-28-44.5-65.5T0 828.237v-351q0-30 21-51t51-21h135v-108q0-45 17-84t46.5-68.5q29.5-29.5 68.5-46.5t84-17q45 0 84 17t68.5 46.5q29.5 29.5 46.5 68.5t17 84v108h116q30 0 51 21t21 51v117q0 11-8 19t-19 8q-11 0-19-8t-8-19v-117q0-8-5-13t-13-5H639v63q0 11-8 19t-19 8zm81 486q-39 0-73.5-15t-60-40.5q-25.5-25.5-40.5-60t-15-73.5v-117q0-30 21-51t51-21h117q39 0 73.5 15t60 40.5q25.5 25.5 40.5 60t15 73.5q0 39-15 73.5t-40.5 60q-25.5 25.5-60 40.5t-73.5 15zm-108-738q0-33-13-62.5t-35-51.5q-22-22-51.5-35t-62.5-13q-33 0-62.5 13t-51.5 35q-22 22-35 51.5t-13 62.5v108h324v-108zm-9 414q-8 0-13 5t-5 13v117q0 28 10.5 52.5t29 43q18.5 18.5 43 29t52.5 10.5q28 0 52.5-10.5t43-29q18.5-18.5 29-43t10.5-52.5q0-28-10.5-52.5t-29-43q-18.5-18.5-43-29t-52.5-10.5H576z"/></svg>