<svg width="1075" height="1075" viewBox="0 0 1075 1075" fill="none" xmlns="http://www.w3.org/2000/svg">
<path d="M709 529C701.667 529 695.333 526.333 690 521C684.667 515.667 682 509.333 682 502V439H358V502C358 509.333 355.333 515.667 350 521C344.667 526.333 338.333 529 331 529C323.667 529 317.333 526.333 312 521C306.667 515.667 304 509.333 304 502V439H169C163.667 439 159.333 440.667 156 444C152.667 447.333 151 451.667 151 457V808C151 829.333 155 849.167 163 867.5C171 885.833 182 902 196 916C210 930 226.167 941 244.5 949C262.833 957 282.667 961 304 961H556C563.333 961 569.667 963.667 575 969C580.333 974.333 583 980.667 583 988C583 995.333 580.333 1001.67 575 1007C569.667 1012.33 563.333 1015 556 1015H304C275.333 1015 248.5 1009.5 223.5 998.5C198.5 987.5 176.667 972.667 158 954C139.333 935.333 124.5 913.5 113.5 888.5C102.5 863.5 97 836.667 97 808V457C97 437 104 420 118 406C132 392 149 385 169 385H304V277C304 247 309.667 219 321 193C332.333 167 347.833 144.167 367.5 124.5C387.167 104.833 410 89.3333 436 78C462 66.6667 490 61 520 61C550 61 578 66.6667 604 78C630 89.3333 652.833 104.833 672.5 124.5C692.167 144.167 707.667 167 719 193C730.333 219 736 247 736 277V385H852C872 385 889 392 903 406C917 420 924 437 924 457V574C924 581.333 921.333 587.667 916 593C910.667 598.333 904.333 601 897 601C889.667 601 883.333 598.333 878 593C872.667 587.667 870 581.333 870 574V457C870 451.667 868.333 447.333 865 444C861.667 440.667 857.333 439 852 439H736V502C736 509.333 733.333 515.667 728 521C722.667 526.333 716.333 529 709 529ZM790 1015C764 1015 739.5 1010 716.5 1000C693.5 990 673.5 976.5 656.5 959.5C639.5 942.5 626 922.5 616 899.5C606 876.5 601 852 601 826V709C601 689 608 672 622 658C636 644 653 637 673 637H790C816 637 840.5 642 863.5 652C886.5 662 906.5 675.5 923.5 692.5C940.5 709.5 954 729.5 964 752.5C974 775.5 979 800 979 826C979 852 974 876.5 964 899.5C954 922.5 940.5 942.5 923.5 959.5C906.5 976.5 886.5 990 863.5 1000C840.5 1010 816 1015 790 1015ZM682 277C682 255 677.667 234.167 669 214.5C660.333 194.833 648.667 177.667 634 163C619.333 148.333 602.167 136.667 582.5 128C562.833 119.333 542 115 520 115C498 115 477.167 119.333 457.5 128C437.833 136.667 420.667 148.333 406 163C391.333 177.667 379.667 194.833 371 214.5C362.333 234.167 358 255 358 277V385H682V277ZM673 691C667.667 691 663.333 692.667 660 696C656.667 699.333 655 703.667 655 709V826C655 844.667 658.5 862.167 665.5 878.5C672.5 894.833 682.167 909.167 694.5 921.5C706.833 933.833 721.167 943.5 737.5 950.5C753.833 957.5 771.333 961 790 961C808.667 961 826.167 957.5 842.5 950.5C858.833 943.5 873.167 933.833 885.5 921.5C897.833 909.167 907.5 894.833 914.5 878.5C921.5 862.167 925 844.667 925 826C925 807.333 921.5 789.833 914.5 773.5C907.5 757.167 897.833 742.833 885.5 730.5C873.167 718.167 858.833 708.5 842.5 701.5C826.167 694.5 808.667 691 790 691H673Z" fill="black"/>
</svg>
