<svg viewBox="0 0 1274 1074.237" xmlns="http://www.w3.org/2000/svg"><path d="M504 909.237q-131 0-255-75.5t-235-222.5q-8-10-11-21.5t-3-22.5q0-26 14-44 111-147 235-222.5t255-75.5q132 0 256 75.5t234 222.5q14 18 14 44 0 11-3 22.5t-11 21.5q-110 147-234 222.5t-256 75.5zm-446-353q-4 4-4 11t4 11q102 137 215 207t231 70q118 0 231-70t216-207q4-4 4-11t-4-11q-104-139-217.5-207.5t-230.5-68.5q-116 0-229 68.5t-216 207.5zm446 245q-48 0-91-18.5t-74.5-50q-31.5-31.5-50-74.5t-18.5-91q0-48 18.5-91t50-74.5q31.5-31.5 74.5-50t91-18.5q48 0 91 18.5t74.5 50q31.5 31.5 50 74.5t18.5 91q0 48-18.5 91t-50 74.5q-31.5 31.5-74.5 50t-91 18.5zm0-414q-37 0-70 14t-57.5 38.5q-24.5 24.5-38.5 57.5t-14 70q0 37 14 70t38.5 57.5q24.5 24.5 57.5 38.5t70 14q37 0 70-14t57.5-38.5q24.5-24.5 38.5-57.5t14-70q0-37-14-70t-38.5-57.5q-24.5-24.5-57.5-38.5t-70-14z"/></svg>