<svg width="1075" height="1075" viewBox="0 0 1075 1075" fill="none" xmlns="http://www.w3.org/2000/svg">
<path d="M538 880C450.667 880 365.667 854.833 283 804.5C200.333 754.167 122 680 48 582C42.6667 575.333 39 568.167 37 560.5C35 552.833 34 545.333 34 538C34 520.667 38.6667 506 48 494C122 396 200.333 321.833 283 271.5C365.667 221.167 450.667 196 538 196C626 196 711.333 221.167 794 271.5C876.667 321.833 954.667 396 1028 494C1037.33 506 1042 520.667 1042 538C1042 545.333 1041 552.833 1039 560.5C1037 568.167 1033.33 575.333 1028 582C954.667 680 876.667 754.167 794 804.5C711.333 854.833 626 880 538 880ZM92 527C89.3333 529.667 88 533.333 88 538C88 542.667 89.3333 546.333 92 549C160 640.333 231.667 709.333 307 756C382.333 802.667 459.333 826 538 826C616.667 826 693.667 802.667 769 756C844.333 709.333 916.333 640.333 985 549C987.667 546.333 989 542.667 989 538C989 533.333 987.667 529.667 985 527C915.667 434.333 843.167 365.167 767.5 319.5C691.833 273.833 615 251 537 251C459.667 251 383.333 273.833 308 319.5C232.667 365.167 160.667 434.333 92 527ZM538 772C506 772 475.667 765.833 447 753.5C418.333 741.167 393.5 724.5 372.5 703.5C351.5 682.5 334.833 657.667 322.5 629C310.167 600.333 304 570 304 538C304 506 310.167 475.667 322.5 447C334.833 418.333 351.5 393.5 372.5 372.5C393.5 351.5 418.333 334.833 447 322.5C475.667 310.167 506 304 538 304C570 304 600.333 310.167 629 322.5C657.667 334.833 682.5 351.5 703.5 372.5C724.5 393.5 741.167 418.333 753.5 447C765.833 475.667 772 506 772 538C772 570 765.833 600.333 753.5 629C741.167 657.667 724.5 682.5 703.5 703.5C682.5 724.5 657.667 741.167 629 753.5C600.333 765.833 570 772 538 772ZM538 358C513.333 358 490 362.667 468 372C446 381.333 426.833 394.167 410.5 410.5C394.167 426.833 381.333 446 372 468C362.667 490 358 513.333 358 538C358 562.667 362.667 586 372 608C381.333 630 394.167 649.167 410.5 665.5C426.833 681.833 446 694.667 468 704C490 713.333 513.333 718 538 718C562.667 718 586 713.333 608 704C630 694.667 649.167 681.833 665.5 665.5C681.833 649.167 694.667 630 704 608C713.333 586 718 562.667 718 538C718 513.333 713.333 490 704 468C694.667 446 681.833 426.833 665.5 410.5C649.167 394.167 630 381.333 608 372C586 362.667 562.667 358 538 358Z" fill="black"/>
</svg>
