<svg width="1075" height="1075" viewBox="0 0 1075 1075" fill="none" xmlns="http://www.w3.org/2000/svg">
<path d="M935 824V698H982V901H779V855H900C868 823.667 797.333 753.333 688 644L721 611C821 711 892.333 782 935 824ZM779 175H981V378H935V252C858.333 327.333 674.667 511.667 384 805C342 847.667 291.333 869 232 869H93V822H231V823C278.333 823 318.333 806 351 772L443.5 679.5C483.833 639.167 528.167 594.5 576.5 545.5C624.833 496.5 667 454 703 418L900 221H779V175ZM351 304C318.333 270 278.333 253 231 253H93V207H231C291 207 342 228.333 384 271L542 431L509 464L351 304Z" fill="black"/>
</svg>
