<svg viewBox="0 0 1224 1074.237" xmlns="http://www.w3.org/2000/svg"><path d="M97 750.237q47 0 70 23 22 24 22 75t-22 74q-23 24-70 24-49 0-70-24-22-23-22-74t22-75q22-23 70-23zm33 140q9-18 9-38v-4-6q0-20-9-37-11-15-29-15h-8q-18 0-29 14-9 18-9 38v10q0 20 9 38 11 15 29 15h8q18 0 29-15zm202-141q64 0 64 67v126h-50v-117-4q0-12-6-23-7-8-18-8h-4q-10 0-19 3-11 3-20 8v141h-50v-188h37l8 15q25-20 58-20zm-74-403q-49-51-120-51H0v-46h138q90 0 153 64l158 160-33 33-158-160zm584 520v-126h47v203H686v-46h121q-44-43-212-211l33-33q150 150 214 213zm-156-649h202v203h-46v-126q-110 108-434 434l-32-32q218-220 306-308 68-69 125-125H686v-46z"/></svg>