<svg width="1075" height="1075" viewBox="0 0 1075 1075" fill="none" xmlns="http://www.w3.org/2000/svg">
<path d="M190 706C221.333 706 244.667 713.667 260 729C274.667 745 282 770 282 804C282 838 274.667 862.667 260 878C244.667 894 221.333 902 190 902C157.333 902 134 894 120 878C105.333 862.667 98 838 98 804C98 770 105.333 745 120 729C134.667 713.667 158 706 190 706ZM223 846C229 834 232 821.333 232 808V804V798C232 784.667 229 772.333 223 761C215.667 751 206 746 194 746H186C174 746 164.333 750.667 157 760C151 772 148 784.667 148 798V808C148 821.333 151 834 157 846C164.333 856 174 861 186 861H194C206 861 215.667 856 223 846ZM425 705C467.667 705 489 727.333 489 772V898H439V781V777C439 769 437 761.333 433 754C428.333 748.667 422.333 746 415 746H411C404.333 746 398 747 392 749C384.667 751 378 753.667 372 757V898H322V710H359L367 725C383.667 711.667 403 705 425 705ZM351 302C318.333 268 278.333 251 231 251H93V205H231C291 205 342 226.333 384 269L542 429L509 462L351 302ZM935 822V696H982V899H779V853H900C870.667 824.333 800 754 688 642L721 609C821 709 892.333 780 935 822ZM779 173H981V376H935V250C861.667 322 717 466.667 501 684L469 652C614.333 505.333 716.333 402.667 775 344C820.333 298 862 256.333 900 219H779V173Z" fill="black"/>
</svg>
