<svg width="1075" height="1075" viewBox="0 0 1075 1075" fill="none" xmlns="http://www.w3.org/2000/svg">
<path d="M482 108C534.667 108 586 118.5 636 139.5C686 160.5 730.667 190 770 228L718 253C686 223.667 649.667 201.167 609 185.5C568.333 169.833 526 162 482 162C445.333 162 410.167 168.167 376.5 180.5C342.833 192.833 313 209.167 287 229.5C261 249.833 240.333 273.5 225 300.5C209.667 327.5 202 355.333 202 384C202 402.667 203.667 419 207 433C210.333 447 213.833 460 217.5 472C221.167 484 224.667 495 228 505C231.333 515 233 525.333 233 536C233 557.333 229 574.333 221 587C213 599.667 197.333 610 174 618C124.667 635.333 100 668 100 716C100 741.333 109.333 765.833 128 789.5C146.667 813.167 171.333 834.333 202 853C232.667 871.667 267.833 886.5 307.5 897.5C347.167 908.5 388 914 430 914C487.333 914 541 903.833 591 883.5C641 863.167 684.5 835 721.5 799C758.5 763 787.833 720.833 809.5 672.5C831.167 624.167 842.667 572 844 516L887 463C887.667 469.667 888.167 476.167 888.5 482.5C888.833 488.833 889 495.667 889 503V522C889 584 877.167 642.167 853.5 696.5C829.833 750.833 797.167 798.167 755.5 838.5C713.833 878.833 665.167 910.5 609.5 933.5C553.833 956.5 494 968 430 968C380 968 331.833 961 285.5 947C239.167 933 198.167 914.5 162.5 891.5C126.833 868.5 98.5 841.833 77.5 811.5C56.5 781.167 46 749.667 46 717C46 680.333 54.6667 650.333 72 627C89.3333 603.667 116.333 584.333 153 569C170.333 561.667 179 552.333 179 541C179 530.333 177.333 519 174 507C170.667 495 167.167 482.333 163.5 469C159.833 455.667 156.333 442 153 428C149.667 414 148 399.333 148 384C148 346 156.667 310.167 174 276.5C191.333 242.833 215.167 213.5 245.5 188.5C275.833 163.5 311.333 143.833 352 129.5C392.667 115.167 436 108 482 108ZM1029 213C1029 225 1024.67 235 1016 243L718 525C712 497 702 475.333 688 460C679.333 450.667 670.833 443.5 662.5 438.5C654.167 433.5 643.667 429 631 425L963 179C970.333 173.667 978.333 171 987 171C998.333 171 1008.17 175.167 1016.5 183.5C1024.83 191.833 1029 201.667 1029 213ZM629 480C641.667 488.667 651.5 500.333 658.5 515C665.5 529.667 669 544.333 669 559C669 577 664.833 592.833 656.5 606.5C648.167 620.167 637.5 631.833 624.5 641.5C611.5 651.167 596.833 658.333 580.5 663C564.167 667.667 548 670 532 670C508.667 670 485.667 665.5 463 656.5C440.333 647.5 420.667 633.667 404 615C418.667 613.667 432.833 607 446.5 595C460.167 583 468.667 569 472 553C474.667 542.333 477.167 532.667 479.5 524C481.833 515.333 485.333 507.667 490 501C499.333 487.667 511.167 477.5 525.5 470.5C539.833 463.5 554.667 460 570 460C590.667 460 610.333 466.667 629 480ZM373 444C355.667 444 340.833 437.833 328.5 425.5C316.167 413.167 310 398.333 310 381C310 363.667 316.167 349 328.5 337C340.833 325 355.667 319 373 319C390.333 319 405 325 417 337C429 349 435 363.667 435 381C435 398.333 429 413.167 417 425.5C405 437.833 390.333 444 373 444ZM542 390C524.667 390 509.833 383.833 497.5 371.5C485.167 359.167 479 344.333 479 327C479 309.667 485.167 295 497.5 283C509.833 271 524.667 265 542 265C559.333 265 574 271 586 283C598 295 604 309.667 604 327C604 344.333 598 359.167 586 371.5C574 383.833 559.333 390 542 390ZM332 789C314.667 789 299.833 783 287.5 771C275.167 759 269 744.333 269 727C269 709.667 275.167 694.833 287.5 682.5C299.833 670.167 314.667 664 332 664C349.333 664 364.167 670.167 376.5 682.5C388.833 694.833 395 709.667 395 727C395 744.333 388.833 759 376.5 771C364.167 783 349.333 789 332 789Z" fill="black"/>
</svg>
