<svg viewBox="0 0 1276 1074.237" xmlns="http://www.w3.org/2000/svg"><path d="M436 135.237q79 0 154 31.5t134 88.5l-52 25q-48-44-109-67.5t-127-23.5q-55 0-105.5 18.5t-89.5 49q-39 30.5-62 71t-23 83.5q0 28 5 49t10.5 39q5.5 18 10.5 33t5 31q0 32-12 51t-47 31q-74 26-74 98 0 38 28 73.5t74 63.5q46 28 105.5 44.5t122.5 16.5q86 0 161-30.5t130.5-84.5q55.5-54 88-126.5t34.5-156.5l43-53q1 10 1.5 19.5t.5 20.5v19q0 93-35.5 174.5t-98 142q-62.5 60.5-146 95t-179.5 34.5q-75 0-144.5-21t-123-55.5q-53.5-34.5-85-80T0 744.237q0-55 26-90t81-58q26-11 26-28 0-16-5-34t-10.5-38q-5.5-20-10.5-41t-5-44q0-57 26-107.5t71.5-88q45.5-37.5 106.5-59t130-21.5zm547 105q0 18-13 30l-298 282q-9-42-30-65-13-14-25.5-21.5t-31.5-13.5l332-246q11-8 24-8 17 0 29.5 12.5t12.5 29.5zm-400 267q19 13 29.5 35t10.5 44q0 27-12.5 47.5t-32 35q-19.5 14.5-44 21.5t-48.5 7q-35 0-69-13.5t-59-41.5q22-2 42.5-20t25.5-42q4-16 7.5-29t10.5-23q14-20 35.5-30.5t44.5-10.5q31 0 59 20zm-256-36q-26 0-44.5-18.5t-18.5-44.5q0-26 18.5-44t44.5-18q26 0 44 18t18 44q0 26-18 44.5t-44 18.5zm169-54q-26 0-44.5-18.5t-18.5-44.5q0-26 18.5-44t44.5-18q26 0 44 18t18 44q0 26-18 44.5t-44 18.5zm-210 399q-26 0-44.5-18t-18.5-44q0-26 18.5-44.5t44.5-18.5q26 0 44.5 18.5t18.5 44.5q0 26-18.5 44t-44.5 18z"/></svg>