<svg width="1075" height="1075" viewBox="0 0 1075 1075" fill="none" xmlns="http://www.w3.org/2000/svg">
<path d="M448 1006C438 1006 429.5 1002.5 422.5 995.5C415.5 988.5 412 980 412 970V823C412 816.333 409 811 403 807C361 783.667 328 751.5 304 710.5C280 669.5 268 625.333 268 578C268 541.333 275 507 289 475C303 443 322.333 415 347 391C371.667 367 400.333 348 433 334C465.667 320 500.667 313 538 313C575.333 313 610.333 319.833 643 333.5C675.667 347.167 704.333 366 729 390C753.667 414 773 442 787 474C801 506 808 540.333 808 577C808 624.333 796 668.5 772 709.5C748 750.5 715 783 673 807C667 811 664 816.333 664 823V970C664 980 660.5 988.5 653.5 995.5C646.5 1002.5 638 1006 628 1006H448ZM610 823C610 810.333 613.167 798.333 619.5 787C625.833 775.667 634.333 767 645 761C679.667 741 706.5 714.833 725.5 682.5C744.5 650.167 754 615 754 577C754 548.333 748.333 521.167 737 495.5C725.667 469.833 710.167 447.5 690.5 428.5C670.833 409.5 648 394.5 622 383.5C596 372.5 568 367 538 367C508 367 480 372.5 454 383.5C428 394.5 405.167 409.667 385.5 429C365.833 448.333 350.333 470.833 339 496.5C327.667 522.167 322 549.333 322 578C322 616 331.833 651.167 351.5 683.5C371.167 715.833 397.667 741.667 431 761C441.667 767 450.167 775.667 456.5 787C462.833 798.333 466 810.333 466 823V835H610V823ZM691 583C683.667 583 677.333 580.333 672 575C654 557.667 633.5 544.167 610.5 534.5C587.5 524.833 563.333 520 538 520C512.667 520 488.5 524.833 465.5 534.5C442.5 544.167 422 557.667 404 575C398.667 580.333 392.333 583 385 583C377.667 583 371.333 580.333 366 575C360.667 569.667 358 563.333 358 556C358 548.667 360.667 542.333 366 537C389.333 513.667 415.667 496 445 484C474.333 472 505.333 466 538 466C570.667 466 601.667 472 631 484C660.333 496 686.667 513.667 710 537C715.333 541.667 718 548 718 556C718 563.333 715.333 569.667 710 575C704.667 580.333 698.333 583 691 583ZM637 655C628.333 655 621.667 652 617 646C595 622 568.667 610 538 610C507.333 610 481 622 459 646C453.667 652 447 655 439 655C431.667 655 425.333 652.333 420 647C414.667 641.667 412 635.333 412 628C412 620.667 414.333 614.667 419 610C434.333 592.667 452.333 579.333 473 570C493.667 560.667 515.333 556 538 556C560.667 556 582.333 560.667 603 570C623.667 579.333 641.667 592.667 657 610C661.667 614.667 664 620.667 664 628C664 635.333 661.333 641.667 656 647C650.667 652.333 644.333 655 637 655ZM898 565C890.667 565 884.333 562.333 879 557C873.667 551.667 871 545.333 871 538C871 530.667 873.667 524.333 879 519C884.333 513.667 890.667 511 898 511H1024C1031.33 511 1037.67 513.667 1043 519C1048.33 524.333 1051 530.667 1051 538C1051 545.333 1048.33 551.667 1043 557C1037.67 562.333 1031.33 565 1024 565H898ZM52 565C44.6667 565 38.3333 562.333 33 557C27.6667 551.667 25 545.333 25 538C25 530.667 27.6667 524.333 33 519C38.3333 513.667 44.6667 511 52 511H178C185.333 511 191.667 513.667 197 519C202.333 524.333 205 530.667 205 538C205 545.333 202.333 551.667 197 557C191.667 562.333 185.333 565 178 565H52ZM466 952H610V889H466V952ZM592 727C584 727 577 723.667 571 717C561.667 705.667 550.667 700 538 700C525.333 700 514.333 705.667 505 717C499 723.667 492 727 484 727C476.667 727 470.333 724.333 465 719C459.667 713.667 457 707.333 457 700C457 692 460 684.667 466 678C472 671.333 479.167 665.667 487.5 661C495.833 656.333 504.667 652.667 514 650C523.333 647.333 531.333 646 538 646C544.667 646 552.5 647.333 561.5 650C570.5 652.667 579.333 656.333 588 661C596.667 665.667 604 671.333 610 678C616 684.667 619 692 619 700C619 707.333 616.333 713.667 611 719C605.667 724.333 599.333 727 592 727ZM538 241C530.667 241 524.333 238.333 519 233C513.667 227.667 511 221.333 511 214V97C511 89.6667 513.667 83.3333 519 78C524.333 72.6667 530.667 70 538 70C545.333 70 551.667 72.6667 557 78C562.333 83.3333 565 89.6667 565 97V214C565 221.333 562.333 227.667 557 233C551.667 238.333 545.333 241 538 241ZM304 331C296.667 331 290.333 328.333 285 323L207 245C201.667 239.667 199 233.333 199 226C199 218.667 201.667 212.333 207 207C212.333 201.667 218.667 199 226 199C233.333 199 239.667 201.667 245 207L323 285C328.333 290.333 331 296.667 331 304C331 311.333 328.333 317.667 323 323C317.667 328.333 311.333 331 304 331ZM772 331C764.667 331 758.5 328.333 753.5 323C748.5 317.667 746 311.333 746 304C746 296 748.333 289.667 753 285L831 207C836.333 201.667 842.667 199 850 199C857.333 199 863.667 201.667 869 207C874.333 212.333 877 218.667 877 226C877 233.333 874.333 239.667 869 245L791 323C785.667 328.333 779.333 331 772 331Z" fill="black"/>
</svg>
