<svg viewBox="0 0 1292 1074.237" xmlns="http://www.w3.org/2000/svg"><path d="M423 1035.237q-15 0-25.5-10.5t-10.5-25.5v-147q0-10-9-16-63-35-99-96.5t-36-132.5q0-55 21-103t58-84q37-36 86-57t105-21q56 0 105 20.5t86 56.5q37 36 58 84t21 103q0 71-36 132.5t-99 97.5q-9 6-9 16v147q0 15-10.5 25.5t-25.5 10.5H423zm162-183q0-19 9.5-36t25.5-26q52-30 80.5-78.5t28.5-105.5q0-43-17-81.5t-46.5-67q-29.5-28.5-68.5-45t-84-16.5q-45 0-84 16.5t-68.5 45.5q-29.5 29-46.5 67.5t-17 81.5q0 57 29.5 105.5t79.5 77.5q16 9 25.5 26t9.5 36v12h144v-12zm81-240q-11 0-19-8-27-26-61.5-40.5t-72.5-14.5q-38 0-72.5 14.5t-61.5 40.5q-8 8-19 8t-19-8q-8-8-8-19t8-19q35-35 79-53t93-18q49 0 93 18t79 53q8 7 8 19 0 11-8 19t-19 8zm-54 72q-13 0-20-9-33-36-79-36t-79 36q-8 9-20 9-11 0-19-8t-8-19q0-11 7-18 23-26 54-40t65-14q34 0 65 14t54 40q7 7 7 18t-8 19q-8 8-19 8zm261-90q-11 0-19-8t-8-19q0-11 8-19t19-8h126q11 0 19 8t8 19q0 11-8 19t-19 8H873zm-846 0q-11 0-19-8t-8-19q0-11 8-19t19-8h126q11 0 19 8t8 19q0 11-8 19t-19 8H27zm414 387h144v-63H441v63zm126-225q-12 0-21-10-14-17-33-17t-33 17q-9 10-21 10-11 0-19-8t-8-19q0-12 9-22t21.5-17q12.5-7 26.5-11t24-4q10 0 23.5 4t26.5 11q13 7 22 17t9 22q0 11-8 19t-19 8zm-54-486q-11 0-19-8t-8-19v-117q0-11 8-19t19-8q11 0 19 8t8 19v117q0 11-8 19t-19 8zm-234 90q-11 0-19-8l-78-78q-8-8-8-19t8-19q8-8 19-8t19 8l78 78q8 8 8 19t-8 19q-8 8-19 8zm468 0q-11 0-18.5-8t-7.5-19q0-12 7-19l78-78q8-8 19-8t19 8q8 8 8 19t-8 19l-78 78q-8 8-19 8z"/></svg>