<svg width="1075" height="1075" viewBox="0 0 1075 1075" fill="none" xmlns="http://www.w3.org/2000/svg">
<path d="M538 162C606 162 668.833 178.833 726.5 212.5C784.167 246.167 829.667 291.833 863 349.5C896.333 407.167 913 469.833 913 537.5C913 605.167 896.333 667.833 863 725.5C829.667 783.167 784.167 828.833 726.5 862.5C668.833 896.167 606 913 538 913C470 913 407.167 896.167 349.5 862.5C291.833 828.833 246.333 783.167 213 725.5C179.667 667.833 163 605.333 163 538C163 487.333 172.833 438.667 192.5 392C212.167 345.333 238.833 305.333 272.5 272C306.167 238.667 346.167 212 392.5 192C438.833 172 487.333 162 538 162ZM685 699H821C845.667 655.667 859.667 609.667 863 561L756 486L675 512L635 632L685 699ZM391 699L441 632L401 512L320 486L212 561C215.333 610.333 229.333 656.333 254 699H391ZM212 514L294 457L262 364C232.667 410 216 460 212 514ZM477 616H599L636 505L538 435L440 505L477 616ZM783 457L863 513C859 459 842.667 409.333 814 364L783 457ZM786 326C753.333 288 714 258.667 668 238L558 316V402L661 475L744 449L786 326ZM623 223L624 222C596 214.667 567.5 211 538.5 211C509.5 211 481.333 214.667 454 222L538 283L623 223ZM408 238C362 258 322.667 287 290 325L332 449L415 475L519 402V316L408 238ZM280 738C317.333 786 364.667 821.333 422 844L387 738H280ZM468 856C491.333 861.333 514.667 864 538 864C562 864 585.333 861.333 608 856L653 722L604 655H472L423 722L468 856ZM654 843C710.667 821 758 785.667 796 737H688L654 843Z" fill="black"/>
</svg>
