<svg viewBox="0 0 1154 1074.237" xmlns="http://www.w3.org/2000/svg"><path d="M375 208.237q102 0 188.5 50.5t136.5 137q50 86.5 50 188t-50 188q-50 86.5-136.5 137t-188.5 50.5q-102 0-188.5-50.5t-136.5-137q-50-86.5-50-187.5 0-76 29.5-146t80-120q50.5-50 120-80t145.5-30zm147 537h136q37-65 42-138l-107-75-81 26-40 120 50 67zm-294 0l50-67-40-120-81-26-108 75q5 74 42 138h137zm-179-185l82-57-32-93q-44 69-50 150zm265 102h122l37-111-98-70-98 70 37 111zm306-159l80 56q-6-81-49-149l-31 93zm3-131q-49-57-118-88l-110 78v86l103 73 83-26 42-123zm-163-103l1-1q-42-11-85.5-11t-84.5 11l84 61 85-60zm-215 15q-69 30-118 87l42 124 83 26 104-73v-86l-111-78zm-128 500q56 72 142 106l-35-106H117zm188 118q35 8 70 8 36 0 70-8l45-134-49-67H309l-49 67 45 134zm186-13q85-33 142-106H525l-34 106z"/></svg>