<svg viewBox="0 0 1223 1074.237" xmlns="http://www.w3.org/2000/svg"><path d="M354 245.237q26 0 44 18t18 44v554q0 26-18.5 44t-43.5 18H62q-26 0-44-18t-18-44v-554q0-26 18-44t44-18h292zm15 616v-554q0-6-4.5-10.5t-10.5-5.5H62q-6 0-11 4.5t-5 11.5v554q0 6 4.5 10.5t11.5 4.5h292q6 0 10.5-4.5t4.5-10.5zm-161-361q-21 0-36-14.5t-15-35.5q0-21 15-36t36-15q21 0 36 15t15 36q0 21-15 35.5t-36 14.5zm0 77q20 0 38.5 8.5t31.5 21.5q13 13 21 31.5t8 39.5q0 41-29 70.5t-70.5 29.5q-41.5 0-71-29.5t-29.5-71q0-41.5 29.5-71t71.5-29.5zm0 154q11 0 20.5-4t16.5-11.5q7-7.5 12-17t5-20.5q0-22-16-38t-38-16q-22 0-38 16t-16 38q0 22 16 37.5t38 15.5zm617-486q26 0 44.5 18t18.5 44v554q0 26-18 44t-45 18H534q-26 0-44-18t-18-44v-554q0-26 18.5-44t43.5-18h291zm17 616v-554q0-6-4.5-10.5t-12.5-5.5H534q-6 0-10.5 4.5t-4.5 11.5v554q0 4 2 7.5t5.5 5.5q3.5 2 7.5 2h291q6 0 11.5-4.5t5.5-10.5zm-125-375q-15 14-36.5 14t-36.5-14.5q-15-14.5-15-35.5t15-36q15-15 36.5-15t36.5 15q15 15 15 36t-15 36zm-37 91q42 0 71.5 29.5t29.5 71q0 41.5-29.5 71t-70.5 29.5q-41 0-70.5-29.5t-29.5-71q0-41.5 29-71t70-29.5zm0 154h1q22 0 37.5-15.5t15.5-36.5v-1q0-14-7.5-26.5t-19.5-20q-12-7.5-27-7.5-22 0-37.5 16t-15.5 38q0 14 7.5 26.5t19.5 19.5q12 7 26 7z"/></svg>