<svg width="1075" height="1075" viewBox="0 0 1075 1075" fill="none" xmlns="http://www.w3.org/2000/svg">
<path d="M773 930C813 930 850.333 916 885 888C919.667 860 941.667 826.333 951 787H1005C1000.33 813.667 990.667 839.167 976 863.5C961.333 887.833 943.667 908.667 923 926C902.333 943.333 878.833 957.167 852.5 967.5C826.167 977.833 799.667 983 773 983C742.333 983 709.167 974.667 673.5 958C637.833 941.333 610.333 921 591 897V963H536V787H712V841H617C631.667 865.667 654.333 886.667 685 904C715.667 921.333 745 930 773 930ZM955 532H1010V706H835V653H930C920 637 906.333 622 889 608C871.667 594 852.667 583.167 832 575.5C811.333 567.833 791.667 564 773 564C732.333 564 694.667 578.167 660 606.5C625.333 634.833 603.667 668.333 595 707H540C549.333 653 576.833 607 622.5 569C668.167 531 718.333 512 773 512C803.667 512 836.667 520.333 872 537C907.333 553.667 935 574 955 598V532ZM340 682L456 766C457.333 792 462.333 817.667 471 843L309 726H66V295H309L590 92H684V443C665.333 447.667 647.667 454.667 631 464V146H608L340 339L326 350H120V672H325L340 682Z" fill="black"/>
</svg>
