<svg width="1075" height="1075" viewBox="0 0 1075 1075" fill="none" xmlns="http://www.w3.org/2000/svg">
<path d="M448 199C465.333 199 480 205 492 217C504 229 510 243.667 510 261V815C510 832.333 503.833 847 491.5 859C479.167 871 464.667 877 448 877H156C138.667 877 124 871 112 859C100 847 94 832.333 94 815V261C94 243.667 100 229 112 217C124 205 138.667 199 156 199H448ZM463 815V261C463 257 461.5 253.5 458.5 250.5C455.5 247.5 452 245.667 448 245H156C152 245 148.333 246.5 145 249.5C141.667 252.5 140 256.333 140 261V815C140 819 141.5 822.5 144.5 825.5C147.5 828.5 151.333 830 156 830H448C452 830 455.5 828.5 458.5 825.5C461.5 822.5 463 819 463 815ZM302 454C288 454 276 449.167 266 439.5C256 429.833 251 418 251 404C251 390 256 378 266 368C276 358 288 353 302 353C316 353 328 358 338 368C348 378 353 390 353 404C353 418 348 429.833 338 439.5C328 449.167 316 454 302 454ZM302 531C315.333 531 328.167 533.833 340.5 539.5C352.833 545.167 363.333 552.333 372 561C380.667 569.667 387.667 580.167 393 592.5C398.333 604.833 401 618 401 632C401 659.333 391.333 682.833 372 702.5C352.667 722.167 329.167 732 301.5 732C273.833 732 250.167 722.167 230.5 702.5C210.833 682.833 201 659.167 201 631.5C201 603.833 210.833 580.167 230.5 560.5C250.167 540.833 274 531 302 531ZM302 685C309.333 685 316.167 683.667 322.5 681C328.833 678.333 334.333 674.5 339 669.5C343.667 664.5 347.667 658.833 351 652.5C354.333 646.167 356 639.333 356 632C356 617.333 350.667 604.667 340 594C329.333 583.333 316.667 578 302 578C287.333 578 274.667 583.333 264 594C253.333 604.667 248 617.333 248 632C248 646.667 253.333 659.167 264 669.5C274.667 679.833 287.333 685 302 685ZM919 199C936.333 199 951.167 205 963.5 217C975.833 229 982 243.667 982 261V815C982 832.333 976 847 964 859C952 871 937 877 919 877H628C610.667 877 596 871 584 859C572 847 566 832.333 566 815V261C566 243.667 572.167 229 584.5 217C596.833 205 611.333 199 628 199H919ZM936 815V261C936 257 934.5 253.5 931.5 250.5C928.5 247.5 924.333 245.667 919 245H628C624 245 620.5 246.5 617.5 249.5C614.5 252.5 613 256.333 613 261V815C613 817.667 613.667 820.167 615 822.5C616.333 824.833 618.167 826.667 620.5 828C622.833 829.333 625.333 830 628 830H919C923 830 926.833 828.5 930.5 825.5C934.167 822.5 936 819 936 815ZM811 440C801 449.333 788.833 454 774.5 454C760.167 454 748 449.167 738 439.5C728 429.833 723 418 723 404C723 390 728 378 738 368C748 358 760.167 353 774.5 353C788.833 353 801 358 811 368C821 378 826 390 826 404C826 418 821 430 811 440ZM774 531C802 531 825.833 540.833 845.5 560.5C865.167 580.167 875 603.833 875 631.5C875 659.167 865.167 682.833 845.5 702.5C825.833 722.167 802.333 732 775 732C747.667 732 724.167 722.167 704.5 702.5C684.833 682.833 675 659.167 675 631.5C675 603.833 684.667 580.167 704 560.5C723.333 540.833 746.667 531 774 531ZM774 685H775C789.667 685 802.167 679.833 812.5 669.5C822.833 659.167 828 647 828 633V632C828 622.667 825.5 613.833 820.5 605.5C815.5 597.167 809 590.5 801 585.5C793 580.5 784 578 774 578C759.333 578 746.833 583.333 736.5 594C726.167 604.667 721 617.333 721 632C721 641.333 723.5 650.167 728.5 658.5C733.5 666.833 740 673.333 748 678C756 682.667 764.667 685 774 685Z" fill="black"/>
</svg>
