<svg width="1075" height="1075" viewBox="0 0 1075 1075" fill="none" xmlns="http://www.w3.org/2000/svg">
<path d="M953 537C951.667 599 930 659 888 717C846 775 796 814 738 834V783C783.333 764.333 822.167 731 854.5 683C886.833 635 903.333 586.333 904 537C903.333 487.667 886.833 439.167 854.5 391.5C822.167 343.833 783.333 310.667 738 292V240C796 260.667 846 299.833 888 357.5C930 415.167 951.667 475 953 537ZM836 537C836 567.667 826.333 599.667 807 633C787.667 666.333 764.667 690.667 738 706V647C743.333 643 748.333 638 753 632C763.667 620.667 772.333 605.667 779 587C785.667 568.333 789 551.667 789 537C789 519 784 499.333 774 478C764 456.667 752 440 738 428V369C764.667 384.333 787.667 408.5 807 441.5C826.333 474.5 836 506.333 836 537ZM618 218H600L365 387L353 396H173V679H353L365 688L600 856H618V218ZM668 169V906H584L338 727H123V348H338L584 169H668Z" fill="black"/>
</svg>
