<svg viewBox="0 0 1120 1074.237" xmlns="http://www.w3.org/2000/svg"><path d="M651 736.237q13 15 21 34.5t8.5 40q.5 20.5-6.5 40t-23 35.5q-15 15-34 23t-39 8q-20 0-40-7.5t-36-23.5l-262-259q-48 9-95.5-5t-83.5-49q-18-18-32-41t-21.5-49q-7.5-26-7.5-53t9-52q5-14 16-16.5t22 7.5l82 80 67-16 18-66-82-82q-11-11-9-22.5t19-16.5q23-6 49-6.5t51.5 5.5q25.5 6 49.5 18.5t44 31.5q35 35 49.5 82.5t4.5 99.5l261 259zm-34 117q17-17 17-40.5t-18-41.5l-278-280q14-43 6-86t-41-77q-20-21-47-33t-59-10l69 67-32 117-117 34-69-69q-2 29 10 57.5t34 49.5q31 30 74 38t88-6l280 280q15 15 39.5 16t43.5-16z"/></svg>