<svg width="1075" height="1075" viewBox="0 0 1075 1075" fill="none" xmlns="http://www.w3.org/2000/svg">
<path d="M849 695.538C857.667 705.538 864.667 717.038 870 730.038C875.333 743.038 878.167 756.372 878.5 770.038C878.833 783.705 876.667 797.038 872 810.038C867.333 823.038 859.667 834.872 849 845.538C839 855.538 827.667 863.205 815 868.538C802.333 873.872 789.333 876.538 776 876.538C762.667 876.538 749.333 874.038 736 869.038C722.667 864.038 710.667 856.205 700 845.538L438 586.538C406 592.538 374.167 590.872 342.5 581.538C310.833 572.205 283 555.872 259 532.538C247 520.538 236.333 506.872 227 491.538C217.667 476.205 210.5 459.872 205.5 442.538C200.5 425.205 198 407.538 198 389.538C198 371.538 201 354.205 207 337.538C210.333 328.205 215.667 322.705 223 321.038C230.333 319.372 237.667 321.872 245 328.538L327 408.538L394 392.538L412 326.538L330 244.538C322.667 237.205 319.667 229.705 321 222.038C322.333 214.372 328.667 208.872 340 205.538C355.333 201.538 371.667 199.372 389 199.038C406.333 198.705 423.5 200.538 440.5 204.538C457.5 208.538 474 214.705 490 223.038C506 231.372 520.667 241.872 534 254.538C557.333 277.872 573.833 305.372 583.5 337.038C593.167 368.705 594.667 401.872 588 436.538L849 695.538ZM815 812.538C826.333 801.205 832 787.705 832 772.038C832 756.372 826 742.538 814 730.538L536 450.538C545.333 421.872 547.333 393.205 542 364.538C536.667 335.872 523 310.205 501 287.538C487.667 273.538 472 262.538 454 254.538C436 246.538 416.333 243.205 395 244.538L464 311.538L432 428.538L315 462.538L246 393.538C244.667 412.872 248 432.038 256 451.038C264 470.038 275.333 486.538 290 500.538C310.667 520.538 335.333 533.205 364 538.538C392.667 543.872 422 541.872 452 532.538L732 812.538C742 822.538 755.167 827.872 771.5 828.538C787.833 829.205 802.333 823.872 815 812.538Z" fill="black"/>
</svg>
