<svg width="1075" height="1075" viewBox="0 0 1075 1075" fill="none" xmlns="http://www.w3.org/2000/svg">
<path d="M909 719H168C151.333 719 135.833 714.833 121.5 706.5C107.167 698.167 95.6667 686.667 87 672C78.3333 657.333 74 641.667 74 625V234C74 208 83.1667 185.833 101.5 167.5C119.833 149.167 142 140 168 140H909C935 140 957 149.167 975 167.5C993 185.833 1002 208 1002 234V625C1002 651 993 673.167 975 691.5C957 709.833 935 719 909 719ZM168 192C156.667 192 146.5 196.167 137.5 204.5C128.5 212.833 124 223 124 235V626C124 638 128.5 648 137.5 656C146.5 664 156.667 668 168 668H909C920.333 668 930.167 664 938.5 656C946.833 648 951 638 951 626V234C951 222.667 946.667 212.667 938 204C929.333 195.333 919.667 191 909 191L168 192ZM850 935H226C204 935 185.5 927.167 170.5 911.5C155.5 895.833 148 877.167 148 855.5C148 833.833 155.667 815.333 171 800C186.333 784.667 204.667 777 226 777H850C872 777 890.667 784.667 906 800C921.333 815.333 929 833.833 929 855.5C929 877.167 921.333 895.833 906 911.5C890.667 927.167 872 935 850 935ZM226 829C218 829 211.667 831.667 207 837C202.333 842.333 200 848.833 200 856.5C200 864.167 202.5 870.333 207.5 875C212.5 879.667 218.667 882 226 882H850C858 882 864.333 879.667 869 875C873.667 870.333 876 864 876 856C876 852 875 847.833 873 843.5C871 839.167 867.833 835.667 863.5 833C859.167 830.333 854.667 829 850 829H226Z" fill="black"/>
</svg>
