<svg viewBox="0 0 1243 1074.237" xmlns="http://www.w3.org/2000/svg"><path d="M835 753.237H94q-25 0-46.5-12.5t-34.5-34.5q-13-22-13-47v-391q0-39 27.5-66.5t66.5-27.5h741q39 0 66 27.5t27 66.5v391q0 39-27 66.5t-66 27.5zm-741-527q-17 0-30.5 12.5t-13.5 30.5v391q0 18 13.5 30t30.5 12h741q17 0 29.5-12t12.5-30v-392q0-17-13-30t-29-13l-741 1zm682 743H152q-33 0-55.5-23.5t-22.5-56q0-32.5 23-55.5t55-23h624q33 0 56 23t23 55.5q0 32.5-23 56t-56 23.5zm-624-106q-12 0-19 8t-7 19.5q0 11.5 7.5 18.5t18.5 7h624q12 0 19-7t7-19q0-6-3-12.5t-9.5-10.5q-6.5-4-13.5-4H152z"/></svg>