<svg width="1075" height="1075" viewBox="0 0 1075 1075" fill="none" xmlns="http://www.w3.org/2000/svg">
<path d="M748 73C774 73 796 82 814 100C832 118 841 140 841 166V599C840.333 625 830.833 647 812.5 665C794.167 683 772.667 692.333 748 693H564V950H809V1002H261V950H512V693H329C303 693 280.833 683.833 262.5 665.5C244.167 647.167 235 625 235 599V166C235 140 244.167 118 262.5 100C280.833 82 303 73 329 73H748ZM790 599V166C790 154.667 785.667 144.833 777 136.5C768.333 128.167 758.667 124 748 124H329C321.667 124.667 314.833 127 308.5 131C302.167 135 297.167 140.167 293.5 146.5C289.833 152.833 288 159.333 288 166V599C288 610.333 292 620.167 300 628.5C308 636.833 317.667 641 329 641H748C759.333 641 769.167 637 777.5 629C785.833 621 790 611 790 599Z" fill="black"/>
</svg>
