<svg viewBox="0 0 1137 1074.237" xmlns="http://www.w3.org/2000/svg"><path d="M620 1045.237H94q-39 0-66.5-27.5T0 951.237v-742q0-39 27.5-66.5t66.5-27.5h526q39 0 66.5 27.5t27.5 66.5v742q0 39-27.5 66.5t-66.5 27.5zm-526-877q-17 0-29 12.5t-12 29.5v741q0 18 12 30.5t29 12.5h526q17 0 29-12.5t12-30.5v-742q-1-17-12.5-29t-28.5-12H94zm264 756h-1q-89 0-152.5-63.5t-63.5-152.5q0-89 63.5-152t153-63q89.5 0 152 63t62.5 152q0 89-63 152.5t-151 63.5zm0-378q-67 0-115 47.5t-48 115q0 67.5 48 115t115 47.5q67 0 115-47.5t48-114.5v-1q0-33-13-63t-34.5-52q-21.5-22-52-34.5t-63.5-12.5zm0 108q22 0 38 16t16 38.5q0 22.5-16.5 38.5t-38 16q-21.5 0-37.5-16t-16-38.5q0-22.5 16-38.5t38-16zm0-230q-39 0-66.5-28t-27.5-67q0-39 27.5-66.5t66.5-27.5q39 0 66.5 27.5t27.5 66.5q0 16-5 30t-14 25.5q-9 11.5-20 20.5t-25.5 14q-14.5 5-29.5 5zm0-136q-18 0-30 12.5t-12 30q0 17.5 12 29.5t29.5 12q17.5 0 30-12t12.5-30v-1q-1-17-13-29t-29-12z"/></svg>