<svg viewBox="0 0 1189 1074.237" xmlns="http://www.w3.org/2000/svg"><path d="M727 994.237H93q-39 0-66-27.5t-27-66.5v-634q0-39 27-66t66-27h634q39 0 66.5 27.5t27.5 65.5v634q0 39-27.5 66.5t-66.5 27.5zm-634-769q-17 0-29 12.5t-12 28.5v634q0 17 12 29t29 12h634q17 0 29-12t12-29v-634q0-17-12-29t-29-12H93zm487 529q-71 71-170.5 71t-170.5-71q-71-71-71-171t71-171q71-71 170.5-71t171 71q71.5 71 71.5 171t-72 171zm-36-305q-55-55-134-55t-134 55q-55 55-55 134t55 134.5q55 55.5 134 55.5t134.5-55.5q55.5-55.5 55.5-134.5t-56-134zm-134 53q34 0 57.5 24t23.5 57.5q0 33.5-23.5 57t-57.5 23.5q-34 0-57.5-23.5t-23.5-57.5q0-34 23.5-57.5t57.5-23.5z"/></svg>