<svg width="1075" height="1075" viewBox="0 0 1075 1075" fill="none" xmlns="http://www.w3.org/2000/svg">
<path d="M854 948H220C194 948 172 938.833 154 920.5C136 902.167 127 880 127 854V220C127 194 136 172 154 154C172 136 194 127 220 127H854C880 127 902.167 136.167 920.5 154.5C938.833 172.833 948 194.667 948 220V854C948 880 938.833 902.167 920.5 920.5C902.167 938.833 880 948 854 948ZM220 179C208.667 179 199 183.167 191 191.5C183 199.833 179 209.333 179 220V854C179 865.333 183 875 191 883C199 891 208.667 895 220 895H854C865.333 895 875 891 883 883C891 875 895 865.333 895 854V220C895 208.667 891 199 883 191C875 183 865.333 179 854 179H220ZM707 708C659.667 755.333 602.833 779 536.5 779C470.167 779 413.333 755.333 366 708C318.667 660.667 295 603.667 295 537C295 470.333 318.667 413.333 366 366C413.333 318.667 470.167 295 536.5 295C602.833 295 659.833 318.667 707.5 366C755.167 413.333 779 470.333 779 537C779 603.667 755 660.667 707 708ZM671 403C634.333 366.333 589.667 348 537 348C484.333 348 439.667 366.333 403 403C366.333 439.667 348 484.333 348 537C348 589.667 366.333 634.5 403 671.5C439.667 708.5 484.333 727 537 727C589.667 727 634.5 708.5 671.5 671.5C708.5 634.5 727 589.667 727 537C727 484.333 708.333 439.667 671 403ZM537 456C559.667 456 578.833 464 594.5 480C610.167 496 618 515.167 618 537.5C618 559.833 610.167 578.833 594.5 594.5C578.833 610.167 559.667 618 537 618C514.333 618 495.167 610.167 479.5 594.5C463.833 578.833 456 559.667 456 537C456 514.333 463.833 495.167 479.5 479.5C495.167 463.833 514.333 456 537 456Z" fill="black"/>
</svg>
