<svg width="1075" height="1075" viewBox="0 0 1075 1075" fill="none" xmlns="http://www.w3.org/2000/svg">
<path d="M801 1003H275C249 1003 226.833 993.833 208.5 975.5C190.167 957.167 181 935 181 909V167C181 141 190.167 118.833 208.5 100.5C226.833 82.1667 249 73 275 73H801C827 73 849.167 82.1667 867.5 100.5C885.833 118.833 895 141 895 167V909C895 935 885.833 957.167 867.5 975.5C849.167 993.833 827 1003 801 1003ZM275 126C263.667 126 254 130.167 246 138.5C238 146.833 234 156.667 234 168V909C234 921 238 931.167 246 939.5C254 947.833 263.667 952 275 952H801C812.333 952 822 947.833 830 939.5C838 931.167 842 921 842 909V167C841.333 155.667 837.167 146 829.5 138C821.833 130 812.333 126 801 126H275ZM539 882H538C478.667 882 427.833 860.833 385.5 818.5C343.167 776.167 322 725.333 322 666C322 606.667 343.167 556 385.5 514C427.833 472 478.833 451 538.5 451C598.167 451 648.833 472 690.5 514C732.167 556 753 606.667 753 666C753 725.333 732 776.167 690 818.5C648 860.833 597.667 882 539 882ZM539 504C494.333 504 456 519.833 424 551.5C392 583.167 376 621.5 376 666.5C376 711.5 392 749.833 424 781.5C456 813.167 494.333 829 539 829C583.667 829 622 813.167 654 781.5C686 749.833 702 711.667 702 667V666C702 644 697.667 623 689 603C680.333 583 668.833 565.667 654.5 551C640.167 536.333 622.833 524.833 602.5 516.5C582.167 508.167 561 504 539 504ZM539 612C553.667 612 566.333 617.333 577 628C587.667 638.667 593 651.5 593 666.5C593 681.5 587.5 694.333 576.5 705C565.5 715.667 552.833 721 538.5 721C524.167 721 511.667 715.667 501 705C490.333 694.333 485 681.5 485 666.5C485 651.5 490.333 638.667 501 628C511.667 617.333 524.333 612 539 612ZM539 382C513 382 490.833 372.667 472.5 354C454.167 335.333 445 313 445 287C445 261 454.167 238.833 472.5 220.5C490.833 202.167 513 193 539 193C565 193 587.167 202.167 605.5 220.5C623.833 238.833 633 261 633 287C633 297.667 631.333 307.667 628 317C624.667 326.333 620 334.833 614 342.5C608 350.167 601.333 357 594 363C586.667 369 578.167 373.667 568.5 377C558.833 380.333 549 382 539 382ZM539 246C527 246 517 250.167 509 258.5C501 266.833 497 276.833 497 288.5C497 300.167 501 310 509 318C517 326 526.833 330 538.5 330C550.167 330 560.167 326 568.5 318C576.833 310 581 300 581 288V287C580.333 275.667 576 266 568 258C560 250 550.333 246 539 246Z" fill="black"/>
</svg>
