<svg viewBox="0 0 1223 1074.237" xmlns="http://www.w3.org/2000/svg"><path d="M849 439.237q16 1 27 12.5t11 27.5q0 19-15 31l-203 176 62 257q2 5 2 10 0 17-12 28.5t-28 11.5q-12 0-22-6l-227-138-228 138q-10 6-22 6-16 0-28-11.5t-12-28.5q0-5 2-10l62-257-203-176q-15-12-15-31 0-16 11-27.5t27-12.5l266-18 102-249q10-25 37.5-25t37.5 25l102 249 266 18zm-214 208l184-158-240-17q-32-3-44-32l-91-224-92 224q-12 29-44 32l-239 17 183 158q17 15 17 39 0 6-1 12l-56 232 205-125q12-7 26.5-7t26.5 7l205 125-56-232q-1-7-1-13 0-23 17-38z"/></svg>