<svg viewBox="0 0 1216 1074.237" xmlns="http://www.w3.org/2000/svg"><path d="M848 429.237q12 1 20 10 6 7 6 18 0 14-10 22l-144 123 45 184v7q0 12-8 20t-20 8q-8 0-15-4l-149-92-2-11-20-60q5-1 10-1 18 0 34 9l85 52-23-96q-2-7-2-16 0-7 3-16.5t8.5-18.5q5.5-9 10.5-14l76-65-98-7q-17-1-33.5-13t-22.5-29l-38-90-38 90q-2 5-5 11t-8 11q-5 5-9.5 8.5t-8.5 5.5l-19-57-5-12 67-166q4-11 15-15 6-2 11-2 7 0 15 5t11 12l72 175 189 14zm-376 257l45 184v6q0 8-3 15-8 14-25 13-7 0-15-4l-160-97-163 99q-6 4-14 3-3 0-6-1-6-2-11-6t-8-10q-3-6-3-12 0-3 1-6l44-184-144-124q-8-7-10-19v-2q0-12 8-19.5t19-8.5l188-14 73-176q4-11 14-14 5-2 12-3 7 0 15 5.5t10 11.5l73 176 187 14q12 1 20 9 6 8 6 19 0 12-9 21l-144 124z"/></svg>