<svg width="1075" height="1075" viewBox="0 0 1075 1075" fill="none" xmlns="http://www.w3.org/2000/svg">
<path d="M943 407C953.667 407.667 962.667 411.833 970 419.5C977.333 427.167 981 436.333 981 447C981 459.667 976 470 966 478L763 654L825 911C826.333 914.333 827 917.667 827 921C827 932.333 823 941.833 815 949.5C807 957.167 797.667 961 787 961C779 961 771.667 959 765 955L538 817L310 955C303.333 959 296 961 288 961C277.333 961 268 957.167 260 949.5C252 941.833 248 932.333 248 921C248 917.667 248.667 914.333 250 911L312 654L109 478C99 470 94 459.667 94 447C94 436.333 97.6667 427.167 105 419.5C112.333 411.833 121.333 407.667 132 407L398 389L500 140C506.667 123.333 519.167 115 537.5 115C555.833 115 568.333 123.333 575 140L677 389L943 407ZM729 615L913 457L673 440C651.667 438 637 427.333 629 408L538 184L446 408C438 427.333 423.333 438 402 440L163 457L346 615C357.333 625 363 638 363 654C363 658 362.667 662 362 666L306 898L511 773C519 768.333 527.833 766 537.5 766C547.167 766 556 768.333 564 773L769 898L713 666C712.333 661.333 712 657 712 653C712 637.667 717.667 625 729 615Z" fill="black"/>
</svg>
