<svg width="1075" height="1075" viewBox="0 0 1075 1075" fill="none" xmlns="http://www.w3.org/2000/svg">
<path d="M949 403C957 403.667 963.667 407 969 413C973 417.667 975 423.667 975 431C975 440.333 971.667 447.667 965 453L821 576L866 760V767C866 775 863.333 781.667 858 787C852.667 792.333 846 795 838 795C832.667 795 827.667 793.667 823 791L674 699L672 688L652 628C655.333 627.333 658.667 627 662 627C674 627 685.333 630 696 636L781 688L758 592C756.667 587.333 756 582 756 576C756 571.333 757 565.833 759 559.5C761 553.167 763.833 547 767.5 541C771.167 535 774.667 530.333 778 527L854 462L756 455C744.667 454.333 733.5 450 722.5 442C711.5 434 704 424.333 700 413L662 323L624 413C622.667 416.333 621 420 619 424C617 428 614.333 431.667 611 435C607.667 438.333 604.5 441.167 601.5 443.5C598.5 445.833 595.667 447.667 593 449L574 392L569 380L636 214C638.667 206.667 643.667 201.667 651 199C655 197.667 658.667 197 662 197C666.667 197 671.667 198.667 677 202C682.333 205.333 686 209.333 688 214L760 389L949 403ZM573 660L618 844V850C618 855.333 617 860.333 615 865C609.667 874.333 601.333 878.667 590 878C585.333 878 580.333 876.667 575 874L415 777L252 876C248 878.667 243.333 879.667 238 879C236 879 234 878.667 232 878C228 876.667 224.333 874.667 221 872C217.667 869.333 215 866 213 862C211 858 210 854 210 850C210 848 210.333 846 211 844L255 660L111 536C105.667 531.333 102.333 525 101 517V515C101 507 103.667 500.5 109 495.5C114.333 490.5 120.667 487.667 128 487L316 473L389 297C391.667 289.667 396.333 285 403 283C406.333 281.667 410.333 280.667 415 280C419.667 280 424.667 281.833 430 285.5C435.333 289.167 438.667 293 440 297L513 473L700 487C708 487.667 714.667 490.667 720 496C724 501.333 726 507.667 726 515C726 523 723 530 717 536L573 660Z" fill="black"/>
</svg>
