<svg viewBox="0 0 1222 1074.237" xmlns="http://www.w3.org/2000/svg"><path d="M795 273.237q37 0 63.5 26.5t26.5 63.5v474q0 37-26.5 63.5t-63.5 26.5H90q-25 0-45.5-12t-32.5-32.5q-12-20.5-12-45.5v-474q0-37 26.5-63.5t63.5-26.5h705zm39 564v-474q0-16-11.5-27.5t-27.5-11.5H90q-16 0-27 11.5t-11 27.5v474q0 16 11 27.5t27 11.5h705q6 0 12-2t11-5.5q5-3.5 8.5-8.5t5.5-11q2-6 2-12zm-542-233q10 8 14 19 5 11 5 23v5q0 27-22 44t-67 17h-2q-21 0-41-5-19-5-37-15l14-32q16 8 33 12 15 5 31 5h5q16 0 30-7 12-6 12-19 0-1-1-1 1-1 1-2 0-4-2-8-2-6-6-9-6-5-13-8l-22-8q-19-5-36-13-13-6-23-16-9-8-14-19-4-11-4-22v-1-.5-1.5q0-27 22-44 21-17 65-17 19 0 36 5t32 14l-15 34q-12-8-26-12-13-5-27-5h-5q-15 0-28 7-10 6-10 18 0 6 2 10 2 6 7 10 7 5 14 8 12 5 25 8 16 5 31 12 12 5 22 14zm194 24v-143h44v138q0 45-22 67t-68.5 22q-46.5 0-68-21.5t-21.5-67.5v-138h44v143q-1 2-1 4 0 18 12 32 13 12 31 12h7q18 0 31-12 12-14 12-32v-4zm232-38q15 6 24 20t9 31v6q0 27-21 45-23 17-52 17h-98v-224h95q27 0 51 15 19 15 19 40v5q0 15-7 27t-20 18zm-94-70v54h46q12 0 22-8 9-7 9-19v-1-1q0-11-9-19-11-6-23-6h-45zm73 145q10-8 10-21v-1-2q0-14-10-23-11-8-26-8h-47v63h46q15 0 27-8z"/></svg>