<svg width="1075" height="1075" viewBox="0 0 1075 1075" fill="none" xmlns="http://www.w3.org/2000/svg">
<path d="M890 211C914.667 211 935.833 219.833 953.5 237.5C971.167 255.167 980 276.333 980 301V775C980 799.667 971.167 820.833 953.5 838.5C935.833 856.167 914.667 865 890 865H185C168.333 865 153.167 861 139.5 853C125.833 845 115 834.167 107 820.5C99 806.833 95 791.667 95 775V301C95 276.333 103.833 255.167 121.5 237.5C139.167 219.833 160.333 211 185 211H890ZM929 775V301C929 290.333 925.167 281.167 917.5 273.5C909.833 265.833 900.667 262 890 262H185C174.333 262 165.333 265.833 158 273.5C150.667 281.167 147 290.333 147 301V775C147 785.667 150.667 794.833 158 802.5C165.333 810.167 174.333 814 185 814H890C894 814 898 813.333 902 812C906 810.667 909.667 808.833 913 806.5C916.333 804.167 919.167 801.333 921.5 798C923.833 794.667 925.667 791 927 787C928.333 783 929 779 929 775ZM387 542C393.667 547.333 398.333 553.667 401 561C404.333 568.333 406 576 406 584V589C406 607 398.667 621.667 384 633C369.333 644.333 347 650 317 650H315C301 650 287.333 648.333 274 645C261.333 641.667 249 636.667 237 630L251 598C261.667 603.333 272.667 607.333 284 610C294 613.333 304.333 615 315 615H320C330.667 615 340.667 612.667 350 608C358 604 362 597.667 362 589C362 588.333 361.667 588 361 588C361.667 587.333 362 586.667 362 586C362 583.333 361.333 580.667 360 578C358.667 574 356.667 571 354 569C350 565.667 345.667 563 341 561L319 553C306.333 549.667 294.333 545.333 283 540C274.333 536 266.667 530.667 260 524C254 518.667 249.333 512.333 246 505C243.333 497.667 242 490.333 242 483V482V481.5V480C242 462 249.333 447.333 264 436C278 424.667 299.667 419 329 419C341.667 419 353.667 420.667 365 424C376.333 427.333 387 432 397 438L382 472C374 466.667 365.333 462.667 356 460C347.333 456.667 338.333 455 329 455H324C314 455 304.667 457.333 296 462C289.333 466 286 472 286 480C286 484 286.667 487.333 288 490C289.333 494 291.667 497.333 295 500C299.667 503.333 304.333 506 309 508C317 511.333 325.333 514 334 516C344.667 519.333 355 523.333 365 528C373 531.333 380.333 536 387 542ZM581 566V423H625V561C625 591 617.667 613.333 603 628C588.333 642.667 565.5 650 534.5 650C503.5 650 480.833 642.833 466.5 628.5C452.167 614.167 445 591.667 445 561V423H489V566C488.333 567.333 488 568.667 488 570C488 582 492 592.667 500 602C508.667 610 519 614 531 614H538C550 614 560.333 610 569 602C577 592.667 581 582 581 570V566ZM813 528C823 532 831 538.667 837 548C843 557.333 846 567.667 846 579V585C846 603 839 618 825 630C809.667 641.333 792.333 647 773 647H675V423H770C788 423 805 428 821 438C833.667 448 840 461.333 840 478V483C840 493 837.667 502 833 510C828.333 518 821.667 524 813 528ZM719 458V512H765C773 512 780.333 509.333 787 504C793 499.333 796 493 796 485V484V483C796 475.667 793 469.333 787 464C779.667 460 772 458 764 458H719ZM792 603C798.667 597.667 802 590.667 802 582V581V579C802 569.667 798.667 562 792 556C784.667 550.667 776 548 766 548H719V611H765C775 611 784 608.333 792 603Z" fill="black"/>
</svg>
