<svg width="1075" height="1075" viewBox="0 0 1075 1075" fill="none" xmlns="http://www.w3.org/2000/svg">
<path d="M890 211C914.667 211 935.833 219.833 953.5 237.5C971.167 255.167 980 276.333 980 301V775C980 799.667 971.167 820.833 953.5 838.5C935.833 856.167 914.667 865 890 865H185C168.333 865 153.167 861 139.5 853C125.833 845 115 834.167 107 820.5C99 806.833 95 791.667 95 775V301C95 276.333 103.833 255.167 121.5 237.5C139.167 219.833 160.333 211 185 211H890ZM929 775V301C929 290.333 925.167 281.167 917.5 273.5C909.833 265.833 900.667 262 890 262H185C174.333 262 165.333 265.833 158 273.5C150.667 281.167 147 290.333 147 301V775C147 785.667 150.667 794.833 158 802.5C165.333 810.167 174.333 814 185 814H890C894 814 898 813.333 902 812C906 810.667 909.667 808.833 913 806.5C916.333 804.167 919.167 801.333 921.5 798C923.833 794.667 925.667 791 927 787C928.333 783 929 779 929 775ZM394 571L471 572H474C488.667 572 503 571 517 569V599C504.333 597 491.667 596 479 596C476.333 596 473.667 596.333 471 597H394V669C394 677 390.667 683 384 687C368 692.333 352 695.667 336 697C335.333 683.667 331 672.333 323 663C355 667.667 369.333 663.333 366 650V596H270C256 596 242.333 597 229 599V570C241.667 572 254.333 573 267 573H366V548C386.667 539.333 406.333 528.667 425 516H330C315.333 516 300.333 517 285 519V493C302.333 494.333 319.667 495.333 337 496H422C433.333 495.333 445 494.333 457 493H462V522C450 523.333 427.333 536.333 394 561V571ZM238 505C240 493 241 481 241 469V465V463C241 453.667 240 444.333 238 435C253.333 437 268.667 438 284 438H364C362 425.333 358.333 413.333 353 402L388 398C392.667 410.667 396 424 398 438H454C472.667 438 491 436.667 509 434C507 441.333 506 448.667 506 456V474C506 484 507 494.333 509 505H474C474.667 503 475 500.667 475 498C475.667 490.667 476 480.667 476 468V460H269V470C269 481.333 270 493 272 505H238ZM787 586H777C802.333 607.333 831.667 621 865 627C862.333 631.667 859.333 636.167 856 640.5C852.667 644.833 849.667 649.333 847 654C832.333 648 818 640.667 804 632C802 636 801 640 801 644V670C800.333 683.333 786 691.667 758 695C756 684.333 751.667 674.667 745 666C765 668 776 665.333 778 658V636H720V660C720 673.333 721 686.333 723 699H693C695 679.667 696 660.667 696 642V636H644C644.667 644.667 645 653.333 645 662V673C645 679 645.333 685 646 691H618C618.667 687 619 682.667 619 678V674C619.667 671.333 620 668.333 620 665V635V634C620 632 619.667 630 619 628C615 630 611.667 632.333 609 635C597.667 643 586 650 574 656C568.667 646.667 561.667 638.667 553 632C585.667 622.667 615 607 641 585H601C588.333 585 575.667 586 563 588V564C577.667 565.333 592.333 566 607 566H659C665 559.333 670.333 552.667 675 546H636C634.667 545.333 633 545 631 545C621.667 545 612.667 546 604 548C605.333 538 606 528.667 606 520V483C606 475.667 605.333 468.333 604 461C610.667 463 617.667 464 625 464H653V444H609C607 443.333 605.333 443 604 443C590 443 576.333 444 563 446V422C577.667 423.333 592 424 606 424H653V409C653 405 652.667 400.667 652 396C672.667 395.333 683.333 395.667 684 397C684.667 398.333 684 400 682 402C679.333 407.333 678 413 678 419V424H736C736 414.667 735 405.333 733 396H739C745.667 396 752 396.667 758 398C763.333 398 766.333 398.333 767 399V403C763 409 761 415.667 761 423V424H803C820.333 424 837.333 422.667 854 420V444C850 443.333 832.333 443 801 443H761V463H787C795.667 463 804.333 462 813 460C811.667 466 811 472 811 478V525C811 533 811.667 540.667 813 548C803 546 793 545 783 545H702L686 566H798C817.333 566 837 565 857 563V588C838.333 586 820 585 802 585C797.333 585 792.333 585.333 787 586ZM678 444V464H737V444H678ZM630 478V496H786V478H630ZM630 530H786V511H630V530ZM696 618V586H670C659.333 596.667 647.667 606.667 635 616C641 618 647 619 653 619C655.667 619 658.333 618.667 661 618H696ZM782 616C772 606.667 763.333 596.667 756 586H721V618H759C767 618 774.667 617.333 782 616Z" fill="black"/>
</svg>
