<svg width="1075" height="1075" viewBox="0 0 1075 1075" fill="none" xmlns="http://www.w3.org/2000/svg">
<path d="M890 211C914.667 211 935.833 219.833 953.5 237.5C971.167 255.167 980 276.333 980 301V775C980 799.667 971.167 820.833 953.5 838.5C935.833 856.167 914.667 865 890 865H185C168.333 865 153.167 861 139.5 853C125.833 845 115 834.167 107 820.5C99 806.833 95 791.667 95 775V301C95 276.333 103.833 255.167 121.5 237.5C139.167 219.833 160.333 211 185 211H890ZM928 775V301C928 290.333 924.333 281.167 917 273.5C909.667 265.833 900.667 262 890 262H185C174.333 262 165.167 265.833 157.5 273.5C149.833 281.167 146 290.333 146 301V775C146 785.667 149.833 794.833 157.5 802.5C165.167 810.167 174.333 814 185 814H890C894 814 898 813.333 902 812C906 810.667 909.667 808.833 913 806.5C916.333 804.167 919.167 801.333 921.5 798C923.833 794.667 925.5 791 926.5 787C927.5 783 928 779 928 775ZM497 386V488H538V525H497V695H452V386H497ZM389 531C403.667 551.667 422 568.667 444 582L416 613C408.667 608.333 401.667 603.333 395 598C388.333 592.667 382 587 376 581C370 575 364.667 568.667 360 562C354.667 555.333 350.333 548.667 347 542C338.333 556.667 328.333 570 317 582C304.333 594.667 290.667 606 276 616L248 585C259.333 577 270 568.333 280 559C288.667 551 296.667 542 304 532C310 523.333 315 514 319 504C322.333 495.333 324.333 486.333 325 477V441H268V404H424V441H370V477C370.667 497 377 515 389 531ZM794 386V454H835V491H794V562H749V386H794ZM710 400V543H588C586.667 543.667 585.333 544 584 544C577.333 544 571.333 542 566 538C561.333 532.667 559 526.333 559 519C559 517.667 559.333 516.333 560 515V400H710ZM665 506V436H604V501C604 502.333 604.333 503.667 605 505C606.333 506.333 608 507 610 507V506H665ZM598 615V578H794V698H749V615H598Z" fill="black"/>
</svg>
