<svg viewBox="0 0 1221 1074.237" xmlns="http://www.w3.org/2000/svg"><path d="M795 273.237q37 0 63.5 26.5t26.5 63.5v474q0 37-26.5 63.5t-63.5 26.5H90q-25 0-45.5-12t-32.5-32.5q-12-20.5-12-45.5v-474q0-37 26.5-63.5t63.5-26.5h705zm38 564v-474q0-16-11-27.5t-27-11.5H90q-16 0-27.5 11.5t-11.5 27.5v474q0 16 11.5 27.5t27.5 11.5h705q6 0 12-2t11-5.5q5-3.5 8.5-8.5t5-11q1.5-6 1.5-12zm-431-389v102h41v37h-41v170h-45v-309h45zm-108 145q22 31 55 51l-28 31q-11-7-21-15t-19-17q-9-9-16-19-8-10-13-20-13 22-30 40-19 19-41 34l-28-31q17-12 32-26 13-12 24-27 9-13 15-28 5-13 6-27v-36h-57v-37h156v37h-54v36q1 30 19 54zm405-145v68h41v37h-41v71h-45v-176h45zm-84 14v143H493q-2 1-4 1-10 0-18-6-7-8-7-19 0-2 1-4v-115h150zm-45 106v-70h-61v65q0 2 1 4 2 2 5 2v-1h55zm-67 109v-37h196v120h-45v-83H503z"/></svg>