<svg viewBox="0 0 1222 1074.237" xmlns="http://www.w3.org/2000/svg"><path d="M795 273.237q37 0 63.5 26.5t26.5 63.5v474q0 37-26.5 63.5t-63.5 26.5H90q-25 0-45.5-12t-32.5-32.5q-12-20.5-12-45.5v-474q0-37 26.5-63.5t63.5-26.5h705zm39 564v-474q0-16-11.5-27.5t-27.5-11.5H90q-16 0-27 11.5t-11 27.5v474q0 16 11 27.5t27 11.5h705q6 0 12-2t11-5.5q5-3.5 8.5-8.5t5.5-11q2-6 2-12zm-535-204l77 1h3q22 0 43-3v30q-19-3-38-3-4 0-8 1h-77v72q0 12-10 18-24 8-48 10-1-20-13-34 48 7 43-13v-54h-96q-21 0-41 3v-29q19 3 38 3h99v-25q31-13 59-32h-95q-22 0-45 3v-26q26 2 52 3h85q17-1 35-3h5v29q-18 2-68 39v10zm-156-66q3-18 3-36v-4-2q0-14-3-28 23 3 46 3h80q-3-19-11-36l35-4q7 19 10 40h56q28 0 55-4-3 11-3 22v18q0 15 3 31h-35q1-3 1-7 1-11 1-30v-8H174v10q0 17 3 35h-34zm549 81h-10q38 32 88 41-4 7-9 13.5t-9 13.5q-22-9-43-22-3 6-3 12v26q-1 20-43 25-3-16-13-29 30 3 33-8v-22h-58v24q0 20 3 39h-30q3-29 3-57v-6h-52q1 13 1 26v11q0 9 1 18h-28q1-6 1-13v-4q1-4 1-9v-30-1q0-3-1-6-6 3-10 7-17 12-35 21-8-14-21-24 49-14 88-47h-40q-19 0-38 3v-24q22 2 44 2h52q9-10 16-20h-39q-2-1-5-1-14 0-27 3 2-15 2-28v-37q0-11-2-22 10 3 21 3h28v-20h-44q-3-1-5-1-21 0-41 3v-24q22 2 43 2h47v-15q0-6-1-13 31-1 32 1t-2 5q-4 8-4 17v5h58q0-14-3-28h6q10 0 19 2 8 0 9 1v4q-6 9-6 20v1h42q26 0 51-4v24q-6-1-53-1h-40v20h26q13 0 26-3-2 9-2 18v47q0 12 2 23-15-3-30-3h-81l-16 21h112q29 0 59-3v25q-28-3-55-3-7 0-15 1zm-109-142v20h59v-20h-59zm-48 34v18h156v-18H535zm0 52h156v-19H535v19zm66 88v-32h-26q-16 16-35 30 9 3 18 3 4 0 8-1h35zm86-2q-15-14-26-30h-35v32h38q12 0 23-2z"/></svg>