<svg viewBox="0 0 1202 1074.237" xmlns="http://www.w3.org/2000/svg"><path d="M737 486.237q45 0 77 32.5t32 78.5v122q0 45-32 78t-77 33h-20v54q0 18-6 34.5t-16 30q-10 13.5-23.5 24t-29.5 16q-16 5.5-35 5.5H422q-26-1-44.5-21t-18.5-46.5q0-26.5 18.5-46t44.5-21.5h50q9 0 18 3 20 5 34.5 24t14.5 40q0 11-2 20h70q16 0 29.5-8t22.5-22q9-14 9-31v-452q-4-97-76-166.5t-169-69.5q-102 0-174 72t-72 174v387h-68q-45 0-77-32.5t-32-77.5v-123q0-46 32-78.5t78-32.5h19v-43q-1-9-1-18 0-122 86.5-208t208.5-86q122 0 208.5 86t86.5 208v61h19zm-689 234q0 25 18 43t43 18h19v-246h-19q-25 0-43 18.5t-18 43.5v123zm749 0l1-123q0-25-18-43.5t-43-18.5h-19v246h19q24 0 42-18.5t18-42.5z"/></svg>