<svg viewBox="0 0 1193 1074.237" xmlns="http://www.w3.org/2000/svg"><path d="M27 513.237q-11 0-19-8t-8-19v-261q0-30 21-51t51-21h261q11 0 19 8t8 19q0 11-8 19t-19 8H72q-8 0-13 5t-5 13v261q0 11-8 19t-19 8zm45 468q-30 0-51-21t-21-51v-261q0-11 8-19t19-8q11 0 19 8t8 19v261q0 8 5 13t13 5h261q11 0 19 8t8 19q0 11-8 19t-19 8H72zm423 0q-11 0-19-8t-8-19q0-11 8-19t19-8h261q8 0 13-5t5-13v-261q0-11 8-19t19-8q11 0 19 8t8 19v261q0 30-21 51t-51 21H495zm306-468q-11 0-19-8t-8-19v-261q0-8-5-13t-13-5H495q-11 0-19-8t-8-19q0-11 8-19t19-8h261q30 0 51 21t21 51v261q0 11-8 19t-19 8zm-224-145v57H448v379h-68v-379H251v-57h326z"/></svg>