<svg width="1075" height="1075" viewBox="0 0 1075 1075" fill="none" xmlns="http://www.w3.org/2000/svg">
<path d="M151 484C143.667 484 137.333 481.333 132 476C126.667 470.667 124 464.333 124 457V196C124 176 131 159 145 145C159 131 176 124 196 124H457C464.333 124 470.667 126.667 476 132C481.333 137.333 484 143.667 484 151C484 158.333 481.333 164.667 476 170C470.667 175.333 464.333 178 457 178H196C190.667 178 186.333 179.667 183 183C179.667 186.333 178 190.667 178 196V457C178 464.333 175.333 470.667 170 476C164.667 481.333 158.333 484 151 484ZM196 952C176 952 159 945 145 931C131 917 124 900 124 880V619C124 611.667 126.667 605.333 132 600C137.333 594.667 143.667 592 151 592C158.333 592 164.667 594.667 170 600C175.333 605.333 178 611.667 178 619V880C178 885.333 179.667 889.667 183 893C186.333 896.333 190.667 898 196 898H457C464.333 898 470.667 900.667 476 906C481.333 911.333 484 917.667 484 925C484 932.333 481.333 938.667 476 944C470.667 949.333 464.333 952 457 952H196ZM619 952C611.667 952 605.333 949.333 600 944C594.667 938.667 592 932.333 592 925C592 917.667 594.667 911.333 600 906C605.333 900.667 611.667 898 619 898H880C885.333 898 889.667 896.333 893 893C896.333 889.667 898 885.333 898 880V619C898 611.667 900.667 605.333 906 600C911.333 594.667 917.667 592 925 592C932.333 592 938.667 594.667 944 600C949.333 605.333 952 611.667 952 619V880C952 900 945 917 931 931C917 945 900 952 880 952H619ZM925 484C917.667 484 911.333 481.333 906 476C900.667 470.667 898 464.333 898 457V196C898 190.667 896.333 186.333 893 183C889.667 179.667 885.333 178 880 178H619C611.667 178 605.333 175.333 600 170C594.667 164.667 592 158.333 592 151C592 143.667 594.667 137.333 600 132C605.333 126.667 611.667 124 619 124H880C900 124 917 131 931 145C945 159 952 176 952 196V457C952 464.333 949.333 470.667 944 476C938.667 481.333 932.333 484 925 484ZM701 339V396H572V775H504V396H375V339H701Z" fill="black"/>
</svg>
