<svg width="1075" height="1075" viewBox="0 0 1075 1075" fill="none" xmlns="http://www.w3.org/2000/svg">
<path d="M755 561H515V285H560V514H755V561ZM560 285V514H755V561H515V285H560ZM240 240C322 158 421.333 117 538 117C654.667 117 754 158 836 240C918 322 959 421.333 959 538C959 654.667 918 754 836 836C754 918 654.667 959 538 959C421.333 959 322 918 240 836C158 754 117 654.667 117 538C117 421.333 158 322 240 240ZM912 538C912 487.333 902.167 438.833 882.5 392.5C862.833 346.167 836.333 306.333 803 273C769.667 239.667 729.833 213.167 683.5 193.5C637.167 173.833 588.667 164 538 164C470 164 407.333 180.667 350 214C292.667 247.333 247.333 292.667 214 350C180.667 407.333 164 469.833 164 537.5C164 605.167 180.667 667.833 214 725.5C247.333 783.167 292.667 828.667 350 862C407.333 895.333 470 912 538 912C606 912 668.667 895.333 726 862C783.333 828.667 828.667 783.167 862 725.5C895.333 667.833 912 605.333 912 538Z" fill="black"/>
</svg>
