<svg width="1075" height="1075" viewBox="0 0 1075 1075" fill="none" xmlns="http://www.w3.org/2000/svg">
<path d="M781 969C753 969 726.333 964.5 701 955.5C675.667 946.5 652.667 934 632 918C611.333 902 593.5 883.167 578.5 861.5C563.5 839.833 552.667 816 546 790H124C104 790 87 782.833 73 768.5C59 754.167 52 737.333 52 718V178C52 158 59 141 73 127C87 113 104 106 124 106H844C864 106 881 113 895 127C909 141 916 158 916 178V524C948.667 546 974.833 574.667 994.5 610C1014.17 645.333 1024 684 1024 726C1024 759.333 1017.67 790.833 1005 820.5C992.333 850.167 975 876 953 898C931 920 905.167 937.333 875.5 950C845.833 962.667 814.333 969 781 969ZM862 178C862 172.667 860.333 168.333 857 165C853.667 161.667 849.333 160 844 160H124C118.667 160 114.333 161.667 111 165C107.667 168.333 106 172.667 106 178V718C106 722.667 107.667 726.833 111 730.5C114.333 734.167 118.667 736 124 736H538V726C538 692.667 544.333 661.167 557 631.5C569.667 601.833 587 576 609 554C631 532 656.833 514.667 686.5 502C716.167 489.333 747.667 483 781 483C808.333 483 835.333 487.667 862 497V178ZM781 537C755 537 730.5 542 707.5 552C684.5 562 664.5 575.5 647.5 592.5C630.5 609.5 617 629.5 607 652.5C597 675.5 592 700 592 726C592 752 597 776.5 607 799.5C617 822.5 630.5 842.5 647.5 859.5C664.5 876.5 684.5 890 707.5 900C730.5 910 755 915 781 915C807 915 831.5 910 854.5 900C877.5 890 897.5 876.5 914.5 859.5C931.5 842.5 945 822.5 955 799.5C965 776.5 970 752 970 726C970 700 965 675.5 955 652.5C945 629.5 931.5 609.5 914.5 592.5C897.5 575.5 877.5 562 854.5 552C831.5 542 807 537 781 537ZM733 648C733 644 734.833 641 738.5 639C742.167 637 745.667 637.333 749 640L872 718C875.333 720 877 722.667 877 726C877 729.333 875.333 732 872 734L749 812C745.667 814.667 742.167 815 738.5 813C734.833 811 733 808 733 804V648Z" fill="black"/>
</svg>
