<svg viewBox="0 0 1243 1074.237" xmlns="http://www.w3.org/2000/svg"><path d="M288 974.237v-54h350v54H288zm547-821q25 0 46.5 12.5t34 34q12.5 21.5 13.5 46.5v458q-1 25-13.5 47.5t-34 34.5q-21.5 12-46.5 12H94q-39 0-66.5-27.5T0 704.237v-456q0-39 27.5-67t66.5-28h741zm40 551v-456q0-17-12.5-29.5t-27.5-12.5H94q-11 0-20 6t-14.5 15q-5.5 9-5.5 19v458q0 17 12 29t28 12h741q11 0 20-5.5t14.5-14.5q5.5-9 5.5-21zm-312-355q14 12 22.5 32.5t8.5 38.5v6q1 4 1 9 0 12-4.5 25.5t-12 25.5q-7.5 12-15.5 20-15 11-38 18.5t-42 7.5h-67v117h-64v-326h123q4-1 9-1 18 0 41.5 8t37.5 19zm-48 117q16-15 15-34v-4-5q0-21-14-34-17-14-37-14h-62v104h60q22-1 38-13z"/></svg>