<svg width="1075" height="1075" viewBox="0 0 1075 1075" fill="none" xmlns="http://www.w3.org/2000/svg">
<path d="M361 948V894H711V948H361ZM908 127C924.667 127 940.167 131.167 954.5 139.5C968.833 147.833 980.167 159.167 988.5 173.5C996.833 187.833 1001.33 203.333 1002 220V678C1001.33 694.667 996.833 710.5 988.5 725.5C980.167 740.5 968.833 752 954.5 760C940.167 768 924.667 772 908 772H167C141 772 118.833 762.833 100.5 744.5C82.1667 726.167 73 704 73 678V222C73 196 82.1667 173.667 100.5 155C118.833 136.333 141 127 167 127H908ZM948 678V222C948 210.667 943.833 200.833 935.5 192.5C927.167 184.167 918 180 908 180H167C159.667 180 153 182 147 186C141 190 136.167 195 132.5 201C128.833 207 127 213.333 127 220V678C127 689.333 131 699 139 707C147 715 156.333 719 167 719H908C915.333 719 922 717.167 928 713.5C934 709.833 938.833 705 942.5 699C946.167 693 948 686 948 678ZM636 323C645.333 331 652.833 341.833 658.5 355.5C664.167 369.167 667 382 667 394V400C667.667 402.667 668 405.667 668 409C668 417 666.5 425.5 663.5 434.5C660.5 443.5 656.5 452 651.5 460C646.5 468 641.333 474.667 636 480C626 487.333 613.333 493.5 598 498.5C582.667 503.5 568.667 506 556 506H489V623H425V297H548C550.667 296.333 553.667 296 557 296C569 296 582.833 298.667 598.5 304C614.167 309.333 626.667 315.667 636 323ZM588 440C598.667 430 603.667 418.667 603 406V402V397C603 383 598.333 371.667 589 363C577.667 353.667 565.333 349 552 349H490V453H550C564.667 452.333 577.333 448 588 440Z" fill="black"/>
</svg>
