<svg viewBox="0 0 1179 1074.237" xmlns="http://www.w3.org/2000/svg"><path d="M680 270.237v47H0v-47h316v-95h47v95h317zm-458 529v-348h48v348h-48zm189-96v-252h47v252h-47zm182-158v-158h47v158h-47zm-506 367q0 6 3 11t9 8.5q6 3.5 12 3.5h263v48H111q-29 0-50.5-21t-21.5-50v-525h48v525zm625-136h78v185q0 11-7 21.5t-16 14.5q-29 14-73.5 22.5t-77.5 8.5q-21 0-49-4t-55-11.5q-27-7.5-46-15.5-9-4-16.5-14.5t-7.5-21.5v-185h80v-79q0-39 28-67t67-28q39 0 67 28t28 67v79zm-72 142v-71h-47v71h47zm25-142v-79q0-20-14-33.5t-33.5-13.5q-19.5 0-33.5 13.5t-14 33.5v79h95z"/></svg>