<svg width="1075" height="1075" viewBox="0 0 1075 1075" fill="none" xmlns="http://www.w3.org/2000/svg">
<path d="M561 242H900V289H176V242H515V166H561V242ZM421 739V435H468V739H421ZM609 739V435H655V739H609ZM790 827V368H836V827C836 841.667 832.333 855.333 825 868C817.667 880.667 808 890.667 796 898C784 905.333 770.333 909 755 909H321C298.333 909 279.167 901 263.5 885C247.833 869 240 849.667 240 827V368H287V827C287 837 290.5 845.333 297.5 852C304.5 858.667 312.333 862 321 862H755C764.333 862 772.5 858.667 779.5 852C786.5 845.333 790 837 790 827Z" fill="black"/>
</svg>
