<svg width="1075" height="1075" viewBox="0 0 1075 1075" fill="none" xmlns="http://www.w3.org/2000/svg">
<path d="M823 206V253H143V206H459V111H506V206H823ZM365 735V387H413V735H365ZM554 639V387H601V639H554ZM736 481V323H783V481H736ZM230 848C230 852 231 855.667 233 859C235 862.333 238 865.167 242 867.5C246 869.833 250 871 254 871H517V919H254C234.667 919 217.833 912 203.5 898C189.167 884 182 867.333 182 848V323H230V848ZM855 712H933V897C933 904.333 930.667 911.5 926 918.5C921.333 925.5 916 930.333 910 933C890.667 942.333 866.167 949.833 836.5 955.5C806.833 961.167 781 964 759 964C745 964 728.667 962.667 710 960C691.333 957.333 673 953.5 655 948.5C637 943.5 621.667 938.333 609 933C603 930.333 597.5 925.5 592.5 918.5C587.5 911.5 585 904.333 585 897V712H665V633C665 607 674.333 584.667 693 566C711.667 547.333 734 538 760 538C786 538 808.333 547.333 827 566C845.667 584.667 855 607 855 633V712ZM783 854V783H736V854H783ZM808 712V633C808 619.667 803.333 608.5 794 599.5C784.667 590.5 773.5 586 760.5 586C747.5 586 736.333 590.5 727 599.5C717.667 608.5 713 619.667 713 633V712H808Z" fill="black"/>
</svg>
