<svg viewBox="0 0 1247 1074.237" xmlns="http://www.w3.org/2000/svg"><path d="M711 1053.237q-69 0-125.5-34.5t-87.5-91.5H72q-30 0-51-21t-21-51v-576q0-30 21-51t51-21h792q30 0 51 21t21 51v261q0 11-8 19t-19 8q-11 0-19-8t-8-19v-261q0-8-5-13t-13-5H72q-8 0-13 5t-5 13v576q0 8 5 13t13 5h404q-8-32-8-63v-9h-81q-11 0-19-8t-8-19q0-11 8-19t19-8h89q10-39 33-72H387q-11 0-19-8t-8-19q0-11 8-19t19-8h171q32-26 70.5-40t82.5-14q50 0 94.5 19t77.5 52q33 33 52 77.5t19 94.5q0 50-19 94.5t-52 77.5q-33 33-77.5 52t-94.5 19zm0-432q-39 0-73.5 15t-60 40.5q-25.5 25.5-40.5 60t-15 73.5q0 39 15 73.5t40.5 60q25.5 25.5 60 40.5t73.5 15q39 0 73.5-15t60-40.5q25.5-25.5 40.5-60t15-73.5q0-39-15-73.5t-40.5-60q-25.5-25.5-60-40.5t-73.5-15zm-513-72q-30 0-51-21t-21-51v-72q0-30 21-51t51-21h216q30 0 51 21t21 51v72q0 30-21 51t-51 21H198zm0-162q-8 0-13 5t-5 13v72q0 8 5 13t13 5h216q8 0 13-5t5-13v-72q0-8-5-13t-13-5H198zm-45 288q-11 0-19-8t-8-19q0-11 8-19t19-8h108q11 0 19 8t8 19q0 11-8 19t-19 8H153zm0 126q-11 0-19-8t-8-19q0-11 8-19t19-8h108q11 0 19 8t8 19q0 11-8 19t-19 8H153z"/></svg>