<svg width="1075" height="1075" viewBox="0 0 1075 1075" fill="none" xmlns="http://www.w3.org/2000/svg">
<path d="M772 961C726 961 684.167 949.5 646.5 926.5C608.833 903.5 579.667 873 559 835H133C113 835 96 828 82 814C68 800 61 783 61 763V187C61 167 68 150 82 136C96 122 113 115 133 115H925C945 115 962 122 976 136C990 150 997 167 997 187V448C997 455.333 994.333 461.667 989 467C983.667 472.333 977.333 475 970 475C962.667 475 956.333 472.333 951 467C945.667 461.667 943 455.333 943 448V187C943 181.667 941.333 177.333 938 174C934.667 170.667 930.333 169 925 169H133C127.667 169 123.333 170.667 120 174C116.667 177.333 115 181.667 115 187V763C115 768.333 116.667 772.667 120 776C123.333 779.333 127.667 781 133 781H537C531.667 759.667 529 738.667 529 718V709H448C440.667 709 434.333 706.333 429 701C423.667 695.667 421 689.333 421 682C421 674.667 423.667 668.333 429 663C434.333 657.667 440.667 655 448 655H537C543.667 629 554.667 605 570 583H448C440.667 583 434.333 580.333 429 575C423.667 569.667 421 563.333 421 556C421 548.667 423.667 542.333 429 537C434.333 531.667 440.667 529 448 529H619C640.333 511.667 663.833 498.333 689.5 489C715.167 479.667 742.667 475 772 475C805.333 475 836.833 481.333 866.5 494C896.167 506.667 922 524 944 546C966 568 983.333 593.833 996 623.5C1008.67 653.167 1015 684.667 1015 718C1015 751.333 1008.67 782.833 996 812.5C983.333 842.167 966 868 944 890C922 912 896.167 929.333 866.5 942C836.833 954.667 805.333 961 772 961ZM772 529C746 529 721.5 534 698.5 544C675.5 554 655.5 567.5 638.5 584.5C621.5 601.5 608 621.5 598 644.5C588 667.5 583 692 583 718C583 744 588 768.5 598 791.5C608 814.5 621.5 834.5 638.5 851.5C655.5 868.5 675.5 882 698.5 892C721.5 902 746 907 772 907C798 907 822.5 902 845.5 892C868.5 882 888.5 868.5 905.5 851.5C922.5 834.5 936 814.5 946 791.5C956 768.5 961 744 961 718C961 692 956 667.5 946 644.5C936 621.5 922.5 601.5 905.5 584.5C888.5 567.5 868.5 554 845.5 544C822.5 534 798 529 772 529ZM259 457C239 457 222 450 208 436C194 422 187 405 187 385V313C187 293 194 276 208 262C222 248 239 241 259 241H475C495 241 512 248 526 262C540 276 547 293 547 313V385C547 405 540 422 526 436C512 450 495 457 475 457H259ZM259 295C253.667 295 249.333 296.667 246 300C242.667 303.333 241 307.667 241 313V385C241 390.333 242.667 394.667 246 398C249.333 401.333 253.667 403 259 403H475C480.333 403 484.667 401.333 488 398C491.333 394.667 493 390.333 493 385V313C493 307.667 491.333 303.333 488 300C484.667 296.667 480.333 295 475 295H259ZM214 583C206.667 583 200.333 580.333 195 575C189.667 569.667 187 563.333 187 556C187 548.667 189.667 542.333 195 537C200.333 531.667 206.667 529 214 529H322C329.333 529 335.667 531.667 341 537C346.333 542.333 349 548.667 349 556C349 563.333 346.333 569.667 341 575C335.667 580.333 329.333 583 322 583H214ZM214 709C206.667 709 200.333 706.333 195 701C189.667 695.667 187 689.333 187 682C187 674.667 189.667 668.333 195 663C200.333 657.667 206.667 655 214 655H322C329.333 655 335.667 657.667 341 663C346.333 668.333 349 674.667 349 682C349 689.333 346.333 695.667 341 701C335.667 706.333 329.333 709 322 709H214Z" fill="black"/>
</svg>
