<svg viewBox="0 0 1243.0284 1074.237" xmlns="http://www.w3.org/2000/svg"><path d="M464.028 1007.237l-14-8q-12-7-30-18.5t-63.5-44q-45.5-32.5-87-66.5t-92-84q-50.5-50-87-99.5t-62.5-110.5q-26-61-28-120-7-134 65-210 69-73 185-73h1q65 0 121 30t92 82q18-25 41-46t50-35.5q27-14.5 58.5-22.5t64.5-8h1q116 0 184 73 73 76 66 210-3 58-29.5 119.5t-62.5 111q-36 49.5-86.5 100t-91.5 84q-41 33.5-87.5 66.5t-63 43.5q-16.5 10.5-30.5 18.5l-14 8zm-214-780q-92 0-146 56-56 60-51 171 2 47 23 96.5t50.5 92q29.5 42.5 71 86t78 75q36.5 31.5 78.5 63t65 47.5q23 16 45 30 18-11 38-24.5t54.5-38.5q34.5-25 66.5-52t69-61q37-34 67.5-71t56.5-76.5q26-39.5 41.5-82t17.5-84.5q6-111-51-171-53-56-145-56h-1q-56 0-104 28t-75 75l-8 13h-54l-8-13q-27-47-74.5-75t-104.5-28z"/></svg>