<svg viewBox="0 0 1233 1074.237" xmlns="http://www.w3.org/2000/svg"><path d="M626 356.237h1q41 0 70 28.5t30 69.5v71h-40v-71q-2-24-20-41t-41.5-17q-23.5 0-41 17t-19.5 41v71h76v183q0 16-10 31t-23 23q-28 12-70 21t-74 10q-31 0-72-9.5t-68-21.5q-15-7-25.5-23.5t-10.5-32.5v-181h237v-71q1-41 30-69.5t69-28.5h2zm-135 312v-60h-54v60h54zm438-90q0 95-36.5 181.5t-99 149q-62.5 62.5-148.5 99.5t-181 37q-76 0-147-24t-128.5-67q-57.5-43-100.5-100.5t-65.5-128.5q-22.5-71-22.5-146.5t22.5-146.5q22.5-71 65.5-127.5t100.5-100q57.5-43.5 128.5-67.5t147-24q76 0 147 24t128.5 67.5q57.5 43.5 100.5 100t66 127.5q23 71 23 146zm-53 0q0-112-55.5-206.5t-150-149.5q-94.5-55-206.5-55-67 0-130 21t-113.5 59q-50.5 38-88.5 88.5t-59 113.5q-21 63-21 129 0 112 55.5 207.5t150 150q94.5 54.5 206.5 54.5t206.5-55.5q94.5-55.5 150-150t55.5-206.5z"/></svg>