<svg width="1075" height="1075" viewBox="0 0 1075 1075" fill="none" xmlns="http://www.w3.org/2000/svg">
<path d="M890 275C914.667 275 935.833 283.667 953.5 301C971.167 318.333 980 339.667 980 365V710C980 735.333 971.167 756.667 953.5 774C935.833 791.333 914.667 800 890 800H358V749H95V326H358V275H890ZM146 698H358V378H146V698ZM928 711V364C928 354 924.333 345.167 917 337.5C909.667 329.833 900.667 326 890 326H409V749H890C900.667 749 909.667 745.333 917 738C924.333 730.667 928 721.667 928 711ZM242 640V576H293V640H242ZM242 499V435H293V499H242Z" fill="black"/>
</svg>
