<svg width="1075" height="1075" viewBox="0 0 1075 1075" fill="none" xmlns="http://www.w3.org/2000/svg">
<path d="M536 290C513.333 290 494.333 282 479 266C463.667 250 456 230 456 206C456 183.333 463.667 164 479 148C494.333 132 513.333 124 536 124C558.667 124 578.333 132 595 148C611.667 164 620 183.333 620 206C620 230 611.667 250 595 266C578.333 282 558.667 290 536 290ZM536 621C513.333 621 494.333 612.833 479 596.5C463.667 580.167 456 560 456 536C456 512 463.667 492.333 479 477C494.333 461.667 513.333 454 536 454C558.667 454 578.333 461.833 595 477.5C611.667 493.167 620 512.667 620 536C620 560 611.667 580.167 595 596.5C578.333 612.833 558.667 621 536 621ZM536 951C513.333 951 494.333 943 479 927C463.667 911 456 891 456 867C456 843 463.667 823.333 479 808C494.333 792.667 513.333 785 536 785C558.667 785 578.333 792.667 595 808C611.667 823.333 620 843 620 867C620 891 611.667 911 595 927C578.333 943 558.667 951 536 951Z" fill="black"/>
</svg>
