<svg viewBox="0 0 1232 1074.237" xmlns="http://www.w3.org/2000/svg"><path d="M762 282.237q0-14 10-24t25-10q15 0 25 10t10 23.5q0 13.5-10 24t-25 10.5q-15 0-25-10.5t-10-23.5zm63 215q44 18 74 40t47.5 49q17.5 27 17.5 57 0 79-119.5 135t-302.5 64v-50q81-5 150.5-19.5t117-35.5q47.5-21 74.5-46t27-49q0-47-86-89v-56zm-484 250l38-37 104 106-104 103-38-36 44-43q-170-15-277.5-69T0 642.237q0-43 36-79.5t98-64.5v56q-83 41-82 87 0 48 93 91t238 55l-42-40zm-65-125q-15 0-32.5-6.5t-28.5-17.5q-11-10-18.5-27t-7.5-32q0-3 1-5v-2h53v2q0 16 8 27 9 13 25 13h8q8 0 18-13 10-14 10-29v-2q1-3 1-5 0-18-11-33-10-12-25-13h-31v-45h32q15 0 23-12 6-14 6-27v-9-8q0-8-8-20t-23-12h-2q-13 0-21 11-9 11-9 25v2h-53v-1-4q0-14 7.5-30.5t15.5-25.5q11-11 28-17.5t30-6.5h8q14 0 30.5 6.5t28.5 16.5q10 11 16.5 28t6.5 32q0 2-1 4v2q0 21-9.5 39t-27.5 29q20 8 32 27 11 21 10 45v7q0 15-7 33.5t-19 27.5q-11 12-28.5 19t-32.5 7h-3zm295-105v3q0 16-7 37t-16 35q-9 11-26.5 20t-33.5 9h-2-1q-17 0-35.5-9.5t-29.5-23.5q-6-11-12.5-25.5t-9-30q-2.5-15.5-2.5-28.5v-74-8q0-20 8-46t19-41q11-15 32.5-25t39.5-10h2q13 0 27 3 13 4 24 9l-8 46q-10-4-21-8-11-3-21-3t-20 6.5q-10 6.5-14 13.5-14 25-14 54v17q10-12 23-18 15-7 31-7h2q13 0 27.5 8.5t19.5 19.5q19 33 19 70 0 3-1 6zm-62 41q8-18 8-38v-4-4q0-20-8-37-7-15-23-16h-2q-12 0-20 4-9 5-14 15v26q0 26 9 51 2 3 5 7t6 6.5q3 2.5 7 4t9 1.5q5 0 9-2t8.5-5.5q4.5-3.5 5.5-8.5zm179 64h-1q-16 0-33.5-9t-27.5-22q-6-11-12-24.5t-8.5-28.5q-2.5-15-2.5-26v-94-9q0-18 7-40.5t16-37.5q7-10 17-18 20-15 45-13 16 0 34.5 9.5t28.5 21.5q7 9 12.5 23t8.5 29.5q3 15.5 3 28.5v100q0 18-7.5 40.5t-16.5 38.5q-9 13-27 22t-34 9h-2zm-31-209v100q0 23 8 43 2 7 9.5 12.5t14.5 5.5q7 0 13.5-5.5t10.5-12.5q7-21 7-43v-100-5q0-23-8-43-2-7-9-12.5t-14.5-5.5q-7.5 0-14.5 5.5t-10 12.5q-7 19-7 41v7z"/></svg>