<svg width="1075" height="1075" viewBox="0 0 1075 1075" fill="none" xmlns="http://www.w3.org/2000/svg">
<path d="M818 236C818 226.667 821.333 218.667 828 212C834.667 205.333 843 202 853 202C863 202 871.333 205.333 878 212C884.667 218.667 888 226.5 888 235.5C888 244.5 884.667 252.5 878 259.5C871.333 266.5 863 270 853 270C843 270 834.667 266.5 828 259.5C821.333 252.5 818 244.667 818 236ZM881 451C910.333 463 935 476.333 955 491C975 505.667 990.833 522 1002.5 540C1014.17 558 1020 577 1020 597C1020 649.667 980.167 694.667 900.5 732C820.833 769.333 720 790.667 598 796V746C652 742.667 702.167 736.167 748.5 726.5C794.833 716.833 833.833 705 865.5 691C897.167 677 922 661.667 940 645C958 628.333 967 612 967 596C967 564.667 938.333 535 881 507V451ZM397 701L435 664L539 770L435 873L397 837L441 794C327.667 784 235.167 761 163.5 725C91.8333 689 56 646 56 596C56 567.333 68 540.833 92 516.5C116 492.167 148.667 470.667 190 452V508C134.667 535.333 107.333 564.333 108 595C108 627 139 657.333 201 686C263 714.667 342.333 733 439 741L397 701ZM332 576C322 576 311.167 573.833 299.5 569.5C287.833 565.167 278.333 559.333 271 552C263.667 545.333 257.5 536.333 252.5 525C247.5 513.667 245 503 245 493C245 491 245.333 489.333 246 488V486H299V488C299 498.667 301.667 507.667 307 515C313 523.667 321.333 528 332 528H340C345.333 528 351.333 523.667 358 515C364.667 505.667 368 496 368 486V484C368.667 482 369 480.333 369 479C369 467 365.333 456 358 446C351.333 438 343 433.667 333 433H302V388H334C344 388 351.667 384 357 376C361 366.667 363 357.667 363 349V340V332C363 326.667 360.333 320 355 312C349.667 304 342 300 332 300H330C321.333 300 314.333 303.667 309 311C303 318.333 300 326.667 300 336V338H247V337V333C247 323.667 249.5 313.5 254.5 302.5C259.5 291.5 264.667 283 270 277C277.333 269.667 286.667 263.833 298 259.5C309.333 255.167 319.333 253 328 253H336C345.333 253 355.5 255.167 366.5 259.5C377.5 263.833 387 269.333 395 276C401.667 283.333 407.167 292.667 411.5 304C415.833 315.333 418 326 418 336C418 337.333 417.667 338.667 417 340V342C417 356 413.833 369 407.5 381C401.167 393 392 402.667 380 410C393.333 415.333 404 424.333 412 437C419.333 451 422.667 466 422 482V489C422 499 419.667 510.167 415 522.5C410.333 534.833 404 544 396 550C388.667 558 379.167 564.333 367.5 569C355.833 573.667 345 576 335 576H332ZM627 471V474C627 484.667 624.667 497 620 511C615.333 525 610 536.667 604 546C598 553.333 589.167 560 577.5 566C565.833 572 554.667 575 544 575H542H541C529.667 575 517.833 571.833 505.5 565.5C493.167 559.167 483.333 551.333 476 542C472 534.667 467.833 526.167 463.5 516.5C459.167 506.833 456.167 496.833 454.5 486.5C452.833 476.167 452 466.667 452 458V384V376C452 362.667 454.667 347.333 460 330C465.333 312.667 471.667 299 479 289C486.333 279 497.167 270.667 511.5 264C525.833 257.333 539 254 551 254H553C561.667 254 570.667 255 580 257C588.667 259.667 596.667 262.667 604 266L596 312C589.333 309.333 582.333 306.667 575 304C567.667 302 560.667 301 554 301C547.333 301 540.667 303.167 534 307.5C527.333 311.833 522.667 316.333 520 321C510.667 337.667 506 355.667 506 375V392C512.667 384 520.333 378 529 374C539 369.333 549.333 367 560 367H562C570.667 367 579.833 369.833 589.5 375.5C599.167 381.167 605.667 387.667 609 395C621.667 417 628 440.333 628 465C628 467 627.667 469 627 471ZM565 512C570.333 500 573 487.333 573 474V470V466C573 452.667 570.333 440.333 565 429C560.333 419 552.667 413.667 542 413H540C532 413 525.333 414.333 520 417C514 420.333 509.333 425.333 506 432V458C506 475.333 509 492.333 515 509C516.333 511 518 513.333 520 516C522 518.667 524 520.833 526 522.5C528 524.167 530.333 525.5 533 526.5C535.667 527.5 538.667 528 542 528C545.333 528 548.333 527.333 551 526C553.667 524.667 556.5 522.833 559.5 520.5C562.5 518.167 564.333 515.333 565 512ZM744 576H743C732.333 576 721.167 573 709.5 567C697.833 561 688.667 553.667 682 545C678 537.667 674 529.5 670 520.5C666 511.5 663.167 502 661.5 492C659.833 482 659 473.333 659 466V372V363C659 351 661.333 337.5 666 322.5C670.667 307.5 676 295 682 285C686.667 278.333 692.333 272.333 699 267C712.333 257 727.333 252.667 744 254C754.667 254 766.167 257.167 778.5 263.5C790.833 269.833 800.333 277 807 285C811.667 291 815.833 298.667 819.5 308C823.167 317.333 826 327.167 828 337.5C830 347.833 831 357.333 831 366V466C831 478 828.5 491.5 823.5 506.5C818.5 521.5 813 534.333 807 545C801 553.667 792 561 780 567C768 573 756.667 576 746 576H744ZM713 367V467C713 482.333 715.667 496.667 721 510C722.333 514.667 725.5 518.833 730.5 522.5C735.5 526.167 740.333 528 745 528C749.667 528 754.167 526.167 758.5 522.5C762.833 518.833 766.333 514.667 769 510C773.667 496 776 481.667 776 467V367V362C776 346.667 773.333 332.333 768 319C766.667 314.333 763.667 310.167 759 306.5C754.333 302.833 749.5 301 744.5 301C739.5 301 734.667 302.833 730 306.5C725.333 310.167 722 314.333 720 319C715.333 331.667 713 345.333 713 360V367Z" fill="black"/>
</svg>
