<svg width="1075" height="1075" viewBox="0 0 1075 1075" fill="none" xmlns="http://www.w3.org/2000/svg">
<path d="M760 486H850V535H810C810 603 785.833 663.333 737.5 716C689.167 768.667 631 798.333 563 805V979H514V805C446 799.667 388 770.667 340 718C292 665.333 268 605 268 537V535H226V486H316V536C316.667 596.667 338.333 648.5 381 691.5C423.667 734.5 475.333 756 536 756H540C601.333 755.333 653.333 733.667 696 691C738.667 648.333 760 596.333 760 535V486ZM406 535V223C406.667 199.667 413.167 178.333 425.5 159C437.833 139.667 453.833 124.333 473.5 113C493.167 101.667 514.667 96 538 96C561.333 96 582.833 101.667 602.5 113C622.167 124.333 638.167 139.667 650.5 159C662.833 178.333 669.333 199.667 670 223V535C670 571 657.167 602 631.5 628C605.833 654 574.667 667 538 667C501.333 667 470.167 654 444.5 628C418.833 602 406 571 406 535ZM456 223V535C456 557.667 464 576.833 480 592.5C496 608.167 515.333 616 538 616C560.667 616 580 608.167 596 592.5C612 576.833 620 557.667 620 535V223C620 200.333 612 181 596 165C580 149 560.667 141 538 141C515.333 141 496 149 480 165C464 181 456 200.333 456 223Z" fill="black"/>
</svg>
