<svg width="1075" height="1075" viewBox="0 0 1075 1075" fill="none" xmlns="http://www.w3.org/2000/svg">
<path d="M906 898C898.667 898 892.333 895.333 887 890C881.667 884.667 879 878.333 879 871V669C879 661.667 881.667 655.333 887 650C929.667 606 951 547.333 951 474C951 439.333 944.5 407.333 931.5 378C918.5 348.667 901 323.167 879 301.5C857 279.833 831 262.833 801 250.5C771 238.167 739 232 705 232C673.667 232 644.167 237.667 616.5 249C588.833 260.333 564.167 275.667 542.5 295C520.833 314.333 503.167 337.5 489.5 364.5C475.833 391.5 467.667 420.333 465 451C465 455 464 458.333 462 461L399 574C421 574 438 581 450 595C456.667 602.333 461.833 611 465.5 621C469.167 631 470 641.667 468 653L459 705C455 726.333 456.333 741.667 463 751C473.667 765 498.333 772 537 772H600C607.333 772 613.667 774.667 619 780C624.333 785.333 627 791.667 627 799V871C627 878.333 624.333 884.667 619 890C613.667 895.333 607.333 898 600 898C592.667 898 586.333 895.333 581 890C575.667 884.667 573 878.333 573 871V826H537C520.333 826 503.833 824.5 487.5 821.5C471.167 818.5 456.667 813.167 444 805.5C431.333 797.833 421.167 787.5 413.5 774.5C405.833 761.5 402 745.333 402 726C402 720.667 402.333 715.333 403 710C403.667 704.667 404.667 699.333 406 694L414 647C415.333 641.667 415 637.167 413 633.5C411 629.833 407.333 628 402 628H384C370.667 628 359.833 623.5 351.5 614.5C343.167 605.5 339 594.667 339 582C339 572.667 341.333 564.667 346 558L412 440C416.667 402.667 427.333 368 444 336C460.667 304 482 276.333 508 253C534 229.667 563.667 211.333 597 198C630.333 184.667 665.667 178 703 178C744.333 178 783.333 185.333 820 200C856.667 214.667 888.667 235.167 916 261.5C943.333 287.833 965 319 981 355C997 391 1005 430.333 1005 473C1005 557 981 625.667 933 679V871C933 878.333 930.333 884.667 925 890C919.667 895.333 913.333 898 906 898ZM164 898C156.667 898 150.333 895.333 145 890C121 866 102.5 838.333 89.5 807C76.5 775.667 70 743 70 709C70 675 76.5 642.333 89.5 611C102.5 579.667 121 552 145 528C149.667 522.667 156 520 164 520C171.333 520 177.667 522.667 183 528C188.333 533.333 191 539.667 191 547C191 554.333 188.333 560.667 183 566C163.667 585.333 149 607.167 139 631.5C129 655.833 124 681.667 124 709C124 736.333 129 762.167 139 786.5C149 810.833 163.667 832.667 183 852C188.333 857.333 191 863.667 191 871C191 878.333 188.333 884.667 183 890C177.667 895.333 171.333 898 164 898ZM232 842C225.333 842 219.333 839.333 214 834C196.667 818 183.167 799 173.5 777C163.833 755 159 732.333 159 709C159 685.667 163.833 663 173.5 641C183.167 619 196.667 600 214 584C219.333 578.667 225.333 576 232 576C239.333 576 245.667 578.667 251 584C256.333 589.333 259 595.667 259 603C259 611 256.333 617.667 251 623C225.667 646.333 213 675 213 709C213 743 225.333 771.667 250 795C256 800.333 259 807 259 815C259 822.333 256.333 828.667 251 834C245.667 839.333 239.333 842 232 842ZM299 792C291 792 284.667 789.667 280 785C270 774.333 262.167 762.667 256.5 750C250.833 737.333 248 723.667 248 709C248 694.333 250.833 680.667 256.5 668C262.167 655.333 270 643.667 280 633C284.667 628.333 291 626 299 626C307 626 313.333 628.667 318 634C323.333 638.667 326 645 326 653C326 660.333 323.333 666.667 318 672C307.333 682.667 302 695 302 709C302 723 307.333 735.333 318 746C323.333 750.667 326 757 326 765C326 773 323.333 779.333 318 784C313.333 789.333 307 792 299 792Z" fill="black"/>
</svg>
