<svg width="1075" height="1075" viewBox="0 0 1075 1075" fill="none" xmlns="http://www.w3.org/2000/svg">
<path d="M480 663C506 630.333 519 592.667 519 550C485 530.667 457.667 503.833 437 469.5C416.333 435.167 406 398 406 358C406 308 422 263 454 223C420 232.333 388.333 246.667 359 266L363 269C323.667 315 304.333 368 305 428C305 447.333 306.667 466 310 484C320 527.333 340.333 565 371 597C401.667 629 438 651 480 663ZM538 162C606 162 668.833 178.833 726.5 212.5C784.167 246.167 829.667 291.833 863 349.5C896.333 407.167 913 469.833 913 537.5C913 605.167 896.333 667.833 863 725.5C829.667 783.167 784.167 828.833 726.5 862.5C668.833 896.167 606 913 538 913C470 913 407.167 896.167 349.5 862.5C291.833 828.833 246.333 783.167 213 725.5C179.667 667.833 163 605.333 163 538C163 487.333 172.833 438.667 192.5 392C212.167 345.333 238.833 305.333 272.5 272C306.167 238.667 346.167 212 392.5 192C438.833 172 487.333 162 538 162ZM864 538V521H859C846.333 484.333 825.833 452.667 797.5 426C769.167 399.333 736.333 380.333 699 369C675.667 361.667 652 358 628 358C562.667 358 506.667 380.667 460 426C475.333 464.667 501 494.333 537 515C571.667 495 609 485 649 485C694.333 485 735.5 497.667 772.5 523C809.5 548.333 836.333 581.667 853 623C860.333 595.667 864 567.333 864 538ZM606 759C658 711 684 651.667 684 581C684 562.333 682 544.333 678 527C668.667 525.667 659 524.667 649 524C616.333 524 586 532.333 558 549V550C558 611.333 536.333 663.5 493 706.5C449.667 749.5 397.667 771 337 771C327.667 771 318 770.333 308 769C332.667 793.667 360.333 814 391 830L393 821C408.333 823.667 423.667 825.333 439 826C503 825.333 558.667 803 606 759ZM841 415C816.333 354.333 776.5 305.333 721.5 268C666.5 230.667 605.333 212 538 212H520C497.333 228.667 479.333 249.833 466 275.5C452.667 301.167 446 328.667 446 358C446 366 446.667 374.667 448 384C500.667 340.667 560.667 319 628 319C669.333 319 708.5 327.5 745.5 344.5C782.5 361.5 814.333 385 841 415ZM278 339C233.333 397 211.333 463.333 212 538C212 603.333 230 663 266 717C288.667 726.333 312.333 731.333 337 732C378.333 732 415.667 719 449 693C394.333 673 350 638.833 316 590.5C282 542.167 265 488 265 428C264.333 397.333 268.667 367.667 278 339ZM538 864C580 864 620 856.5 658 841.5C696 826.5 729.667 805.5 759 778.5C788.333 751.5 812 720 830 684C826.667 655.333 817 629.167 801 605.5C785 581.833 765 563 741 549C734.333 545 727 541.333 719 538C721 550.667 722 565 722 581C722 650.333 699.667 711.333 655 764C610.333 816.667 554 848.667 486 860C503.333 862.667 520.667 864 538 864Z" fill="black"/>
</svg>
