<svg viewBox="0 0 1154 1074.237" xmlns="http://www.w3.org/2000/svg"><path d="M317 709.237q39-49 39-113-51-29-82-80.5t-31-111.5q0-75 48-135-51 14-95 43l4 3q-59 69-58 159 0 29 5 56 15 65 61 113t109 66zm58-501q102 0 188.5 50.5t136.5 137q50 86.5 50 188t-50 188q-50 86.5-136.5 137t-188.5 50.5q-102 0-188.5-50.5t-136.5-137q-50-86.5-50-187.5 0-76 29.5-146t80-120q50.5-50 120-80t145.5-30zm326 376v-17h-5q-19-55-61.5-95t-98.5-57q-35-11-71-11-98 0-168 68 23 58 77 89 52-30 112-30 68 0 123.5 38t80.5 100q11-41 11-85zm-258 221q78-72 78-178 0-28-6-54-14-2-29-3-49 0-91 25v1q0 92-65 156.5t-156 64.5q-14 0-29-2 37 37 83 61l2-9q23 4 46 5 96-1 167-67zm235-344q-37-91-119.5-147t-183.5-56h-18q-34 25-54 63.5t-20 82.5q0 12 2 26 79-65 180-65 62 0 117.5 25.5t95.5 70.5zm-563-76q-67 87-66 199 0 98 54 179 34 14 71 15 62 0 112-39-82-30-133-102.5t-51-162.5q-1-46 13-89zm260 525q63 0 120-22.5t101-63q44-40.5 71-94.5-5-43-29-78.5t-60-56.5q-10-6-22-11 3 19 3 43 0 104-67 183t-169 96q26 4 52 4z"/></svg>