<svg width="1075" height="1075" viewBox="0 0 1075 1075" fill="none" xmlns="http://www.w3.org/2000/svg">
<path d="M587 840C593.667 850.667 600.5 860.667 607.5 870C614.5 879.333 622 888.667 630 898H344V840H587ZM558 687C557.333 692.333 557 697.667 557 703V744H173C149 744 128.833 735.667 112.5 719C96.1667 702.333 88 682 88 658V256C88 232 96.1667 211.833 112.5 195.5C128.833 179.167 149 171 173 171H823C834.333 171 845.167 173.167 855.5 177.5C865.833 181.833 875 187.833 883 195.5C891 203.167 897.333 212.167 902 222.5C906.667 232.833 909 244 909 256V495C899.667 489.667 890.167 485.667 880.5 483C870.833 480.333 861 478 851 476V256C851 248 848.167 241.333 842.5 236C836.833 230.667 830.333 228 823 228H173C165 228 158.333 230.667 153 236C147.667 241.333 145 248 145 256V658C145 666 147.667 672.833 153 678.5C158.333 684.167 165 687 173 687H558ZM309 368L350 407L228 529L187 488L309 368ZM789 472C777 472.667 765.333 474.167 754 476.5C742.667 478.833 732 481.667 722 485L605 369L349 626L308 587L605 289L789 472ZM805 537C830.333 537 854.167 541.833 876.5 551.5C898.833 561.167 918.167 574.333 934.5 591C950.833 607.667 963.833 627.167 973.5 649.5C983.167 671.833 988 695.333 988 720C988 745.333 983.167 769.167 973.5 791.5C963.833 813.833 950.833 833.333 934.5 850C918.167 866.667 898.833 879.833 876.5 889.5C854.167 899.167 830.333 904 805 904C779.667 904 755.833 899.167 733.5 889.5C711.167 879.833 691.667 866.667 675 850C658.333 833.333 645.333 813.833 636 791.5C626.667 769.167 622 745.333 622 720C622 695.333 626.667 671.833 636 649.5C645.333 627.167 658.333 607.667 675 591C691.667 574.333 711.167 561.167 733.5 551.5C755.833 541.833 779.667 537 805 537ZM932 616H875L768 770L691 720L664 760L787 843L932 616Z" fill="black"/>
</svg>
