<svg viewBox="0 0 1227 1074.237" xmlns="http://www.w3.org/2000/svg"><path d="M499 865.237q10 16 20.5 30t22.5 28H256v-58h243zm-29-153q-1 8-1 16v41H85q-36 0-60.5-25t-24.5-61v-402q0-36 24.5-60.5t60.5-24.5h650q17 0 32.5 6.5t27.5 18q12 11.5 19 27t7 33.5v239q-14-8-28.5-12t-29.5-7v-220q0-12-8.5-20t-19.5-8H85q-12 0-20 8t-8 20v402q0 12 8 20.5t20 8.5h385zm-249-319l41 39-122 122-41-41 122-120zm480 104q-18 1-35 4.5t-32 8.5l-117-116-256 257-41-39 297-298 184 183zm16 65q38 0 71.5 14.5t58 39.5q24.5 25 39 58.5t14.5 70.5q0 38-14.5 71.5t-39 58.5q-24.5 25-58 39.5t-71.5 14.5q-38 0-71.5-14.5t-58.5-39.5q-25-25-39-58.5t-14-71.5q0-37 14-70.5t39-58.5q25-25 58.5-39.5t71.5-14.5zm127 79h-57l-107 154-77-50-27 40 123 83 145-227z"/></svg>