<svg width="1075" height="1075" viewBox="0 0 1075 1075" fill="none" xmlns="http://www.w3.org/2000/svg">
<path d="M535 844C515.667 844 498.833 837 484.5 823C470.167 809 463 792 463 772C463 752 470.167 735 484.5 721C498.833 707 515.667 700 535 700C555 700 572 707 586 721C600 735 607 752 607 772C607 792 600 809 586 823C572 837 555 844 535 844ZM106 857C89.3333 857 70.3333 859.333 49 864V743H185V778H92V824C95.3333 823.333 98.6667 822.833 102 822.5C105.333 822.167 108.667 822 112 822C138.667 822 159.833 828.5 175.5 841.5C191.167 854.5 199 871.667 199 893C199 917 191 935.667 175 949C159 962.333 137 969 109 969C93.6667 969 80.8333 967.167 70.5 963.5C60.1667 959.833 48.6667 953 36 943L58 914C67.3333 921.333 76 926.5 84 929.5C92 932.5 100.667 934 110 934C123.333 934 134.167 930.5 142.5 923.5C150.833 916.5 155 907.333 155 896C155 870 138.667 857 106 857ZM314 933C320 933 326.667 932.833 334 932.5C341.333 932.167 347.667 931.333 353 930V879H305V844H396V954C370 964 342.667 969 314 969C240.667 969 204 930.667 204 854C204 777.333 239.667 739 311 739C327 739 342.667 742 358 748C373.333 754 386.333 762.333 397 773L372 801C358.667 783.667 338.333 775 311 775C269 775 248 801.333 248 854C248 906.667 270 933 314 933ZM967 988H769C749.667 988 732.833 981 718.5 967C704.167 953 697 936 697 916V790C697 770 704.167 753 718.5 739C732.833 725 749.667 718 769 718V709C769 695 771.667 682 777 670C782.333 658 789.5 647.5 798.5 638.5C807.5 629.5 818 622.5 830 617.5C842 612.5 854.667 610 868 610C896 610 919.5 619.5 938.5 638.5C957.5 657.5 967 681 967 709V718C987 718 1004 725 1018 739C1032 753 1039 770 1039 790V916C1039 936 1032 953 1018 967C1004 981 987 988 967 988ZM769 772C763.667 772 759.333 773.667 756 777C752.667 780.333 751 784.667 751 790V916C751 921.333 752.667 925.667 756 929C759.333 932.333 763.667 934 769 934H967C972.333 934 976.667 932.333 980 929C983.333 925.667 985 921.333 985 916V790C985 784.667 983.333 780.333 980 777C976.667 773.667 972.333 772 967 772H769ZM868 889C858 889 849.5 885.5 842.5 878.5C835.5 871.5 832 863 832 853C832 843 835.5 834.5 842.5 827.5C849.5 820.5 858 817 868 817C878 817 886.5 820.5 893.5 827.5C900.5 834.5 904 843 904 853C904 863 900.5 871.5 893.5 878.5C886.5 885.5 878 889 868 889ZM913 709C913 696.333 908.667 685.667 900 677C891.333 668.333 880.667 664 868 664C856 664 845.5 668.333 836.5 677C827.5 685.667 823 696.333 823 709V718H913V709Z" fill="black"/>
</svg>
