<svg width="1075" height="1075" viewBox="0 0 1075 1075" fill="none" xmlns="http://www.w3.org/2000/svg">
<path d="M480 858C480 842 485.667 828.333 497 817C508.333 805.667 522 800 538 800C554 800 567.667 805.667 579 817C590.333 828.333 596 842 596 858C596 874 590.333 887.833 579 899.5C567.667 911.167 554.167 917 538.5 917C522.833 917 509.167 911.167 497.5 899.5C485.833 887.833 480 874 480 858ZM718 652L669 712C653.667 699.333 633.167 688.333 607.5 679C581.833 669.667 558.5 665 537.5 665C516.5 665 493.333 669.667 468 679C442.667 688.333 422 699.333 406 712L358 652C380 634.667 408.5 619.667 443.5 607C478.5 594.333 510 588 538 588C566 588 597.5 594.333 632.5 607C667.5 619.667 696 634.667 718 652Z" fill="black"/>
</svg>
