<svg width="1075" height="1075" viewBox="0 0 1075 1075" fill="none" xmlns="http://www.w3.org/2000/svg">
<path d="M480 858C480 842 485.667 828.333 497 817C508.333 805.667 522 800 538 800C554 800 567.667 805.667 579 817C590.333 828.333 596 842 596 858C596 874 590.333 887.833 579 899.5C567.667 911.167 554.167 917 538.5 917C522.833 917 509.167 911.167 497.5 899.5C485.833 887.833 480 874 480 858ZM538 235H536C474 235 404.167 248.833 326.5 276.5C248.833 304.167 186 337.333 138 376L90 316C144 272.667 214.833 235.5 302.5 204.5C390.167 173.5 469 158 539 158C608.333 158 686.667 173.167 774 203.5C861.333 233.833 932 271 986 315L938 375C890 336.333 827.333 303.333 750 276C672.667 248.667 603 235 541 235H538ZM853 484L804 544C772 518 730 495.833 678 477.5C626 459.167 579.333 450 538 450C496.667 450 450 459.167 398 477.5C346 495.833 304 518 272 544L224 484C262 453.333 311.667 427.333 373 406C434.333 384.667 489.333 374 538 374C586.667 374 641.833 384.667 703.5 406C765.167 427.333 815 453.333 853 484ZM718 652L669 712C653.667 699.333 633.167 688.333 607.5 679C581.833 669.667 558.5 665 537.5 665C516.5 665 493.333 669.667 468 679C442.667 688.333 422 699.333 406 712L358 652C380 634.667 408.5 619.667 443.5 607C478.5 594.333 510 588 538 588C566 588 597.5 594.333 632.5 607C667.5 619.667 696 634.667 718 652Z" fill="black"/>
</svg>
