<svg width="1075" height="1075" viewBox="0 0 1075 1075" fill="none" xmlns="http://www.w3.org/2000/svg">
<path d="M494 735C504.667 735 514.333 737.667 523 743C531.667 748.333 538.667 755.333 544 764C549.333 772.667 552 782.333 552 793C552 809 546.333 822.667 535 834C523.667 845.333 510 851 494 851C478 851 464.333 845.333 453 834C441.667 822.667 436 809.167 436 793.5C436 777.833 441.667 764.167 453 752.5C464.333 740.833 478 735 494 735ZM314 587C336 569.667 364.5 555 399.5 543C434.5 531 466 525 494 525C512 525 532.333 527.667 555 533C577.667 538.333 599.5 545.833 620.5 555.5C641.5 565.167 659.333 575.667 674 587L625 647C609 634.333 588.167 623.667 562.5 615C536.833 606.333 513.833 602 493.5 602C473.167 602 450.167 606.333 424.5 615C398.833 623.667 378 634.333 362 647L314 587ZM960 662V729H1031V903C1031 913 1028.17 922.833 1022.5 932.5C1016.83 942.167 1009.67 949 1001 953C983 961 960.833 968 934.5 974C908.167 980 885 983 865 983H863C850.333 983 836 981.667 820 979C804 976.333 788.167 972.833 772.5 968.5C756.833 964.167 743 959 731 953C725.667 950.333 720.167 946.167 714.5 940.5C708.833 934.833 704.667 928.5 702 921.5C699.333 914.5 698 907.667 698 901V729H768V662C768.667 645.333 773.333 629.833 782 615.5C790.667 601.167 802.333 589.833 817 581.5C831.667 573.167 847.333 569 864 569C880.667 569 896.167 573.167 910.5 581.5C924.833 589.833 936.5 601.167 945.5 615.5C954.5 629.833 959.333 645.333 960 662ZM806 662V729H921V662C920.333 646.667 914.333 633.667 903 623C891.667 612.333 878.5 607 863.5 607C848.5 607 835.333 612.333 824 623C812.667 633.667 806.667 646.667 806 662ZM890 865V808H838V865H890Z" fill="black"/>
</svg>
