<svg width="1075" height="1075" viewBox="0 0 1075 1075" fill="none" xmlns="http://www.w3.org/2000/svg">
<path d="M994 331C987.333 331 981.333 328.333 976 323C914.667 264.333 846.333 219.5 771 188.5C695.667 157.5 617 142 535 142C451.667 142 372.5 157.5 297.5 188.5C222.5 219.5 155 264.333 95 323C89.6667 328.333 83.3333 331 76 331C68.6667 331 62.3333 328.333 57 323C51.6667 317.667 49 311.333 49 304C49 296.667 51.6667 290.333 57 285C122.333 221 195.833 172.167 277.5 138.5C359.167 104.833 445 88 535 88C624.333 88 709.833 104.833 791.5 138.5C873.167 172.167 947 221 1013 285C1018.33 289.667 1021 296 1021 304C1021 312 1018.5 318.5 1013.5 323.5C1008.5 328.5 1002 331 994 331ZM706 628C699.333 628 693.667 626 689 622C667 603.333 642.833 589.167 616.5 579.5C590.167 569.833 563 565 535 565C506.333 565 479 569.833 453 579.5C427 589.167 403.333 603 382 621C377.333 625.667 371.333 628 364 628C356.667 628 350.333 625.333 345 620C339.667 614.667 337 608.333 337 601C337 592.333 340.333 585.667 347 581C373 557.667 402 540.167 434 528.5C466 516.833 499.667 511 535 511C569 511 602.167 517 634.5 529C666.833 541 696.667 558 724 580C730 586 733 593 733 601C733 608.333 730.333 614.667 725 620C719.667 625.333 713.333 628 706 628ZM850 484C843.333 484 837.333 481.333 832 476C792 438 746.667 408.833 696 388.5C645.333 368.167 591.667 358 535 358C478.333 358 424.667 368.167 374 388.5C323.333 408.833 278.333 438 239 476C233.667 481.333 227.333 484 220 484C212.667 484 206.333 481.333 201 476C195.667 470.667 193 464.333 193 457C193 449.667 195.667 443.333 201 438C245 394 295.667 360.667 353 338C410.333 315.333 471 304 535 304C598.333 304 658.667 315.333 716 338C773.333 360.667 824.333 394 869 438C874.333 442.667 877 449 877 457C877 465 874.5 471.5 869.5 476.5C864.5 481.5 858 484 850 484ZM535 844C515.667 844 498.833 837 484.5 823C470.167 809 463 792 463 772C463 752 470.167 735 484.5 721C498.833 707 515.667 700 535 700C555 700 572 707 586 721C600 735 607 752 607 772C607 792 600 809 586 823C572 837 555 844 535 844ZM106 857C89.3333 857 70.3333 859.333 49 864V743H185V778H92V824C95.3333 823.333 98.6667 822.833 102 822.5C105.333 822.167 108.667 822 112 822C138.667 822 159.833 828.5 175.5 841.5C191.167 854.5 199 871.667 199 893C199 917 191 935.667 175 949C159 962.333 137 969 109 969C93.6667 969 80.8333 967.167 70.5 963.5C60.1667 959.833 48.6667 953 36 943L58 914C67.3333 921.333 76 926.5 84 929.5C92 932.5 100.667 934 110 934C123.333 934 134.167 930.5 142.5 923.5C150.833 916.5 155 907.333 155 896C155 870 138.667 857 106 857ZM967 988H769C749.667 988 732.833 981 718.5 967C704.167 953 697 936 697 916V790C697 770 704.167 753 718.5 739C732.833 725 749.667 718 769 718V709C769 695 771.667 682 777 670C782.333 658 789.5 647.5 798.5 638.5C807.5 629.5 818 622.5 830 617.5C842 612.5 854.667 610 868 610C896 610 919.5 619.5 938.5 638.5C957.5 657.5 967 681 967 709V718C987 718 1004 725 1018 739C1032 753 1039 770 1039 790V916C1039 936 1032 953 1018 967C1004 981 987 988 967 988ZM769 772C763.667 772 759.333 773.667 756 777C752.667 780.333 751 784.667 751 790V916C751 921.333 752.667 925.667 756 929C759.333 932.333 763.667 934 769 934H967C972.333 934 976.667 932.333 980 929C983.333 925.667 985 921.333 985 916V790C985 784.667 983.333 780.333 980 777C976.667 773.667 972.333 772 967 772H769ZM868 889C858 889 849.5 885.5 842.5 878.5C835.5 871.5 832 863 832 853C832 843 835.5 834.5 842.5 827.5C849.5 820.5 858 817 868 817C878 817 886.5 820.5 893.5 827.5C900.5 834.5 904 843 904 853C904 863 900.5 871.5 893.5 878.5C886.5 885.5 878 889 868 889ZM913 709C913 696.333 908.667 685.667 900 677C891.333 668.333 880.667 664 868 664C856 664 845.5 668.333 836.5 677C827.5 685.667 823 696.333 823 709V718H913V709ZM314 933C320 933 326.667 932.833 334 932.5C341.333 932.167 347.667 931.333 353 930V879H305V844H396V954C370 964 342.667 969 314 969C240.667 969 204 930.667 204 854C204 777.333 239.667 739 311 739C327 739 342.667 742 358 748C373.333 754 386.333 762.333 397 773L372 801C358.667 783.667 338.333 775 311 775C269 775 248 801.333 248 854C248 906.667 270 933 314 933Z" fill="black"/>
</svg>
