<svg viewBox="0 0 1316 1074.237" xmlns="http://www.w3.org/2000/svg"><path d="M499 880.237q-29 0-50.5-21t-21.5-51q0-30 21.5-51t50.5-21q30 0 51 21t21 51q0 30-21 51t-51 21zm-429 13q-25 0-57 7v-121h136v35H56v46q5-1 10-1.5t10-.5q40 0 63.5 19.5t23.5 51.5q0 36-24 56t-66 20q-23 0-38.5-5.5T0 979.237l22-29q14 11 26 15.5t26 4.5q20 0 32.5-10.5t12.5-27.5q0-39-49-39zm208 76q9 0 20-.5t19-2.5v-51h-48v-35h91v110q-39 15-82 15-110 0-110-115t107-115q24 0 47 9t39 25l-25 28q-20-26-61-26-63 0-63 79t66 79zm653 55H733q-29 0-50.5-21t-21.5-51v-126q0-30 21.5-51t50.5-21v-9q0-21 8-39t21.5-31.5q13.5-13.5 31.5-21t38-7.5q42 0 70.5 28.5t28.5 70.5v9q30 0 51 21t21 51v126q0 30-21 51t-51 21zm-198-216q-8 0-13 5t-5 13v126q0 8 5 13t13 5h198q8 0 13-5t5-13v-126q0-8-5-13t-13-5H733zm99 117q-15 0-25.5-10.5t-10.5-25.5q0-15 10.5-25.5t25.5-10.5q15 0 25.5 10.5t10.5 25.5q0 15-10.5 25.5t-25.5 10.5zm45-180q0-19-13-32t-32-13q-18 0-31.5 13t-13.5 32v9h90v-9z"/></svg>