<svg viewBox="0 0 1270 1074.237" xmlns="http://www.w3.org/2000/svg"><path d="M670 664.237q-10 0-17-7-33-27-72.5-41.5t-81.5-14.5q-88 0-153 56-7 7-17 7-11 0-19.5-8t-8.5-19q0-14 10-21 39-34 87-51.5t101-17.5q51 0 99.5 17.5t89.5 51.5q9 8 9 20 0 11-8 19.5t-19 8.5zm-171 216q-29 0-50.5-21.5t-21.5-50.5q0-30 21.5-51t50.5-21q30 0 51 21t21 51q0 29-21 50.5t-51 21.5zm-429 13q-25 0-57 7v-121h136v35H56v46q5-1 10-1.5t10-.5q40 0 63.5 19.5t23.5 51.5q0 36-24 56t-66 20q-23 0-38.5-5.5T0 979.237l22-29q14 11 26 15.5t26 4.5q20 0 32.5-10.5t12.5-27.5q0-39-49-39zm208 76q9 0 20-.5t19-2.5v-51h-48v-35h91v110q-39 15-82 15-110 0-110-115t107-115q24 0 47 9t39 25l-25 28q-20-26-61-26-63 0-63 79t66 79z"/></svg>