<svg width="1075" height="1075" viewBox="0 0 1075 1075" fill="none" xmlns="http://www.w3.org/2000/svg">
<path d="M115 866C98.3333 866 79.3333 868.333 58 873V752H194V787H101V833C104.333 832.333 107.667 831.833 111 831.5C114.333 831.167 117.667 831 121 831C147.667 831 168.833 837.5 184.5 850.5C200.167 863.5 208 880.667 208 902C208 926 200 944.667 184 958C168 971.333 146 978 118 978C102.667 978 89.8333 976.167 79.5 972.5C69.1667 968.833 57.6667 962 45 952L67 923C76.3333 930.333 85 935.5 93 938.5C101 941.5 109.667 943 119 943C132.333 943 143.167 939.5 151.5 932.5C159.833 925.5 164 916.333 164 905C164 879 147.667 866 115 866ZM544 853C524.667 853 507.833 845.833 493.5 831.5C479.167 817.167 472 800.333 472 781C472 761 479.167 744 493.5 730C507.833 716 524.667 709 544 709C564 709 581 716 595 730C609 744 616 761 616 781C616 800.333 609 817.167 595 831.5C581 845.833 564 853 544 853ZM323 942C329 942 335.667 941.833 343 941.5C350.333 941.167 356.667 940.333 362 939V888H314V853H405V963C379 973 351.667 978 323 978C249.667 978 213 939.667 213 863C213 786.333 248.667 748 320 748C336 748 351.667 751 367 757C382.333 763 395.333 771.333 406 782L381 810C367.667 792.667 347.333 784 320 784C278 784 257 810.333 257 863C257 915.667 279 942 323 942Z" fill="black"/>
</svg>
