<svg width="1075" height="1075" viewBox="0 0 1075 1075" fill="none" xmlns="http://www.w3.org/2000/svg">
<path d="M479 858C479 842 484.667 828.333 496 817C507.333 805.667 521 800 537 800C553 800 566.667 805.667 578 817C589.333 828.333 595 842 595 858C595 874 589.333 887.833 578 899.5C566.667 911.167 553.167 917 537.5 917C521.833 917 508.167 911.167 496.5 899.5C484.833 887.833 479 874 479 858ZM852 484L803 544C771 518 729 495.833 677 477.5C625 459.167 578.333 450 537 450C495.667 450 449 459.167 397 477.5C345 495.833 303 518 271 544L223 484C261 453.333 310.667 427.333 372 406C433.333 384.667 488.333 374 537 374C585.667 374 640.833 384.667 702.5 406C764.167 427.333 814 453.333 852 484ZM717 652L668 712C652.667 699.333 632.167 688.333 606.5 679C580.833 669.667 557.5 665 536.5 665C515.5 665 492.333 669.667 467 679C441.667 688.333 421 699.333 405 712L357 652C379 634.667 407.5 619.667 442.5 607C477.5 594.333 509 588 537 588C565 588 596.5 594.333 631.5 607C666.5 619.667 695 634.667 717 652Z" fill="black"/>
</svg>
