<svg width="1075" height="1075" viewBox="0 0 1075 1075" fill="none" xmlns="http://www.w3.org/2000/svg">
<path d="M1011 538C1011 602 998.5 663 973.5 721C948.5 779 914.833 829.167 872.5 871.5C830.167 913.833 779.833 947.5 721.5 972.5C663.167 997.5 602 1010 538 1010C474 1010 413 997.5 355 972.5C297 947.5 246.667 913.833 204 871.5C161.333 829.167 127.5 779 102.5 721C77.5 663 65 602 65 538C65 474 77.5 412.667 102.5 354C127.5 295.333 161.333 245 204 203C246.667 161 297 127.5 355 102.5C413 77.5 474 65 538 65C602 65 663.333 77.5 722 102.5C780.667 127.5 831 161 873 203C915 245 948.5 295.167 973.5 353.5C998.5 411.833 1011 473.333 1011 538ZM129 419C141 415 152.667 413 164 413C172 413 180 414 188 416C202.667 420 217 428.5 231 441.5C245 454.5 254.667 468 260 482C264 492 271.667 509.333 283 534C295 560 304.167 578.833 310.5 590.5C316.833 602.167 323.5 611.333 330.5 618C337.5 624.667 345.333 628 354 628C368 628 378.833 624.333 386.5 617C394.167 609.667 402 598.333 410 583L413 577C415 569.667 417 562.667 419 556C421.667 542 424.333 530.667 427 522C429.667 513.333 434.333 501.333 441 486C447.667 470.667 454.833 458.5 462.5 449.5C470.167 440.5 480.667 432.167 494 424.5C507.333 416.833 522 413 538 413C554 413 568.667 416.833 582 424.5C595.333 432.167 605.833 440.5 613.5 449.5C621.167 458.5 628.333 470.667 635 486C641.667 501.333 646.333 513.5 649 522.5C651.667 531.5 654.333 542.667 657 556C659 564 661.333 571 664 577L666 583C671.333 593.667 676 601.833 680 607.5C684 613.167 689.667 618 697 622C704.333 626 712.667 628 722 628C734 628 744.167 621.667 752.5 609C760.833 596.333 774.333 571.333 793 534C807 503.333 814.667 486.333 816 483C821.333 468.333 831 454.5 845 441.5C859 428.5 873.667 420 889 416C897 414 904.667 413 912 413C924 413 935.333 415 946 419C921.333 335 869.333 263 790 203C710.667 143 626.667 112.667 538 112C449.333 111.333 365.167 141 285.5 201C205.833 261 153.667 333.667 129 419ZM538 963C615.333 963 686.667 944 752 906C817.333 868 869 816.333 907 751C945 685.667 964 614.667 964 538C964 514.667 962 491.667 958 469L955 475C941.667 465 926.667 460 910 460C907.333 460 904 460.333 900 461C892 463.667 883.833 469.167 875.5 477.5C867.167 485.833 861.333 494.333 858 503C848 524.333 840.667 541 836 553C825.333 576.333 817.167 593.333 811.5 604C805.833 614.667 798.333 626.667 789 640C779.667 653.333 769.667 662.5 759 667.5C748.333 672.5 736 675 722 675C710.667 675 700 673.167 690 669.5C680 665.833 671.833 661.833 665.5 657.5C659.167 653.167 652.833 647.167 646.5 639.5C640.167 631.833 636 626 634 622L625 604L622 599C617.333 588.333 613.667 577.333 611 566C603.667 534 594.833 508.333 584.5 489C574.167 469.667 559.167 460 539.5 460C519.833 460 504.5 469.5 493.5 488.5C482.5 507.5 472.667 533.333 464 566C462.667 577.333 459.667 588.333 455 599L452 605C448 614.333 444 621.833 440 627.5C436 633.167 430.167 640.333 422.5 649C414.833 657.667 405.167 664.333 393.5 669C381.833 673.667 368.667 676 354 676C340.667 676 328.667 673.333 318 668C307.333 662.667 297.333 653.5 288 640.5C278.667 627.5 271.167 615.5 265.5 604.5C259.833 593.5 251.667 576.333 241 553C233.667 537 226 520.333 218 503C215.333 495 209.833 486.667 201.5 478C193.167 469.333 184.333 463.667 175 461C172.333 460.333 169.333 460 166 460C150 460 135.333 465 122 475L118 469C114.667 491.667 113 514.667 113 538C113 595.333 124.167 650.333 146.5 703C168.833 755.667 199 801 237 839C275 877 320.333 907.167 373 929.5C425.667 951.833 480.667 963 538 963Z" fill="black"/>
</svg>
