<svg viewBox="0 0 1223 1074.237" xmlns="http://www.w3.org/2000/svg"><path d="M587 96.237q28 0 48 19.5t20 47.5v318q-8-1-15.5-1.5t-14.5-.5q-3 0-6.5.5t-7.5.5v-317q0-10-7.5-16.5t-16.5-6.5H67q-10 0-16.5 6.5t-6.5 16.5v703q0 10 6.5 17t16.5 7h284q5 11 10.5 21.5t13.5 21.5H67q-27 0-47-19t-20-48v-703q0-28 20-47.5t47-19.5h520zm-260 328q52 0 95.5 23.5t71.5 63.5q-10 5-19.5 10.5t-18.5 11.5q-23-30-56.5-47.5t-72.5-17.5q-33 0-62.5 12.5t-51 34.5q-21.5 22-34.5 51.5t-13 62.5q0 33 13 62t35 51q22 22 51.5 34.5t62.5 12.5q2 23 6 44-45 0-83.5-16t-67-44q-28.5-28-44.5-65t-16-79q0-43 16-80t43.5-65q27.5-28 65-44t79.5-16zm0 150q18 0 32.5 10t19.5 26q-11 17-20 34.5t-15 35.5q-8 3-17 3-23 0-39-15.5t-16-38.5q0-23 16-39t39-16zm0-382q38 0 64.5 26t26.5 64q0 38-26.5 64.5t-64.5 26.5q-37 0-63.5-26.5t-26.5-64.5q0-38 26.5-64t63.5-26zm0 43q-19 0-33 13.5t-14 33.5q0 20 14 33.5t33 13.5q19 0 33-13.5t14-33.5q0-20-14-33.5t-33-13.5zm308 289q52 0 98.5 20t80.5 54q34 34 54 79.5t20 97.5q0 53-20 99t-54 80q-34 34-80.5 54t-98.5 20q-52 0-98-20t-80-54q-34-34-53.5-80t-19.5-99q0-52 19.5-97.5t53.5-79.5q34-34 80-54t98-20zm0 365q-14 0-23.5 9.5t-9.5 23.5q0 14 9.5 24t23.5 10q14 0 24-10t10-24q0-14-10-23.5t-24-9.5zm0-128q-59 0-107 37l36 44 2-3q31-23 69-23 41 0 73 26l35-44-3-3q-46-34-105-34zm0-126q-51 0-98 17t-87 49l35 44 5-4q31-23 68-36t77-13q87 0 151 53l36-44-5-4q-39-30-85-46t-97-16z"/></svg>