<svg width="1075" height="1075" viewBox="0 0 1075 1075" fill="none" xmlns="http://www.w3.org/2000/svg">
<path d="M681 72C699.667 72 715.667 78.5 729 91.5C742.333 104.5 749 120.333 749 139V457C743.667 456.333 738.5 455.833 733.5 455.5C728.5 455.167 723.667 455 719 455C717 455 714.833 455.167 712.5 455.5C710.167 455.833 707.667 456 705 456V139C705 132.333 702.5 126.833 697.5 122.5C692.5 118.167 687 116 681 116H161C154.333 116 148.833 118.167 144.5 122.5C140.167 126.833 138 132.333 138 139V842C138 848.667 140.167 854.333 144.5 859C148.833 863.667 154.333 866 161 866H445C448.333 873.333 451.833 880.5 455.5 887.5C459.167 894.5 463.667 901.667 469 909H161C143 909 127.333 902.667 114 890C100.667 877.333 94 861.333 94 842V139C94 120.333 100.667 104.5 114 91.5C127.333 78.5 143 72 161 72H681ZM421 400C455.667 400 487.5 407.833 516.5 423.5C545.5 439.167 569.333 460.333 588 487C581.333 490.333 574.833 493.833 568.5 497.5C562.167 501.167 556 505 550 509C534.667 489 515.833 473.167 493.5 461.5C471.167 449.833 447 444 421 444C399 444 378.167 448.167 358.5 456.5C338.833 464.833 321.833 476.333 307.5 491C293.167 505.667 281.667 522.833 273 542.5C264.333 562.167 260 583 260 605C260 627 264.333 647.667 273 667C281.667 686.333 293.333 703.333 308 718C322.667 732.667 339.833 744.167 359.5 752.5C379.167 760.833 400 765 422 765C423.333 780.333 425.333 795 428 809C398 809 370.167 803.667 344.5 793C318.833 782.333 296.5 767.667 277.5 749C258.5 730.333 243.667 708.667 233 684C222.333 659.333 217 633 217 605C217 576.333 222.333 549.667 233 525C243.667 500.333 258.167 478.667 276.5 460C294.833 441.333 316.5 426.667 341.5 416C366.5 405.333 393 400 421 400ZM421 550C433 550 443.833 553.333 453.5 560C463.167 566.667 469.667 575.333 473 586C465.667 597.333 459 608.833 453 620.5C447 632.167 442 644 438 656C432.667 658 427 659 421 659C405.667 659 392.667 653.833 382 643.5C371.333 633.167 366 620.333 366 605C366 589.667 371.333 576.667 382 566C392.667 555.333 405.667 550 421 550ZM421 168C446.333 168 467.833 176.667 485.5 194C503.167 211.333 512 232.667 512 258C512 283.333 503.167 304.833 485.5 322.5C467.833 340.167 446.333 349 421 349C396.333 349 375.167 340.167 357.5 322.5C339.833 304.833 331 283.333 331 258C331 232.667 339.833 211.333 357.5 194C375.167 176.667 396.333 168 421 168ZM421 211C408.333 211 397.333 215.5 388 224.5C378.667 233.5 374 244.667 374 258C374 271.333 378.667 282.5 388 291.5C397.333 300.5 408.333 305 421 305C433.667 305 444.667 300.5 454 291.5C463.333 282.5 468 271.333 468 258C468 244.667 463.333 233.5 454 224.5C444.667 215.5 433.667 211 421 211ZM729 500C763.667 500 796.5 506.667 827.5 520C858.5 533.333 885.333 551.333 908 574C930.667 596.667 948.667 623.167 962 653.5C975.333 683.833 982 716.333 982 751C982 786.333 975.333 819.333 962 850C948.667 880.667 930.667 907.333 908 930C885.333 952.667 858.5 970.667 827.5 984C796.5 997.333 763.667 1004 729 1004C694.333 1004 661.667 997.333 631 984C600.333 970.667 573.667 952.667 551 930C528.333 907.333 510.5 880.667 497.5 850C484.5 819.333 478 786.333 478 751C478 716.333 484.5 683.833 497.5 653.5C510.5 623.167 528.333 596.667 551 574C573.667 551.333 600.333 533.333 631 520C661.667 506.667 694.333 500 729 500ZM729 865C719.667 865 711.833 868.167 705.5 874.5C699.167 880.833 696 888.667 696 898C696 907.333 699.167 915.333 705.5 922C711.833 928.667 719.667 932 729 932C738.333 932 746.333 928.667 753 922C759.667 915.333 763 907.333 763 898C763 888.667 759.667 880.833 753 874.5C746.333 868.167 738.333 865 729 865ZM729 737C689.667 737 654 749.333 622 774L658 818L660 815C680.667 799.667 703.667 792 729 792C756.333 792 780.667 800.667 802 818L837 774L834 771C803.333 748.333 768.333 737 729 737ZM729 611C695 611 662.333 616.667 631 628C599.667 639.333 570.667 655.667 544 677L579 721L584 717C604.667 701.667 627.333 689.667 652 681C676.667 672.333 702.333 668 729 668C787 668 837.333 685.667 880 721L916 677L911 673C885 653 856.667 637.667 826 627C795.333 616.333 763 611 729 611Z" fill="black"/>
</svg>
