<svg width="1075" height="1075" viewBox="0 0 1075 1075" fill="none" xmlns="http://www.w3.org/2000/svg">
<path d="M475 660.1V415.1L658 538.1L475 660.1ZM924 282.1C931.333 303.433 938.167 340.267 944.5 392.6C950.833 444.933 954 489.433 954 526.1V549.1C954 572.433 952.667 600.433 950 633.1C947.333 665.767 943.667 697.1 939 727.1C934.333 757.1 929.333 779.1 924 793.1C916 815.1 906 831.1 894 841.1C882 851.1 863.333 857.767 838 861.1C804 867.1 709.667 870.1 555 870.1H521C365.667 870.1 271.333 867.1 238 861.1C212 856.433 193 849.433 181 840.1C169 830.767 159.333 815.1 152 793.1C144.667 771.767 137.833 734.767 131.5 682.1C125.167 629.433 122 585.1 122 549.1V526.1C122 489.433 125.167 444.767 131.5 392.1C137.833 339.433 144.667 302.767 152 282.1C160 260.1 170 244.267 182 234.6C194 224.933 212.667 217.767 238 213.1C272 207.1 366.333 204.433 521 205.1H555C710.333 205.1 804.667 207.767 838 213.1C864 217.767 882.833 224.933 894.5 234.6C906.167 244.267 916 260.1 924 282.1ZM905 549.1V526.1C905 491.433 902.167 449.1 896.5 399.1C890.833 349.1 884.667 315.433 878 298.1L872 283.1C870.667 279.767 868.333 276.433 865 273.1C861.667 269.767 857.333 267.433 852 266.1C846.667 264.767 839.333 263.1 830 261.1C798.667 255.767 707 253.1 555 253.1H521C368.333 253.1 276.667 255.767 246 261.1C234 263.1 225 265.6 219 268.6C213 271.6 208.5 274.933 205.5 278.6C202.5 282.267 200 288.767 198 298.1C194 309.433 189.833 328.767 185.5 356.1C181.167 383.433 177.667 412.933 175 444.6C172.333 476.267 171 503.433 171 526.1V549.1C171 571.767 172.333 598.933 175 630.6C177.667 662.267 181.167 691.767 185.5 719.1C189.833 746.433 194 765.767 198 777.1C202.667 789.767 207.5 798.267 212.5 802.6C217.5 806.933 228.667 810.433 246 813.1C277.333 818.433 369 821.1 521 821.1H555C707 821.1 798.667 818.433 830 813.1C847.333 809.767 858.667 806.1 864 802.1C869.333 798.1 874 789.767 878 777.1C884 759.1 890 725.267 896 675.6C902 625.933 905 583.767 905 549.1ZM475 660.1V415.1L658 538.1L475 660.1Z" fill="black"/>
</svg>
