<svg viewBox="0 0 1195 1074.237" xmlns="http://www.w3.org/2000/svg"><path d="M353 700.237v-245l183 123-183 122zm449-378q11 32 20.5 110.5t9.5 133.5v23q0 35-4 84t-11 94q-7 45-15 66-12 33-30 48t-56 20q-51 9-283 9h-34q-233 0-283-9-39-7-57-21t-29-47q-11-32-20.5-111t-9.5-133v-23q0-55 9.5-134t20.5-110q12-33 30-47.5t56-21.5q51-9 283-8h34q233 0 283 8 39 7 56.5 21.5t29.5 47.5zm-19 267v-23q0-52-8.5-127t-18.5-101l-6-15q-2-5-7-10t-13-7q-8-2-22-5-47-8-275-8h-34q-229 0-275 8-18 3-27 7.5t-13.5 10q-4.5 5.5-7.5 19.5-6 17-12.5 58t-10.5 88.5q-4 47.5-4 81.5v23q0 34 4 81.5t10.5 88.5q6.5 41 12.5 58 7 19 14.5 25.5t33.5 10.5q47 8 275 8h34q228 0 275-8 26-5 34-11t14-25q9-27 18-101.5t9-126.5zm-430 111v-245l183 123-183 122z"/></svg>