<svg width="1075" height="1075" viewBox="0 0 1075 1075" fill="none" xmlns="http://www.w3.org/2000/svg">
<path d="M969 930L930 968L663 700C637 722.667 602.5 741.833 559.5 757.5C516.5 773.167 477.667 781 443 781C381.667 781 325.333 766.167 274 736.5C222.667 706.833 182 666 152 614C122 562 107 505.667 107 445C107 399.667 115.833 356.167 133.5 314.5C151.167 272.833 175.167 236.833 205.5 206.5C235.833 176.167 271.667 152.167 313 134.5C354.333 116.833 397.667 108 443 108C504.333 108 561 123 613 153C665 183 705.833 223.833 735.5 275.5C765.167 327.167 780 383.667 780 445C780 479.667 772.333 518.167 757 560.5C741.667 602.833 723 637 701 663L969 930ZM444 727C522 727 588.833 699.333 644.5 644C700.167 588.667 728 522.333 728 445V444C728 366 700.167 299.167 644.5 243.5C588.833 187.833 522 160 444 160C366 160 299.333 187.833 244 243.5C188.667 299.167 161 366 161 444C161 495.333 173.667 542.5 199 585.5C224.333 628.5 258.667 662.833 302 688.5C345.333 714.167 392.667 727 444 727ZM471 269V417H619V472H471V619H417V472H269V417H417V269H471Z" fill="black"/>
</svg>
