<svg width="1075" height="1075" viewBox="0 0 1075 1075" fill="none" xmlns="http://www.w3.org/2000/svg">
<path d="M230 931C218 931 206.833 928.667 196.5 924C186.167 919.333 177 913.167 169 905.5C161 897.833 154.833 888.833 150.5 878.5C146.167 868.167 144 857 144 845V230C144 206 152.333 185.667 169 169C185.667 152.333 206 144 230 144H845C857 144 868.167 146.167 878.5 150.5C888.833 154.833 897.833 161 905.5 169C913.167 177 919.333 186.167 924 196.5C928.667 206.833 931 218 931 230V845C931 857 928.667 868.167 924 878.5C919.333 888.833 913.167 897.833 905.5 905.5C897.833 913.167 888.833 919.333 878.5 924C868.167 928.667 857 931 845 931H230ZM230 200C221.333 200 214.167 202.833 208.5 208.5C202.833 214.167 200 221.333 200 230V845C200 853 202.833 860 208.5 866C214.167 872 221.333 875 230 875H845C853 875 860 872 866 866C872 860 875 853 875 845V230C875 221.333 872 214.167 866 208.5C860 202.833 853 200 845 200H230ZM330 785L288 746L745 288L786 329L330 785ZM526 423H426V524H370V423H269V367H370V267H426V367H526V423ZM788 711H532V655H788V711Z" fill="black"/>
</svg>
