<svg viewBox="0 0 1227 1074.237" xmlns="http://www.w3.org/2000/svg"><path d="M390 894.237q0-24 17-41t41-17q24 0 41 17t17 41q0 24-17 41.5t-40.5 17.5q-23.5 0-41-17.5t-17.5-41.5zm58-623h-2q-93 0-209.5 41.5T48 412.237l-48-60q81-65 212.5-111.5t236.5-46.5q104 0 235 45.5t212 111.5l-48 60q-72-58-188-99t-209-41h-3zm315 249l-49 60q-48-39-126-66.5t-140-27.5q-62 0-140 27.5t-126 66.5l-48-60q57-46 149-78t165-32q73 0 165.5 32t149.5 78zm-135 168l-49 60q-23-19-61.5-33t-70-14q-31.5 0-69.5 14t-62 33l-48-60q33-26 85.5-45t94.5-19q42 0 94.5 19t85.5 45z"/></svg>