<svg viewBox="0 0 1000 1074.237" xmlns="http://www.w3.org/2000/svg"><path d="M177 804.237q16 0 29 8t21 21q8 13 8 29 0 24-17 41t-41 17q-24 0-41-17t-17-40.5q0-23.5 17-41t41-17.5zm466-73v67h71v174q0 15-8.5 29.5t-21.5 20.5q-27 12-66.5 21t-69.5 9h-2q-19 0-43-4t-47.5-10.5q-23.5-6.5-41.5-15.5-8-4-16.5-12.5t-12.5-19q-4-10.5-4-20.5v-172h70v-67q1-25 14-46.5t35-34q22-12.5 47-12.5t46.5 12.5q21.5 12.5 35 34t14.5 46.5zm-154 0v67h115v-67q-1-23-18-39t-39.5-16q-22.5 0-39.5 16t-18 39zm84 203v-57h-52v57h52z"/></svg>