<svg viewBox="0 0 1272 1074.237" xmlns="http://www.w3.org/2000/svg"><path d="M449 804.237q16 0 29 8t21 21q8 13 8 29 0 24-17 41t-41 17q-24 0-41-17t-17-40.5q0-23.5 17-41t41-17.5zm401-424q-73-58-190-99.5t-211-41.5q-94 0-211.5 41.5T48 380.237l-48-60q81-65 213-111.5t236-46.5q104 0 235.5 46.5t212.5 111.5l-47 60zm-135 169q-48-39-126-66.5t-139.5-27.5q-61.5 0-140 27.5t-126.5 66.5l-49-60q58-46 150-78.5t164.5-32.5q72.5 0 165 32t150.5 79l-49 60zm-446 107q33-26 85.5-44t94.5-18q27 0 61 8t65.5 22.5q31.5 14.5 53.5 31.5l-49 60q-24-19-62.5-32t-69-13q-30.5 0-69 13t-62.5 32l-48-60zm646 75v67h71v174q0 15-8.5 29.5t-21.5 20.5q-27 12-66.5 21t-69.5 9h-2q-19 0-43-4t-47.5-10.5q-23.5-6.5-41.5-15.5-8-4-16.5-12.5t-12.5-19q-4-10.5-4-20.5v-172h70v-67q1-25 14-46.5t35-34q22-12.5 47-12.5t46.5 12.5q21.5 12.5 35 34t14.5 46.5zm-154 0v67h115v-67q-1-23-18-39t-39.5-16q-22.5 0-39.5 16t-18 39zm84 203v-57h-52v57h52z"/></svg>