<svg viewBox="0 0 1243 1074.237" xmlns="http://www.w3.org/2000/svg"><path d="M464 137.237q63 0 123.5 16.5t111.5 46.5q51 30 94 73.5t73 94.5q30 51 46.5 111t16.5 125q0 68-30.5 153.5t-73.5 138.5l-42-34q17-20 31-42l-72-41 14-23 71 40q18-35 32.5-88t16.5-93h-84v-27h84q-1-40-16-93t-33-88l-71 43-14-24 72-41q-14-22-36.5-47t-48.5-48q-26-23-48-37l-42 71-23-14 42-70q-35-19-87.5-33.5t-92.5-14.5v81h-28v-83q-40 1-92.5 15.5t-87.5 33.5l42 70-24 14-42-70q-77 47-133.5 146t-60.5 190h83v28H54q1 39 15 92t32 88l71-42 14 23-71 42q15 22 30 42l-42 35q-43-54-73-140.5t-30-154.5q0-95 36-180.5t98.5-148.5q62.5-63 148.5-99.5t181-36.5zm-1 560q-14 0-27-4-27-8-47-34.5t-20-56.5q0-15 5-28l-213-122q-6-6-6-15.5t6-15q6-5.5 15-5.5h6l213 123q12-12 32-22t38-10q39 0 67 28t28 67q0 39-28 67t-67 28h-2zm1-148v-1q-22 0-38.5 16t-16.5 38v2q0 23 16.5 38.5t38.5 15.5q22 0 38-16t16-38.5q0-22.5-16-38.5t-38-16zm148 243q20 0 34 13.5t14 33.5v81q0 19-14 32.5t-34 13.5H316q-20 0-34-13.5t-14-32.5v-81q0-20 14-33.5t34-13.5h296zm7 128v-81q0-6-7-7H316q-7 0-8 7v81q0 6 8 6h296q7 0 7-6z"/></svg>