<svg viewBox="0 0 1243 1074.237" xmlns="http://www.w3.org/2000/svg"><path d="M464 137.237q63 0 123.5 16.5t111.5 46.5q51 30 94 73.5t73 94.5q30 51 46.5 111t16.5 125q0 68-30.5 153.5t-73.5 138.5l-42-34q17-20 31-42l-72-41 14-23 71 40q18-35 32.5-88t16.5-93h-84v-27h84q-1-40-16-93t-33-88l-71 43-14-24 72-41q-14-22-36.5-47t-48.5-48q-26-23-48-37l-42 71-23-14 42-70q-24-14-59.5-25t-71-18q-35.5-7-63.5-7-43 0-99.5 14.5t-94.5 35.5l42 70-24 14-42-71q-33 21-71.5 60t-59.5 72l71 42-14 23-71-42q-19 35-33 88t-16 93h83v28H54q1 39 15 92t32 88l71-42 14 23-71 42q15 22 30 42l-42 35q-43-54-73-140.5t-30-154.5q0-95 36-180.5t98.5-148.5q62.5-63 148.5-99.5t181-36.5zm0 108h-2q9 0 15 5.5t6 14.5v245q32 6 53.5 34t21.5 60q0 39-28 66.5t-67 27.5q-39 0-67-28t-28-66q0-21 10-41t27.5-34q17.5-14 37.5-19v-245q0-8 6.5-14t14.5-6zm54 357q0-15-7.5-27t-19.5-19.5q-12-7.5-27-7.5-22 0-38.5 16t-16.5 38.5q0 22.5 16.5 38.5t38.5 16q22 0 38-16t16-37v-2zm94 190q20 0 34 13.5t14 33.5v81q0 19-14 32.5t-34 13.5H316q-20 0-34-13.5t-14-32.5v-81q0-20 14-33.5t34-13.5h296zm7 128v-81q0-6-7-7H316q-7 0-8 7v81q0 6 8 6h296q7 0 7-6z"/></svg>