<svg viewBox="0 0 1243 1074.237" xmlns="http://www.w3.org/2000/svg"><path d="M464 137.237q63 0 123.5 16.5t111.5 46.5q51 30 94 73.5t73 94.5q30 51 46.5 111t16.5 125q0 68-30.5 153.5t-73.5 138.5l-42-34q17-20 31-42l-72-41 14-23 71 41q18-35 32.5-87.5t16.5-92.5h-84v-28h83q-2-91-59-189.5t-135-146.5l-42 71-23-14 42-70q-35-19-87.5-33.5t-92.5-14.5v82h-28v-82q-40 1-92.5 15t-87.5 33l42 70-24 14-42-71q-33 21-71.5 60t-59.5 72l71 42-14 23-71-42q-19 35-33 88t-16 93h83v28H54q1 39 15 92t32 88l71-42 14 23-71 42q15 22 30 42l-42 35q-43-54-73-140.5t-30-154.5q0-95 36-180.5t98.5-148.5q62.5-63 148.5-99.5t181-36.5zm310 286q3 5 3 11 0 12-11 18l-211 122q4 14 4 28v2q0 39-27.5 66t-67.5 27q-25 0-46.5-12.5t-34.5-34.5q-13-22-13-46 0-39 27.5-67.5t66.5-28.5q18 0 38.5 9.5t32.5 21.5l211-123q4-2 10-2 12 0 18 9zm-256 179q0-22-16-38t-38-16q-22 0-38.5 16t-16.5 38q0 22 16.5 38.5t38.5 16.5q22 0 38-16t16-39zm94 190q20 0 34 13.5t14 33.5v81q0 19-14 32.5t-34 13.5H316q-20 0-34-13.5t-14-32.5v-81q0-20 14-33.5t34-13.5h296zm7 128v-81q0-6-7-7H316q-7 0-8 7v81q0 6 8 6h296q7 0 7-6z"/></svg>