<svg viewBox="0 0 1287 1074.237" xmlns="http://www.w3.org/2000/svg"><path d="M937 652.237q35 0 57 22t22 57v138q0 32-22 56t-57 24H341q-35 0-56.5-22.5t-21.5-57.5v-59q-18 3-36 3-46 0-87-16.5t-72-46.5q-31-30-49.5-71.5T0 587.237q0-42 14.5-80.5t40-68.5q25.5-30 60-50t74.5-26q17-35 43.5-64.5t59.5-50.5q33-21 71-32.5t80-11.5q48 0 91.5 14t80 39.5q36.5 25.5 64 61t41.5 79.5q40 5 74.5 25t60 50.5q25.5 30.5 40.5 68.5t15 80q0 15-3 31h30zm-81-31q0-37-12-69.5t-35-56.5q-23-24-56-38t-75-15q-8-40-28.5-74t-50.5-59q-30-25-69-39t-83-14q-78 0-137.5 40t-85.5 109q-36 2-68 17t-55.5 39.5q-23.5 24.5-37.5 56.5t-14 69q0 38 13 70.5t37 56q24 23.5 56.5 37t71.5 13.5q19 0 36-2v-31q0-35 21.5-57t56.5-22h513q2-15 2-31zm112 110q0-13-8.5-23t-22.5-10H341q-13 0-21 10t-8 23v138q0 14 8 24t21 10h596q14 0 22.5-10t8.5-24v-138zm-578 91q-8 0-15.5-6t-7.5-17q0-11 8-17t15-6h391q7 0 15 6t8 17q0 11-7.5 17t-15.5 6H390zm17-257v-166l127 83-127 83zm479 208q11 0 18.5 8t7.5 19q0 12-7.5 20t-18.5 8q-10 0-18-8t-8-20q0-11 8-19t18-8z"/></svg>