<svg viewBox="0 0 1194 1074.237" xmlns="http://www.w3.org/2000/svg"><path d="M147 919.237q-18 0-34-9l-64 64q-7 7-17 7-9 0-16-7l-9-9q-7-7-7-16 0-10 7-17l63-64q-8-18-8-36t7-33l63-136q-7-16-7-29 0-24 18-42l422-422q17-17 42-17 12 0 23.5 4t20.5 13l160 160q18 18 18 43t-18 43l-422 422q-18 18-44 18-13 0-27-7l-136 62q-15 8-35 8zm29-292q-4 4-4 8t3 7l163 164q3 3 7 3 5 0 9-4l423-423q4-4 4-8 0-3-4-7l-162-162q-4-4-8-4-5 0-9 4l-422 422zm-10 75l-53 117q-3 6-3 13 0 13 10 26 10 14 25 14 7 0 17-4l117-53-113-113z"/></svg>