<svg viewBox="0 0 1269 1074.237" xmlns="http://www.w3.org/2000/svg"><path d="M530 573.237l-73 96 40 52v90l-222-288-217 281v69h384q-17 11-32 25.5t-23 30.5H54q-23 0-38.5-15.5T0 875.237v-675q0-23 15.5-38.5t38.5-15.5h729q22 0 38 15.5t16 38.5v339l-58 11v-348H58v512l217-282 147 191 109-140 72 97-59 11-14-18zm419 387q-1 19-9.5 33.5t-21.5 24.5q-13 10-29.5 15t-33.5 5q-17 0-34-5.5t-30-15.5q-13-10-21-24.5t-8-32.5q0-18 7.5-32.5t20-25q12.5-10.5 29.5-16t36-5.5q8 0 17.5 1t18.5 4v-233l-267 48v294q0 18-8.5 33t-22 25q-13.5 10-30 15.5t-32.5 5.5q-17 0-34-5.5t-30-16q-13-10.5-21-25t-8-32.5q0-35 26-56.5t67-21.5q9 0 18 1t17 5v-268l383-69v374z"/></svg>