<svg viewBox="0 0 1206.0004 1074.237" xmlns="http://www.w3.org/2000/svg"><path d="M425 221.237q36-31 79-45.5t88-14.5q50 0 97 19t85 57q38 38 57 86t19 99q0 44-15 86.5t-45 77.5q31 37 46 80.5t14 88.5q-1 49-20 95t-56 84q-29 30-63.5 50.5t-76.5 20.5q-38 0-68-14.5t-50-40.5q-14-18-19.5-42t-2.5-49q3-25 14-49t29-42l181-182-293-293-293 293 181 182q18 18 29 42t14 49q3 25-2.5 49t-19.5 42q-20 26-50 40.5t-68 14.5q-42 0-76.5-20.5t-63.5-50.5q-37-38-56-84t-20-95q-1-45 14-88.5t46-80.5q-30-35-45-77.5t-15-86.5q0-51 19-99t57-86q38-38 85-57t97-19q45 0 88 14.5t79 45.5zm-133 689q13-23 8.5-53t-24.5-50l-184-182q-21 29-30.5 64.5t-6.5 71.5q3 36 18 70.5t44 62.5q20 20 45.5 37t57.5 17q28 0 46-12t26-26zm93-657q-29-21-64-30.5t-71-6.5q-36 3-70.5 18.5t-62.5 43.5q-28 28-43 62t-18 70q-3 36 6 71t30 65l293-293zm173 657q8 14 26 26t46 12q32 0 57.5-17t45.5-37q29-28 44-62.5t18-70.5q3-36-6.5-71.5t-30.5-64.5l-184 182q-20 20-24.5 50t8.5 53zm200-364q21-30 30-65t6-71q-3-36-18-70t-43-62q-28-28-62.5-43.5t-70.5-18.5q-36-3-71 6.5t-64 30.5l293 293z"/></svg>