<svg viewBox="0 0 1149 1074.237" xmlns="http://www.w3.org/2000/svg"><path d="M369 1039.237q-60 0-95-36.5t-35-93.5v-4H67q-28 0-47.5-18.5T0 842.237q0-22 13-42l35-47v-317q0-64 25.5-120t69-98q43.5-42 102-66.5t124.5-24.5q66 0 124.5 24.5t102 66.5q43.5 42 69 98t25.5 120v317l35 47q13 20 13 42 0 26-19.5 44.5t-47.5 18.5H499v4q0 57-35 93.5t-95 36.5zm0-857q-59 0-108 21.5t-84 57q-35 35.5-54.5 81.5t-19.5 94v324q0 10-7 20l-38 53q-4 5-1.5 11t10.5 6h604q8 0 10.5-6t-1.5-11l-38-53q-7-10-7-20v-324q0-48-19.5-94t-54.5-81.5q-35-35.5-84-57t-108-21.5zm0 802q35 0 55-20t20-55v-4H294v4q0 35 20 55t55 20z"/></svg>