<svg viewBox="0 0 1247 1074.237" xmlns="http://www.w3.org/2000/svg"><path d="M468 1035.237q-97 0-182-37t-148.5-100.5Q74 834.237 37 749.237t-37-182q0-97 37-182t100.5-148.5q63.5-63.5 148.5-100.5t182-37q97 0 182 37t148.5 100.5q63.5 63.5 100.5 148.5t37 182q0 97-37 182t-100.5 148.5q-63.5 63.5-148.5 100.5t-182 37zm0-882q-86 0-161 32.5t-131.5 89q-56.5 56.5-89 132T54 567.237q0 86 32.5 161t89 131.5q56.5 56.5 131.5 89t161 32.5q85 0 160.5-32.5t132-89q56.5-56.5 89-131.5t32.5-161q0-85-32.5-160.5t-89-132q-56.5-56.5-132-89t-160.5-32.5zm334 442h-63q-4 41-19 78-21 50-58.5 87.5t-87.5 58.5q-37 15-77 19v63h-57v-63q-41-4-78-19-50-21-87.5-58.5t-58.5-87.5q-15-37-19-78h-63v-57h63q4-40 19-77 21-50 58.5-87.5t87.5-58.5q37-15 78-19v-63h57v63q40 4 77 19 50 21 87.5 58.5t58.5 87.5q15 37 19 77h63v57zm-464 0h-88q5 29 17 56 18 41 47 70t70 47q27 12 56 17v-88h57v87q28-4 55-16 41-18 70-47t47-70q12-27 16-56h-87v-57h87q-4-28-16-55-18-41-47-70t-70-47q-27-12-55-16v87h-57v-87q-29 4-56 16-41 18-70 47t-47 70q-12 27-16 55h87v57z"/></svg>